<svg width="22" height="22" viewBox="0 0 22 22" fill="none" xmlns="http://www.w3.org/2000/svg">
<rect opacity="0.6" width="22" height="22" rx="5" fill="white"/>
<path opacity="0.3" d="M11.0086 13C7.89757 13 4.76606 14.4436 4.12066 17.0092C3.98592 17.5448 4.44772 18 5 18H17C17.5523 18 18.0141 17.5449 17.8799 17.0091C17.2374 14.4436 14.1196 13 11.0086 13Z" fill="#737480"/>
<path d="M10.1404 19L11.8596 19C12.1849 19 12.4236 18.6943 12.3447 18.3787L11.5947 15.3787C11.539 15.1561 11.339 15 11.1096 15L10.8904 15C10.661 15 10.461 15.1561 10.4053 15.3787L9.65532 18.3787C9.57642 18.6943 9.8151 19 10.1404 19Z" fill="#22232B"/>
<rect x="7.5" y="3" width="7" height="9" rx="3.5" fill="#22232B"/>
</svg>
