<svg width="28" height="11" viewBox="0 0 28 11" fill="none" xmlns="http://www.w3.org/2000/svg">
<path d="M28 2C28 0.895431 27.1046 0 26 0H5C2.23858 0 0 2.23858 0 5V9C0 10.1046 0.895432 11 2 11H23C25.7614 11 28 8.76142 28 6V2Z" fill="#18C19F" fill-opacity="0.2"/>
<path d="M4.688 2.336H6.64C6.85333 2.336 7.06667 2.36 7.28 2.408C7.49333 2.456 7.68267 2.536 7.848 2.648C8.01867 2.76 8.15467 2.90667 8.256 3.088C8.36267 3.26933 8.416 3.496 8.416 3.768C8.416 4.08267 8.32533 4.34667 8.144 4.56C7.96267 4.77333 7.72267 4.92 7.424 5V5.016C7.60533 5.03733 7.77333 5.08533 7.928 5.16C8.08267 5.22933 8.216 5.32267 8.328 5.44C8.44 5.55733 8.52533 5.696 8.584 5.856C8.648 6.016 8.68 6.19467 8.68 6.392C8.68 6.664 8.624 6.90133 8.512 7.104C8.4 7.30667 8.248 7.47467 8.056 7.608C7.864 7.736 7.63733 7.83467 7.376 7.904C7.12 7.968 6.84533 8 6.552 8H4.688V2.336ZM5.48 4.728H6.512C6.66133 4.728 6.80267 4.712 6.936 4.68C7.07467 4.64267 7.19467 4.58933 7.296 4.52C7.39733 4.44533 7.47733 4.35467 7.536 4.248C7.59467 4.136 7.624 4.00267 7.624 3.848C7.624 3.544 7.512 3.328 7.288 3.2C7.064 3.06667 6.76267 3 6.384 3H5.48V4.728ZM5.48 7.328H6.472C6.63733 7.328 6.80267 7.31467 6.968 7.288C7.13867 7.256 7.29067 7.20267 7.424 7.128C7.56267 7.05333 7.672 6.95467 7.752 6.832C7.83733 6.704 7.88 6.544 7.88 6.352C7.88 6.016 7.76533 5.77333 7.536 5.624C7.30667 5.47467 6.976 5.4 6.544 5.4H5.48V7.328ZM10.6128 7.296H13.5728V8H9.82081V2.336H13.4528V3.032H10.6128V4.728H13.2848V5.408H10.6128V7.296ZM16.6095 8H15.8175V3.032H14.0015V2.336H18.4255V3.032H16.6095V8ZM18.9356 8H18.0556L20.5116 2.336H21.2316L23.6636 8H22.7676L22.1916 6.608H19.5036L18.9356 8ZM19.7836 5.912H21.9036L20.8476 3.256L19.7836 5.912Z" fill="#18C19F"/>
</svg>
