<svg width="12" height="12" viewBox="0 0 12 12" fill="none" xmlns="http://www.w3.org/2000/svg">
<path fill-rule="evenodd" clip-rule="evenodd" d="M4.62537 0.245422C4.18354 0.245422 3.82537 0.603594 3.82537 1.04542V2.36174H4.82537V1.24542H10.7555V8.25003H9.52293V9.25003H10.9555C11.3973 9.25003 11.7555 8.89186 11.7555 8.45003V1.04542C11.7555 0.603594 11.3973 0.245422 10.9555 0.245422H4.62537ZM1.16684 10.8335V4.2132H7.48294V10.8335H1.16684ZM0.16684 3.7132C0.16684 3.43705 0.390697 3.2132 0.66684 3.2132H7.98294C8.25909 3.2132 8.48294 3.43705 8.48294 3.7132V11.3335C8.48294 11.6097 8.25909 11.8335 7.98294 11.8335H0.66684C0.390697 11.8335 0.16684 11.6097 0.16684 11.3335V3.7132Z" fill="#B3B4B7"/>
</svg>
