<svg width="12" height="12" viewBox="0 0 12 12" fill="none" xmlns="http://www.w3.org/2000/svg">
<path fill-rule="evenodd" clipRule="evenodd" d="M4.86445 0.99585C4.42263 0.99585 4.06445 1.35402 4.06445 1.79585V2.88126H5.06445V1.99585H10.0045V7.85695H9.01951V8.85695H10.2045C10.6464 8.85695 11.0045 8.49878 11.0045 8.05695V1.79585C11.0045 1.35402 10.6464 0.99585 10.2045 0.99585H4.86445ZM2 9.99987V4.611H7.12809V9.99987H2ZM1 4.111C1 3.83485 1.22386 3.611 1.5 3.611H7.62809C7.90423 3.611 8.12809 3.83485 8.12809 4.111V10.4999C8.12809 10.776 7.90423 10.9999 7.62809 10.9999H1.5C1.22386 10.9999 1 10.776 1 10.4999V4.111Z" fill="#22232B"/>
</svg>
