
<svg width="20" height="20" viewBox="0 0 20 20" fill="none" xmlns="http://www.w3.org/2000/svg">
<path
    fill="#fff"
    d="M8.52576 15.8354C8.51638 15.8354 7.53436 15.8289 6.55235 15.3113C5.52655 14.7709 4.90731 13.8828 4.70403 12.6646H5.06369C5.18253 12.6646 5.25759 12.532 5.20129 12.4252L4.24742 10.6376C4.188 10.526 4.0332 10.526 3.97377 10.6376L3.01991 12.4252C2.96205 12.5336 3.03711 12.6646 3.15751 12.6646H3.56564C3.84242 14.7499 5.02772 15.8144 6.04101 16.3482C7.26227 16.9921 8.47572 17.0002 8.52576 17.0002C8.83694 17.0002 9.0887 16.7397 9.0887 16.4178C9.0887 16.0959 8.83694 15.8354 8.52576 15.8354ZM16.8432 7.33899H16.435C16.1567 5.25209 14.973 4.18923 13.9581 3.65537C12.7369 3.01151 11.5234 3.00342 11.4734 3.00342C11.1622 3.00342 10.9104 3.26388 10.9104 3.58581C10.9104 3.90774 11.1622 4.1682 11.4734 4.1682C11.4828 4.1682 12.4648 4.17467 13.4468 4.69235C14.4726 5.23268 15.0918 6.12082 15.2951 7.33899H14.9354C14.8166 7.33899 14.7415 7.47164 14.7978 7.57841L15.7517 9.36602C15.8111 9.47765 15.9659 9.47765 16.0254 9.36602L16.9792 7.57841C17.0386 7.47164 16.9636 7.33899 16.8432 7.33899Z"
/>
<path
    fill="#fff"
    d="M3.62402 3.33594H5.63202C6.00002 3.33594 6.37069 3.38394 6.74402 3.47994C7.11736 3.57594 7.45336 3.73594 7.75202 3.95994C8.05069 4.1786 8.29336 4.46927 8.48002 4.83194C8.66669 5.18927 8.76002 5.6346 8.76002 6.16794C8.76002 6.66394 8.66669 7.0906 8.48002 7.44794C8.29336 7.80527 8.05069 8.0986 7.75202 8.32794C7.45336 8.55727 7.11736 8.72794 6.74402 8.83994C6.37069 8.9466 6.00002 8.99994 5.63202 8.99994H3.62402V3.33594ZM5.47202 8.11994C5.73336 8.11994 5.99469 8.0906 6.25602 8.03194C6.51736 7.96794 6.75202 7.86394 6.96002 7.71994C7.17336 7.5706 7.34669 7.3706 7.48002 7.11994C7.61336 6.86927 7.68002 6.55194 7.68002 6.16794C7.68002 5.7626 7.61336 5.43194 7.48002 5.17594C7.34669 4.91994 7.17336 4.71994 6.96002 4.57594C6.75202 4.43194 6.51736 4.33327 6.25602 4.27994C5.99469 4.2266 5.73336 4.19994 5.47202 4.19994H4.63202V8.11994H5.47202Z"
/>
<path
    fill="#fff"
    d="M11.624 11.3359H12.632V13.6239H15.28V11.3359H16.288V16.9999H15.28V14.4879H12.632V16.9999H11.624V11.3359Z"
/>
</svg>