<svg width="14" height="14" viewBox="0 0 14 14" fill="none" xmlns="http://www.w3.org/2000/svg">
<path opacity="0.3" fill-rule="evenodd" clip-rule="evenodd" d="M6.99718 12.4446C10.0041 12.4446 12.4416 10.007 12.4416 7.00011C12.4416 3.99322 10.0041 1.55566 6.99718 1.55566C3.9903 1.55566 1.55273 3.99322 1.55273 7.00011C1.55273 10.007 3.9903 12.4446 6.99718 12.4446ZM6.79719 4.2779C6.63151 4.2779 6.49719 4.41221 6.49719 4.5779V7.68068V7.88068C6.49719 8.04636 6.63151 8.18068 6.79719 8.18068H6.99719H9.41941C9.5851 8.18068 9.71941 8.04636 9.71941 7.88068V7.48068C9.71941 7.31499 9.5851 7.18068 9.41941 7.18068H7.79719C7.63151 7.18068 7.49719 7.04636 7.49719 6.88068V4.5779C7.49719 4.41221 7.36288 4.2779 7.19719 4.2779H6.79719Z" fill="#22232B"/>
</svg>
