<svg width="30" height="30" viewBox="0 0 30 30" fill="none" xmlns="http://www.w3.org/2000/svg">
<path d="M15 30C23.2843 30 30 23.2843 30 15C30 6.71573 23.2843 0 15 0C6.71573 0 0 6.71573 0 15C0 23.2843 6.71573 30 15 30Z" fill="#F3F3F3"/>
<path d="M15.4668 3.75V12.0656L22.4952 15.2063L15.4668 3.75Z" fill="#313131"/>
<path d="M15.4669 3.75L8.4375 15.2063L15.4669 12.0656V3.75Z" fill="#858585"/>
<path d="M15.4668 20.595V26.2453L22.4999 16.515L15.4668 20.595Z" fill="#313131"/>
<path d="M15.4669 26.2453V20.5941L8.4375 16.515L15.4669 26.2453Z" fill="#868686"/>
<path d="M15.4668 19.2872L22.4952 15.2063L15.4668 12.0676V19.2872Z" fill="#141414"/>
<path d="M8.4375 15.2063L15.4669 19.2872V12.0676L8.4375 15.2063Z" fill="#363636"/>
</svg>
