<svg width="12" height="14" viewBox="0 0 12 14" fill="none" xmlns="http://www.w3.org/2000/svg">
<path fill-rule="evenodd" clipRule="evenodd" d="M6.00073 13.5C9.31444 13.5 12.0007 10.8137 12.0007 7.5C12.0007 4.18629 9.31444 1.5 6.00073 1.5C2.68702 1.5 0.000732422 4.18629 0.000732422 7.5C0.000732422 10.8137 2.68702 13.5 6.00073 13.5ZM6.21892 10.5C6.52016 10.5 6.76437 10.2558 6.76437 9.95455C6.76437 9.6533 6.52016 9.40909 6.21892 9.40909H6.00073C5.69949 9.40909 5.45528 9.6533 5.45528 9.95455C5.45528 10.2558 5.69949 10.5 6.00073 10.5H6.21892ZM5.45528 7.93636C5.45528 8.29786 5.74833 8.59091 6.10982 8.59091C6.47132 8.59091 6.76437 8.29786 6.76437 7.93636V5.42727C6.76437 5.06578 6.47132 4.77273 6.10982 4.77273C5.74833 4.77273 5.45528 5.06578 5.45528 5.42727V7.93636Z" fill="#F58721"/>
</svg>
