<svg width="14" height="14" viewBox="0 0 14 14" fill="none" xmlns="http://www.w3.org/2000/svg">
<path opacity="0.3" fill-rule="evenodd" clipRule="evenodd" d="M10.5775 7.33876C10.4919 7.25165 10.374 7.20247 10.252 7.20247C10.1299 7.20247 10.012 7.25165 9.92644 7.33876L7.02211 10.2458C6.93512 10.3329 6.88741 10.4495 6.88601 10.5731V11.7604C6.88601 12.0161 7.09226 12.2227 7.34762 12.2227H8.5332C8.65527 12.2227 8.77313 12.1735 8.86012 12.0864L11.763 9.17936C11.9426 8.99951 11.9426 8.70586 11.763 8.52602L10.5775 7.33876ZM11.7995 7.92888L11.1766 7.30504C10.9016 7.02966 10.9016 6.58286 11.1766 6.30747C11.4516 6.03208 11.8977 6.03208 12.1727 6.30747L12.7957 6.9313C13.0707 7.20669 13.0707 7.65349 12.7957 7.92888C12.5207 8.20567 12.0745 8.20567 11.7995 7.92888ZM2.00195 3.3569V10.087C2.00195 11.2658 2.95603 12.2212 4.1332 12.2212H5.01292V10.7881C5.01292 10.6125 5.08308 10.4439 5.20654 10.3202L10.3123 5.20452C10.5171 4.98112 10.7865 4.82797 11.0812 4.76615C11.2102 4.73945 11.3435 4.73945 11.4726 4.76615C11.7252 4.68325 11.8963 4.44861 11.8977 4.18306V3.3569C11.8977 2.17808 10.9437 1.22266 9.76649 1.22266H4.1332C2.95603 1.22125 2.00195 2.17667 2.00195 3.3569ZM3.8355 3.51454C3.8355 3.26141 4.04071 3.05621 4.29384 3.05621H9.79384C10.047 3.05621 10.2522 3.26141 10.2522 3.51454C10.2522 3.76767 10.047 3.97287 9.79384 3.97287H4.29384C4.04071 3.97287 3.8355 3.76767 3.8355 3.51454ZM4.29384 5.80653C4.04071 5.80653 3.8355 6.01174 3.8355 6.26487C3.8355 6.518 4.04071 6.7232 4.29384 6.7232H6.12717C6.3803 6.7232 6.5855 6.518 6.5855 6.26487C6.5855 6.01174 6.3803 5.80653 6.12717 5.80653H4.29384Z" fill="#22232B"/>
</svg>
