<svg width="30" height="30" viewBox="0 0 30 30" fill="none" xmlns="http://www.w3.org/2000/svg">
<circle cx="14.9999" cy="15.0004" r="12.8569" fill="white"/>
<path fill-rule="evenodd" clipRule="evenodd" d="M15.4219 14.1019C16.2797 14.3378 18.1525 14.8528 18.4787 13.5068C18.8116 12.1305 16.9923 11.7155 16.1038 11.5128C16.0038 11.49 15.9155 11.4698 15.8435 11.4513L15.2154 14.0462C15.2746 14.0614 15.3441 14.0805 15.4219 14.1019ZM14.4499 18.282C15.4788 18.5621 17.7307 19.1751 18.0886 17.694C18.4551 16.1802 16.2728 15.6756 15.2082 15.4295C15.0894 15.402 14.9845 15.3778 14.8986 15.3557L14.2055 18.2167C14.2757 18.2346 14.3579 18.257 14.4499 18.282ZM18.442 10.5416C20.0352 11.1068 21.2001 11.9541 20.9713 13.5302C20.8056 14.684 20.1847 15.2426 19.3605 15.4388C20.4923 16.0462 21.0683 16.9776 20.5196 18.5911C19.8387 20.5951 18.2207 20.7643 16.0699 20.3449L15.5478 22.5L14.2862 22.1761L14.8015 20.0499C14.4742 19.9659 14.1404 19.877 13.7961 19.7808L13.2791 21.9177L12.019 21.5938L12.5414 19.4343C12.4226 19.403 12.303 19.3709 12.1826 19.3387C12.0043 19.2909 11.8242 19.2426 11.6421 19.1955L10 18.7736L10.6266 17.2855C10.6266 17.2855 11.5558 17.5402 11.5436 17.5213C11.9004 17.612 12.0592 17.3725 12.1217 17.2126L13.5374 11.3637C13.5529 11.0876 13.4605 10.7392 12.9492 10.6078C12.9694 10.5941 12.0333 10.3732 12.0333 10.3732L12.3689 8.98505L14.1087 9.43258L14.1073 9.43924C14.3689 9.50624 14.6384 9.56991 14.9129 9.63431L15.4299 7.49997L16.6904 7.82386L16.1841 9.91637C16.5222 9.99596 16.8629 10.0763 17.1945 10.1614L17.6976 8.0826L18.9591 8.40649L18.442 10.5416Z" fill="#0F134F"/>
<path fill-rule="evenodd" clipRule="evenodd" d="M19.3774 1.73033C19.6056 1.18436 20.2332 0.926718 20.7791 1.15487C26.1922 3.41692 29.9992 8.76277 29.9992 15.0003C29.9992 23.2844 23.2837 30 14.9996 30C10.7459 30 6.90427 28.228 4.17581 25.3848C3.76611 24.9579 3.78007 24.2796 4.20701 23.8699C4.63394 23.4602 5.31218 23.4742 5.72188 23.9011C8.06302 26.3407 11.3533 27.8572 14.9996 27.8572C22.1002 27.8572 27.8564 22.101 27.8564 15.0003C27.8564 9.65697 24.5965 5.07251 19.9529 3.13199C19.4069 2.90384 19.1493 2.27629 19.3774 1.73033Z" fill="url(#paint0_angular_594_20919)"/>
<circle cx="15.5353" cy="1.60711" r="1.60711" fill="#3D56D6"/>
<defs>
<radialGradient id="paint0_angular_594_20919" cx="0" cy="0" r="1" gradientUnits="userSpaceOnUse" gradientTransform="translate(18.936 22.4484) rotate(90) scale(32.4019 17.6793)">
<stop offset="0.200113" stop-color="#00C2FF"/>
<stop offset="0.591769" stop-color="#5E4BFF"/>
</radialGradient>
</defs>
</svg>
