<svg width="30" height="30" viewBox="0 0 30 30" fill="none" xmlns="http://www.w3.org/2000/svg">
<circle cx="14.9999" cy="15.0004" r="12.8569" fill="white"/>
<path d="M15 23.55C10.278 23.55 6.45 19.722 6.45 15C6.45 10.2779 10.278 6.44995 15 6.44995C19.722 6.44995 23.55 10.2779 23.55 15C23.55 19.722 19.722 23.55 15 23.55ZM15 24C19.9706 24 24 19.9705 24 15C24 10.0294 19.9706 5.99995 15 5.99995C10.0294 5.99995 6 10.0294 6 15C6 19.9705 10.0294 24 15 24Z" fill="#0F134F"/>
<path d="M15.0613 8.13764C16.3151 8.13764 17.5242 8.60782 18.3973 9.48101C19.2929 10.3542 19.7855 11.4961 19.7855 12.7275V20.3175H10.3372V12.7275C10.3372 11.4961 10.8297 10.3542 11.7253 9.48101C12.5985 8.60782 13.7851 8.13764 15.0613 8.13764ZM15.0613 7.89136C13.7403 7.89136 12.4865 8.38393 11.5462 9.30189C10.6058 10.2199 10.0909 11.4289 10.0909 12.7275V20.5638H20.0318V12.7275C20.0318 11.4289 19.5168 10.2199 18.5765 9.32428C17.6361 8.38393 16.3823 7.89136 15.0613 7.89136Z" fill="#0F134F"/>
<path d="M17.9863 9.93151C17.9192 9.86434 17.8296 9.77478 17.7624 9.70761C17.0236 9.05832 16.0832 8.72248 15.0757 8.72248C13.9786 8.72248 12.9263 9.14788 12.1651 9.93151C11.3814 10.7151 10.956 11.745 10.956 12.8421V19.6933H19.1954V12.8645C19.1954 11.745 18.7476 10.7151 17.9863 9.93151ZM16.7101 19.2679C16.3295 19.4022 15.9041 19.4694 15.4787 19.4694H12.5009V18.1036C12.4337 18.0365 12.3666 17.9469 12.3218 17.8798C11.8068 17.2081 11.5382 16.3797 11.5382 15.5289V12.9541C11.5382 11.9466 11.9188 11.0062 12.5905 10.2673C12.68 10.2673 12.792 10.2673 12.9039 10.2897C13.598 10.3569 14.5384 10.6032 15.3444 11.1629C16.0608 11.6555 16.934 12.5511 16.934 14.0064V19.2007C16.8669 19.2231 16.7997 19.2455 16.7101 19.2679Z" fill="#0F134F"/>
<path d="M15.3668 11.1626C14.5608 10.6253 13.6204 10.3566 12.9264 10.2894C12.8144 10.2894 12.7025 10.267 12.6129 10.267C11.9412 11.0059 11.5606 11.9463 11.5606 12.9538V15.5286C11.5606 16.3794 11.8293 17.2078 12.3442 17.8795C12.4114 17.9466 12.4562 18.0362 12.5234 18.1033V19.4691H15.5012C15.9266 19.4691 16.3296 19.4019 16.7326 19.2676C16.8221 19.2452 16.8893 19.2228 16.9789 19.178V13.9837C16.9565 12.5284 16.0833 11.6552 15.3668 11.1626ZM12.7473 19.2228V18.3496C13.1503 18.7303 13.6204 19.0437 14.1354 19.2228H12.7473ZM16.7102 19.0213C16.3296 19.1556 15.9042 19.2228 15.4788 19.2228C14.4936 19.2228 13.5757 18.8422 12.8592 18.1257C12.8144 18.081 12.7696 18.0362 12.7249 17.9914C12.6353 17.9018 12.5458 17.7899 12.4786 17.6779C12.0084 17.051 11.7621 16.2898 11.7621 15.5062V12.9538C11.7621 12.0582 12.098 11.185 12.6801 10.5133C14.2474 10.5805 16.6878 11.6552 16.6878 13.9837V19.0213H16.7102Z" fill="#0F134F"/>
<path d="M14.1201 16.2291C14.0529 16.2291 13.9858 16.1619 13.9858 16.0947V13.811C13.9858 13.2065 14.4783 12.7139 15.0829 12.7139C15.6874 12.7139 16.1799 13.2065 16.1799 13.811C16.1799 13.8782 16.1128 13.9453 16.0456 13.9453C15.9784 13.9453 15.9113 13.8782 15.9113 13.811C15.9113 13.3632 15.5306 12.9826 15.0829 12.9826C14.6351 12.9826 14.2544 13.3632 14.2544 13.811V16.0947C14.2544 16.1619 14.1873 16.2291 14.1201 16.2291Z" fill="#0F134F"/>
<path d="M15.4859 14.4605C15.4187 14.4605 15.3515 14.3933 15.3515 14.3261C15.3515 14.1694 15.2396 14.0575 15.0829 14.0575C14.9261 14.0575 14.8142 14.1694 14.8142 14.3261C14.8142 14.3933 14.747 14.4605 14.6799 14.4605C14.6127 14.4605 14.5455 14.3933 14.5455 14.3261C14.5455 14.0127 14.7918 13.7664 15.1053 13.7664C15.4187 13.7664 15.665 14.0127 15.665 14.3261C15.6202 14.3933 15.553 14.4605 15.4859 14.4605Z" fill="#0F134F"/>
<path d="M14.1201 16.2291C13.7171 16.2291 13.3814 15.8929 13.3814 15.4899C13.3814 15.4228 13.4486 15.3556 13.5157 15.3556C13.5829 15.3556 13.6501 15.4228 13.6501 15.4899C13.6501 15.7362 13.8516 15.9377 14.0978 15.9377C14.3441 15.9377 14.5456 15.7362 14.5456 15.4899C14.5456 15.4228 14.6128 15.3556 14.68 15.3556C14.7471 15.3556 14.8143 15.4228 14.8143 15.4899C14.8367 15.8929 14.5231 16.2291 14.1201 16.2291Z" fill="#0F134F"/>
<path d="M13.3366 14.6847C13.2918 14.6847 13.2694 14.6623 13.247 14.6399L12.6425 14.0354V14.5504C12.6425 14.6175 12.5753 14.6847 12.5081 14.6847C12.441 14.6847 12.3514 14.6175 12.3514 14.528V13.6996C12.3514 13.6324 12.3962 13.5876 12.441 13.5652C12.5081 13.5428 12.5529 13.5428 12.5977 13.5876L13.2022 14.1921V13.8339C13.2022 13.7667 13.2694 13.6996 13.3366 13.6996C13.4037 13.6996 13.4709 13.7667 13.4709 13.8339V14.528C13.4709 14.5951 13.4261 14.6399 13.3813 14.6623C13.3813 14.6847 13.3589 14.6847 13.3366 14.6847Z" fill="#0F134F"/>
<path d="M14.0978 13.9677C14.0307 13.9677 13.9635 13.9005 13.9635 13.8333C13.9635 13.8109 13.9635 13.2512 13.5829 13.2512C13.5157 13.2512 13.4485 13.184 13.4485 13.1169C13.4485 13.0497 13.5157 12.9825 13.5829 12.9825C14.0978 12.9825 14.2322 13.5423 14.2322 13.8333C14.2322 13.9005 14.165 13.9677 14.0978 13.9677Z" fill="#0F134F"/>
<path fill-rule="evenodd" clipRule="evenodd" d="M19.3774 1.73033C19.6056 1.18437 20.2332 0.926726 20.7791 1.15488C26.1922 3.41692 29.9992 8.76277 29.9992 15.0003C29.9992 23.2844 23.2837 30 14.9996 30C10.7459 30 6.90427 28.228 4.17581 25.3848C3.76611 24.9579 3.78007 24.2796 4.20701 23.8699C4.63394 23.4602 5.31218 23.4742 5.72188 23.9011C8.06302 26.3407 11.3533 27.8572 14.9996 27.8572C22.1002 27.8572 27.8564 22.101 27.8564 15.0003C27.8564 9.65697 24.5965 5.07252 19.9529 3.132C19.4069 2.90385 19.1493 2.2763 19.3774 1.73033Z" fill="url(#paint0_angular_594_20920)"/>
<circle cx="15.5353" cy="1.60711" r="1.60711" fill="#3D56D6"/>
<defs>
<radialGradient id="paint0_angular_594_20920" cx="0" cy="0" r="1" gradientUnits="userSpaceOnUse" gradientTransform="translate(18.936 22.4484) rotate(90) scale(32.4019 17.6793)">
<stop offset="0.200113" stop-color="#00C2FF"/>
<stop offset="0.591769" stop-color="#5E4BFF"/>
</radialGradient>
</defs>
</svg>
