<svg width="30" height="30" viewBox="0 0 30 30" fill="none" xmlns="http://www.w3.org/2000/svg">
<circle cx="14.9999" cy="15.0004" r="12.8569" fill="white"/>
<path fill-rule="evenodd" clipRule="evenodd" d="M15.0823 14.2313C15.0091 14.2883 14.9064 14.2875 14.8341 14.2294L8.92869 9.48331C8.76761 9.35385 8.88473 9.0949 9.08832 9.13039L18.8948 10.8397C19.0657 10.8695 19.1202 11.0879 18.9833 11.1945L15.0823 14.2313Z" fill="#0F134F"/>
<path fill-rule="evenodd" clipRule="evenodd" d="M14.5788 14.688C14.6328 14.7315 14.6605 14.7998 14.6519 14.8687L13.718 22.3593C13.6925 22.5635 13.4125 22.6008 13.3344 22.4104L8.29433 10.1164C8.21594 9.92518 8.44366 9.75517 8.6047 9.88466L14.5788 14.688Z" fill="#0F134F"/>
<path fill-rule="evenodd" clipRule="evenodd" d="M21.8227 10.3732L22 10.4678L18.5369 13.9851C18.4125 14.1116 18.502 14.3255 18.6795 14.3255H21.3973C21.5666 14.3255 21.6593 14.5227 21.5514 14.653L13.8125 23.9971H13.3545L19.7313 15.5247C19.8305 15.3929 19.7364 15.2044 19.5715 15.2044H16.1779C15.9873 15.2044 15.9047 14.9632 16.0553 14.8464L21.8227 10.3732Z" fill="#0F134F"/>
<path fill-rule="evenodd" clipRule="evenodd" d="M19.3774 1.73034C19.6056 1.18437 20.2332 0.926733 20.7791 1.15489C26.1922 3.41693 29.9992 8.76278 29.9992 15.0003C29.9992 23.2844 23.2837 30 14.9996 30C10.7459 30 6.90427 28.228 4.17581 25.3848C3.76611 24.9579 3.78007 24.2797 4.20701 23.8699C4.63394 23.4602 5.31218 23.4742 5.72188 23.9011C8.06302 26.3407 11.3533 27.8572 14.9996 27.8572C22.1002 27.8572 27.8564 22.101 27.8564 15.0003C27.8564 9.65698 24.5965 5.07253 19.9529 3.13201C19.4069 2.90386 19.1493 2.27631 19.3774 1.73034Z" fill="url(#paint0_angular_594_20915)"/>
<circle cx="15.5353" cy="1.60711" r="1.60711" fill="#3D56D6"/>
<defs>
<radialGradient id="paint0_angular_594_20915" cx="0" cy="0" r="1" gradientUnits="userSpaceOnUse" gradientTransform="translate(18.936 22.4484) rotate(90) scale(32.4019 17.6793)">
<stop offset="0.200113" stop-color="#00C2FF"/>
<stop offset="0.591769" stop-color="#5E4BFF"/>
</radialGradient>
</defs>
</svg>
