<svg width="30" height="30" viewBox="0 0 30 30" fill="none" xmlns="http://www.w3.org/2000/svg">
<circle cx="14.9999" cy="15.0004" r="12.8569" fill="white"/>
<circle cx="15" cy="15" r="9" fill="#0F134F"/>
<mask id="mask0_594_20917" style="mask-type:luminance" maskUnits="userSpaceOnUse" x="6" y="6" width="18" height="18">
<circle cx="15" cy="15" r="9" fill="white"/>
</mask>
<g mask="url(#mask0_594_20917)">
<path d="M14.812 3.85135V10.1223" stroke="white" stroke-width="0.39776"/>
<path d="M13.8833 3.85135V10.1223" stroke="white" stroke-width="0.39776"/>
<path d="M16.0318 3.85135V10.1223" stroke="white" stroke-width="0.39776"/>
<path d="M10.8774 5.07313L12.9107 8.8656V4.54834" stroke="white" stroke-width="0.39776"/>
<path d="M19.0078 4.95676L16.9745 8.74923V4.43198" stroke="white" stroke-width="0.39776"/>
<path d="M15.1299 26.9609V20.6899" stroke="white" stroke-width="0.39776"/>
<path d="M16.0586 26.9609V20.6899" stroke="white" stroke-width="0.39776"/>
<path d="M13.9106 26.9609L13.9106 20.6899" stroke="white" stroke-width="0.39776"/>
<path d="M19.1235 25.8178L17.0902 22.0253V26.3426" stroke="white" stroke-width="0.39776"/>
<path d="M10.8774 25.8758L12.9107 22.0833V26.4006" stroke="white" stroke-width="0.39776"/>
<path d="M3.41602 15.5651L9.68698 15.5651" stroke="white" stroke-width="0.39776"/>
<path d="M3.41602 16.4945H9.68698" stroke="white" stroke-width="0.39776"/>
<path d="M3.41602 14.3458H9.68698" stroke="white" stroke-width="0.39776"/>
<path d="M4.49256 19.53L8.28503 17.4967H3.96777" stroke="white" stroke-width="0.39776"/>
<path d="M4.89881 11.5163L8.69128 13.5496H4.37402" stroke="white" stroke-width="0.39776"/>
<path d="M26.5259 15.2477L20.2549 15.2477" stroke="white" stroke-width="0.39776"/>
<path d="M26.5259 14.3186L20.2549 14.3186" stroke="white" stroke-width="0.39776"/>
<path d="M26.5259 16.467L20.2549 16.467" stroke="white" stroke-width="0.39776"/>
<path d="M25.2379 11.2839L21.4454 13.3172H25.7627" stroke="white" stroke-width="0.39776"/>
<path d="M25.4698 19.472L21.6774 17.4387H25.9946" stroke="white" stroke-width="0.39776"/>
<path d="M6.91296 23.6892L11.3472 19.255" stroke="white" stroke-width="0.39776"/>
<path d="M7.5697 24.3463L12.0039 19.9121" stroke="white" stroke-width="0.39776"/>
<path d="M6.05115 22.827L10.4854 18.3927" stroke="white" stroke-width="0.39776"/>
<path d="M10.7124 25.7387L11.9563 21.6193L8.90356 24.672" stroke="white" stroke-width="0.39776"/>
<path d="M4.68749 19.7719L8.80692 18.528L5.75416 21.5807" stroke="white" stroke-width="0.39776"/>
<path d="M23.0294 7.12381L18.5952 11.5581" stroke="white" stroke-width="0.39776"/>
<path d="M22.3727 6.46671L17.9384 10.901" stroke="white" stroke-width="0.39776"/>
<path d="M23.8917 7.98596L19.4575 12.4202" stroke="white" stroke-width="0.39776"/>
<path d="M19.3657 5.20995L18.1218 9.32938L21.1746 6.27662" stroke="white" stroke-width="0.39776"/>
<path d="M25.2168 10.9442L21.0974 12.1881L24.1501 9.13537" stroke="white" stroke-width="0.39776"/>
<path d="M23.2533 23.4644L18.819 19.0302" stroke="white" stroke-width="0.39776"/>
<path d="M23.9105 22.8073L19.4763 18.3731" stroke="white" stroke-width="0.39776"/>
<path d="M22.3915 24.3266L17.9572 19.8924" stroke="white" stroke-width="0.39776"/>
<path d="M25.332 19.7716L21.2126 18.5277L24.2654 21.5804" stroke="white" stroke-width="0.39776"/>
<path d="M19.4234 25.6804L18.1794 21.5609L21.2322 24.6137" stroke="white" stroke-width="0.39776"/>
<path d="M6.68762 7.34833L11.1219 11.7826" stroke="white" stroke-width="0.39776"/>
<path d="M6.03089 8.00516L10.4651 12.4394" stroke="white" stroke-width="0.39776"/>
<path d="M7.54993 6.4859L11.9842 10.9201" stroke="white" stroke-width="0.39776"/>
<path d="M4.97704 11.2345L9.09647 12.4785L6.04371 9.42571" stroke="white" stroke-width="0.39776"/>
<path d="M10.6538 5.38368L11.8977 9.50312L8.84496 6.45036" stroke="white" stroke-width="0.39776"/>
</g>
<circle cx="14.9711" cy="15.4354" r="6.18015" fill="#0F134F" stroke="white" stroke-width="0.340937"/>
<mask id="mask1_594_20917" style="mask-type:luminance" maskUnits="userSpaceOnUse" x="8" y="9" width="14" height="13">
<circle cx="14.9711" cy="15.4354" r="6.18015" fill="white" stroke="white" stroke-width="0.340937"/>
</mask>
<g mask="url(#mask1_594_20917)">
<path fill-rule="evenodd" clipRule="evenodd" d="M16.0294 9.38315L14.8101 16.7419H16.5598L15.0002 21.7509L20.9245 20.6903L21.9995 12.4185L19.3885 10.1225L16.0294 9.38315Z" fill="white"/>
</g>
<path fill-rule="evenodd" clipRule="evenodd" d="M19.4343 13.8445C19.5081 13.63 19.5081 13.2116 19.0624 13.1507C18.7817 13.1124 15.4248 13.2418 15.0527 13.2563C14.6326 13.2399 11.3317 13.1132 11.0535 13.1511C10.6077 13.212 10.6077 13.6304 10.6816 13.8449C10.714 13.9392 10.7534 14.0101 10.8033 14.1C10.867 14.2147 10.9479 14.3604 11.0535 14.6249C11.1134 14.7749 11.1661 14.9855 11.2214 15.2067C11.3402 15.6811 11.4711 16.2044 11.7114 16.284C11.976 16.3717 13.0433 16.3277 13.7073 16.3004C13.9276 16.2913 14.1035 16.284 14.1909 16.284C14.3463 16.284 14.4329 15.8964 14.5293 15.4645C14.6456 14.9438 14.7762 14.3588 15.0591 14.3113C15.3404 14.3616 15.4706 14.9448 15.5866 15.4641C15.683 15.896 15.7696 16.2836 15.925 16.2836C16.0124 16.2836 16.1883 16.2909 16.4086 16.3C17.0725 16.3273 18.1399 16.3713 18.4044 16.2836C18.6447 16.204 18.7757 15.6807 18.8944 15.2063C18.9498 14.9851 19.0025 14.7745 19.0624 14.6245C19.168 14.36 19.2488 14.2143 19.3125 14.0996C19.3625 14.0097 19.4018 13.9388 19.4343 13.8445Z" fill="white"/>
<path d="M19.0624 13.1507L19.0415 13.3035V13.3035L19.0624 13.1507ZM19.4343 13.8445L19.2885 13.7943V13.7943L19.4343 13.8445ZM15.0527 13.2563L15.0467 13.4108L15.0587 13.4103L15.0527 13.2563ZM11.0535 13.1511L11.0326 12.9984L11.0535 13.1511ZM10.6816 13.8449L10.5358 13.8951H10.5358L10.6816 13.8449ZM10.8033 14.1L10.9381 14.0252L10.8033 14.1ZM11.0535 14.6249L10.9103 14.682L11.0535 14.6249ZM11.2214 15.2067L11.0719 15.2441L11.2214 15.2067ZM11.7114 16.284L11.7599 16.1377L11.7114 16.284ZM13.7073 16.3004L13.7009 16.1464H13.7009L13.7073 16.3004ZM14.5293 15.4645L14.6797 15.4981L14.5293 15.4645ZM15.0591 14.3113L15.0863 14.1596L15.0599 14.1548L15.0336 14.1593L15.0591 14.3113ZM15.5866 15.4641L15.4361 15.4977V15.4977L15.5866 15.4641ZM16.4086 16.3L16.4149 16.146L16.4086 16.3ZM18.4044 16.2836L18.4529 16.4299L18.4044 16.2836ZM18.8944 15.2063L19.044 15.2437V15.2437L18.8944 15.2063ZM19.0624 14.6245L19.2055 14.6816L19.0624 14.6245ZM19.3125 14.0996L19.4473 14.1744L19.4473 14.1744L19.3125 14.0996ZM19.0415 13.3035C19.1289 13.3154 19.1843 13.3432 19.2204 13.3732C19.2567 13.4033 19.2814 13.4423 19.297 13.4889C19.3299 13.5873 19.3177 13.7095 19.2885 13.7943L19.58 13.8947C19.6247 13.765 19.6495 13.5708 19.5894 13.3911C19.5585 13.2987 19.5043 13.2083 19.4175 13.1361C19.3305 13.0638 19.2188 13.0165 19.0832 12.998L19.0415 13.3035ZM15.0587 13.4103C15.2447 13.403 16.1765 13.3671 17.0967 13.3378C17.557 13.3231 18.0138 13.3101 18.3728 13.3031C18.5524 13.2997 18.7068 13.2977 18.8246 13.2978C18.9476 13.2979 19.019 13.3004 19.0415 13.3035L19.0832 12.998C19.0356 12.9915 18.9407 12.9896 18.8249 12.9895C18.704 12.9894 18.5472 12.9914 18.3668 12.9949C18.0058 13.0019 17.5475 13.015 17.0869 13.0296C16.1656 13.059 15.2329 13.095 15.0467 13.1022L15.0587 13.4103ZM15.0587 13.1022C14.8485 13.0941 13.9178 13.0583 13.0048 13.0293C12.5483 13.0148 12.0957 13.002 11.7396 12.9951C11.5616 12.9917 11.407 12.9898 11.2878 12.9899C11.1736 12.9901 11.0799 12.992 11.0326 12.9984L11.0743 13.3039C11.0966 13.3008 11.1669 13.2984 11.2881 13.2982C11.4043 13.2981 11.5565 13.3 11.7337 13.3034C12.0879 13.3101 12.5389 13.3229 12.995 13.3374C13.9069 13.3664 14.8367 13.4021 15.0467 13.4103L15.0587 13.1022ZM11.0326 12.9984C10.8971 13.0169 10.7853 13.0643 10.6984 13.1365C10.6116 13.2087 10.5574 13.2991 10.5265 13.3915C10.4664 13.5712 10.4912 13.7654 10.5358 13.8951L10.8273 13.7947C10.7981 13.7099 10.786 13.5877 10.8189 13.4893C10.8344 13.4427 10.8592 13.4037 10.8954 13.3736C10.9316 13.3436 10.987 13.3158 11.0743 13.3039L11.0326 12.9984ZM10.5358 13.8951C10.5733 14.0039 10.6192 14.0858 10.6686 14.1748L10.9381 14.0252C10.8876 13.9343 10.8548 13.8745 10.8273 13.7947L10.5358 13.8951ZM10.6686 14.1748C10.7308 14.2869 10.8082 14.4261 10.9103 14.682L11.1966 14.5677C11.0876 14.2946 11.0032 14.1425 10.9381 14.0252L10.6686 14.1748ZM10.9103 14.682C10.9655 14.8202 11.0156 15.019 11.0719 15.2441L11.371 15.1693C11.3166 14.952 11.2613 14.7297 11.1966 14.5677L10.9103 14.682ZM11.0719 15.2441C11.1306 15.4786 11.1953 15.7383 11.2771 15.9492C11.3181 16.0549 11.3661 16.1556 11.4244 16.2379C11.4818 16.319 11.559 16.3959 11.6629 16.4304L11.7599 16.1377C11.7437 16.1323 11.7144 16.114 11.676 16.0597C11.6384 16.0067 11.6012 15.9321 11.5646 15.8377C11.4911 15.6484 11.431 15.4092 11.371 15.1693L11.0719 15.2441ZM11.6629 16.4304C11.7512 16.4596 11.887 16.4736 12.0334 16.4814C12.1856 16.4894 12.3681 16.4912 12.561 16.4895C12.9468 16.486 13.3821 16.468 13.7136 16.4544L13.7009 16.1464C13.3685 16.1601 12.9382 16.1778 12.5582 16.1812C12.3681 16.1829 12.1927 16.181 12.0496 16.1735C11.9008 16.1657 11.8039 16.1523 11.7599 16.1377L11.6629 16.4304ZM13.7136 16.4544C13.9361 16.4452 14.1076 16.4382 14.1909 16.4382V16.1299C14.0994 16.1299 13.9191 16.1374 13.7009 16.1464L13.7136 16.4544ZM14.1909 16.4382C14.3017 16.4382 14.3765 16.3676 14.4202 16.3076C14.465 16.2463 14.4994 16.1676 14.5276 16.0874C14.5845 15.9259 14.6323 15.7107 14.6797 15.4981L14.3789 15.4309C14.3299 15.6502 14.2862 15.8448 14.2368 15.985C14.2119 16.0558 14.1895 16.1009 14.1713 16.1258C14.1521 16.1521 14.1578 16.1299 14.1909 16.1299V16.4382ZM14.6797 15.4981C14.7386 15.2345 14.798 14.97 14.8758 14.7652C14.9147 14.663 14.9547 14.585 14.9953 14.5326C15.0357 14.4803 15.066 14.4664 15.0846 14.4633L15.0336 14.1593C14.9107 14.1799 14.8186 14.257 14.7514 14.344C14.6842 14.4309 14.6313 14.5407 14.5876 14.6557C14.5003 14.8855 14.4363 15.1738 14.3789 15.4309L14.6797 15.4981ZM15.737 15.4305C15.6797 15.1741 15.6159 14.8867 15.529 14.6572C15.4855 14.5424 15.4329 14.4328 15.3662 14.3458C15.2995 14.2588 15.2082 14.1814 15.0863 14.1596L15.0319 14.463C15.0506 14.4664 15.0811 14.4807 15.1216 14.5334C15.1621 14.5862 15.202 14.6643 15.2407 14.7665C15.3182 14.9711 15.3774 15.2349 15.4361 15.4977L15.737 15.4305ZM15.925 16.1295C15.9581 16.1295 15.9637 16.1516 15.9446 16.1254C15.9264 16.1005 15.9039 16.0554 15.879 15.9846C15.8297 15.8443 15.786 15.6498 15.737 15.4305L15.4361 15.4977C15.4836 15.7103 15.5314 15.9255 15.5883 16.087C15.6165 16.1672 15.6508 16.2459 15.6956 16.3072C15.7394 16.3672 15.8141 16.4378 15.925 16.4378V16.1295ZM16.4149 16.146C16.1967 16.137 16.0164 16.1295 15.925 16.1295V16.4378C16.0083 16.4378 16.1798 16.4448 16.4022 16.454L16.4149 16.146ZM18.3559 16.1373C18.312 16.1519 18.2151 16.1653 18.0662 16.1731C17.9232 16.1806 17.7478 16.1825 17.5577 16.1808C17.1777 16.1774 16.7474 16.1597 16.4149 16.146L16.4022 16.454C16.7337 16.4676 17.1691 16.4856 17.5549 16.4891C17.7477 16.4908 17.9303 16.489 18.0825 16.481C18.2289 16.4732 18.3647 16.4592 18.4529 16.4299L18.3559 16.1373ZM18.7449 15.1689C18.6849 15.4088 18.6247 15.648 18.5513 15.8373C18.5147 15.9316 18.4775 16.0063 18.4399 16.0593C18.4015 16.1135 18.3722 16.1319 18.3559 16.1373L18.4529 16.4299C18.5568 16.3955 18.634 16.3186 18.6915 16.2375C18.7497 16.1552 18.7977 16.0545 18.8387 15.9488C18.9205 15.7379 18.9853 15.4782 19.044 15.2437L18.7449 15.1689ZM18.9192 14.5673C18.8546 14.7292 18.7993 14.9516 18.7449 15.1689L19.044 15.2437C19.1003 15.0186 19.1504 14.8198 19.2055 14.6816L18.9192 14.5673ZM19.1778 14.0248C19.1126 14.1421 19.0283 14.2942 18.9192 14.5673L19.2055 14.6816C19.3077 14.4257 19.3851 14.2865 19.4473 14.1744L19.1778 14.0248ZM19.2885 13.7943C19.2611 13.8741 19.2282 13.9339 19.1778 14.0248L19.4473 14.1744C19.4967 14.0854 19.5426 14.0035 19.58 13.8947L19.2885 13.7943Z" fill="#010101"/>
<path fill-rule="evenodd" clipRule="evenodd" d="M11.3251 13.9896C11.2403 13.7187 11.4504 13.4458 11.734 13.4587L14.0557 13.5637C14.31 13.5752 14.4921 13.8136 14.4364 14.0619L14.0855 15.6263C14.0436 15.8131 13.8777 15.9459 13.6863 15.9459H12.238C12.0591 15.9459 11.901 15.8297 11.8476 15.659L11.3251 13.9896Z" fill="#0F134F"/>
<mask id="mask2_594_20917" style="mask-type:luminance" maskUnits="userSpaceOnUse" x="11" y="13" width="4" height="3">
<path fill-rule="evenodd" clipRule="evenodd" d="M11.3251 13.9896C11.2403 13.7187 11.4504 13.4458 11.734 13.4587L14.0557 13.5637C14.31 13.5752 14.4921 13.8136 14.4364 14.0619L14.0855 15.6263C14.0436 15.8131 13.8777 15.9459 13.6863 15.9459H12.238C12.0591 15.9459 11.901 15.8297 11.8476 15.659L11.3251 13.9896Z" fill="white"/>
</mask>
<g mask="url(#mask2_594_20917)">
<path opacity="0.314267" fill-rule="evenodd" clipRule="evenodd" d="M13.5248 13.168L13.6454 13.2409L12.0145 16.0737L11.8938 16.0008L13.5248 13.168Z" fill="white"/>
<path opacity="0.314267" fill-rule="evenodd" clipRule="evenodd" d="M12.2882 13.1434L12.2879 13.144L11.2544 14.9341L11.2547 14.9335L12.2882 13.1434Z" fill="white"/>
<path opacity="0.314267" fill-rule="evenodd" clipRule="evenodd" d="M12.8297 12.9754L12.8291 12.9765L11.363 15.5159L11.3636 15.5148L12.8297 12.9754Z" fill="white"/>
</g>
<path fill-rule="evenodd" clipRule="evenodd" d="M18.8894 14.0302C18.9746 13.7593 18.7645 13.4861 18.4807 13.4989L16.1601 13.6034C15.9057 13.6149 15.7235 13.8536 15.7794 14.102L16.1296 15.6571C16.1717 15.8437 16.3374 15.9763 16.5288 15.9763H17.9777C18.1564 15.9763 18.3144 15.8603 18.368 15.6898L18.8894 14.0302Z" fill="#0F134F"/>
<mask id="mask3_594_20917" style="mask-type:luminance" maskUnits="userSpaceOnUse" x="15" y="13" width="4" height="3">
<path fill-rule="evenodd" clipRule="evenodd" d="M18.8894 14.0302C18.9746 13.7593 18.7645 13.4861 18.4807 13.4989L16.1601 13.6034C15.9057 13.6149 15.7235 13.8536 15.7794 14.102L16.1296 15.6571C16.1717 15.8437 16.3374 15.9763 16.5288 15.9763H17.9777C18.1564 15.9763 18.3144 15.8603 18.368 15.6898L18.8894 14.0302Z" fill="white"/>
</mask>
<g mask="url(#mask3_594_20917)">
<path opacity="0.314267" fill-rule="evenodd" clipRule="evenodd" d="M18.0901 13.2166L18.1839 13.2729L16.5561 16.0963L16.4623 16.0401L18.0901 13.2166Z" fill="white"/>
<path opacity="0.314267" fill-rule="evenodd" clipRule="evenodd" d="M16.8395 13.1839L16.8393 13.1843L15.8088 14.9691L15.809 14.9687L16.8395 13.1839Z" fill="white"/>
<path opacity="0.314267" fill-rule="evenodd" clipRule="evenodd" d="M17.381 13.0165L17.3806 13.0172L15.9188 15.5491L15.9192 15.5484L17.381 13.0165Z" fill="white"/>
</g>
<path d="M12.7354 17.9031C12.7354 17.9031 13.4216 18.658 15.1421 18.658C16.8627 18.658 17.2644 17.9031 17.2644 17.9031" stroke="white" stroke-width="0.340937"/>
<path d="M15.8784 18.6161C16.3578 18.5557 16.8197 18.318 17.2642 17.903" stroke="#0F134F" stroke-width="0.340937"/>
<path fill-rule="evenodd" clipRule="evenodd" d="M19.3774 1.73033C19.6056 1.18436 20.2332 0.926718 20.7791 1.15487C26.1922 3.41692 29.9992 8.76277 29.9992 15.0003C29.9992 23.2844 23.2837 30 14.9996 30C10.7459 30 6.90427 28.228 4.17581 25.3848C3.76611 24.9579 3.78007 24.2796 4.20701 23.8699C4.63394 23.4602 5.31218 23.4742 5.72188 23.9011C8.06302 26.3407 11.3533 27.8572 14.9996 27.8572C22.1002 27.8572 27.8564 22.101 27.8564 15.0003C27.8564 9.65697 24.5965 5.07251 19.9529 3.13199C19.4069 2.90384 19.1493 2.27629 19.3774 1.73033Z" fill="url(#paint0_angular_594_20917)"/>
<circle cx="15.5353" cy="1.60711" r="1.60711" fill="#3D56D6"/>
<defs>
<radialGradient id="paint0_angular_594_20917" cx="0" cy="0" r="1" gradientUnits="userSpaceOnUse" gradientTransform="translate(18.936 22.4484) rotate(90) scale(32.4019 17.6793)">
<stop offset="0.200113" stop-color="#00C2FF"/>
<stop offset="0.591769" stop-color="#5E4BFF"/>
</radialGradient>
</defs>
</svg>
