<svg width="30" height="30" viewBox="0 0 30 30" fill="none" xmlns="http://www.w3.org/2000/svg">
<circle cx="15.5359" cy="15.5364" r="13.3929" fill="white"/>
<path d="M16.8742 13.2715C16.8742 13.2715 21.9893 13.4571 22.4764 14.7561C22.4764 14.7561 23.1821 16.0567 16.8742 16.4663V22H14.1199V16.4663C14.1199 16.4663 8.57396 16.2423 8.50058 14.8681C8.43812 13.6554 13.4751 13.2523 14.1199 13.2507V11.5997H10.2774V9H20.7167V11.5997H16.8742V13.2715ZM9.35445 15.046C10.6426 16.041 15.6171 16.0202 15.6171 16.0202C21.9485 15.8714 21.7315 14.7564 21.7315 14.7564C21.6596 13.7166 16.874 13.5311 16.874 13.5311V15.5387H14.1182V13.5327C11.3639 13.6062 9.85253 14.1917 9.85253 14.1917C8.74083 14.6284 9.35445 15.046 9.35445 15.046Z" fill="#0F134F"/>
<path fill-rule="evenodd" clipRule="evenodd" d="M19.3261 1.90452C19.5554 1.36192 20.186 1.10586 20.7346 1.33261C26.1743 3.58072 30 8.89363 30 15.0927C30 23.3258 23.2515 30 14.9267 30C10.6522 30 6.79169 28.2389 4.04984 25.4132C3.63812 24.9889 3.65215 24.3149 4.08118 23.9077C4.51021 23.5005 5.19178 23.5144 5.60349 23.9387C7.95612 26.3633 11.2625 27.8704 14.9267 27.8704C22.0622 27.8704 27.8467 22.1496 27.8467 15.0927C27.8467 9.78232 24.5708 5.22611 19.9044 3.29755C19.3557 3.07081 19.0968 2.44712 19.3261 1.90452Z" fill="url(#paint0_angular_594_20923)"/>
<circle cx="15.5359" cy="1.60714" r="1.60714" fill="#3D56D6"/>
<defs>
<radialGradient id="paint0_angular_594_20923" cx="0" cy="0" r="1" gradientUnits="userSpaceOnUse" gradientTransform="translate(18.8825 22.4949) rotate(90) scale(32.2022 17.7661)">
<stop offset="0.200113" stop-color="#00C2FF"/>
<stop offset="0.591769" stop-color="#5E4BFF"/>
</radialGradient>
</defs>
</svg>
