<svg width="12" height="13" viewBox="0 0 12 13" fill="none" xmlns="http://www.w3.org/2000/svg">
<path fill-rule="evenodd" clipRule="evenodd" d="M2.63618 10.8358H9.38479V9.06844C10.1266 8.3949 10.645 7.51577 10.8718 6.54634C11.0986 5.57691 11.0233 4.56244 10.6558 3.636C10.2883 2.70955 9.64568 1.91437 8.81231 1.35475C7.97895 0.795126 6.9937 0.497193 5.98579 0.50002C4.97788 0.502847 3.99437 0.806304 3.16424 1.37059C2.3341 1.93488 1.69612 2.73365 1.33395 3.66214C0.971773 4.59064 0.902326 5.60551 1.13471 6.57365C1.3671 7.54179 1.89047 8.418 2.63618 9.08736V10.8358ZM3.16268 12.5H8.77461C8.91332 12.5 9.04635 12.4456 9.14443 12.3488C9.24252 12.252 9.29762 12.1206 9.29762 11.9837C9.29762 11.8468 9.24252 11.7155 9.14443 11.6186C9.04635 11.5218 8.91332 11.4674 8.77461 11.4674H3.16268C3.02397 11.4674 2.89094 11.5218 2.79286 11.6186C2.69477 11.7155 2.63967 11.8468 2.63967 11.9837C2.63967 12.1206 2.69477 12.252 2.79286 12.3488C2.89094 12.4456 3.02397 12.5 3.16268 12.5ZM8.18895 5.79455C8.28703 5.89138 8.42006 5.94577 8.55878 5.94577C8.62746 5.94577 8.69547 5.93242 8.75892 5.90647C8.82238 5.88052 8.88004 5.8425 8.9286 5.79455C8.97717 5.74661 9.01569 5.6897 9.04198 5.62706C9.06826 5.56442 9.08179 5.49729 9.08179 5.42949C9.07856 4.62613 8.75325 3.85671 8.17696 3.28945C7.60068 2.72219 6.82031 2.40325 6.00648 2.40234C5.86776 2.40234 5.73473 2.45674 5.63665 2.55356C5.53857 2.65038 5.48346 2.7817 5.48346 2.91863C5.48346 3.05555 5.53857 3.18687 5.63665 3.28369C5.73473 3.38052 5.86776 3.43491 6.00648 3.43491C6.54303 3.43536 7.0576 3.64537 7.43782 4.01908C7.81804 4.3928 8.033 4.89984 8.03576 5.42949C8.03576 5.56641 8.09087 5.69773 8.18895 5.79455Z" fill="#B3B4B7"/>
</svg>
