<svg width="12" height="12" viewBox="0 0 12 12" fill="none" xmlns="http://www.w3.org/2000/svg">
<g clip-path="url(#clip0_511_19715)">
<path d="M9.24375 9.35621C7.74375 7.64996 2.49375 7.76246 2.4 7.23746V3.35621C2.49375 2.60621 6.7125 2.94371 8.90625 0.918709C11.1562 -1.12504 12 2.77496 12 5.43746C12 8.09996 10.7625 11.0812 9.24375 9.35621ZM0 6.52496V4.16246C0 3.73121 0.35625 3.37496 0.80625 3.37496H1.6125V7.31246H0.80625C0.35625 7.31246 0 6.97496 0 6.52496ZM3.35625 8.32496C3.91875 8.43746 4.35 8.60621 4.35 8.60621C4.35 8.60621 4.3125 9.20621 4.8 9.88121C5.38125 10.7062 6.3375 11.625 5.49375 11.625H4.06875C3.375 11.625 3.675 11.1375 3 10.0312C2.25 8.77496 2.4375 8.11871 2.4375 8.11871C2.4375 8.11871 2.79375 8.21246 3.35625 8.32496Z" fill="url(#paint0_linear_511_19715)"/>
</g>
<defs>
<linearGradient id="paint0_linear_511_19715" x1="-3.63215e-08" y1="5.98645" x2="12" y2="5.98645" gradientUnits="userSpaceOnUse">
<stop stop-color="#7CDA68"/>
<stop offset="1" stop-color="#2DC69D"/>
</linearGradient>
<clipPath id="clip0_511_19715">
<rect width="12" height="12" fill="white"/>
</clipPath>
</defs>
</svg>
