<svg width="218" height="131" viewBox="0 0 218 131" fill="none" xmlns="http://www.w3.org/2000/svg">
<path d="M201.118 60.384C202.846 60.96 204.414 61.76 205.822 62.784C207.294 63.808 208.542 64.992 209.566 66.336C210.59 67.68 211.358 69.152 211.87 70.752C212.446 72.288 212.734 73.856 212.734 75.456C212.734 79.424 211.902 82.848 210.238 85.728C208.574 88.544 206.398 90.88 203.71 92.736C201.022 94.528 197.982 95.84 194.59 96.672C191.198 97.504 187.774 97.92 184.318 97.92C180.862 97.92 177.438 97.504 174.046 96.672C170.718 95.904 167.646 94.656 164.83 92.928C162.078 91.2 159.646 89.024 157.534 86.4C155.486 83.776 154.014 80.64 153.118 76.992L174.43 72C174.814 73.664 175.742 75.2 177.214 76.608C178.75 78.016 180.702 78.72 183.07 78.72C183.71 78.72 184.382 78.656 185.086 78.528C185.79 78.336 186.43 78.08 187.006 77.76C187.582 77.376 188.062 76.896 188.446 76.32C188.83 75.744 189.022 75.008 189.022 74.112C189.022 72.064 188.126 70.72 186.334 70.08C184.542 69.44 182.142 69.12 179.134 69.12H172.606V53.376H179.902C182.334 53.376 184.286 53.056 185.758 52.416C187.23 51.712 187.966 50.4 187.966 48.48C187.966 47.008 187.39 45.984 186.238 45.408C185.086 44.832 183.87 44.544 182.59 44.544C180.99 44.544 179.518 45.056 178.174 46.08C176.83 47.04 175.998 48.48 175.678 50.4L154.462 45.888C155.614 42.176 157.246 39.072 159.358 36.576C161.47 34.016 163.87 31.968 166.558 30.432C169.31 28.896 172.222 27.808 175.294 27.168C178.43 26.464 181.502 26.112 184.51 26.112C187.518 26.112 190.622 26.496 193.822 27.264C197.022 27.968 199.934 29.152 202.558 30.816C205.182 32.416 207.326 34.496 208.99 37.056C210.654 39.552 211.486 42.592 211.486 46.176C211.486 50.016 210.462 53.088 208.414 55.392C206.43 57.632 203.998 59.168 201.118 60V60.384Z" fill="url(#paint0_linear_916_4585)"/>
<path d="M201.118 60.384H200.158V61.0759L200.814 61.2947L201.118 60.384ZM205.822 62.784L205.257 63.5604L205.265 63.5663L205.273 63.5721L205.822 62.784ZM209.566 66.336L210.329 65.7542L209.566 66.336ZM211.87 70.752L210.955 71.0446L210.963 71.067L210.971 71.0891L211.87 70.752ZM210.238 85.728L211.064 86.2164L211.069 86.2083L210.238 85.728ZM203.71 92.736L204.242 93.5348L204.249 93.5304L204.255 93.526L203.71 92.736ZM194.59 96.672L194.818 97.6044L194.59 96.672ZM174.046 96.672L174.274 95.7395L174.262 95.7366L174.046 96.672ZM164.83 92.928L164.319 93.7411L164.328 93.7462L164.83 92.928ZM157.534 86.4L156.777 86.9907L156.781 86.9963L156.786 87.0019L157.534 86.4ZM153.118 76.992L152.899 76.0573L151.954 76.2786L152.185 77.221L153.118 76.992ZM174.43 72L175.365 71.7841L175.149 70.8456L174.211 71.0653L174.43 72ZM177.214 76.608L176.55 77.3017L176.557 77.3088L176.565 77.3157L177.214 76.608ZM185.086 78.528L185.257 79.4725L185.298 79.4651L185.338 79.4542L185.086 78.528ZM187.006 77.76L187.472 78.5992L187.506 78.5803L187.538 78.5588L187.006 77.76ZM188.446 76.32L189.244 76.8525H189.244L188.446 76.32ZM172.606 69.12H171.646V70.08H172.606V69.12ZM172.606 53.376V52.416H171.646V53.376H172.606ZM185.758 52.416L186.14 53.2964L186.156 53.2895L186.172 53.282L185.758 52.416ZM178.174 46.08L178.732 46.8612L178.744 46.8526L178.756 46.8436L178.174 46.08ZM175.678 50.4L175.478 51.339L176.46 51.5478L176.625 50.5578L175.678 50.4ZM154.462 45.888L153.545 45.6035L153.233 46.6082L154.262 46.827L154.462 45.888ZM159.358 36.576L160.091 37.1962L160.098 37.1869L159.358 36.576ZM166.558 30.432L166.09 29.5937L166.081 29.5985L166.558 30.432ZM175.294 27.168L175.49 28.1078L175.497 28.1063L175.504 28.1047L175.294 27.168ZM193.822 27.264L193.598 28.1975L193.607 28.1996L193.615 28.2016L193.822 27.264ZM202.558 30.816L202.044 31.6267L202.051 31.6312L202.058 31.6356L202.558 30.816ZM208.99 37.056L208.185 37.5792L208.191 37.5885L208.99 37.056ZM208.414 55.392L207.696 54.7542L207.695 54.7555L208.414 55.392ZM201.118 60L200.851 59.0777L200.158 59.2781V60H201.118ZM200.814 61.2947C202.453 61.841 203.932 62.5969 205.257 63.5604L206.386 62.0076C204.895 60.9231 203.238 60.0789 201.421 59.4733L200.814 61.2947ZM205.273 63.5721C206.668 64.5425 207.842 65.6581 208.802 66.9178L210.329 65.7542C209.241 64.3259 207.919 63.0735 206.37 61.9959L205.273 63.5721ZM208.802 66.9178C209.76 68.1752 210.477 69.5495 210.955 71.0446L212.784 70.4594C212.238 68.7545 211.419 67.1848 210.329 65.7542L208.802 66.9178ZM210.971 71.0891C211.507 72.5201 211.774 73.974 211.774 75.456H213.694C213.694 73.738 213.384 72.0559 212.769 70.4149L210.971 71.0891ZM211.774 75.456C211.774 79.288 210.971 82.5396 209.406 85.2477L211.069 86.2083C212.832 83.1564 213.694 79.56 213.694 75.456H211.774ZM209.411 85.2396C207.818 87.9361 205.738 90.1691 203.164 91.946L204.255 93.526C207.058 91.5909 209.33 89.1519 211.064 86.2164L209.411 85.2396ZM203.177 91.9372C200.589 93.6626 197.654 94.932 194.361 95.7396L194.818 97.6044C198.31 96.748 201.454 95.3934 204.242 93.5348L203.177 91.9372ZM194.361 95.7396C191.043 96.5535 187.696 96.96 184.318 96.96V98.88C187.852 98.88 191.352 98.4545 194.818 97.6044L194.361 95.7396ZM184.318 96.96C180.94 96.96 177.592 96.5535 174.274 95.7396L173.817 97.6044C177.283 98.4545 180.784 98.88 184.318 98.88V96.96ZM174.262 95.7366C171.031 94.9911 168.056 93.7817 165.332 92.1098L164.328 93.7462C167.235 95.5303 170.404 96.8169 173.83 97.6074L174.262 95.7366ZM165.34 92.115C162.682 90.4457 160.329 88.3421 158.282 85.7981L156.786 87.0019C158.962 89.7059 161.474 91.9543 164.319 93.741L165.34 92.115ZM158.29 85.8093C156.336 83.3051 154.918 80.2964 154.05 76.763L152.185 77.221C153.11 80.9836 154.635 84.2469 156.777 86.9907L158.29 85.8093ZM153.337 77.9267L174.649 72.9347L174.211 71.0653L152.899 76.0573L153.337 77.9267ZM173.494 72.2159C173.928 74.0949 174.969 75.7897 176.55 77.3017L177.877 75.9143C176.514 74.6103 175.699 73.2331 175.365 71.7841L173.494 72.2159ZM176.565 77.3157C178.302 78.9083 180.497 79.68 183.07 79.68V77.76C180.907 77.76 179.197 77.1237 177.862 75.9003L176.565 77.3157ZM183.07 79.68C183.774 79.68 184.503 79.6096 185.257 79.4725L184.914 77.5835C184.26 77.7024 183.646 77.76 183.07 77.76V79.68ZM185.338 79.4542C186.109 79.244 186.822 78.9604 187.472 78.5992L186.539 76.9208C186.038 77.1996 185.471 77.428 184.833 77.6018L185.338 79.4542ZM187.538 78.5588C188.22 78.1045 188.79 77.534 189.244 76.8525L187.647 75.7875C187.333 76.258 186.944 76.6475 186.473 76.9612L187.538 78.5588ZM189.244 76.8525C189.761 76.0784 189.982 75.1423 189.982 74.112H188.062C188.062 74.8737 187.899 75.4096 187.647 75.7875L189.244 76.8525ZM189.982 74.112C189.982 72.9491 189.727 71.9026 189.148 71.0355C188.567 70.1626 187.711 69.5526 186.657 69.1759L186.011 70.9841C186.748 71.2474 187.237 71.6294 187.551 72.1005C187.869 72.5774 188.062 73.2269 188.062 74.112H189.982ZM186.657 69.1759C184.719 68.4838 182.195 68.16 179.134 68.16V70.08C182.088 70.08 184.365 70.3962 186.011 70.9841L186.657 69.1759ZM179.134 68.16H172.606V70.08H179.134V68.16ZM173.566 69.12V53.376H171.646V69.12H173.566ZM172.606 54.336H179.902V52.416H172.606V54.336ZM179.902 54.336C182.404 54.336 184.502 54.0088 186.14 53.2964L185.375 51.5356C184.07 52.1032 182.263 52.416 179.902 52.416V54.336ZM186.172 53.282C187.071 52.8523 187.778 52.217 188.251 51.3737C188.719 50.5399 188.926 49.56 188.926 48.48H187.006C187.006 49.32 186.845 49.9561 186.576 50.4343C186.314 50.903 185.917 51.2757 185.344 51.5499L186.172 53.282ZM188.926 48.48C188.926 47.6202 188.757 46.825 188.37 46.1373C187.979 45.4422 187.397 44.9145 186.667 44.5494L185.808 46.2666C186.23 46.4775 186.512 46.7498 186.697 47.0787C186.886 47.415 187.006 47.8678 187.006 48.48H188.926ZM186.667 44.5494C185.383 43.9071 184.02 43.584 182.59 43.584V45.504C183.72 45.504 184.789 45.7569 185.808 46.2666L186.667 44.5494ZM182.59 43.584C180.767 43.584 179.093 44.1726 177.592 45.3164L178.756 46.8436C179.942 45.9394 181.212 45.504 182.59 45.504V43.584ZM177.616 45.2988C176.028 46.433 175.085 48.1193 174.731 50.2422L176.625 50.5578C176.911 48.8407 177.632 47.647 178.732 46.8612L177.616 45.2988ZM175.877 49.461L154.661 44.949L154.262 46.827L175.478 51.339L175.877 49.461ZM155.379 46.1725C156.499 42.5608 158.076 39.577 160.091 37.1961L158.625 35.9559C156.415 38.567 154.728 41.7912 153.545 45.6035L155.379 46.1725ZM160.098 37.1869C162.142 34.71 164.454 32.7399 167.034 31.2655L166.081 29.5985C163.286 31.1961 160.798 33.322 158.617 35.9651L160.098 37.1869ZM167.026 31.2703C169.693 29.7815 172.513 28.7279 175.49 28.1078L175.098 26.2282C171.93 26.8881 168.926 28.0105 166.09 29.5937L167.026 31.2703ZM175.504 28.1047C178.576 27.4151 181.577 27.072 184.51 27.072V25.152C181.426 25.152 178.284 25.5129 175.083 26.2313L175.504 28.1047ZM184.51 27.072C187.436 27.072 190.464 27.4455 193.598 28.1975L194.046 26.3305C190.779 25.5465 187.6 25.152 184.51 25.152V27.072ZM193.615 28.2016C196.712 28.8829 199.519 30.0258 202.044 31.6267L203.072 30.0053C200.348 28.2782 197.331 27.0531 194.028 26.3264L193.615 28.2016ZM202.058 31.6356C204.56 33.1614 206.6 35.1404 208.185 37.5792L209.795 36.5328C208.052 33.8516 205.803 31.6706 203.057 29.9964L202.058 31.6356ZM208.191 37.5885C209.731 39.8983 210.526 42.744 210.526 46.176H212.446C212.446 42.44 211.577 39.2057 209.788 36.5235L208.191 37.5885ZM210.526 46.176C210.526 49.8409 209.552 52.6661 207.696 54.7542L209.131 56.0298C211.371 53.5098 212.446 50.1911 212.446 46.176H210.526ZM207.695 54.7555C205.832 56.859 203.557 58.2961 200.851 59.0777L201.384 60.9223C204.439 60.0399 207.028 58.405 209.132 56.0285L207.695 54.7555ZM200.158 60V60.384H202.078V60H200.158Z" fill="url(#paint1_linear_916_4585)"/>
<mask id="path-3-inside-1_916_4585" fill="white">
<path fill-rule="evenodd" clipRule="evenodd" d="M110.552 105.601C132.574 105.601 150.427 86.2599 150.427 62.4012C150.427 38.5425 132.574 19.2012 110.552 19.2012C88.5295 19.2012 70.6768 38.5425 70.6768 62.4012C70.6768 86.2599 88.5295 105.601 110.552 105.601ZM110.552 84.9594C123.343 84.9594 133.713 74.3217 133.713 61.1995C133.713 48.0772 123.343 37.4395 110.552 37.4395C97.7603 37.4395 87.3908 48.0772 87.3908 61.1995C87.3908 74.3217 97.7603 84.9594 110.552 84.9594Z"/>
</mask>
<path fill-rule="evenodd" clipRule="evenodd" d="M110.552 105.601C132.574 105.601 150.427 86.2599 150.427 62.4012C150.427 38.5425 132.574 19.2012 110.552 19.2012C88.5295 19.2012 70.6768 38.5425 70.6768 62.4012C70.6768 86.2599 88.5295 105.601 110.552 105.601ZM110.552 84.9594C123.343 84.9594 133.713 74.3217 133.713 61.1995C133.713 48.0772 123.343 37.4395 110.552 37.4395C97.7603 37.4395 87.3908 48.0772 87.3908 61.1995C87.3908 74.3217 97.7603 84.9594 110.552 84.9594Z" fill="url(#paint2_linear_916_4585)"/>
<path d="M149.467 62.4012C149.467 85.8035 131.973 104.641 110.552 104.641V106.561C133.175 106.561 151.387 86.7162 151.387 62.4012H149.467ZM110.552 20.1612C131.973 20.1612 149.467 38.9988 149.467 62.4012H151.387C151.387 38.0861 133.175 18.2412 110.552 18.2412V20.1612ZM71.6368 62.4012C71.6368 38.9988 89.1306 20.1612 110.552 20.1612V18.2412C87.9283 18.2412 69.7168 38.0861 69.7168 62.4012H71.6368ZM110.552 104.641C89.1306 104.641 71.6368 85.8035 71.6368 62.4012H69.7168C69.7168 86.7162 87.9283 106.561 110.552 106.561V104.641ZM132.753 61.1995C132.753 73.8148 122.79 83.9995 110.552 83.9995V85.9194C123.896 85.9194 134.673 74.8287 134.673 61.1995H132.753ZM110.552 38.3995C122.79 38.3995 132.753 48.5841 132.753 61.1995H134.673C134.673 47.5702 123.896 36.4795 110.552 36.4795V38.3995ZM88.3508 61.1995C88.3508 48.5841 98.3135 38.3995 110.552 38.3995V36.4795C97.2072 36.4795 86.4308 47.5702 86.4308 61.1995H88.3508ZM110.552 83.9995C98.3135 83.9995 88.3508 73.8148 88.3508 61.1995H86.4308C86.4308 74.8287 97.2072 85.9194 110.552 85.9194V83.9995Z" fill="url(#paint3_linear_916_4585)" mask="url(#path-3-inside-1_916_4585)"/>
<path fill-rule="evenodd" clipRule="evenodd" d="M131.866 68.0276C132.447 65.9348 132.758 63.7254 132.758 61.4415C132.758 60.1192 132.654 58.8219 132.453 57.5577L86.393 56.813C86.1077 58.3106 85.9583 59.8581 85.9583 61.4415C85.9583 63.4612 86.2015 65.4227 86.6596 67.2967L131.866 68.0276Z" fill="url(#paint4_linear_916_4585)"/>
<path d="M56.448 96H35.712V84H2.976V65.376L28.704 28.032H56.352V66.144H65.568V84H56.448V96ZM35.616 48.96L24.288 66.144H36V48.96H35.616Z" fill="url(#paint5_linear_916_4585)"/>
<path d="M56.448 96V96.96H57.408V96H56.448ZM35.712 96H34.752V96.96H35.712V96ZM35.712 84H36.672V83.04H35.712V84ZM2.976 84H2.016V84.96H2.976V84ZM2.976 65.376L2.18545 64.8314L2.016 65.0773V65.376H2.976ZM28.704 28.032V27.072H28.1996L27.9135 27.4874L28.704 28.032ZM56.352 28.032H57.312V27.072H56.352V28.032ZM56.352 66.144H55.392V67.104H56.352V66.144ZM65.568 66.144H66.528V65.184H65.568V66.144ZM65.568 84V84.96H66.528V84H65.568ZM56.448 84V83.04H55.488V84H56.448ZM35.616 48.96V48H35.099L34.8145 48.4316L35.616 48.96ZM24.288 66.144L23.4865 65.6156L22.5053 67.104H24.288V66.144ZM36 66.144V67.104H36.96V66.144H36ZM36 48.96H36.96V48H36V48.96ZM56.448 95.04H35.712V96.96H56.448V95.04ZM36.672 96V84H34.752V96H36.672ZM35.712 83.04H2.976V84.96H35.712V83.04ZM3.936 84V65.376H2.016V84H3.936ZM3.76655 65.9206L29.4945 28.5766L27.9135 27.4874L2.18545 64.8314L3.76655 65.9206ZM28.704 28.992H56.352V27.072H28.704V28.992ZM55.392 28.032V66.144H57.312V28.032H55.392ZM56.352 67.104H65.568V65.184H56.352V67.104ZM64.608 66.144V84H66.528V66.144H64.608ZM65.568 83.04H56.448V84.96H65.568V83.04ZM55.488 84V96H57.408V84H55.488ZM34.8145 48.4316L23.4865 65.6156L25.0895 66.6724L36.4175 49.4884L34.8145 48.4316ZM24.288 67.104H36V65.184H24.288V67.104ZM36.96 66.144V48.96H35.04V66.144H36.96ZM36 48H35.616V49.92H36V48Z" fill="url(#paint6_linear_916_4585)"/>
<path fill-rule="evenodd" clipRule="evenodd" d="M136.368 33.3869L133.445 30.4493L130.848 33.0605L128.25 30.4494L125.327 33.387L127.925 35.9981L125.327 38.6093L128.25 41.5469L130.848 38.9358L133.445 41.547L136.368 38.6094L133.77 35.9981L136.368 33.3869Z" fill="#1F2027"/>
<path fill-rule="evenodd" clipRule="evenodd" d="M94.8214 33.3869L91.8988 30.4493L89.3009 33.0605L86.7031 30.4494L83.7805 33.387L86.3783 35.9981L83.7805 38.6093L86.7031 41.5469L89.3009 38.9358L91.8988 41.547L94.8214 38.6094L92.2235 35.9981L94.8214 33.3869Z" fill="#1F2027"/>
<defs>
<linearGradient id="paint0_linear_916_4585" x1="149.95" y1="4.79854" x2="115.803" y2="77.585" gradientUnits="userSpaceOnUse">
<stop stop-color="#369683"/>
<stop offset="1" stop-color="#4C54FF" stop-opacity="0"/>
</linearGradient>
<linearGradient id="paint1_linear_916_4585" x1="187.45" y1="8.39744" x2="158.764" y2="96.6825" gradientUnits="userSpaceOnUse">
<stop stop-color="#77F4DD"/>
<stop offset="0.674679" stop-color="#1F2027"/>
<stop offset="0.674779" stop-color="#282931"/>
</linearGradient>
<linearGradient id="paint2_linear_916_4585" x1="70.6768" y1="22.366" x2="47.7979" y2="80.7889" gradientUnits="userSpaceOnUse">
<stop stop-color="#369683"/>
<stop offset="1" stop-color="#4C54FF" stop-opacity="0"/>
</linearGradient>
<linearGradient id="paint3_linear_916_4585" x1="114.625" y1="24.7396" x2="103.234" y2="87.0319" gradientUnits="userSpaceOnUse">
<stop stop-color="#77F4DD"/>
<stop offset="0.674779" stop-color="#1F2027"/>
</linearGradient>
<linearGradient id="paint4_linear_916_4585" x1="143.739" y1="14.4201" x2="94.0842" y2="11.4972" gradientUnits="userSpaceOnUse">
<stop stop-color="#369683"/>
<stop offset="1" stop-color="#4C54FF" stop-opacity="0"/>
</linearGradient>
<linearGradient id="paint5_linear_916_4585" x1="2.25314e-06" y1="4.79854" x2="-34.1464" y2="77.585" gradientUnits="userSpaceOnUse">
<stop stop-color="#369683"/>
<stop offset="1" stop-color="#4C54FF" stop-opacity="0"/>
</linearGradient>
<linearGradient id="paint6_linear_916_4585" x1="37.5005" y1="8.39744" x2="8.81419" y2="96.6825" gradientUnits="userSpaceOnUse">
<stop stop-color="#77F4DD"/>
<stop offset="0.674679" stop-color="#1F2027"/>
<stop offset="0.674779" stop-color="#282931"/>
</linearGradient>
</defs>
</svg>
