<svg width="27" height="11" viewBox="0 0 27 11" fill="none" xmlns="http://www.w3.org/2000/svg">
<path d="M27 2C27 0.895431 26.1046 0 25 0H5C2.23858 0 0 2.23858 0 5V9C0 10.1046 0.89543 11 2 11H22C24.7614 11 27 8.76142 27 6V2Z" fill="url(#paint0_linear_740_10569)"/>
<path d="M4.56 2.288H5.44L8.36 6.536H8.392V2.288H9.264V8H8.416L5.464 3.704H5.432V8H4.56V2.288ZM10.3881 2.288H14.4921V3.032H11.2601V4.696H14.3001V5.44H11.2601V7.256H14.6281V8H10.3881V2.288ZM14.9931 2.288H15.9771L17.0891 6.736H17.1211L18.2891 2.288H19.2011L20.3691 6.736H20.4011L21.5131 2.288H22.4971L20.8491 8H19.9211L18.7611 3.592H18.7291L17.5691 8H16.6331L14.9931 2.288Z" fill="#1F2027"/>
<defs>
<linearGradient id="paint0_linear_740_10569" x1="1.70796e-06" y1="5.5" x2="29" y2="5.5" gradientUnits="userSpaceOnUse">
<stop stop-color="#87DBFF"/>
<stop offset="1" stop-color="#FFD37E"/>
</linearGradient>
</defs>
</svg>
