<svg width="60" height="63" viewBox="0 0 60 63" fill="none" xmlns="http://www.w3.org/2000/svg">
<circle cx="30" cy="30" r="30" fill="#4B52DF" fill-opacity="0.04"/>
<g filter="url(#filter0_f_405_1285)">
<ellipse cx="33.865" cy="46.8902" rx="15.5857" ry="4.71196" transform="rotate(-7.79091 33.865 46.8902)" fill="#17181F" fill-opacity="0.1"/>
</g>
<path d="M15.3061 22.8713C12.8997 22.8014 12.2182 19.9284 12.2996 18.3014C12.6902 16.5442 13.5976 15.6312 14.0856 15.5498C17.2095 15.5498 19.048 18.3157 19.4547 19.6987L17.2583 19.9427C17.844 22.2856 16.2008 22.8713 15.3061 22.8713Z" fill="url(#paint0_linear_405_1285)" fill-opacity="0.8"/>
<path d="M15.3062 22.8711C17.2586 22.4806 17.4213 20.756 17.2586 19.9424L19.6991 19.4543C20.0896 20.0401 20.6753 21.4881 20.9193 22.1389C18.7717 23.1151 16.1197 23.1151 15.3062 22.8711Z" fill="white"/>
<path d="M18.2347 17.9906C14.3299 13.5001 12.7064 16.4303 12.2997 18.3014C11.7139 16.3488 13.4997 15.0014 14.7 14.7014L34.0981 11.4014C36.441 11.5966 37.8402 13.9232 38.247 15.0621C40.1538 20.4014 38.8401 26.1804 38.491 28.9731C37.71 35.2208 41.0942 37.7589 42.8839 38.247L31.1695 41.6637C32.7314 47.7162 28.8917 47.1142 26.7765 46.0566C23.6527 44.2995 20.9997 41.7014 20.1872 37.7589C19.6672 35.2359 20.1872 26.1014 20.1872 26.1014C20.1872 23.7014 20.6997 20.8253 18.2347 17.9906Z" fill="white"/>
<path d="M47.0327 41.4187L30.1931 46.5438C31.9503 44.7866 31.5761 42.639 31.1693 41.6628L47.5208 36.7817C49.0827 39.1246 47.8462 40.8493 47.0327 41.4187Z" fill="url(#paint1_linear_405_1285)" fill-opacity="0.8"/>
<path d="M35.3951 19.0107L24.2502 21.0388C23.8075 21.1194 23.3999 20.7793 23.3999 20.3293C23.3999 19.9816 23.6481 19.6834 23.99 19.6202L35.1294 17.5615C35.5822 17.4778 35.9999 17.8254 35.9999 18.2859C35.9999 18.6419 35.7454 18.947 35.3951 19.0107Z" fill="#22232B" fill-opacity="0.14"/>
<path d="M29.9754 25.124L24.3186 26.2742C23.8439 26.3707 23.3999 26.0079 23.3999 25.5235C23.3999 25.1607 23.6545 24.8476 24.0097 24.7736L29.6609 23.5963C30.1452 23.4954 30.5999 23.8651 30.5999 24.3598C30.5999 24.7306 30.3388 25.0502 29.9754 25.124Z" fill="#22232B" fill-opacity="0.14"/>
<path d="M29.9754 29.9241L24.3186 31.0742C23.8439 31.1708 23.3999 30.808 23.3999 30.3236C23.3999 29.9607 23.6545 29.6476 24.0097 29.5736L29.6609 28.3963C30.1452 28.2954 30.5999 28.6651 30.5999 29.1598C30.5999 29.5306 30.3388 29.8502 29.9754 29.9241Z" fill="#22232B" fill-opacity="0.14"/>
<path d="M43.0183 35.5536L40.7996 32.1022C41.5527 31.1985 42.9605 31.2636 43.627 32.233L44.7335 33.8426C45.1997 34.5207 44.9868 35.4524 44.2723 35.8607C43.8392 36.1082 43.2881 35.9732 43.0183 35.5536Z" fill="url(#paint2_linear_405_1285)" fill-opacity="0.6"/>
<path d="M43.0105 35.5415L40.7996 32.1023C41.5669 31.3349 42.8487 31.4809 43.4239 32.4012L44.7123 34.4627C45.0272 34.9666 44.84 35.6321 44.3085 35.8978C43.8483 36.1279 43.2887 35.9743 43.0105 35.5415Z" fill="url(#paint3_linear_405_1285)" fill-opacity="0.8"/>
<g filter="url(#filter1_b_405_1285)">
<path fill-rule="evenodd" clipRule="evenodd" d="M38.6997 33.0019C42.1791 33.0019 44.9997 30.1812 44.9997 26.7019C44.9997 23.2225 42.1791 20.4019 38.6997 20.4019C35.2203 20.4019 32.3997 23.2225 32.3997 26.7019C32.3997 30.1812 35.2203 33.0019 38.6997 33.0019ZM38.6997 31.2017C41.185 31.2017 43.1997 29.187 43.1997 26.7017C43.1997 24.2164 41.185 22.2017 38.6997 22.2017C36.2144 22.2017 34.1997 24.2164 34.1997 26.7017C34.1997 29.187 36.2144 31.2017 38.6997 31.2017Z" fill="url(#paint4_linear_405_1285)" fill-opacity="0.6"/>
</g>
<g filter="url(#filter2_b_405_1285)">
<path fill-rule="evenodd" clipRule="evenodd" d="M38.6997 33.0019C42.1791 33.0019 44.9997 30.1812 44.9997 26.7019C44.9997 23.2225 42.1791 20.4019 38.6997 20.4019C35.2203 20.4019 32.3997 23.2225 32.3997 26.7019C32.3997 30.1812 35.2203 33.0019 38.6997 33.0019ZM38.6997 31.2017C41.185 31.2017 43.1997 29.187 43.1997 26.7017C43.1997 24.2164 41.185 22.2017 38.6997 22.2017C36.2144 22.2017 34.1997 24.2164 34.1997 26.7017C34.1997 29.187 36.2144 31.2017 38.6997 31.2017Z" fill="url(#paint5_linear_405_1285)" fill-opacity="0.8"/>
</g>
<path fill-rule="evenodd" clipRule="evenodd" d="M39.2998 32.4022C42.7791 32.4022 45.5998 29.5816 45.5998 26.1022C45.5998 22.6229 42.7791 19.8022 39.2998 19.8022C35.8204 19.8022 32.9998 22.6229 32.9998 26.1022C32.9998 29.5816 35.8204 32.4022 39.2998 32.4022ZM39.2998 30.6022C41.7851 30.6022 43.7998 28.5875 43.7998 26.1022C43.7998 23.617 41.7851 21.6022 39.2998 21.6022C36.8146 21.6022 34.7998 23.617 34.7998 26.1022C34.7998 28.5875 36.8146 30.6022 39.2998 30.6022Z" fill="url(#paint6_linear_405_1285)" fill-opacity="0.8"/>
<defs>
<filter id="filter0_f_405_1285" x="8.40967" y="31.7646" width="50.9106" height="30.251" filterUnits="userSpaceOnUse" color-interpolation-filters="sRGB">
<feFlood flood-opacity="0" result="BackgroundImageFix"/>
<feBlend mode="normal" in="SourceGraphic" in2="BackgroundImageFix" result="shape"/>
<feGaussianBlur stdDeviation="5" result="effect1_foregroundBlur_405_1285"/>
</filter>
<filter id="filter1_b_405_1285" x="28.3997" y="16.4019" width="20.6" height="20.6001" filterUnits="userSpaceOnUse" color-interpolation-filters="sRGB">
<feFlood flood-opacity="0" result="BackgroundImageFix"/>
<feGaussianBlur in="BackgroundImageFix" stdDeviation="2"/>
<feComposite in2="SourceAlpha" operator="in" result="effect1_backgroundBlur_405_1285"/>
<feBlend mode="normal" in="SourceGraphic" in2="effect1_backgroundBlur_405_1285" result="shape"/>
</filter>
<filter id="filter2_b_405_1285" x="28.3997" y="16.4019" width="20.6" height="20.6001" filterUnits="userSpaceOnUse" color-interpolation-filters="sRGB">
<feFlood flood-opacity="0" result="BackgroundImageFix"/>
<feGaussianBlur in="BackgroundImageFix" stdDeviation="2"/>
<feComposite in2="SourceAlpha" operator="in" result="effect1_backgroundBlur_405_1285"/>
<feBlend mode="normal" in="SourceGraphic" in2="effect1_backgroundBlur_405_1285" result="shape"/>
</filter>
<linearGradient id="paint0_linear_405_1285" x1="9.89966" y1="14.4014" x2="9.29663" y2="22.1216" gradientUnits="userSpaceOnUse">
<stop stop-color="#3EBDA4"/>
<stop offset="1" stop-color="#4C54FF" stop-opacity="0"/>
</linearGradient>
<linearGradient id="paint1_linear_405_1285" x1="34.4998" y1="33.9001" x2="35.171" y2="44.1574" gradientUnits="userSpaceOnUse">
<stop offset="0.0631541" stop-color="#3EBDA4"/>
<stop offset="1" stop-color="#4C54FF" stop-opacity="0"/>
</linearGradient>
<linearGradient id="paint2_linear_405_1285" x1="44.0996" y1="37.8022" x2="45.7843" y2="36.7681" gradientUnits="userSpaceOnUse">
<stop stop-color="#737373"/>
<stop offset="0.0768632" stop-color="#737373"/>
<stop offset="0.310104" stop-color="#FDFDFD"/>
<stop offset="0.474443" stop-color="#737373" stop-opacity="0.19"/>
<stop offset="0.577845" stop-color="#626161"/>
<stop offset="0.648818" stop-color="#9A9DA0"/>
<stop offset="0.842813" stop-color="#737373" stop-opacity="0.27"/>
<stop offset="1" stop-color="#4B4D48" stop-opacity="0"/>
</linearGradient>
<linearGradient id="paint3_linear_405_1285" x1="44.0996" y1="36.3023" x2="44.4888" y2="32.1175" gradientUnits="userSpaceOnUse">
<stop stop-color="#3EBDA4"/>
<stop offset="1" stop-color="#4C54FF" stop-opacity="0"/>
</linearGradient>
<linearGradient id="paint4_linear_405_1285" x1="32.3997" y1="21.0019" x2="26.7874" y2="23.2096" gradientUnits="userSpaceOnUse">
<stop offset="0.0768632" stop-color="#737373"/>
<stop offset="0.219044" stop-color="#FDFDFD"/>
<stop offset="0.317085" stop-color="#737373" stop-opacity="0.19"/>
<stop offset="0.362257" stop-color="#626161"/>
<stop offset="0.507621" stop-color="#9A9DA0"/>
<stop offset="0.640078" stop-color="#737373" stop-opacity="0.27"/>
<stop offset="1" stop-color="#4B4D48" stop-opacity="0"/>
</linearGradient>
<linearGradient id="paint5_linear_405_1285" x1="29.0997" y1="21.9019" x2="30.5768" y2="34.6703" gradientUnits="userSpaceOnUse">
<stop offset="0.111514" stop-color="#3EBDA4"/>
<stop offset="1" stop-color="#4C54FF" stop-opacity="0"/>
</linearGradient>
<linearGradient id="paint6_linear_405_1285" x1="28.7885" y1="17.8258" x2="27.7732" y2="31.1154" gradientUnits="userSpaceOnUse">
<stop stop-color="#3EBDA4"/>
<stop offset="1" stop-color="#4C54FF" stop-opacity="0"/>
</linearGradient>
</defs>
</svg>
