<svg width="17" height="20" viewBox="0 0 17 20" fill="none" xmlns="http://www.w3.org/2000/svg">
<g id="Group 1321319591">
<path id="Subtract" fill-rule="evenodd" clipRule="evenodd" d="M3.00488 2.5C1.34803 2.5 0.00488281 3.84315 0.00488281 5.5V15.5C0.00488281 17.1569 1.34803 18.5 3.00488 18.5H7.65072C6.93816 17.7039 6.50488 16.6525 6.50488 15.5C6.50488 14.7816 6.67324 14.1025 6.97264 13.5H5.75488C5.34067 13.5 5.00488 13.1642 5.00488 12.75C5.00488 12.3358 5.34067 12 5.75488 12H8.17622C8.94908 11.3746 9.93324 11 11.0049 11C12.1574 11 13.2087 11.4333 14.0049 12.1458V5.5C14.0049 3.84315 12.6617 2.5 11.0049 2.5H3.00488ZM2.75488 7.5C2.34067 7.5 2.00488 7.83579 2.00488 8.25C2.00488 8.66421 2.34067 9 2.75488 9H6.25488C6.6691 9 7.00488 8.66421 7.00488 8.25C7.00488 7.83579 6.6691 7.5 6.25488 7.5H2.75488ZM8.00488 8.25C8.00488 7.83579 8.34067 7.5 8.75488 7.5H11.2549C11.6691 7.5 12.0049 7.83579 12.0049 8.25C12.0049 8.66421 11.6691 9 11.2549 9H8.75488C8.34067 9 8.00488 8.66421 8.00488 8.25ZM2.75488 12C2.34067 12 2.00488 12.3358 2.00488 12.75C2.00488 13.1642 2.34067 13.5 2.75488 13.5H3.25488C3.6691 13.5 4.00488 13.1642 4.00488 12.75C4.00488 12.3358 3.6691 12 3.25488 12H2.75488Z" fill="#22232B"/>
<circle id="Ellipse 6681" cx="13.5049" cy="4" r="2.75" fill="#FF5266" stroke="#F7F8FB" stroke-width="1.5"/>
<path id="Subtract_2" fill-rule="evenodd" clipRule="evenodd" d="M11.0049 12.5C9.34803 12.5 8.00488 13.8431 8.00488 15.5C8.00488 17.1569 9.34803 18.5 11.0049 18.5C12.6617 18.5 14.0049 17.1569 14.0049 15.5C14.0049 13.8431 12.6617 12.5 11.0049 12.5ZM11.0049 16.5C10.7287 16.5 10.5049 16.2761 10.5049 16V14.5C10.5049 14.2239 10.7287 14 11.0049 14C11.281 14 11.5049 14.2239 11.5049 14.5V15.5H12.5049C12.781 15.5 13.0049 15.7239 13.0049 16C13.0049 16.2761 12.781 16.5 12.5049 16.5H11.0049Z" fill="#22232B"/>
</g>
</svg>
