<svg width="14" height="18" viewBox="0 0 14 18" fill="none" xmlns="http://www.w3.org/2000/svg">
<g id="Group 1321319605">
<path id="Subtract" fill-rule="evenodd" clipRule="evenodd" d="M3 0.5C1.34315 0.5 0 1.84315 0 3.5V13.5C0 15.1569 1.34315 16.5 3 16.5H7.64584C6.93328 15.7039 6.5 14.6525 6.5 13.5C6.5 12.7816 6.66835 12.1025 6.96776 11.5H5.75C5.33579 11.5 5 11.1642 5 10.75C5 10.3358 5.33579 10 5.75 10H8.17133C8.9442 9.3746 9.92835 9 11 9C12.1525 9 13.2039 9.43328 14 10.1458V3.5C14 1.84315 12.6569 0.5 11 0.5H3ZM2.75 5.5C2.33579 5.5 2 5.83579 2 6.25C2 6.66421 2.33579 7 2.75 7H6.25C6.66421 7 7 6.66421 7 6.25C7 5.83579 6.66421 5.5 6.25 5.5H2.75ZM8 6.25C8 5.83579 8.33579 5.5 8.75 5.5H11.25C11.6642 5.5 12 5.83579 12 6.25C12 6.66421 11.6642 7 11.25 7H8.75C8.33579 7 8 6.66421 8 6.25ZM2.75 10C2.33579 10 2 10.3358 2 10.75C2 11.1642 2.33579 11.5 2.75 11.5H3.25C3.66421 11.5 4 11.1642 4 10.75C4 10.3358 3.66421 10 3.25 10H2.75Z" fill="#737480"/>
<path id="Subtract_2" fill-rule="evenodd" clipRule="evenodd" d="M11 10.5C9.34315 10.5 8 11.8431 8 13.5C8 15.1569 9.34315 16.5 11 16.5C12.6569 16.5 14 15.1569 14 13.5C14 11.8431 12.6569 10.5 11 10.5ZM11 14.5C10.7239 14.5 10.5 14.2761 10.5 14V12.5C10.5 12.2239 10.7239 12 11 12C11.2761 12 11.5 12.2239 11.5 12.5V13.5H12.5C12.7761 13.5 13 13.7239 13 14C13 14.2761 12.7761 14.5 12.5 14.5H11Z" fill="#737480"/>
</g>
</svg>
