<svg width="12" height="12" viewBox="0 0 12 12" fill="none" xmlns="http://www.w3.org/2000/svg">
<path d="M10.3375 8.16603L7.73954 8.16603L7.73954 9.03603L9.09554 9.03603C8.30954 9.83403 7.21754 10.338 6.00554 10.338C3.60554 10.338 1.66754 8.40003 1.66754 6.00003L0.797539 6.00003C0.797538 8.86803 3.13154 11.202 5.99954 11.202C7.33154 11.202 8.54954 10.692 9.46754 9.85803L9.46754 10.764L10.3375 10.764L10.3375 8.16603ZM11.2015 6.00003C11.2015 3.13203 8.86754 0.798035 5.99954 0.798034C4.66754 0.798034 3.44954 1.30203 2.53154 2.12403L2.53154 1.23003L1.66154 1.23003L1.66154 3.82803L4.25954 3.82803L4.25954 2.95803L2.90354 2.95803C3.68954 2.16003 4.78154 1.65603 5.99354 1.65603C8.39354 1.65603 10.3315 3.59403 10.3315 5.99403L11.2015 5.99403L11.2015 6.00003Z" fill="white"/>
</svg>
