<svg width="11" height="11" viewBox="0 0 11 11" fill="none" xmlns="http://www.w3.org/2000/svg">
<path d="M9.47607 7.48642L7.09457 7.48642L7.09457 8.28392L8.33757 8.28392C7.61707 9.01542 6.61607 9.47742 5.50507 9.47742C3.30507 9.47742 1.52857 7.70092 1.52857 5.50092L0.731066 5.50092C0.731066 8.12992 2.87057 10.2694 5.49957 10.2694C6.72057 10.2694 7.83707 9.80192 8.67857 9.03742L8.67857 9.86792L9.47607 9.86792L9.47607 7.48642ZM10.2681 5.50092C10.2681 2.87192 8.12857 0.732422 5.49957 0.732422C4.27857 0.732422 3.16207 1.19442 2.32057 1.94792L2.32057 1.12842L1.52307 1.12842L1.52307 3.50992L3.90457 3.50992L3.90457 2.71242L2.66157 2.71242C3.38207 1.98092 4.38307 1.51892 5.49407 1.51892C7.69407 1.51892 9.47057 3.29542 9.47057 5.49542L10.2681 5.49542L10.2681 5.50092Z" fill="#22232B"/>
</svg>
