<svg width="16" height="16" viewBox="0 0 16 16" fill="none" xmlns="http://www.w3.org/2000/svg">
<path fill-rule="evenodd" clipRule="evenodd" d="M8.01055 0.000133352C8.80303 -0.0109795 8.78103 0.674145 8.75685 1.42682V1.42684V1.42685V1.42686V1.42688V1.42689C8.75261 1.55875 8.74831 1.69268 8.74831 1.82531C8.74831 1.91062 8.75162 2.0011 8.75498 2.09284C8.76633 2.40282 8.7782 2.72703 8.66452 2.91374C8.55968 3.08598 8.384 3.1925 8.14476 3.2319C8.00483 3.25488 7.87447 3.19814 7.7926 3.15652C7.37378 2.94347 7.39309 2.39486 7.41416 1.79622C7.41888 1.66223 7.42368 1.52573 7.42368 1.38993C7.42368 1.30338 7.41859 1.20856 7.41338 1.11154C7.39987 0.859919 7.38557 0.593551 7.45725 0.418692C7.55345 0.183943 7.70178 0.124439 7.92118 0.0364209L7.92118 0.036419C7.94976 0.0249573 7.97953 0.013012 8.01055 0.000133352ZM3.24949 1.59914C3.46594 1.59798 3.61466 1.65586 3.73576 1.74986L4.66631 2.88851C4.71649 2.95285 4.77459 3.01576 4.83365 3.07969L4.83365 3.0797C4.95707 3.21331 5.08463 3.3514 5.15259 3.51645C5.29358 3.85859 5.0869 4.19265 4.87596 4.32017C4.6534 4.45477 4.30933 4.41553 4.1214 4.27833C3.95881 4.15958 3.82102 3.96566 3.69242 3.78466L3.69241 3.78465L3.69241 3.78465L3.69241 3.78465L3.69241 3.78465C3.64437 3.71704 3.59762 3.65124 3.55133 3.59183L3.0399 2.96389C3.01377 2.93035 2.98583 2.89617 2.9573 2.86127C2.72818 2.58103 2.46094 2.25417 2.78844 1.83356C2.87358 1.72417 2.97635 1.69107 3.10234 1.65049C3.14822 1.63571 3.19718 1.61994 3.24949 1.59914ZM13.5109 2.70442C13.7204 2.18406 13.2614 1.81672 12.7815 1.82534L12.5299 1.9174C12.4007 1.9977 12.2964 2.12965 12.2001 2.25143L12.2 2.25152L12.1997 2.2519C12.1838 2.27195 12.1682 2.29172 12.1527 2.31094L11.6497 2.87184L11.0125 3.58354C10.8 3.93285 11.0036 4.34401 11.264 4.49613C11.4636 4.61265 11.7977 4.57613 11.9683 4.46261C12.0928 4.3798 12.2008 4.24156 12.2985 4.11651C12.3203 4.08864 12.3415 4.06143 12.3623 4.03563L13.0079 3.31562C13.0623 3.24823 13.126 3.18523 13.1904 3.12155C13.3158 2.99759 13.4438 2.87103 13.5109 2.70442ZM11.994 12.7C11.994 12.8657 11.8597 13 11.694 13H4.3062C4.14051 13 4.0062 12.8657 4.0062 12.7V9.6304C4.0062 9.50882 4.00466 9.38494 4.00312 9.26045C3.99605 8.68957 3.98883 8.1058 4.1286 7.67163C4.44766 6.68041 5.06578 5.99088 5.93995 5.51029C6.32191 5.30033 6.75265 5.15227 7.26174 5.05249L7.76758 5.00753L8.23264 5C8.33112 5.01382 8.427 5.02511 8.52059 5.03613C8.7559 5.06383 8.97665 5.08982 9.18731 5.15009C10.5375 5.53643 11.4675 6.41301 11.8716 7.67163C12.0109 8.10534 12.0039 8.68736 11.997 9.25717V9.25722V9.25728V9.25734C11.9955 9.38029 11.994 9.50268 11.994 9.62288L11.994 12.7ZM2.3 14.5C2.13431 14.5 2 14.6343 2 14.8V15.7C2 15.8657 2.13432 16 2.3 16H13.7C13.8657 16 14 15.8657 14 15.7V14.8C14 14.6343 13.8657 14.5 13.7 14.5H2.3ZM0.565928 5.87779C0.761348 5.87354 0.912186 5.90933 1.06572 5.94577C1.10002 5.95391 1.13446 5.96208 1.16956 5.96985L2.27629 6.18754C2.34856 6.20445 2.42197 6.21722 2.49409 6.22975H2.49409C2.69946 6.26545 2.89432 6.29932 3.02244 6.42194C3.20036 6.59222 3.32627 6.9539 3.15656 7.23404C3.06419 7.38652 2.9034 7.50786 2.70385 7.55222C2.53475 7.5898 2.35939 7.54288 2.20917 7.50269L2.20915 7.50269C2.17414 7.49332 2.14049 7.48432 2.10861 7.47684L1.0019 7.25914C0.924236 7.24098 0.845226 7.22712 0.767441 7.21347C0.561023 7.17725 0.363236 7.14255 0.222244 7.03314C-0.0485405 6.82302 -0.0892954 6.27372 0.197091 6.04518C0.272405 5.98507 0.348419 5.95816 0.435715 5.92725C0.476323 5.91288 0.519372 5.89763 0.565928 5.87779ZM15.8669 7.25902C16.2135 6.79038 15.8366 6.20659 15.28 6.21245L14.7603 6.28781L13.6452 6.46357C13.5774 6.47685 13.5085 6.4847 13.4409 6.4924C13.3187 6.50632 13.2005 6.51977 13.1002 6.56412C12.8307 6.6833 12.6184 7.06614 12.7817 7.43478C12.8627 7.61774 13.05 7.75686 13.2679 7.8032C13.424 7.83648 13.5976 7.79839 13.7467 7.76565C13.7814 7.75804 13.8148 7.75071 13.8464 7.74464L14.9698 7.57712C15.0474 7.56245 15.1227 7.55113 15.1952 7.54026C15.478 7.49782 15.7167 7.462 15.8669 7.25902Z" fill="#9195FB"/>
</svg>
