<svg width="318" height="26" viewBox="0 0 318 26" fill="none" xmlns="http://www.w3.org/2000/svg">
<mask id="mask0_50_8141" style="mask-type:alpha" maskUnits="userSpaceOnUse" x="0" y="0" width="318" height="26">
<rect width="318" height="26" fill="#1F2027"/>
</mask>
<g mask="url(#mask0_50_8141)">
<g filter="url(#filter0_ii_50_8141)">
<path d="M304.251 -16.2263C302.585 -16.5596 299.151 -17.3263 298.751 -17.7263C298.251 -18.2263 298.251 -19.7263 296.251 -18.7263C295.918 -18.5595 295.051 -18.3259 294.251 -18.7263C293.251 -19.0598 290.651 -19.4267 288.251 -18.2267C285.251 -16.7267 283.251 -14.2267 275.751 -14.7267C274.751 -14.8935 272.551 -15.3271 271.751 -15.7267C270.085 -16.5598 265.151 -17.8259 258.751 -16.2263C256.085 -15.3931 249.951 -13.9267 246.751 -14.7267C245.751 -15.0601 243.251 -16.0267 241.251 -17.2267C239.251 -18.7267 234.051 -21.6267 229.251 -21.2267C227.251 -21.0599 222.751 -20.2261 220.751 -18.2261C217.751 -15.7261 209.951 -11.3261 202.751 -13.7261C201.251 -14.2261 198.051 -15.4261 197.251 -16.2261C195.085 -17.7261 188.751 -20.6261 180.751 -20.2261C176.585 -19.7265 166.351 -19.2272 158.751 -21.2267C153.585 -22.8932 141.651 -25.9261 135.251 -24.7261C133.085 -24.393 128.051 -23.2269 125.251 -21.2267C122.751 -19.56 115.951 -16.3266 108.751 -16.7266C106.585 -16.8932 101.951 -17.4266 100.751 -18.2266C98.0847 -19.5599 91.3513 -21.5266 85.7513 -18.7266C84.5847 -18.0599 81.7513 -16.7266 79.7513 -16.7266C75.418 -16.8932 66.2513 -17.2266 64.2513 -17.2266H56.2513C54.7513 -17.2266 51.4513 -17.4266 50.2513 -18.2266C48.2513 -19.5599 43.0513 -21.9266 38.2513 -20.7266C37.7513 -20.5599 36.5513 -20.4266 35.7513 -21.2266C34.0846 -22.5599 28.4513 -24.4266 19.2513 -21.2266C16.2513 -20.0599 7.95129 -17.9266 -1.24872 -18.7266C-3.58206 -19.0599 -10.1487 -19.4266 -17.7487 -18.2266C-21.2487 -17.5599 -29.2487 -15.8266 -33.2487 -14.2266C-35.5821 -13.3932 -41.4487 -12.2266 -46.2487 -14.2266C-49.5821 -16.0599 -57.7487 -19.6266 -63.7487 -19.2266C-66.2487 -19.0599 -72.3487 -18.1266 -76.7487 -15.7266C-78.2487 -14.7266 -82.2487 -13.0266 -86.2487 -14.2266C-88.5821 -15.2266 -94.8487 -16.9266 -101.249 -15.7266C-103.915 -15.0599 -110.149 -14.0266 -113.749 -15.2266C-116.415 -16.5599 -123.049 -18.9266 -128.249 -17.7266C-128.915 -18.2266 -130.449 -18.7266 -131.249 -16.7266C-131.249 -16.5599 -131.449 -16.3266 -132.249 -16.7266C-132.749 -17.0599 -134.449 -17.3266 -137.249 -15.7266C-138.249 -15.2266 -140.949 -14.4266 -143.749 -15.2266C-145.582 -15.5599 -150.749 -15.7266 -155.249 -12.7266C-159.749 -9.72656 -163.249 -3.72656 -159.249 -6.22656C-155.249 -8.72656 -152.949 -8.22656 -149.749 -6.22656C-150.249 -5.5599 -150.549 -4.42656 -147.749 -5.22656C-147.415 -5.39323 -146.549 -5.42656 -145.749 -4.22656C-145.415 -3.39323 -143.949 -1.92656 -140.749 -2.72656C-140.082 -2.89323 -137.749 -3.92656 -133.749 -6.72656C-132.415 -7.72656 -128.449 -9.52656 -123.249 -8.72656C-123.082 -8.22656 -122.549 -7.42656 -121.749 -8.22656L-120.249 -7.72656C-120.915 -6.72656 -120.8 -7.01278 -119.8 -6.51278C-119.633 -7.17945 -119.149 -6.62656 -118.749 -4.22656C-118.749 -3.39323 -118.449 -1.72656 -117.249 -1.72656C-116.415 -1.89323 -115.249 -3.12656 -117.249 -6.72656C-115.082 -6.0599 -110.549 -4.5 -105.749 -6.5C-104.582 -7.16667 -101.249 -6.5 -97.2487 -6.5C-93.2487 -6.5 -93.0487 -5.02656 -90.2487 -4.22656C-87.5821 -3.39323 -81.1487 -2.02656 -76.7487 -3.22656C-75.7487 -3.5599 -73.3487 -4.22656 -71.7487 -4.22656C-69.7487 -4.39323 -64.5487 -8.12656 -59.7487 -5.72656C-58.2487 -4.89323 -54.9487 -3.12656 -53.7487 -2.72656C-53.4154 -1.72656 -55.3002 -8.5 -52.5002 -8.5C-52.0002 -8.5 -47.7487 -0.126562 -47.7487 -1.72656H-43.7487C-42.2487 2.27344 -41.3002 -3 -40.5002 -3C-40.0002 -2.5 -39.0002 -3.3 -39.0002 -10.5C-39.1668 -11.1667 -36.4002 -1.32656 -34.0002 -1.72656C-32.6668 -1.72656 -30.0487 -0.226562 -29.2487 -2.22656C-29.0821 -3.0599 -28.4487 -4.12656 -27.2487 -1.72656C-26.7487 -0.559896 -25.8002 -3.22656 -25.0002 -3.22656C-24.7654 -3.22656 -24.4091 -2.23457 -24.1799 -1.3891C-24.3988 -1.38467 -24.3468 -1.02095 -24.2487 -0.726562C-23.8243 0.334412 -23.921 -0.433821 -24.1799 -1.3891C-24.0271 -1.39219 -23.7422 -1.22003 -23.2487 -0.726562C-22.5821 0.106771 -23.0002 -5.32656 -19.0002 -5.72656C-17.6668 -5.89323 -11.7487 0.273438 -9.74872 -1.72656C-9.6373 -1.83799 -9.49109 -2.55396 -9.34445 -3.5508C-9.07004 -3.39753 -8.71063 -3.36802 -8.24872 -3.5C-7.6485 -3.58007 -6.70816 -4.49218 -7.74872 -7.5C-7.91537 -8.33333 -7.94873 -9.6 -6.74872 -8C-6.59045 -7.68345 -6.31192 -7.23915 -5.97739 -6.9026C-6.45227 -4.20261 -6.73965 -0.726562 -5.24872 -0.726562C-5.17609 -0.726562 -4.88184 -1.6763 -4.65573 -2.29261C-4.71384 -1.6056 -4.74872 -0.89513 -4.74872 -0.226562C-4.18454 -3.3295 -4.36304 -3.09041 -4.65573 -2.29261C-4.36621 -5.71592 -3.50018 -8.55657 -3.50018 -2.72656C-3.50018 -8.22656 -2.50018 -8.22656 -2.50018 -4.22656C-1.83353 -3.0599 3.49982 5 3.49982 5C7.49982 10 5.99982 14.5 7.49982 14.5C7.99982 14.5 7.49982 9.5 9.25128 2.77344C10.7513 3.27344 14.8513 3.77344 19.2513 1.77344C20.7513 0.940104 25.1513 -0.226562 30.7513 1.77344C33.2513 2.77344 39.2513 5.47344 43.2513 8.27344C44.4179 9.27344 47.8513 11.2734 52.2513 11.2734C54.2513 11.2734 59.3513 10.0734 63.7513 5.27344C64.918 4.10677 68.4513 1.77344 73.2513 1.77344C72.7513 3.4401 72.1513 6.77344 73.7513 6.77344C74.0847 6.9401 74.7513 6.27344 74.7513 2.27344C75.5847 3.9401 78.3513 6.97344 82.7513 5.77344C83.2513 5.60677 84.5513 4.77344 85.7513 2.77344C86.0847 1.9401 87.4513 0.773438 90.2513 2.77344C92.0847 4.27344 96.8513 7.37344 101.251 7.77344C102.918 7.77344 106.751 7.27344 109.251 2.77344C111.085 3.77344 116.451 5.07344 123.251 2.27344C126.418 0.773438 134.151 -2.42656 139.751 -3.22656C142.085 -3.5599 148.051 -3.12656 153.251 1.27344C154.251 2.10677 156.551 4.57344 157.751 7.77344C157.918 8.27344 158.251 9.97344 158.251 12.7734C158.085 15.4401 158.051 20.7734 159.251 20.7734C160.418 20.7734 160.751 18.2734 160.751 10.7734C160.751 8.27344 161.251 3.17344 163.251 2.77344C164.251 2.60677 166.751 2.37344 168.751 2.77344C168.751 3.60677 169.051 5.17344 170.251 4.77344C170.585 4.60677 171.251 3.87344 171.251 2.27344C172.085 1.9401 174.578 0.570902 177.751 4.27344C178.751 5.4401 181.651 7.77344 185.251 7.77344C186.751 7.77344 190.151 7.07344 191.751 4.27344C191.585 5.77344 191.451 8.77344 192.251 8.77344C192.918 8.60677 193.751 8.77344 194.751 2.27344C194.751 1.60677 195.151 0.673437 196.751 2.27344C197.585 3.27344 199.351 5.47344 199.751 6.27344C201.918 10.1068 204.751 3.77344 205.751 20.2734C207.585 14.7734 211.251 3.67344 211.251 3.27344C211.251 2.77344 213.251 1.77344 215.251 3.77344C216.751 5.10677 219.951 6.87344 220.751 3.27344C220.751 2.9401 221.151 2.07344 222.751 1.27344C223.751 0.940104 226.251 -0.426563 228.251 -3.22656C229.085 -4.5599 232.551 -6.82656 239.751 -5.22656C240.149 -5.10407 240.658 -4.96245 241.25 -4.81535C239.18 -4.22554 238.291 -3.52304 239.751 -2.72656L244.751 -0.226562C247.085 0.773438 254 5.77344 255 9.27344C255 14.5 255 16.2734 255.5 16.2734C256 16.2734 256.9 15.2734 256.5 11.2734C256.333 10.1068 257.551 -1.82656 260.751 -2.22656C261.085 -1.5599 261.751 -0.726562 261.751 -2.72656C262.585 -3.39323 265.451 -4.12656 270.251 -1.72656C271.418 -1.0599 292.251 3.37344 294.251 5.77344C295.918 7.94011 299.951 10.9734 302.751 5.77344C302.918 5.4401 303.451 4.67344 304.251 4.27344C305.418 4.9401 307.451 5.57344 306.251 2.77344C305.918 2.27344 307.151 1.57344 314.751 2.77344C316.251 3.10677 318.851 3.07344 317.251 0.273438C315.751 -3.05971 319.851 -15.8261 304.251 -16.2263Z" fill="white"/>
</g>
</g>
<defs>
<filter id="filter0_ii_50_8141" x="-161" y="-29" width="478.754" height="49.7734" filterUnits="userSpaceOnUse" color-interpolation-filters="sRGB">
<feFlood flood-opacity="0" result="BackgroundImageFix"/>
<feBlend mode="normal" in="SourceGraphic" in2="BackgroundImageFix" result="shape"/>
<feColorMatrix in="SourceAlpha" type="matrix" values="0 0 0 0 0 0 0 0 0 0 0 0 0 0 0 0 0 0 127 0" result="hardAlpha"/>
<feOffset dy="-4"/>
<feGaussianBlur stdDeviation="4"/>
<feComposite in2="hardAlpha" operator="arithmetic" k2="-1" k3="1"/>
<feColorMatrix type="matrix" values="0 0 0 0 0.211765 0 0 0 0 0.254902 0 0 0 0 0.27451 0 0 0 0.5 0"/>
<feBlend mode="normal" in2="shape" result="effect1_innerShadow_50_8141"/>
<feColorMatrix in="SourceAlpha" type="matrix" values="0 0 0 0 0 0 0 0 0 0 0 0 0 0 0 0 0 0 127 0" result="hardAlpha"/>
<feOffset dy="-2"/>
<feGaussianBlur stdDeviation="1.5"/>
<feComposite in2="hardAlpha" operator="arithmetic" k2="-1" k3="1"/>
<feColorMatrix type="matrix" values="0 0 0 0 0.998944 0 0 0 0 1 0 0 0 0 0.947216 0 0 0 0.6 0"/>
<feBlend mode="normal" in2="effect1_innerShadow_50_8141" result="effect2_innerShadow_50_8141"/>
</filter>
</defs>
</svg>
