<svg width="13" height="13" viewBox="0 0 13 13" fill="none" xmlns="http://www.w3.org/2000/svg">
<g clip-path="url(#clip0_3817_174)">
<path d="M11.1988 8.84723L8.38427 8.84723L8.38427 9.78973L9.85327 9.78973C9.00177 10.6542 7.81877 11.2002 6.50577 11.2002C3.90577 11.2002 1.80627 9.10073 1.80627 6.50073L0.863766 6.50073C0.863766 9.60773 3.39227 12.1362 6.49927 12.1362C7.94227 12.1362 9.26177 11.5837 10.2563 10.6802L10.2563 11.6617L11.1988 11.6617L11.1988 8.84723ZM12.1348 6.50073C12.1348 3.39373 9.60627 0.865234 6.49927 0.865234C5.05627 0.865234 3.73677 1.41123 2.74227 2.30173L2.74227 1.33323L1.79977 1.33323L1.79977 4.14773L4.61427 4.14773L4.61427 3.20523L3.14527 3.20523C3.99677 2.34073 5.17977 1.79473 6.49277 1.79473C9.09277 1.79473 11.1923 3.89423 11.1923 6.49423L12.1348 6.49423L12.1348 6.50073Z" fill="white"/>
</g>
<defs>
<clipPath id="clip0_3817_174">
<rect width="13" height="13" fill="white"/>
</clipPath>
</defs>
</svg>
