<svg width="12" height="12" viewBox="0 0 12 12" fill="none" xmlns="http://www.w3.org/2000/svg">
<path d="M2.56359 8.30552C2.5891 8.31167 2.61734 8.31841 2.64816 8.32566C2.80895 8.36349 3.0403 8.41542 3.32341 8.47205C3.59804 8.52697 3.84107 8.59573 4.01547 8.65081C4.09011 8.67438 4.15197 8.69538 4.19815 8.71162C4.1983 8.71427 4.19845 8.71696 4.19862 8.7197C4.20315 8.79337 4.21465 8.89723 4.24227 9.02281C4.29754 9.27402 4.41736 9.61209 4.67446 9.96832C4.67463 9.96856 4.67481 9.96879 4.67498 9.96903L4.79658 9.88121C4.92348 10.0613 5.06825 10.2459 5.20826 10.4244C5.70957 11.0636 6.14988 11.625 5.49033 11.625H4.06533C3.64887 11.625 3.59052 11.4493 3.46439 11.0695C3.38041 10.8167 3.26638 10.4734 2.99658 10.0312M2.56359 8.30552L2.41483 8.26866C2.40215 8.52844 2.45439 9.12304 2.99658 10.0312M2.56359 8.30552C2.562 8.37395 2.56559 8.46629 2.58251 8.5822C2.62618 8.88134 2.75911 9.34067 3.125 9.9537M2.56359 8.30552L3.125 9.9537M2.99658 10.0312L3.12538 9.95432C3.12525 9.95411 3.12513 9.9539 3.125 9.9537M2.99658 10.0312L3.12463 9.95308C3.12475 9.95329 3.12488 9.95349 3.125 9.9537M9.35291 9.25709C8.95159 8.80063 8.31182 8.4773 7.5993 8.23702C6.88323 7.99555 6.07406 7.8317 5.31566 7.70589C4.93603 7.64291 4.56768 7.58924 4.22918 7.54022L4.18561 7.53391C3.86351 7.48727 3.57058 7.44485 3.31968 7.40218C3.05602 7.35734 2.84667 7.31346 2.70239 7.26659C2.62968 7.24297 2.5819 7.2212 2.55386 7.20307C2.55107 7.20126 2.54866 7.19962 2.54658 7.19813V3.36895C2.55198 3.34861 2.57657 3.30695 2.68198 3.25244C2.79367 3.19469 2.96 3.14177 3.17898 3.08963C3.44388 3.02656 3.76343 2.96931 4.1244 2.90464C4.36311 2.86188 4.61993 2.81587 4.89103 2.76279C6.23192 2.50024 7.87333 2.07287 9.00413 1.02934C9.54913 0.534454 9.96992 0.434134 10.292 0.531699C10.625 0.632595 10.9169 0.962228 11.1576 1.47679C11.636 2.49978 11.8466 4.11455 11.8466 5.43746C11.8466 6.75195 11.5401 8.13443 11.0582 8.96701C10.8154 9.38649 10.5459 9.63608 10.277 9.70014C10.023 9.76063 9.71346 9.6666 9.35291 9.25709ZM0.146582 6.52496V4.16246C0.146582 3.81634 0.433366 3.52496 0.802832 3.52496H1.45908V7.16246H0.802832C0.431001 7.16246 0.146582 6.88752 0.146582 6.52496Z" fill="url(#paint0_linear_104_13063)" stroke="url(#paint1_linear_104_13063)" stroke-width="0.3"/>
<defs>
<linearGradient id="paint0_linear_104_13063" x1="-8.67009" y1="-10.0381" x2="1.92928" y2="13.4236" gradientUnits="userSpaceOnUse">
<stop stop-color="#F6D7B6"/>
<stop offset="1" stop-color="#53EFDE"/>
</linearGradient>
<linearGradient id="paint1_linear_104_13063" x1="5.99658" y1="0.3479" x2="5.99658" y2="11.625" gradientUnits="userSpaceOnUse">
<stop stop-color="white"/>
<stop offset="1" stop-color="white" stop-opacity="0"/>
</linearGradient>
</defs>
</svg>
