<svg width="16" height="17" viewBox="0 0 16 17" fill="none" xmlns="http://www.w3.org/2000/svg">
<path d="M4.34266 12.951C4.53576 13.1459 4.53576 13.46 4.34266 13.6548L3.90089 14.1007C3.70526 14.2981 3.38617 14.2981 3.19054 14.1007L2.9399 13.8477C2.7468 13.6528 2.7468 13.3387 2.9399 13.1439L3.38167 12.698C3.5773 12.5006 3.89639 12.5006 4.09202 12.698L4.34266 12.951ZM2.90904 9.14251C2.90904 9.41866 2.68518 9.64252 2.40904 9.64252H1.5C1.22386 9.64252 1 9.41866 1 9.14251V8.85845C1 8.5823 1.22386 8.35844 1.5 8.35844H2.40904C2.68518 8.35844 2.90904 8.5823 2.90904 8.85844V9.14251ZM8.63616 15.5C8.63616 15.7761 8.41231 16 8.13616 16H7.86381C7.58767 16 7.36381 15.7761 7.36381 15.5V14.6382C7.36381 14.3621 7.58767 14.1382 7.86381 14.1382H8.13616C8.41231 14.1382 8.63616 14.3621 8.63616 14.6382V15.5ZM13.0203 13.1448C13.2319 13.336 13.241 13.6651 13.0403 13.8677L12.8095 14.1007C12.6138 14.2981 12.2947 14.2981 12.0991 14.1007L11.6574 13.6549C11.4642 13.46 11.4642 13.1459 11.6574 12.951L11.8637 12.7427C12.0518 12.5529 12.3558 12.5445 12.5541 12.7236L13.0203 13.1448ZM11.6575 5.04916C11.4643 4.85422 11.4644 4.54 11.6576 4.34513L12.0995 3.8996C12.295 3.70246 12.6137 3.70236 12.8093 3.89939L12.9968 4.08818C13.1903 4.28306 13.1904 4.59755 12.997 4.79255L12.555 5.23827C12.3593 5.43554 12.0404 5.43549 11.8448 5.23814L11.6575 5.04916ZM13.0909 8.85845C13.0909 8.5823 13.3148 8.35844 13.5909 8.35844H14.5C14.7761 8.35844 15 8.5823 15 8.85844V9.14251C15 9.41866 14.7761 9.64252 14.5 9.64252H13.5909C13.3148 9.64252 13.0909 9.41866 13.0909 9.14251V8.85845ZM8.00049 12.8542C5.90039 12.8542 4.18238 11.1195 4.18238 9.0009C4.18238 6.88152 5.90039 5.14769 8.00049 5.14769C10.1006 5.14769 11.8185 6.88152 11.8185 9.0009C11.8185 11.1195 10.1006 12.8542 8.00049 12.8542ZM7.36381 2.5C7.36381 2.22386 7.58767 2 7.86381 2H8.13616C8.41231 2 8.63616 2.22386 8.63616 2.5V3.36265C8.63616 3.6388 8.41231 3.86265 8.13616 3.86265H7.86381C7.58767 3.86265 7.36381 3.6388 7.36381 3.36265V2.5ZM2.98034 4.85615C2.76844 4.66503 2.75919 4.33562 2.96004 4.13292L3.19069 3.90015C3.38626 3.70278 3.70523 3.70271 3.90088 3.9L4.34253 4.34535C4.53571 4.54014 4.53585 4.85421 4.34286 5.04918L4.13693 5.25721C3.94901 5.44705 3.64507 5.45566 3.44671 5.27676L2.98034 4.85615Z" fill="#22232B"/>
</svg>
