<svg width="224" height="224" viewBox="0 0 224 224" fill="none" xmlns="http://www.w3.org/2000/svg">
<mask id="mask0_104_13076" style="mask-type:alpha" maskUnits="userSpaceOnUse" x="0" y="0" width="224" height="224">
<rect width="224" height="224" rx="10" fill="#31333A"/>
</mask>
<g mask="url(#mask0_104_13076)">
<path fill-rule="evenodd" clipRule="evenodd" d="M1.12622 102.176C0.231859 102.945 0.130019 104.293 0.898752 105.187L101.812 222.593C102.581 223.487 103.929 223.589 104.824 222.82L222.229 121.906C223.123 121.138 223.225 119.789 222.457 118.895L167.967 55.501C167.783 55.2862 167.52 55.1536 167.238 55.1323L148.984 53.7534L60.2385 51.7285C59.9748 51.7224 59.7182 51.8142 59.5182 51.9862L1.12622 102.176ZM51.4787 120.081C50.5843 120.85 50.4825 122.198 51.2512 123.092L61.4296 134.934C62.1983 135.828 63.5465 135.93 64.4409 135.161L111.47 94.7379C112.365 93.9692 112.467 92.621 111.698 91.7266L101.52 79.8849C100.751 78.9905 99.4026 78.8887 98.5083 79.6574L51.4787 120.081ZM85.817 163.307C85.0483 162.413 85.1502 161.064 86.0445 160.296L163.235 93.9478C164.13 93.179 165.478 93.2809 166.246 94.1752L176.425 106.017C177.194 106.911 177.092 108.26 176.197 109.028L99.0067 175.376C98.1123 176.145 96.7641 176.043 95.9954 175.149L85.817 163.307ZM80.5827 33.8805L118.936 0.914312C119.607 0.337759 120.618 0.414144 121.195 1.08491L149.936 34.5229C150.115 34.7316 149.965 35.0544 149.69 35.052L80.7887 34.4437C80.4929 34.4411 80.3584 34.0733 80.5827 33.8805Z" fill="url(#paint0_linear_104_13076)" fill-opacity="0.04"/>
</g>
<defs>
<linearGradient id="paint0_linear_104_13076" x1="23.9623" y1="26.6651" x2="119.053" y2="74.0141" gradientUnits="userSpaceOnUse">
<stop stop-color="#F6D7B6"/>
<stop offset="1" stop-color="#53EFDE"/>
</linearGradient>
</defs>
</svg>
