<svg width="30" height="30" viewBox="0 0 30 30" fill="none" xmlns="http://www.w3.org/2000/svg">
<circle cx="15" cy="15" r="15" fill="white"/>
<path fill-rule="evenodd" clipRule="evenodd" d="M15 30C23.2843 30 30 23.2843 30 15C30 6.71573 23.2843 0 15 0C6.71573 0 0 6.71573 0 15C0 23.2843 6.71573 30 15 30ZM6 6L21.4896 8.69569L25.5 12.3366L14.1311 25.5L6 6ZM23.5868 12.0566L21.2321 9.92101L17.1113 13.1768L23.5868 12.0566ZM8.9066 7.54039L15.7132 12.9318L20.0547 9.5009L8.9066 7.54039ZM14.1311 22.6293L15.2349 13.877L8.09717 8.27558L14.1311 22.6293ZM23.4396 13.1418L16.2651 14.3671L15.1981 22.6643L23.4396 13.1418Z" fill="#B73E31"/>
</svg>
