<svg width="30" height="30" viewBox="0 0 30 30" fill="none" xmlns="http://www.w3.org/2000/svg">
<circle cx="15" cy="15" r="15" fill="white"/>
<path d="M30 15C30 23.2842 23.2842 30 15 30C6.7158 30 0 23.2842 0 15C0 6.7158 6.7158 0 15 0C23.2842 0 30 6.7158 30 15ZM12.3051 17.0313C12.3027 17.4311 12.3002 17.8303 12.3002 18.2284C12.3002 19.0628 12.304 19.9009 12.3077 20.7372C12.3115 21.5696 12.3152 22.4002 12.3152 23.2234C12.3152 23.4934 12.3902 23.5534 12.6452 23.5534C14.1002 23.5384 15.5702 23.5384 17.0252 23.5534C17.3252 23.5684 17.4152 23.4934 17.4152 23.1784C17.4077 21.5734 17.4077 19.9721 17.4077 18.3728C17.4077 16.7734 17.4077 15.1759 17.4002 13.5784C17.4002 13.2634 17.4902 13.2034 17.7902 13.2034C19.2601 13.2184 20.7449 13.2184 22.2148 13.2184C22.3948 13.2184 22.5152 13.2034 22.5152 12.9634C22.5052 11.9734 22.5086 10.9834 22.5119 9.99338C22.5136 9.49838 22.5152 9.00338 22.5152 8.50838C22.5152 8.34338 22.4852 8.25338 22.2902 8.26838C21.4914 8.30832 20.6925 8.28966 19.8945 8.27101C18.5947 8.24064 17.2971 8.21033 16.0052 8.43338C15.6602 8.47838 15.3002 8.58338 15.0302 8.77838C14.9312 8.85086 14.8313 8.92178 14.7317 8.99259C14.2125 9.3614 13.6977 9.7271 13.3202 10.2934C12.9152 10.8784 12.6152 11.4934 12.4802 12.1534C12.3602 12.7534 12.2702 13.3834 12.2852 14.0284C12.3174 15.0253 12.3112 16.0299 12.3051 17.0313ZM7.35022 8.58338V10.7134C7.35022 11.0809 7.35397 11.4484 7.35772 11.8159C7.36147 12.1834 7.36522 12.5509 7.36522 12.9184C7.36522 13.1734 7.44022 13.2334 7.68022 13.2334C8.19022 13.2484 8.67022 13.1284 9.13522 12.9334C9.51022 12.7834 9.88522 12.6184 10.2002 12.3934C10.7702 11.9884 11.2652 11.4934 11.6252 10.8484C12.0302 10.1284 12.3602 9.40838 12.3152 8.55338C12.3002 8.34338 12.2552 8.28338 12.0452 8.28338C10.5602 8.29838 9.09022 8.29838 7.62022 8.28338C7.36522 8.26838 7.35022 8.37338 7.35022 8.58338Z" fill="#285FF6"/>
</svg>
