<svg width="30" height="30" viewBox="0 0 30 30" fill="none" xmlns="http://www.w3.org/2000/svg">
<circle cx="15" cy="15" r="15" fill="white"/>
<path d="M15 30C23.2843 30 30 23.2843 30 15C30 6.71573 23.2843 0 15 0C6.71573 0 0 6.71573 0 15C0 23.2843 6.71573 30 15 30ZM19.2333 6.11133V18.6535C19.2333 21.198 17.161 23.2702 14.6168 23.2702C12.0725 23.2702 10.0003 21.198 10.0003 18.6535V16.8979H12.345V18.6535C12.345 19.9053 13.3652 20.9252 14.6168 20.9252C15.8684 20.9252 16.8883 19.9053 16.8883 18.6535V8.45329H13.8253C15.7921 8.02233 17.6212 7.21336 19.2333 6.11133ZM10.0001 15.3346V12.9896H12.3451V15.3346H10.0001Z" fill="#A42921"/>
</svg>
