<svg width="30" height="30" viewBox="0 0 30 30" fill="none" xmlns="http://www.w3.org/2000/svg">
<circle cx="15" cy="15" r="15" fill="white"/>
<path d="M15 30C23.2843 30 30 23.2843 30 15C30 6.71573 23.2843 0 15 0C6.71573 0 0 6.71573 0 15C0 23.2843 6.71573 30 15 30ZM16.7094 12.6609C16.7094 12.6609 22.8857 12.8802 23.474 14.4159C23.474 14.4159 24.3261 15.9535 16.7094 16.4376V22.9793H13.3837V16.4376C13.3837 16.4376 6.68696 16.1728 6.59835 14.5483C6.52294 13.1148 12.605 12.6382 13.3837 12.6363V10.6845H8.74386V7.61133H21.3492V10.6845H16.7094V12.6609ZM7.62939 14.7586C9.18479 15.9348 15.1915 15.9102 15.1915 15.9102C22.8365 15.7344 22.5744 14.4163 22.5744 14.4163C22.4877 13.1871 16.7092 12.9677 16.7092 12.9677V15.341H13.3815V12.9696C10.0558 13.0566 8.23081 13.7487 8.23081 13.7487C6.88846 14.265 7.62939 14.7586 7.62939 14.7586Z" fill="#26A17B"/>
</svg>
