<svg width="20" height="20" viewBox="0 0 20 20" fill="none" xmlns="http://www.w3.org/2000/svg">
<circle cx="10" cy="10" r="10" fill="white"/>
<path d="M10 20C15.5228 20 20 15.5228 20 10C20 4.47715 15.5228 0 10 0C4.47715 0 0 4.47715 0 10C0 15.5228 4.47715 20 10 20ZM11.1396 8.44058C11.1396 8.44058 15.2572 8.58683 15.6493 9.61061C15.6493 9.61061 16.2174 10.6356 11.1396 10.9584V15.3195H8.92244V10.9584C8.92244 10.9584 4.45797 10.7819 4.3989 9.69886C4.34863 8.74317 8.40335 8.42545 8.92244 8.42419V7.12303H5.82924V5.07422H14.2328V7.12303H11.1396V8.44058ZM5.08626 9.83905C6.1232 10.6232 10.1276 10.6068 10.1276 10.6068C15.2243 10.4896 15.0496 9.61086 15.0496 9.61086C14.9918 8.79139 11.1394 8.64515 11.1394 8.64515V10.2274H8.92103V8.64641C6.70388 8.7044 5.48721 9.16583 5.48721 9.16583C4.5923 9.51 5.08626 9.83905 5.08626 9.83905Z" fill="#26A17B"/>
</svg>
