<svg width="12" height="12" viewBox="0 0 12 12" fill="none" xmlns="http://www.w3.org/2000/svg">
<path fill-rule="evenodd" clipRule="evenodd" d="M6 12C9.31371 12 12 9.31371 12 6C12 2.68629 9.31371 0 6 0C2.68629 0 0 2.68629 0 6C0 9.31371 2.68629 12 6 12ZM6.21872 9.00071C6.51996 9.00071 6.76417 8.7565 6.76417 8.45526C6.76417 8.15401 6.51996 7.9098 6.21872 7.9098H6.00053C5.69929 7.9098 5.45508 8.15401 5.45508 8.45526C5.45508 8.7565 5.69929 9.00071 6.00053 9.00071H6.21872ZM5.45508 6.43707C5.45508 6.79857 5.74813 7.09162 6.10962 7.09162C6.47112 7.09162 6.76417 6.79857 6.76417 6.43707V3.92798C6.76417 3.56649 6.47112 3.27344 6.10962 3.27344C5.74813 3.27344 5.45508 3.56649 5.45508 3.92798V6.43707Z" fill="#A9A9AD"/>
</svg>
