<svg width="20" height="20" viewBox="0 0 20 20" fill="none" xmlns="http://www.w3.org/2000/svg">
<path d="M8.84292 0.668039C9.55892 0.254655 10.4411 0.254655 11.1571 0.668039L17.5032 4.33196C18.2192 4.74535 18.6603 5.50931 18.6603 6.33608V13.6639C18.6603 14.4907 18.2192 15.2547 17.5032 15.668L11.1571 19.332C10.4411 19.7453 9.55892 19.7453 8.84292 19.332L2.49682 15.668C1.78082 15.2547 1.33975 14.4907 1.33975 13.6639V6.33608C1.33975 5.50931 1.78082 4.74534 2.49682 4.33196L8.84292 0.668039Z" fill="#37AA6B"/>
<mask id="mask0_16_3040" style="mask-type:alpha" maskUnits="userSpaceOnUse" x="1" y="0" width="18" height="20">
<path d="M8.84292 0.668039C9.55892 0.254655 10.4411 0.254655 11.1571 0.668039L17.5032 4.33196C18.2192 4.74535 18.6603 5.50931 18.6603 6.33608V13.6639C18.6603 14.4907 18.2192 15.2547 17.5032 15.668L11.1571 19.332C10.4411 19.7453 9.55892 19.7453 8.84292 19.332L2.49682 15.668C1.78082 15.2547 1.33975 14.4907 1.33975 13.6639V6.33608C1.33975 5.50931 1.78082 4.74534 2.49682 4.33196L8.84292 0.668039Z" fill="#68E29F"/>
</mask>
<g mask="url(#mask0_16_3040)">
<path fill-rule="evenodd" clipRule="evenodd" d="M18.9475 15.4674L10.045 11.2848L1.19965 15.4405L10.097 20.5463L18.9475 15.4674Z" fill="#1F804A"/>
</g>
<mask id="path-4-outside-1_16_3040" maskUnits="userSpaceOnUse" x="3.20276" y="7.95911" width="13" height="7" fill="black">
<rect fill="white" x="3.20276" y="7.95911" width="13" height="7"/>
<path fill-rule="evenodd" clipRule="evenodd" d="M10.0514 8.95911V9.33262L9.9306 9.33264C8.53753 9.33292 7.2799 9.44524 6.37348 9.62529C5.91928 9.71552 5.55954 9.82156 5.31626 9.93579C5.1943 9.99305 5.10809 10.0494 5.05407 10.1018C5.0002 10.1541 4.9879 10.1926 4.9879 10.2177C4.9879 10.2428 5.0002 10.2813 5.05407 10.3336C5.10809 10.386 5.1943 10.4424 5.31626 10.4997C5.55954 10.6139 5.91928 10.7199 6.37348 10.8101C7.2799 10.9902 8.53753 11.1025 9.9306 11.1028L9.94847 11.1028V11.1008L10.0694 11.1009C11.624 11.1012 13.035 11.2413 14.0605 11.4694C14.5722 11.5832 14.9946 11.7204 15.292 11.8767C15.4405 11.9548 15.5638 12.0407 15.6513 12.1358C15.7394 12.2316 15.7971 12.3435 15.7971 12.4689C15.7971 12.5943 15.7394 12.7062 15.6513 12.802C15.5638 12.8971 15.4405 12.983 15.292 13.0611C14.9946 13.2174 14.5722 13.3546 14.0605 13.4684C13.035 13.6965 11.624 13.8366 10.0694 13.8369L9.94847 13.8369V13.4634L10.0693 13.4634C10.5516 13.4633 11.0176 13.4498 11.4584 13.4247L10.1738 13.7158L10.1902 13.7158C13.2315 13.7009 15.6763 13.1483 15.6763 12.4689C15.6763 11.7894 13.2315 11.2369 10.1902 11.222L10.0693 11.2217V11.5724C12.8663 11.5729 15.1329 12.0231 15.1329 12.5783C15.1329 12.5783 15.1329 12.5783 15.1329 12.5783L15.1329 12.5783C15.1329 12.5829 15.1327 12.5875 15.1324 12.5921L15.0012 12.6219C15.0094 12.6045 15.012 12.59 15.012 12.5783C15.012 12.5532 14.9997 12.5147 14.9458 12.4625C14.8918 12.41 14.8056 12.3537 14.6837 12.2964C14.4404 12.1822 14.0806 12.0761 13.6264 11.9859C12.72 11.8059 11.4624 11.6935 10.0693 11.6933L10.0514 11.6933V11.6952L9.93055 11.6952C8.3759 11.6949 6.96495 11.5548 5.93944 11.3267C5.42767 11.2128 5.0053 11.0757 4.70794 10.9194C4.55938 10.8413 4.4361 10.7553 4.34858 10.6602C4.26046 10.5645 4.20276 10.4526 4.20276 10.3272C4.20276 10.2017 4.26046 10.0899 4.34858 9.99411C4.4361 9.899 4.55938 9.81308 4.70794 9.73497C5.0053 9.57864 5.42767 9.4415 5.93944 9.32767C6.96495 9.09958 8.3759 8.95944 9.93055 8.95913L10.0514 8.95911ZM15.1324 12.5921L15.1324 12.5921C15.1313 12.6086 15.1282 12.625 15.1231 12.6412C15.1282 12.625 15.1313 12.6086 15.1324 12.5921ZM15.1324 12.5921L15.6763 12.4689L15.1329 12.5783C15.1329 12.5829 15.1327 12.5875 15.1324 12.5921ZM15.0012 12.6219C14.9917 12.6421 14.9748 12.6661 14.9458 12.6942C14.8918 12.7466 14.8056 12.803 14.6837 12.8603C14.4404 12.9745 14.0806 13.0805 13.6264 13.1708C13.0338 13.2885 12.291 13.3773 11.4584 13.4247L15.0012 12.6219ZM9.93058 9.07999L9.93056 9.07999V9.21172C7.13356 9.21228 4.86702 9.66244 4.86702 10.2177C4.86702 10.2421 4.8714 10.2663 4.88001 10.2903C4.87141 10.2663 4.86704 10.2421 4.86704 10.2177C4.86704 9.66249 7.13358 9.21233 9.93058 9.21178V9.07999ZM9.93056 11.5743V11.2237H9.93058V11.5743L9.901 11.5743L9.93056 11.5743ZM10.0693 13.716V13.5843H10.0693V13.7161L10.0858 13.716L10.0693 13.716Z"/>
</mask>
<path fill-rule="evenodd" clipRule="evenodd" d="M10.0514 8.95911V9.33262L9.9306 9.33264C8.53753 9.33292 7.2799 9.44524 6.37348 9.62529C5.91928 9.71552 5.55954 9.82156 5.31626 9.93579C5.1943 9.99305 5.10809 10.0494 5.05407 10.1018C5.0002 10.1541 4.9879 10.1926 4.9879 10.2177C4.9879 10.2428 5.0002 10.2813 5.05407 10.3336C5.10809 10.386 5.1943 10.4424 5.31626 10.4997C5.55954 10.6139 5.91928 10.7199 6.37348 10.8101C7.2799 10.9902 8.53753 11.1025 9.9306 11.1028L9.94847 11.1028V11.1008L10.0694 11.1009C11.624 11.1012 13.035 11.2413 14.0605 11.4694C14.5722 11.5832 14.9946 11.7204 15.292 11.8767C15.4405 11.9548 15.5638 12.0407 15.6513 12.1358C15.7394 12.2316 15.7971 12.3435 15.7971 12.4689C15.7971 12.5943 15.7394 12.7062 15.6513 12.802C15.5638 12.8971 15.4405 12.983 15.292 13.0611C14.9946 13.2174 14.5722 13.3546 14.0605 13.4684C13.035 13.6965 11.624 13.8366 10.0694 13.8369L9.94847 13.8369V13.4634L10.0693 13.4634C10.5516 13.4633 11.0176 13.4498 11.4584 13.4247L10.1738 13.7158L10.1902 13.7158C13.2315 13.7009 15.6763 13.1483 15.6763 12.4689C15.6763 11.7894 13.2315 11.2369 10.1902 11.222L10.0693 11.2217V11.5724C12.8663 11.5729 15.1329 12.0231 15.1329 12.5783C15.1329 12.5783 15.1329 12.5783 15.1329 12.5783L15.1329 12.5783C15.1329 12.5829 15.1327 12.5875 15.1324 12.5921L15.0012 12.6219C15.0094 12.6045 15.012 12.59 15.012 12.5783C15.012 12.5532 14.9997 12.5147 14.9458 12.4625C14.8918 12.41 14.8056 12.3537 14.6837 12.2964C14.4404 12.1822 14.0806 12.0761 13.6264 11.9859C12.72 11.8059 11.4624 11.6935 10.0693 11.6933L10.0514 11.6933V11.6952L9.93055 11.6952C8.3759 11.6949 6.96495 11.5548 5.93944 11.3267C5.42767 11.2128 5.0053 11.0757 4.70794 10.9194C4.55938 10.8413 4.4361 10.7553 4.34858 10.6602C4.26046 10.5645 4.20276 10.4526 4.20276 10.3272C4.20276 10.2017 4.26046 10.0899 4.34858 9.99411C4.4361 9.899 4.55938 9.81308 4.70794 9.73497C5.0053 9.57864 5.42767 9.4415 5.93944 9.32767C6.96495 9.09958 8.3759 8.95944 9.93055 8.95913L10.0514 8.95911ZM15.1324 12.5921L15.1324 12.5921C15.1313 12.6086 15.1282 12.625 15.1231 12.6412C15.1282 12.625 15.1313 12.6086 15.1324 12.5921ZM15.1324 12.5921L15.6763 12.4689L15.1329 12.5783C15.1329 12.5829 15.1327 12.5875 15.1324 12.5921ZM15.0012 12.6219C14.9917 12.6421 14.9748 12.6661 14.9458 12.6942C14.8918 12.7466 14.8056 12.803 14.6837 12.8603C14.4404 12.9745 14.0806 13.0805 13.6264 13.1708C13.0338 13.2885 12.291 13.3773 11.4584 13.4247L15.0012 12.6219ZM9.93058 9.07999L9.93056 9.07999V9.21172C7.13356 9.21228 4.86702 9.66244 4.86702 10.2177C4.86702 10.2421 4.8714 10.2663 4.88001 10.2903C4.87141 10.2663 4.86704 10.2421 4.86704 10.2177C4.86704 9.66249 7.13358 9.21233 9.93058 9.21178V9.07999ZM9.93056 11.5743V11.2237H9.93058V11.5743L9.901 11.5743L9.93056 11.5743ZM10.0693 13.716V13.5843H10.0693V13.7161L10.0858 13.716L10.0693 13.716Z" fill="white"/>
<path d="M15.1538 12.6824L15.6972 12.573L15.6553 12.3648L15.1119 12.4743L15.1538 12.6824ZM11.435 13.3212L10.1503 13.6123L10.1973 13.8193L11.4819 13.5282L11.435 13.3212ZM10.0514 9.33262L10.0515 9.54493L10.2638 9.54488V9.33262H10.0514ZM10.0514 8.95911H10.2638V8.74675L10.0514 8.7468L10.0514 8.95911ZM9.9306 9.33264L9.93064 9.54495L9.9306 9.33264ZM6.37348 9.62529L6.33212 9.41705L6.37348 9.62529ZM5.31626 9.93579L5.22602 9.74361L5.22602 9.74361L5.31626 9.93579ZM5.05407 10.1018L4.90621 9.94948H4.90621L5.05407 10.1018ZM5.05407 10.3336L4.90621 10.486L4.90621 10.486L5.05407 10.3336ZM5.31626 10.4997L5.40649 10.3075H5.40649L5.31626 10.4997ZM6.37348 10.8101L6.41485 10.6019L6.37348 10.8101ZM9.9306 11.1028L9.93064 10.8905H9.93064L9.9306 11.1028ZM9.94847 11.1028L9.94842 11.3151L10.1608 11.3152V11.1028H9.94847ZM9.94847 11.1008L9.94851 10.8885L9.73616 10.8885V11.1008H9.94847ZM10.0694 11.1009L10.0693 11.3132L10.0694 11.1009ZM14.0605 11.4694L14.1066 11.2621L14.0605 11.4694ZM15.292 11.8767L15.3908 11.6888L15.292 11.8767ZM15.6513 12.1358L15.8076 11.9921L15.8075 11.9921L15.6513 12.1358ZM15.6513 12.802L15.8075 12.9457L15.8076 12.9457L15.6513 12.802ZM15.292 13.0611L15.1932 12.8732V12.8732L15.292 13.0611ZM14.0605 13.4684L14.1066 13.6756L14.0605 13.4684ZM10.0694 13.8369L10.0693 13.6246L10.0694 13.8369ZM9.94847 13.8369H9.73616V14.0493L9.94851 14.0493L9.94847 13.8369ZM9.94847 13.4634L9.94842 13.2511L9.73616 13.2512V13.4634H9.94847ZM10.0693 13.4634L10.0693 13.2511H10.0693L10.0693 13.4634ZM10.1738 13.7158L10.1269 13.5087L10.1743 13.9281L10.1738 13.7158ZM10.1902 13.7158L10.1907 13.9281L10.1912 13.9281L10.1902 13.7158ZM10.1902 11.222L10.1912 11.0097L10.1907 11.0097L10.1902 11.222ZM10.0693 11.2217L10.0699 11.0094L9.85704 11.0089V11.2217H10.0693ZM10.0693 11.5724H9.85704V11.7846L10.0693 11.7847L10.0693 11.5724ZM15.1329 12.5783L15.0918 12.37L14.9206 12.4038V12.5783H15.1329ZM14.9458 12.4625L15.0937 12.3101L15.0937 12.3101L14.9458 12.4625ZM14.6837 12.2964L14.7739 12.1042L14.7739 12.1042L14.6837 12.2964ZM13.6264 11.9859L13.5851 12.1942L13.6264 11.9859ZM10.0693 11.6933L10.0693 11.9056H10.0693L10.0693 11.6933ZM10.0514 11.6933L10.0515 11.4809L9.83913 11.4809V11.6933H10.0514ZM10.0514 11.6952L10.0514 11.9075L10.2638 11.9076V11.6952H10.0514ZM9.93055 11.6952L9.93059 11.4829L9.93055 11.6952ZM5.93944 11.3267L5.89335 11.5339L5.93944 11.3267ZM4.70794 10.9194L4.80673 10.7314L4.80673 10.7314L4.70794 10.9194ZM4.34858 10.6602L4.19236 10.804H4.19236L4.34858 10.6602ZM4.34858 9.99411L4.50481 10.1379L4.50481 10.1379L4.34858 9.99411ZM4.70794 9.73497L4.80673 9.9229L4.80673 9.9229L4.70794 9.73497ZM5.93944 9.32767L5.98554 9.53492L5.93944 9.32767ZM9.93055 8.95913L9.93051 8.74682L9.93055 8.95913ZM15.1231 12.6412L14.9204 12.5782L15.3259 12.7043L15.1231 12.6412ZM14.9458 12.6942L15.0937 12.8466L15.0937 12.8466L14.9458 12.6942ZM14.6837 12.8603L14.7739 13.0524L14.7739 13.0524L14.6837 12.8603ZM13.6264 13.1708L13.5851 12.9625L13.6264 13.1708ZM9.93056 9.07999L9.92998 8.86768L9.71825 8.86826V9.07999H9.93056ZM9.93058 9.07999H10.1429V8.8671L9.93 8.86768L9.93058 9.07999ZM9.93056 9.21172L9.9306 9.42404L10.1429 9.42399V9.21172H9.93056ZM4.88001 10.2903L4.68021 10.362L5.07984 10.2185L4.88001 10.2903ZM9.93058 9.21178L9.93062 9.42409L10.1429 9.42404V9.21178H9.93058ZM9.93056 11.2237V11.0114H9.71825V11.2237H9.93056ZM9.93056 11.5743L9.93039 11.7866L10.1429 11.7868V11.5743H9.93056ZM9.93058 11.2237H10.1429V11.0114H9.93058V11.2237ZM9.93058 11.5743L9.93004 11.7866L10.1429 11.7872V11.5743H9.93058ZM9.901 11.5743L9.90116 11.362L9.90046 11.7866L9.901 11.5743ZM10.0693 13.5843H10.2817V13.372H10.0693V13.5843ZM10.0693 13.716H9.85704V13.9284L10.0695 13.9283L10.0693 13.716ZM10.0693 13.5843V13.372H9.85702V13.5843H10.0693ZM10.0693 13.7161H9.85702V13.9289L10.0699 13.9284L10.0693 13.7161ZM10.0858 13.716L10.0863 13.9283L10.0857 13.5037L10.0858 13.716ZM10.2638 9.33262V8.95911H9.83913V9.33262H10.2638ZM9.93064 9.54495L10.0515 9.54493L10.0514 9.12031L9.93056 9.12033L9.93064 9.54495ZM6.41485 9.83353C7.30398 9.65691 8.54711 9.54522 9.93064 9.54495L9.93056 9.12033C8.52796 9.12061 7.25583 9.23356 6.33212 9.41705L6.41485 9.83353ZM5.40649 10.128C5.62709 10.0244 5.96753 9.92239 6.41485 9.83353L6.33212 9.41705C5.87103 9.50865 5.49199 9.61873 5.22602 9.74361L5.40649 10.128ZM5.20192 10.2542C5.23238 10.2246 5.29529 10.1802 5.40649 10.128L5.22602 9.74361C5.09331 9.80592 4.9838 9.87418 4.90621 9.94948L5.20192 10.2542ZM5.20021 10.2177C5.20021 10.229 5.1988 10.2392 5.1966 10.248C5.19444 10.2566 5.19179 10.2627 5.19005 10.2662C5.18678 10.2726 5.18739 10.2683 5.20192 10.2542L4.90621 9.94948C4.82787 10.0255 4.77559 10.1154 4.77559 10.2177H5.20021ZM5.20192 10.1812C5.18739 10.1671 5.18678 10.1628 5.19005 10.1693C5.19179 10.1727 5.19444 10.1788 5.1966 10.1875C5.1988 10.1962 5.20021 10.2064 5.20021 10.2177H4.77559C4.77559 10.32 4.82787 10.4099 4.90621 10.486L5.20192 10.1812ZM5.40649 10.3075C5.29529 10.2553 5.23238 10.2108 5.20192 10.1812L4.90621 10.486C4.9838 10.5613 5.09331 10.6295 5.22602 10.6918L5.40649 10.3075ZM6.41485 10.6019C5.96753 10.513 5.62709 10.411 5.40649 10.3075L5.22602 10.6918C5.49199 10.8167 5.87103 10.9268 6.33212 11.0184L6.41485 10.6019ZM9.93064 10.8905C8.54711 10.8902 7.30398 10.7785 6.41485 10.6019L6.33212 11.0184C7.25583 11.2019 8.52796 11.3148 9.93056 11.3151L9.93064 10.8905ZM9.94851 10.8905L9.93064 10.8905L9.93056 11.3151L9.94842 11.3151L9.94851 10.8905ZM9.73616 11.1008V11.1028H10.1608V11.1008H9.73616ZM10.0694 10.8885L9.94851 10.8885L9.94843 11.3131L10.0693 11.3132L10.0694 10.8885ZM14.1066 11.2621C13.0619 11.0298 11.6348 10.8889 10.0694 10.8885L10.0693 11.3132C11.6132 11.3135 13.008 11.4528 14.0144 11.6766L14.1066 11.2621ZM15.3908 11.6888C15.0694 11.5198 14.6262 11.3777 14.1066 11.2621L14.0144 11.6766C14.5183 11.7887 14.9198 11.9209 15.1932 12.0646L15.3908 11.6888ZM15.8075 11.9921C15.6975 11.8724 15.5511 11.7731 15.3908 11.6888L15.1932 12.0646C15.3299 12.1365 15.4301 12.209 15.4951 12.2796L15.8075 11.9921ZM16.0095 12.4689C16.0095 12.2741 15.9191 12.1133 15.8076 11.9921L15.4951 12.2796C15.5597 12.3498 15.5848 12.4128 15.5848 12.4689H16.0095ZM15.8076 12.9457C15.9191 12.8245 16.0095 12.6636 16.0095 12.4689H15.5848C15.5848 12.525 15.5597 12.5879 15.4951 12.6582L15.8076 12.9457ZM15.3908 13.249C15.5511 13.1647 15.6975 13.0653 15.8075 12.9457L15.4951 12.6582C15.4301 12.7288 15.3299 12.8013 15.1932 12.8732L15.3908 13.249ZM14.1066 13.6756C14.6262 13.5601 15.0694 13.418 15.3908 13.249L15.1932 12.8732C14.9198 13.0169 14.5183 13.1491 14.0144 13.2611L14.1066 13.6756ZM10.0694 14.0492C11.6348 14.0489 13.0619 13.908 14.1066 13.6756L14.0144 13.2611C13.008 13.485 11.6132 13.6243 10.0693 13.6246L10.0694 14.0492ZM9.94851 14.0493L10.0694 14.0492L10.0693 13.6246L9.94843 13.6246L9.94851 14.0493ZM9.73616 13.4634V13.8369H10.1608V13.4634H9.73616ZM10.0693 13.2511L9.94842 13.2511L9.94851 13.6758L10.0694 13.6757L10.0693 13.2511ZM11.4464 13.2127C11.0096 13.2376 10.5476 13.251 10.0693 13.2511L10.0693 13.6757C10.5555 13.6756 11.0256 13.662 11.4705 13.6367L11.4464 13.2127ZM11.4115 13.2176L10.1269 13.5087L10.2207 13.9229L11.5054 13.6317L11.4115 13.2176ZM10.1743 13.9281L10.1907 13.9281L10.1897 13.5034L10.1732 13.5035L10.1743 13.9281ZM10.1912 13.9281C11.7224 13.9206 13.1101 13.7779 14.1207 13.5486C14.6243 13.4343 15.0458 13.296 15.3467 13.1356C15.4969 13.0555 15.6273 12.9645 15.7225 12.8597C15.8188 12.7536 15.8886 12.622 15.8886 12.4689H15.464C15.464 12.4856 15.4574 12.5199 15.4081 12.5742C15.3577 12.6297 15.2733 12.6935 15.1469 12.7609C14.8942 12.8956 14.5145 13.0238 14.0267 13.1345C13.0546 13.355 11.6993 13.4961 10.1892 13.5034L10.1912 13.9281ZM15.8886 12.4689C15.8886 12.3157 15.8188 12.1842 15.7225 12.0781C15.6273 11.9733 15.4969 11.8823 15.3467 11.8022C15.0458 11.6418 14.6243 11.5035 14.1207 11.3892C13.1101 11.1599 11.7224 11.0172 10.1912 11.0097L10.1892 11.4343C11.6993 11.4417 13.0546 11.5827 14.0267 11.8033C14.5145 11.914 14.8942 12.0421 15.1469 12.1769C15.2733 12.2443 15.3577 12.3081 15.4081 12.3636C15.4574 12.4179 15.464 12.4522 15.464 12.4689H15.8886ZM10.1907 11.0097L10.0699 11.0094L10.0688 11.434L10.1897 11.4343L10.1907 11.0097ZM9.85704 11.2217V11.5724H10.2817V11.2217H9.85704ZM10.0693 11.7847C11.4583 11.7849 12.7097 11.897 13.6086 12.0756C14.0599 12.1652 14.4113 12.2695 14.6448 12.3791C14.7621 12.4342 14.8383 12.4855 14.8822 12.528C14.9258 12.5704 14.9206 12.5867 14.9206 12.5783H15.3452C15.3452 12.4311 15.2692 12.3119 15.1779 12.2233C15.0869 12.135 14.9641 12.06 14.8253 11.9948C14.5464 11.8638 14.1564 11.7515 13.6914 11.6591C12.7578 11.4736 11.4774 11.3603 10.0694 11.36L10.0693 11.7847ZM14.9206 12.5783C14.9206 12.5783 14.9206 12.5783 14.9206 12.5783C14.9206 12.5783 14.9206 12.5783 14.9206 12.5783C14.9206 12.5783 14.9206 12.5783 14.9206 12.5783C14.9206 12.5783 14.9206 12.5783 14.9206 12.5783C14.9206 12.5783 14.9206 12.5783 14.9206 12.5783V12.5783V12.5783V12.5783V12.5783C14.9206 12.5783 14.9206 12.5783 14.9206 12.5783C14.9206 12.5783 14.9206 12.5783 14.9206 12.5783C14.9206 12.5783 14.9206 12.5783 14.9206 12.5783C14.9206 12.5783 14.9206 12.5783 14.9206 12.5783C14.9206 12.5783 14.9206 12.5783 14.9206 12.5783C14.9206 12.5783 14.9206 12.5783 14.9206 12.5783C14.9206 12.5783 14.9206 12.5783 14.9206 12.5783C14.9206 12.5783 14.9206 12.5783 14.9206 12.5783C14.9206 12.5783 14.9206 12.5783 14.9206 12.5783V12.5783V12.5783V12.5783C14.9206 12.5783 14.9206 12.5783 14.9206 12.5783C14.9206 12.5783 14.9206 12.5783 14.9206 12.5783C14.9206 12.5783 14.9206 12.5783 14.9206 12.5783C14.9206 12.5783 14.9206 12.5783 14.9206 12.5783C14.9206 12.5783 14.9206 12.5783 14.9206 12.5783C14.9206 12.5783 14.9206 12.5783 14.9206 12.5783C14.9206 12.5783 14.9206 12.5783 14.9206 12.5783V12.5783V12.5783V12.5783V12.5783C14.9206 12.5783 14.9206 12.5783 14.9206 12.5783C14.9206 12.5783 14.9206 12.5783 14.9206 12.5783C14.9206 12.5783 14.9206 12.5783 14.9206 12.5783C14.9206 12.5783 14.9206 12.5783 14.9206 12.5783C14.9206 12.5783 14.9206 12.5783 14.9206 12.5783C14.9206 12.5783 14.9206 12.5783 14.9206 12.5783V12.5783V12.5783V12.5783C14.9206 12.5783 14.9206 12.5783 14.9206 12.5783C14.9206 12.5783 14.9206 12.5783 14.9206 12.5783C14.9206 12.5783 14.9206 12.5783 14.9206 12.5783C14.9206 12.5783 14.9206 12.5783 14.9206 12.5783C14.9206 12.5783 14.9206 12.5783 14.9206 12.5783C14.9206 12.5783 14.9206 12.5783 14.9206 12.5783C14.9206 12.5783 14.9206 12.5783 14.9206 12.5783V12.5783V12.5783V12.5783C14.9206 12.5783 14.9206 12.5783 14.9206 12.5783C14.9206 12.5783 14.9206 12.5783 14.9206 12.5783C14.9206 12.5783 14.9206 12.5783 14.9206 12.5783C14.9206 12.5783 14.9206 12.5783 14.9206 12.5783C14.9206 12.5783 14.9206 12.5783 14.9206 12.5783C14.9206 12.5783 14.9206 12.5783 14.9206 12.5783V12.5783V12.5783V12.5783C14.9206 12.5783 14.9206 12.5783 14.9206 12.5783C14.9206 12.5783 14.9206 12.5783 14.9206 12.5783C14.9206 12.5783 14.9206 12.5783 14.9206 12.5783C14.9206 12.5783 14.9206 12.5783 14.9206 12.5783C14.9206 12.5783 14.9206 12.5783 14.9206 12.5783V12.5783V12.5783V12.5783C14.9206 12.5783 14.9206 12.5783 14.9206 12.5783C14.9206 12.5783 14.9206 12.5783 14.9206 12.5783C14.9206 12.5783 14.9206 12.5783 14.9206 12.5783C14.9206 12.5783 14.9206 12.5783 14.9206 12.5783C14.9206 12.5783 14.9206 12.5783 14.9206 12.5783C14.9206 12.5783 14.9206 12.5783 14.9206 12.5783V12.5783V12.5783V12.5783C14.9206 12.5783 14.9206 12.5783 14.9206 12.5783C14.9206 12.5783 14.9206 12.5783 14.9206 12.5783C14.9206 12.5783 14.9206 12.5783 14.9206 12.5783C14.9206 12.5783 14.9206 12.5783 14.9206 12.5783C14.9206 12.5783 14.9206 12.5783 14.9206 12.5783C14.9206 12.5783 14.9206 12.5783 14.9206 12.5783C14.9206 12.5783 14.9206 12.5783 14.9206 12.5783V12.5783V12.5783V12.5783C14.9206 12.5783 14.9206 12.5783 14.9206 12.5783C14.9206 12.5783 14.9206 12.5783 14.9206 12.5783C14.9206 12.5783 14.9206 12.5783 14.9206 12.5783C14.9206 12.5783 14.9206 12.5783 14.9206 12.5783C14.9206 12.5783 14.9206 12.5783 14.9206 12.5783C14.9206 12.5783 14.9206 12.5783 14.9206 12.5783V12.5783V12.5783V12.5783V12.5783C14.9206 12.5783 14.9206 12.5783 14.9206 12.5783C14.9206 12.5783 14.9206 12.5783 14.9206 12.5783C14.9206 12.5783 14.9206 12.5783 14.9206 12.5783C14.9206 12.5783 14.9206 12.5783 14.9206 12.5783C14.9206 12.5783 14.9206 12.5783 14.9206 12.5783C14.9206 12.5783 14.9206 12.5783 14.9206 12.5783C14.9206 12.5783 14.9206 12.5783 14.9206 12.5783V12.5783V12.5783V12.5783C14.9206 12.5783 14.9206 12.5783 14.9206 12.5783C14.9206 12.5783 14.9206 12.5783 14.9206 12.5783C14.9206 12.5783 14.9206 12.5783 14.9206 12.5783C14.9206 12.5783 14.9206 12.5783 14.9206 12.5783C14.9206 12.5783 14.9206 12.5783 14.9206 12.5783C14.9206 12.5783 14.9206 12.5783 14.9206 12.5783C14.9206 12.5783 14.9206 12.5783 14.9206 12.5783C14.9206 12.5783 14.9206 12.5783 14.9206 12.5783C14.9206 12.5783 14.9206 12.5783 14.9206 12.5783V12.5783V12.5783V12.5783V12.5783C14.9206 12.5783 14.9206 12.5783 14.9206 12.5783C14.9206 12.5783 14.9206 12.5783 14.9206 12.5783C14.9206 12.5783 14.9206 12.5783 14.9206 12.5783C14.9206 12.5783 14.9206 12.5783 14.9206 12.5783C14.9206 12.5783 14.9206 12.5783 14.9206 12.5783H15.3452C15.3452 12.5783 15.3452 12.5783 15.3452 12.5783C15.3452 12.5783 15.3452 12.5783 15.3452 12.5783C15.3452 12.5783 15.3452 12.5783 15.3452 12.5783C15.3452 12.5783 15.3452 12.5783 15.3452 12.5783C15.3452 12.5783 15.3452 12.5783 15.3452 12.5783V12.5783V12.5783V12.5783V12.5783C15.3452 12.5783 15.3452 12.5783 15.3452 12.5783C15.3452 12.5783 15.3452 12.5783 15.3452 12.5783C15.3452 12.5783 15.3452 12.5783 15.3452 12.5783C15.3452 12.5783 15.3452 12.5783 15.3452 12.5783C15.3452 12.5783 15.3452 12.5783 15.3452 12.5783C15.3452 12.5783 15.3452 12.5783 15.3452 12.5783C15.3452 12.5783 15.3452 12.5783 15.3452 12.5783C15.3452 12.5783 15.3452 12.5783 15.3452 12.5783C15.3452 12.5783 15.3452 12.5783 15.3452 12.5783V12.5783V12.5783V12.5783C15.3452 12.5783 15.3452 12.5783 15.3452 12.5783C15.3452 12.5783 15.3452 12.5783 15.3452 12.5783C15.3452 12.5783 15.3452 12.5783 15.3452 12.5783C15.3452 12.5783 15.3452 12.5783 15.3452 12.5783C15.3452 12.5783 15.3452 12.5783 15.3452 12.5783C15.3452 12.5783 15.3452 12.5783 15.3452 12.5783C15.3452 12.5783 15.3452 12.5783 15.3452 12.5783V12.5783V12.5783V12.5783V12.5783C15.3452 12.5783 15.3452 12.5783 15.3452 12.5783C15.3452 12.5783 15.3452 12.5783 15.3452 12.5783C15.3452 12.5783 15.3452 12.5783 15.3452 12.5783C15.3452 12.5783 15.3452 12.5783 15.3452 12.5783C15.3452 12.5783 15.3452 12.5783 15.3452 12.5783C15.3452 12.5783 15.3452 12.5783 15.3452 12.5783V12.5783V12.5783V12.5783C15.3452 12.5783 15.3452 12.5783 15.3452 12.5783C15.3452 12.5783 15.3452 12.5783 15.3452 12.5783C15.3452 12.5783 15.3452 12.5783 15.3452 12.5783C15.3452 12.5783 15.3452 12.5783 15.3452 12.5783C15.3452 12.5783 15.3452 12.5783 15.3452 12.5783C15.3452 12.5783 15.3452 12.5783 15.3452 12.5783C15.3452 12.5783 15.3452 12.5783 15.3452 12.5783V12.5783V12.5783V12.5783C15.3452 12.5783 15.3452 12.5783 15.3452 12.5783C15.3452 12.5783 15.3452 12.5783 15.3452 12.5783C15.3452 12.5783 15.3452 12.5783 15.3452 12.5783C15.3452 12.5783 15.3452 12.5783 15.3452 12.5783C15.3452 12.5783 15.3452 12.5783 15.3452 12.5783C15.3452 12.5783 15.3452 12.5783 15.3452 12.5783V12.5783V12.5783V12.5783C15.3452 12.5783 15.3452 12.5783 15.3452 12.5783C15.3452 12.5783 15.3452 12.5783 15.3452 12.5783C15.3452 12.5783 15.3452 12.5783 15.3452 12.5783C15.3452 12.5783 15.3452 12.5783 15.3452 12.5783C15.3452 12.5783 15.3452 12.5783 15.3452 12.5783V12.5783V12.5783V12.5783C15.3452 12.5783 15.3452 12.5783 15.3452 12.5783C15.3452 12.5783 15.3452 12.5783 15.3452 12.5783C15.3452 12.5783 15.3452 12.5783 15.3452 12.5783C15.3452 12.5783 15.3452 12.5783 15.3452 12.5783C15.3452 12.5783 15.3452 12.5783 15.3452 12.5783C15.3452 12.5783 15.3452 12.5783 15.3452 12.5783V12.5783V12.5783V12.5783C15.3452 12.5783 15.3452 12.5783 15.3452 12.5783C15.3452 12.5783 15.3452 12.5783 15.3452 12.5783C15.3452 12.5783 15.3452 12.5783 15.3452 12.5783C15.3452 12.5783 15.3452 12.5783 15.3452 12.5783C15.3452 12.5783 15.3452 12.5783 15.3452 12.5783C15.3452 12.5783 15.3452 12.5783 15.3452 12.5783C15.3452 12.5783 15.3452 12.5783 15.3452 12.5783V12.5783V12.5783V12.5783C15.3452 12.5783 15.3452 12.5783 15.3452 12.5783C15.3452 12.5783 15.3452 12.5783 15.3452 12.5783C15.3452 12.5783 15.3452 12.5783 15.3452 12.5783C15.3452 12.5783 15.3452 12.5783 15.3452 12.5783C15.3452 12.5783 15.3452 12.5783 15.3452 12.5783C15.3452 12.5783 15.3452 12.5783 15.3452 12.5783V12.5783V12.5783V12.5783V12.5783C15.3452 12.5783 15.3452 12.5783 15.3452 12.5783C15.3452 12.5783 15.3452 12.5783 15.3452 12.5783C15.3452 12.5783 15.3452 12.5783 15.3452 12.5783C15.3452 12.5783 15.3452 12.5783 15.3452 12.5783C15.3452 12.5783 15.3452 12.5783 15.3452 12.5783C15.3452 12.5783 15.3452 12.5783 15.3452 12.5783C15.3452 12.5783 15.3452 12.5783 15.3452 12.5783V12.5783V12.5783V12.5783C15.3452 12.5783 15.3452 12.5783 15.3452 12.5783C15.3452 12.5783 15.3452 12.5783 15.3452 12.5783C15.3452 12.5783 15.3452 12.5783 15.3452 12.5783C15.3452 12.5783 15.3452 12.5783 15.3452 12.5783C15.3452 12.5783 15.3452 12.5783 15.3452 12.5783C15.3452 12.5783 15.3452 12.5783 15.3452 12.5783C15.3452 12.5783 15.3452 12.5783 15.3452 12.5783C15.3452 12.5783 15.3452 12.5783 15.3452 12.5783C15.3452 12.5783 15.3452 12.5783 15.3452 12.5783V12.5783V12.5783V12.5783V12.5783C15.3452 12.5783 15.3452 12.5783 15.3452 12.5783C15.3452 12.5783 15.3452 12.5783 15.3452 12.5783C15.3452 12.5783 15.3452 12.5783 15.3452 12.5783C15.3452 12.5783 15.3452 12.5783 15.3452 12.5783C15.3452 12.5783 15.3452 12.5783 15.3452 12.5783H14.9206ZM15.174 12.7866L15.174 12.7866L15.0918 12.37L15.0918 12.37L15.174 12.7866ZM15.3442 12.6065C15.3449 12.5971 15.3452 12.5878 15.3452 12.5783H14.9206L14.9206 12.5778L15.3442 12.6065ZM15.0855 12.3851L14.9543 12.4148L15.0481 12.8289L15.1793 12.7992L15.0855 12.3851ZM14.7997 12.5783C14.7997 12.5564 14.805 12.5402 14.809 12.5316L15.1933 12.7122C15.2138 12.6687 15.2243 12.6235 15.2243 12.5783H14.7997ZM14.798 12.6148C14.8125 12.6289 14.8131 12.6332 14.8099 12.6268C14.8081 12.6233 14.8055 12.6172 14.8033 12.6086C14.8011 12.5998 14.7997 12.5896 14.7997 12.5783H15.2243C15.2243 12.4761 15.172 12.3861 15.0937 12.3101L14.798 12.6148ZM14.5934 12.4886C14.7046 12.5408 14.7675 12.5853 14.798 12.6148L15.0937 12.3101C15.0161 12.2348 14.9066 12.1665 14.7739 12.1042L14.5934 12.4886ZM13.5851 12.1942C14.0324 12.283 14.3728 12.385 14.5934 12.4886L14.7739 12.1042C14.5079 11.9793 14.1289 11.8693 13.6678 11.7777L13.5851 12.1942ZM10.0693 11.9056C11.4528 11.9058 12.6959 12.0175 13.5851 12.1942L13.6678 11.7777C12.7441 11.5942 11.472 11.4812 10.0693 11.4809L10.0693 11.9056ZM10.0514 11.9056L10.0693 11.9056L10.0693 11.4809L10.0515 11.4809L10.0514 11.9056ZM10.2638 11.6952V11.6933H9.83913V11.6952H10.2638ZM9.93051 11.9075L10.0514 11.9075L10.0515 11.4829L9.93059 11.4829L9.93051 11.9075ZM5.89335 11.5339C6.93801 11.7663 8.36514 11.9072 9.93051 11.9075L9.93059 11.4829C8.38666 11.4826 6.99189 11.3432 5.98554 11.1194L5.89335 11.5339ZM4.60914 11.1073C4.93053 11.2762 5.37371 11.4183 5.89335 11.5339L5.98554 11.1194C5.48163 11.0073 5.08008 10.8751 4.80673 10.7314L4.60914 11.1073ZM4.19236 10.804C4.30243 10.9236 4.44877 11.023 4.60914 11.1073L4.80673 10.7314C4.66998 10.6595 4.56977 10.5871 4.50481 10.5165L4.19236 10.804ZM3.99045 10.3272C3.99045 10.5219 4.08076 10.6827 4.19236 10.804L4.50481 10.5165C4.44016 10.4462 4.41507 10.3833 4.41507 10.3272H3.99045ZM4.19236 9.85034C4.08076 9.9716 3.99045 10.1324 3.99045 10.3272H4.41507C4.41507 10.2711 4.44016 10.2081 4.50481 10.1379L4.19236 9.85034ZM4.60914 9.54705C4.44877 9.63136 4.30243 9.73073 4.19236 9.85034L4.50481 10.1379C4.56977 10.0673 4.66998 9.99479 4.80673 9.9229L4.60914 9.54705ZM5.89335 9.12042C5.37371 9.236 4.93053 9.37809 4.60914 9.54705L4.80673 9.9229C5.08008 9.77919 5.48163 9.647 5.98554 9.53492L5.89335 9.12042ZM9.93051 8.74682C8.36514 8.74713 6.93801 8.88807 5.89335 9.12042L5.98554 9.53492C6.99189 9.31109 8.38666 9.17174 9.93059 9.17144L9.93051 8.74682ZM10.0514 8.7468L9.93051 8.74682L9.93059 9.17144L10.0515 9.17142L10.0514 8.7468ZM15.0867 12.3848L15.0867 12.3848L15.1781 12.7995L15.1782 12.7995L15.0867 12.3848ZM15.3259 12.7042C15.3356 12.6728 15.3419 12.6401 15.3442 12.6065L14.9206 12.5778L14.9204 12.5782L15.3259 12.7042ZM14.9206 12.5778L14.9204 12.5782L15.3259 12.7043C15.3356 12.6729 15.342 12.6402 15.3442 12.6065L14.9206 12.5778ZM15.6294 12.2618L15.0855 12.3851L15.1793 12.7992L15.7232 12.6759L15.6294 12.2618ZM15.1748 12.7865L15.7182 12.677L15.6344 12.2608L15.091 12.3702L15.1748 12.7865ZM14.9206 12.5783L14.9206 12.5778L15.3442 12.6065C15.3449 12.5972 15.3452 12.5878 15.3452 12.5783H14.9206ZM14.809 12.5316C14.8131 12.5229 14.8137 12.5266 14.798 12.5419L15.0937 12.8466C15.1359 12.8056 15.1703 12.7612 15.1933 12.7122L14.809 12.5316ZM14.798 12.5419C14.7675 12.5714 14.7046 12.6159 14.5934 12.6681L14.7739 13.0524C14.9066 12.9901 15.0161 12.9219 15.0937 12.8466L14.798 12.5419ZM14.5934 12.6681C14.3728 12.7717 14.0324 12.8737 13.5851 12.9625L13.6678 13.379C14.1289 13.2874 14.5079 13.1773 14.7739 13.0524L14.5934 12.6681ZM13.5851 12.9625C13.0045 13.0778 12.2719 13.1657 11.4464 13.2127L11.4705 13.6367C12.3101 13.5888 13.0631 13.4991 13.6678 13.379L13.5851 12.9625ZM14.9543 12.4148L11.4115 13.2176L11.5054 13.6317L15.0481 12.8289L14.9543 12.4148ZM9.93114 9.2923L9.93116 9.2923L9.93 8.86768L9.92998 8.86768L9.93114 9.2923ZM10.1429 9.21172V9.07999H9.71825V9.21172H10.1429ZM5.07933 10.2177C5.07933 10.226 5.07414 10.2097 5.11773 10.1674C5.16161 10.1248 5.23779 10.0736 5.35511 10.0185C5.58862 9.90887 5.94005 9.80457 6.39128 9.71494C7.29025 9.53636 8.54164 9.42431 9.9306 9.42404L9.93052 8.99941C8.52249 8.99969 7.2421 9.113 6.30855 9.29845C5.84352 9.39083 5.45351 9.50321 5.17464 9.63415C5.03576 9.69936 4.91301 9.77439 4.82201 9.8627C4.73073 9.95128 4.65471 10.0705 4.65471 10.2177H5.07933ZM5.07982 10.2185L5.07933 10.2177H4.65471C4.65471 10.268 4.66383 10.3165 4.68021 10.362L5.07982 10.2185ZM4.65473 10.2177C4.65473 10.268 4.66383 10.3164 4.68019 10.362L5.07984 10.2185L5.07935 10.2177H4.65473ZM9.93053 8.99947C8.5225 8.99974 7.24212 9.11306 6.30857 9.2985C5.84354 9.39088 5.45352 9.50326 5.17465 9.6342C5.03578 9.69941 4.91303 9.77444 4.82203 9.86275C4.73075 9.95134 4.65473 10.0705 4.65473 10.2177H5.07935C5.07935 10.2261 5.07416 10.2098 5.11775 10.1675C5.16163 10.1249 5.23781 10.0736 5.35512 10.0186C5.58864 9.90892 5.94007 9.80462 6.3913 9.71499C7.29027 9.53641 8.54166 9.42436 9.93062 9.42409L9.93053 8.99947ZM9.71827 9.07999V9.21178H10.1429V9.07999H9.71827ZM9.71825 11.2237V11.5743H10.1429V11.2237H9.71825ZM9.93058 11.0114H9.93056V11.436H9.93058V11.0114ZM10.1429 11.5743V11.2237H9.71827V11.5743H10.1429ZM9.90046 11.7866L9.93004 11.7866L9.93112 11.362L9.90154 11.362L9.90046 11.7866ZM9.93072 11.362L9.90116 11.362L9.90084 11.7866L9.93039 11.7866L9.93072 11.362ZM9.85704 13.5843V13.716H10.2817V13.5843H9.85704ZM10.0693 13.7966H10.0693V13.372H10.0693V13.7966ZM10.2816 13.7161V13.5843H9.85702V13.7161H10.2816ZM10.0853 13.5037L10.0688 13.5038L10.0699 13.9284L10.0863 13.9283L10.0853 13.5037ZM10.0695 13.9283L10.0859 13.9283L10.0857 13.5037L10.0692 13.5037L10.0695 13.9283Z" fill="white" mask="url(#path-4-outside-1_16_3040)"/>
<path fill-rule="evenodd" clipRule="evenodd" d="M14.2189 5.47485V7.56886H11.0651V10.4323C10.9719 10.4446 10.6271 10.4662 9.95864 10.4662C9.37712 10.4662 8.94946 10.4425 8.80549 10.4306L8.80549 7.56886H5.65076V5.47485H14.2189ZM10.0763 11.0558C10.0346 11.056 9.9914 11.0561 9.94674 11.0561C9.36522 11.0561 8.94939 11.0442 8.80549 11.0324L8.80549 15.7923H11.0651L11.0651 11.0807C10.7446 11.0661 10.4141 11.0577 10.0763 11.0558Z" fill="white"/>
</svg>
