<svg width="22" height="22" viewBox="0 0 22 22" fill="none" xmlns="http://www.w3.org/2000/svg">
<rect x="0.00512695" width="22" height="22" rx="5" fill="#1F2027"/>
<path opacity="0.3" d="M11.0137 13C7.90269 13 4.77118 14.4436 4.12578 17.0092C3.99105 17.5448 4.45284 18 5.00513 18H17.0051C17.5574 18 18.0192 17.5449 17.885 17.0091C17.2425 14.4436 14.1247 13 11.0137 13Z" fill="#B3B4B7"/>
<path d="M10.1455 19L11.8647 19C12.19 19 12.4287 18.6943 12.3498 18.3787L11.5998 15.3787C11.5442 15.1561 11.3442 15 11.1147 15L10.8955 15C10.6661 15 10.4661 15.1561 10.4104 15.3787L9.66044 18.3787C9.58155 18.6943 9.82023 19 10.1455 19Z" fill="white"/>
<rect x="7.50513" y="3" width="7" height="9" rx="3.5" fill="white"/>
</svg>
