<svg width="12" height="14" viewBox="0 0 12 14" fill="none" xmlns="http://www.w3.org/2000/svg">
<path fill-rule="evenodd" clipRule="evenodd" d="M5.99707 13.5C9.31078 13.5 11.9971 10.8137 11.9971 7.5C11.9971 4.18629 9.31078 1.5 5.99707 1.5C2.68336 1.5 -0.00292969 4.18629 -0.00292969 7.5C-0.00292969 10.8137 2.68336 13.5 5.99707 13.5ZM6.21525 10.5C6.5165 10.5 6.76071 10.2558 6.76071 9.95455C6.76071 9.6533 6.5165 9.40909 6.21525 9.40909H5.99707C5.69582 9.40909 5.45162 9.6533 5.45162 9.95455C5.45162 10.2558 5.69582 10.5 5.99707 10.5H6.21525ZM5.45162 7.93636C5.45162 8.29786 5.74467 8.59091 6.10616 8.59091C6.46766 8.59091 6.76071 8.29786 6.76071 7.93636V5.42727C6.76071 5.06578 6.46766 4.77273 6.10616 4.77273C5.74467 4.77273 5.45162 5.06578 5.45162 5.42727V7.93636Z" fill="#F58721"/>
</svg>
