<svg width="30" height="30" viewBox="0 0 30 30" fill="none" xmlns="http://www.w3.org/2000/svg">
<circle cx="15" cy="15" r="15" fill="white"/>
<path fill-rule="evenodd" clipRule="evenodd" d="M11.3702 29.5512C19.4073 31.5542 27.5475 26.6647 29.5512 18.6281C31.5544 10.5925 26.6643 2.4523 18.6267 0.448893C10.592 -1.55451 2.45172 3.33588 0.44948 11.3729C-1.55558 19.4081 3.33588 27.5474 11.3702 29.5512ZM15.2668 13.9499C16.2978 14.2251 18.5488 14.8259 18.9408 13.2558C19.341 11.6502 17.1543 11.1661 16.0865 10.9297C15.9662 10.9031 15.8601 10.8796 15.7735 10.858L15.0187 13.885C15.0898 13.9027 15.1733 13.925 15.2668 13.9499ZM14.0986 18.8263C15.3352 19.153 18.0418 19.8681 18.4719 18.1403C18.9125 16.3744 16.2895 15.7858 15.01 15.4987C14.8672 15.4666 14.7411 15.4383 14.6379 15.4126L13.8048 18.75C13.8892 18.771 13.988 18.7971 14.0986 18.8263ZM18.8968 9.79672C20.8117 10.4561 22.2118 11.4445 21.9367 13.2831C21.7376 14.6291 20.9913 15.2807 20.0006 15.5095C21.361 16.2181 22.0533 17.3046 21.3938 19.1868C20.5754 21.5246 18.6308 21.7219 16.0457 21.2327L15.4182 23.7467L13.9019 23.3689L14.5212 20.8886C14.1278 20.7905 13.7266 20.6869 13.3128 20.5746L12.6914 23.0675L11.1769 22.6896L11.8048 20.1705C11.6619 20.1339 11.5182 20.0965 11.3736 20.0589C11.1592 20.0032 10.9428 19.9469 10.7238 19.8919L8.75023 19.3997L9.5034 17.6638C9.5034 17.6638 10.6202 17.9609 10.6055 17.9389C11.0343 18.0447 11.2252 17.7653 11.3004 17.5788L13.0019 10.7558C13.0205 10.4336 12.9095 10.0273 12.2949 9.87401C12.3191 9.85804 11.1941 9.60025 11.1941 9.60025L11.5975 7.98097L13.6886 8.50302L13.6868 8.5108C14.0012 8.58895 14.3251 8.66322 14.6551 8.73836L15.2765 6.24856L16.7915 6.62639L16.183 9.0674C16.5894 9.16023 16.9988 9.25394 17.3974 9.35325L18.002 6.92822L19.5182 7.30605L18.8968 9.79672Z" fill="#F7931A" fill-opacity="0.9"/>
</svg>
