<svg width="417" height="40" viewBox="0 0 417 40" fill="none" xmlns="http://www.w3.org/2000/svg">
<mask id="mask0_473_3289" style="mask-type:alpha" maskUnits="userSpaceOnUse" x="0" y="0" width="417" height="40">
<rect width="417" height="40" rx="5" fill="#3BFFD8"/>
</mask>
<g mask="url(#mask0_473_3289)">
<path d="M-9.97287 24.6852L-7.44754 23.2272C-6.97642 22.9552 -6.4653 22.7525 -5.91418 22.619C-5.36307 22.4856 -4.81098 22.4578 -4.25793 22.5357C-3.70488 22.6136 -3.17657 22.8167 -2.67302 23.1449C-2.16946 23.4731 -1.72968 23.9628 -1.35368 24.614C-0.989677 25.2445 -0.791457 25.8598 -0.759015 26.46C-0.730575 27.0533 -0.81888 27.6123 -1.02393 28.1372C-1.23298 28.6551 -1.52907 29.1263 -1.91218 29.5507C-2.2993 29.9682 -2.72842 30.3129 -3.19954 30.5849L-5.72487 32.0429L-9.97287 24.6852ZM-5.21803 30.5448L-3.92938 29.8008C-3.48598 29.5448 -3.11321 29.2464 -2.81109 28.9057C-2.50204 28.561 -2.28042 28.1929 -2.14622 27.8013C-2.00509 27.4058 -1.95831 26.9908 -2.00589 26.5564C-2.05347 26.122 -2.20326 25.6865 -2.45526 25.25C-2.71926 24.7928 -3.02747 24.435 -3.37989 24.1765C-3.73231 23.9181 -4.11309 23.7546 -4.52222 23.686C-4.92842 23.6064 -5.35604 23.6178 -5.80509 23.72C-6.25121 23.8113 -6.69598 23.9849 -7.13938 24.2409L-8.42803 24.9849L-5.21803 30.5448ZM3.1163 26.9385L2.13943 27.5025L-0.704573 22.5765L0.272304 22.0125L3.1163 26.9385ZM-0.587419 20.1394C-0.483419 20.3196 -0.463237 20.5065 -0.526873 20.7003C-0.583581 20.8901 -0.702001 21.037 -0.882134 21.141C-1.06227 21.245 -1.24869 21.2741 -1.4414 21.2283C-1.6381 21.1756 -1.78646 21.0626 -1.88646 20.8894C-1.99046 20.7093 -2.0141 20.5243 -1.9574 20.3346C-1.90469 20.1379 -1.78827 19.9875 -1.60813 19.8835C-1.428 19.7795 -1.23958 19.7539 -1.04287 19.8066C-0.843237 19.8483 -0.691419 19.9593 -0.587419 20.1394ZM5.35488 20.7409C5.14003 20.6247 4.90014 20.5692 4.63523 20.5744C4.36631 20.5726 4.10714 20.6437 3.85773 20.7877C3.74688 20.8517 3.64402 20.9296 3.54917 21.0213C3.45032 21.1061 3.37186 21.2022 3.3138 21.3096C3.25866 21.4061 3.22738 21.5119 3.21995 21.6271C3.21545 21.7313 3.2472 21.8423 3.3152 21.96C3.4352 22.1679 3.61873 22.2698 3.8658 22.2657C4.10886 22.2547 4.44145 22.1828 4.86357 22.0499C5.13113 21.9693 5.38737 21.9091 5.63229 21.8693C5.87721 21.8296 6.10641 21.8266 6.3199 21.8603C6.53632 21.8832 6.7321 21.9503 6.90724 22.0616C7.08238 22.173 7.23195 22.336 7.35595 22.5508C7.52395 22.8418 7.61052 23.1198 7.61567 23.3847C7.62082 23.6496 7.56786 23.9019 7.4568 24.1415C7.34867 24.3702 7.19282 24.5803 6.98926 24.7717C6.78571 24.9631 6.55922 25.1308 6.3098 25.2748C5.93568 25.4908 5.52649 25.6301 5.08222 25.6926C4.64488 25.7511 4.22243 25.6994 3.81487 25.5375L4.16916 24.5431C4.41279 24.6611 4.68693 24.7199 4.99156 24.7196C5.30312 24.7152 5.59746 24.633 5.87459 24.473C5.9993 24.401 6.11108 24.3226 6.20993 24.2378C6.31171 24.1421 6.39163 24.0406 6.4497 23.9331C6.51469 23.8217 6.5489 23.705 6.55233 23.5829C6.55575 23.4608 6.51746 23.3305 6.43746 23.192C6.30546 22.9633 6.09661 22.8576 5.81091 22.8747C5.53214 22.8879 5.15344 22.968 4.67482 23.115C4.48454 23.1694 4.2868 23.2189 4.0816 23.2635C3.87932 23.2971 3.6789 23.302 3.48033 23.2781C3.28177 23.2541 3.09346 23.192 2.91539 23.0915C2.74025 22.9802 2.58668 22.8102 2.45468 22.5816C2.30268 22.3183 2.22464 22.0631 2.22057 21.8161C2.21942 21.5581 2.27144 21.3202 2.37665 21.1024C2.47785 20.8777 2.62331 20.6736 2.81301 20.4902C2.99871 20.2999 3.20934 20.1367 3.4449 20.0007C3.79824 19.7967 4.17772 19.67 4.58335 19.6205C4.9959 19.5671 5.36825 19.62 5.70038 19.7793L5.35488 20.7409ZM10.7624 17.6188C10.5664 17.5195 10.3346 17.4779 10.0667 17.4939C9.79487 17.5031 9.54117 17.5757 9.30561 17.7117C9.04926 17.8597 8.84863 18.0402 8.70372 18.2532C8.56573 18.4621 8.47545 18.6898 8.43289 18.9361C8.38632 19.1754 8.38693 19.4245 8.43472 19.6832C8.48944 19.938 8.5848 20.1832 8.7208 20.4187C8.8568 20.6543 9.02144 20.8595 9.21472 21.0342C9.41493 21.205 9.63232 21.3335 9.86689 21.4198C10.0974 21.4992 10.3412 21.5293 10.5981 21.5103C10.855 21.4913 11.1117 21.4078 11.368 21.2598C11.6174 21.1158 11.8146 20.9373 11.9595 20.7243C12.1113 20.5073 12.2051 20.2777 12.2407 20.0354L13.2374 20.2498C13.1696 20.6123 13.0198 20.9528 12.788 21.2714C12.5522 21.583 12.2369 21.8528 11.842 22.0808C11.4609 22.3008 11.0716 22.4425 10.674 22.5058C10.2833 22.5651 9.90616 22.5518 9.5426 22.4661C9.17504 22.3735 8.82998 22.2079 8.50742 21.9692C8.19178 21.7265 7.91996 21.4077 7.69196 21.0127C7.46796 20.6248 7.32978 20.2334 7.27742 19.8387C7.22505 19.444 7.25065 19.0644 7.35421 18.6997C7.45777 18.3351 7.6329 17.9984 7.87959 17.6897C8.13322 17.377 8.44709 17.1127 8.82122 16.8967C9.16763 16.6967 9.55057 16.568 9.97005 16.5105C10.3965 16.4491 10.7861 16.492 11.139 16.6393L10.7624 17.6188ZM18.1317 14.9715C18.3517 15.3526 18.4844 15.7424 18.5298 16.1411C18.5822 16.5358 18.5551 16.921 18.4487 17.2965C18.3451 17.6611 18.1685 18.0033 17.9189 18.3229C17.6653 18.6356 17.3514 18.9 16.9773 19.116C16.6031 19.332 16.2173 19.4716 15.8196 19.5349C15.418 19.5913 15.0334 19.5731 14.6659 19.4805C14.2943 19.381 13.9472 19.2118 13.6247 18.9731C13.309 18.7304 13.0412 18.4186 12.8212 18.0375C12.6012 17.6565 12.467 17.272 12.4187 16.8843C12.3732 16.4856 12.4023 16.1039 12.5059 15.7393C12.6094 15.3747 12.788 15.036 13.0416 14.7233C13.2913 14.4036 13.6031 14.1358 13.9773 13.9198C14.3514 13.7038 14.7393 13.5676 15.1409 13.5113C15.5385 13.448 15.9211 13.4627 16.2887 13.5553C16.6631 13.6439 17.0082 13.8096 17.3238 14.0523C17.6424 14.284 17.9117 14.5905 18.1317 14.9715ZM17.1132 15.5595C16.9772 15.324 16.8091 15.1208 16.6089 14.95C16.4156 14.7752 16.2037 14.6482 15.9732 14.5688C15.7386 14.4825 15.4894 14.4509 15.2255 14.4739C14.9686 14.4929 14.7085 14.5784 14.4453 14.7304C14.182 14.8824 13.9744 15.0669 13.8226 15.2839C13.6777 15.4969 13.5839 15.7265 13.5414 15.9728C13.4948 16.2122 13.4954 16.4612 13.5432 16.72C13.5979 16.9748 13.6933 17.22 13.8293 17.4555C13.9653 17.6911 14.1299 17.8962 14.3232 18.071C14.5234 18.2418 14.7408 18.3703 14.9754 18.4566C15.2099 18.5429 15.4557 18.5765 15.7126 18.5575C15.9764 18.5345 16.24 18.447 16.5033 18.295C16.7665 18.143 16.9706 17.9605 17.1155 17.7475C17.2674 17.5305 17.3646 17.2989 17.4072 17.0526C17.4497 16.8063 17.4436 16.5558 17.3889 16.301C17.3411 16.0422 17.2492 15.7951 17.1132 15.5595ZM24.3854 14.6588C24.2995 14.5421 24.2091 14.4095 24.1142 14.2611C24.0153 14.1057 23.9358 13.9761 23.8758 13.8722L23.855 13.8842C23.8823 14.2194 23.801 14.5666 23.6111 14.9257C23.4241 15.2738 23.1505 15.5519 22.7902 15.7599C22.4715 15.9439 22.1644 16.0519 21.8688 16.084C21.5802 16.1121 21.3077 16.08 21.0513 15.9879C20.7978 15.8848 20.5629 15.7341 20.3467 15.5356C20.1374 15.3331 19.9528 15.0933 19.7928 14.8162L18.0288 11.7608L19.0057 11.1968L20.5777 13.9196C20.6937 14.1205 20.8195 14.3065 20.9552 14.4776C21.0939 14.6377 21.2448 14.7631 21.4079 14.8536C21.571 14.9442 21.7493 14.989 21.9428 14.9882C22.1363 14.9873 22.3474 14.9209 22.576 14.7889C22.9709 14.5609 23.2056 14.2314 23.2801 13.8004C23.3506 13.3625 23.2438 12.8976 22.9598 12.4057L21.4478 9.78682L22.4247 9.22282L24.6567 13.0888C24.7327 13.2204 24.8342 13.3881 24.9611 13.592C25.088 13.7958 25.2044 13.9734 25.3103 14.1248L24.3854 14.6588ZM25.0023 7.73463C25.0882 7.85134 25.1806 7.98737 25.2795 8.14271C25.3744 8.29113 25.4519 8.41731 25.5119 8.52123L25.5431 8.50323C25.5294 8.33559 25.5426 8.16635 25.5825 7.9955C25.6253 7.81372 25.6921 7.64126 25.7826 7.47812C25.8692 7.30805 25.9816 7.15077 26.1199 7.00628C26.2582 6.86178 26.4174 6.73753 26.5975 6.63353C26.9162 6.44953 27.2219 6.34695 27.5145 6.32581C27.8031 6.29773 28.0756 6.32976 28.3321 6.42189C28.5885 6.51402 28.8213 6.66133 29.0306 6.86382C29.2468 7.06231 29.4349 7.30012 29.5949 7.57724L31.3589 10.6326L30.3821 11.1966L28.8041 8.46341C28.6881 8.26249 28.5607 8.08196 28.4221 7.92183C28.2904 7.7577 28.143 7.63035 27.9798 7.53978C27.8167 7.44922 27.6384 7.40437 27.4449 7.40523C27.2514 7.40609 27.0403 7.47252 26.8117 7.60452C26.4237 7.82852 26.191 8.16148 26.1136 8.60339C26.0391 9.03438 26.1439 9.49582 26.4279 9.98772L27.9399 12.6066L26.963 13.1706L24.731 9.30464C24.655 9.17301 24.5535 9.00527 24.4266 8.80142C24.2997 8.59758 24.1833 8.41998 24.0774 8.26863L25.0023 7.73463ZM33.0407 4.16065L31.7312 4.91665L33.2132 7.48355C33.3852 7.78146 33.5646 7.96424 33.7515 8.03187C33.9343 8.09258 34.147 8.05293 34.3895 7.91293C34.4796 7.86093 34.5706 7.79454 34.6625 7.71376C34.7544 7.63297 34.8299 7.54779 34.8891 7.45823L35.3823 8.24043C35.2885 8.35 35.1748 8.45718 35.0414 8.56196C34.9188 8.66968 34.7813 8.76753 34.6289 8.85553C34.1647 9.12353 33.7339 9.20136 33.3365 9.08902C32.946 8.97267 32.6027 8.65816 32.3067 8.14547L30.7647 5.47465L29.819 6.02065L29.357 5.22044L30.3027 4.67444L29.4867 3.26109L30.4532 2.70309L31.2692 4.11644L32.5787 3.36044L33.0407 4.16065Z" fill="black" fill-opacity="0.08"/>
<path d="M375.759 25.6852L378.284 24.2272C378.756 23.9552 379.267 23.7525 379.818 23.619C380.369 23.4856 380.921 23.4578 381.474 23.5357C382.027 23.6136 382.555 23.8167 383.059 24.1449C383.562 24.4731 384.002 24.9628 384.378 25.614C384.742 26.2445 384.94 26.8598 384.973 27.46C385.001 28.0533 384.913 28.6123 384.708 29.1372C384.499 29.6551 384.203 30.1263 383.82 30.5507C383.433 30.9682 383.004 31.3129 382.532 31.5849L380.007 33.0429L375.759 25.6852ZM380.514 31.5448L381.803 30.8008C382.246 30.5448 382.619 30.2464 382.921 29.9057C383.23 29.561 383.452 29.1929 383.586 28.8013C383.727 28.4058 383.774 27.9908 383.726 27.5564C383.678 27.122 383.529 26.6865 383.277 26.25C383.013 25.7928 382.704 25.435 382.352 25.1765C382 24.9181 381.619 24.7546 381.21 24.686C380.804 24.6064 380.376 24.6178 379.927 24.72C379.481 24.8113 379.036 24.9849 378.593 25.2409L377.304 25.9849L380.514 31.5448ZM388.848 27.9385L387.871 28.5025L385.027 23.5765L386.004 23.0125L388.848 27.9385ZM385.145 21.1394C385.249 21.3196 385.269 21.5065 385.205 21.7003C385.148 21.8901 385.03 22.037 384.85 22.141C384.67 22.245 384.483 22.2741 384.291 22.2283C384.094 22.1756 383.945 22.0626 383.845 21.8894C383.741 21.7093 383.718 21.5243 383.775 21.3346C383.827 21.1379 383.944 20.9875 384.124 20.8835C384.304 20.7795 384.492 20.7539 384.689 20.8066C384.889 20.8483 385.041 20.9593 385.145 21.1394ZM391.087 21.7409C390.872 21.6247 390.632 21.5692 390.367 21.5744C390.098 21.5726 389.839 21.6437 389.59 21.7877C389.479 21.8517 389.376 21.9296 389.281 22.0213C389.182 22.1061 389.104 22.2022 389.046 22.3096C388.991 22.4061 388.959 22.5119 388.952 22.6271C388.947 22.7313 388.979 22.8423 389.047 22.96C389.167 23.1679 389.351 23.2698 389.598 23.2657C389.841 23.2547 390.173 23.1828 390.596 23.0499C390.863 22.9693 391.119 22.9091 391.364 22.8693C391.609 22.8296 391.838 22.8266 392.052 22.8603C392.268 22.8832 392.464 22.9503 392.639 23.0616C392.814 23.173 392.964 23.336 393.088 23.5508C393.256 23.8418 393.342 24.1198 393.348 24.3847C393.353 24.6496 393.3 24.9019 393.189 25.1415C393.081 25.3702 392.925 25.5803 392.721 25.7717C392.518 25.9631 392.291 26.1308 392.042 26.2748C391.668 26.4908 391.258 26.6301 390.814 26.6926C390.377 26.7511 389.954 26.6994 389.547 26.5375L389.901 25.5431C390.145 25.6611 390.419 25.7199 390.723 25.7196C391.035 25.7152 391.329 25.633 391.607 25.473C391.731 25.401 391.843 25.3226 391.942 25.2378C392.044 25.1421 392.124 25.0406 392.182 24.9331C392.247 24.8217 392.281 24.705 392.284 24.5829C392.288 24.4608 392.249 24.3305 392.169 24.192C392.037 23.9633 391.829 23.8576 391.543 23.8747C391.264 23.8879 390.885 23.968 390.407 24.115C390.216 24.1694 390.019 24.2189 389.814 24.2635C389.611 24.2971 389.411 24.302 389.212 24.2781C389.014 24.2541 388.825 24.192 388.647 24.0915C388.472 23.9802 388.319 23.8102 388.187 23.5816C388.035 23.3183 387.957 23.0631 387.952 22.8161C387.951 22.5581 388.003 22.3202 388.109 22.1024C388.21 21.8777 388.355 21.6736 388.545 21.4902C388.731 21.2999 388.941 21.1367 389.177 21.0007C389.53 20.7967 389.91 20.67 390.315 20.6205C390.728 20.5671 391.1 20.62 391.432 20.7793L391.087 21.7409ZM396.494 18.6188C396.298 18.5195 396.066 18.4779 395.799 18.4939C395.527 18.5031 395.273 18.5757 395.038 18.7117C394.781 18.8597 394.581 19.0402 394.436 19.2532C394.298 19.4621 394.207 19.6898 394.165 19.9361C394.118 20.1754 394.119 20.4245 394.167 20.6832C394.221 20.938 394.317 21.1832 394.453 21.4187C394.589 21.6543 394.753 21.8595 394.947 22.0342C395.147 22.205 395.364 22.3335 395.599 22.4198C395.829 22.4992 396.073 22.5293 396.33 22.5103C396.587 22.4913 396.844 22.4078 397.1 22.2598C397.349 22.1158 397.547 21.9373 397.691 21.7243C397.843 21.5073 397.937 21.2777 397.973 21.0354L398.969 21.2498C398.902 21.6123 398.752 21.9528 398.52 22.2714C398.284 22.583 397.969 22.8528 397.574 23.0808C397.193 23.3008 396.804 23.4425 396.406 23.5058C396.015 23.5651 395.638 23.5518 395.275 23.4661C394.907 23.3735 394.562 23.2079 394.239 22.9692C393.924 22.7265 393.652 22.4077 393.424 22.0127C393.2 21.6248 393.062 21.2334 393.009 20.8387C392.957 20.444 392.983 20.0644 393.086 19.6997C393.19 19.3351 393.365 18.9984 393.612 18.6897C393.865 18.377 394.179 18.1127 394.553 17.8967C394.9 17.6967 395.283 17.568 395.702 17.5105C396.128 17.4491 396.518 17.492 396.871 17.6393L396.494 18.6188ZM403.864 15.9715C404.084 16.3526 404.216 16.7424 404.262 17.1411C404.314 17.5358 404.287 17.921 404.181 18.2965C404.077 18.6611 403.9 19.0033 403.651 19.3229C403.397 19.6356 403.083 19.9 402.709 20.116C402.335 20.332 401.949 20.4716 401.552 20.5349C401.15 20.5913 400.765 20.5731 400.398 20.4805C400.026 20.381 399.679 20.2118 399.357 19.9731C399.041 19.7304 398.773 19.4186 398.553 19.0375C398.333 18.6565 398.199 18.272 398.151 17.8843C398.105 17.4856 398.134 17.1039 398.238 16.7393C398.341 16.3747 398.52 16.036 398.774 15.7233C399.023 15.4036 399.335 15.1358 399.709 14.9198C400.083 14.7038 400.471 14.5676 400.873 14.5113C401.27 14.448 401.653 14.4627 402.021 14.5553C402.395 14.6439 402.74 14.8096 403.056 15.0523C403.374 15.284 403.644 15.5905 403.864 15.9715ZM402.845 16.5595C402.709 16.324 402.541 16.1208 402.341 15.95C402.148 15.7752 401.936 15.6482 401.705 15.5688C401.471 15.4825 401.221 15.4509 400.957 15.4739C400.701 15.4929 400.44 15.5784 400.177 15.7304C399.914 15.8824 399.706 16.0669 399.555 16.2839C399.41 16.4969 399.316 16.7265 399.273 16.9728C399.227 17.2122 399.227 17.4612 399.275 17.72C399.33 17.9748 399.425 18.22 399.561 18.4555C399.697 18.6911 399.862 18.8962 400.055 19.071C400.255 19.2418 400.473 19.3703 400.707 19.4566C400.942 19.5429 401.188 19.5765 401.445 19.5575C401.708 19.5345 401.972 19.447 402.235 19.295C402.498 19.143 402.703 18.9605 402.847 18.7475C402.999 18.5305 403.097 18.2989 403.139 18.0526C403.182 17.8063 403.176 17.5558 403.121 17.301C403.073 17.0422 402.981 16.7951 402.845 16.5595ZM410.117 15.6588C410.031 15.5421 409.941 15.4095 409.846 15.2611C409.747 15.1057 409.668 14.9761 409.608 14.8722L409.587 14.8842C409.614 15.2194 409.533 15.5666 409.343 15.9257C409.156 16.2738 408.882 16.5519 408.522 16.7599C408.203 16.9439 407.896 17.0519 407.601 17.084C407.312 17.1121 407.04 17.08 406.783 16.9879C406.53 16.8848 406.295 16.7341 406.079 16.5356C405.869 16.3331 405.685 16.0933 405.525 15.8162L403.761 12.7608L404.738 12.1968L406.31 14.9196C406.426 15.1205 406.551 15.3065 406.687 15.4776C406.826 15.6377 406.977 15.7631 407.14 15.8536C407.303 15.9442 407.481 15.989 407.675 15.9882C407.868 15.9873 408.079 15.9209 408.308 15.7889C408.703 15.5609 408.938 15.2314 409.012 14.8004C409.083 14.3625 408.976 13.8976 408.692 13.4057L407.18 10.7868L408.157 10.2228L410.389 14.0888C410.465 14.2204 410.566 14.3881 410.693 14.592C410.82 14.7958 410.936 14.9734 411.042 15.1248L410.117 15.6588ZM410.734 8.73463C410.82 8.85134 410.913 8.98737 411.011 9.14271C411.106 9.29113 411.184 9.41731 411.244 9.52123L411.275 9.50323C411.261 9.33559 411.275 9.16635 411.314 8.9955C411.357 8.81372 411.424 8.64126 411.515 8.47812C411.601 8.30805 411.714 8.15077 411.852 8.00628C411.99 7.86178 412.149 7.73753 412.329 7.63353C412.648 7.44953 412.954 7.34695 413.246 7.32581C413.535 7.29773 413.808 7.32976 414.064 7.42189C414.32 7.51402 414.553 7.66133 414.763 7.86382C414.979 8.06231 415.167 8.30012 415.327 8.57724L417.091 11.6326L416.114 12.1966L414.536 9.46341C414.42 9.26249 414.293 9.08196 414.154 8.92183C414.022 8.7577 413.875 8.63035 413.712 8.53978C413.549 8.44922 413.37 8.40437 413.177 8.40523C412.983 8.40609 412.772 8.47252 412.544 8.60452C412.156 8.82852 411.923 9.16148 411.846 9.60339C411.771 10.0344 411.876 10.4958 412.16 10.9877L413.672 13.6066L412.695 14.1706L410.463 10.3046C410.387 10.173 410.285 10.0053 410.159 9.80142C410.032 9.59758 409.915 9.41998 409.809 9.26863L410.734 8.73463ZM418.773 5.16065L417.463 5.91665L418.945 8.48355C419.117 8.78146 419.297 8.96424 419.483 9.03187C419.666 9.09258 419.879 9.05293 420.121 8.91293C420.212 8.86093 420.302 8.79454 420.394 8.71376C420.486 8.63297 420.562 8.54779 420.621 8.45823L421.114 9.24043C421.02 9.35 420.907 9.45718 420.773 9.56196C420.651 9.66968 420.513 9.76753 420.361 9.85553C419.897 10.1235 419.466 10.2014 419.068 10.089C418.678 9.97267 418.335 9.65816 418.039 9.14547L416.497 6.47465L415.551 7.02065L415.089 6.22044L416.035 5.67444L415.219 4.26109L416.185 3.70309L417.001 5.11644L418.311 4.36044L418.773 5.16065Z" fill="black" fill-opacity="0.08"/>
<path d="M319.759 9.68517L322.284 8.22717C322.756 7.95517 323.267 7.75246 323.818 7.61902C324.369 7.48558 324.921 7.45782 325.474 7.53574C326.027 7.61365 326.555 7.8167 327.059 8.14489C327.562 8.47308 328.002 8.9628 328.378 9.61405C328.742 10.2445 328.94 10.8598 328.973 11.46C329.001 12.0533 328.913 12.6123 328.708 13.1372C328.499 13.6551 328.203 14.1263 327.82 14.5507C327.433 14.9682 327.004 15.3129 326.532 15.5849L324.007 17.0429L319.759 9.68517ZM324.514 15.5448L325.803 14.8008C326.246 14.5448 326.619 14.2464 326.921 13.9057C327.23 13.561 327.452 13.1929 327.586 12.8013C327.727 12.4058 327.774 11.9908 327.726 11.5564C327.678 11.122 327.529 10.6865 327.277 10.25C327.013 9.79279 326.704 9.43495 326.352 9.17654C326 8.91813 325.619 8.75461 325.21 8.68598C324.804 8.60642 324.376 8.61775 323.927 8.71997C323.481 8.81127 323.036 8.98491 322.593 9.24091L321.304 9.98491L324.514 15.5448ZM332.848 11.9385L331.871 12.5025L329.027 7.57652L330.004 7.01252L332.848 11.9385ZM329.145 5.13944C329.249 5.31957 329.269 5.50653 329.205 5.7003C329.148 5.89008 329.03 6.03697 328.85 6.14097C328.67 6.24497 328.483 6.27408 328.291 6.2283C328.094 6.1756 327.945 6.06264 327.845 5.88944C327.741 5.7093 327.718 5.52435 327.775 5.33457C327.827 5.13786 327.944 4.98751 328.124 4.88351C328.304 4.77951 328.492 4.75386 328.689 4.80657C328.889 4.84835 329.041 4.9593 329.145 5.13944ZM335.087 5.74086C334.872 5.62473 334.632 5.56924 334.367 5.57439C334.098 5.57261 333.839 5.64372 333.59 5.78772C333.479 5.85172 333.376 5.92957 333.281 6.02129C333.182 6.10607 333.104 6.20218 333.046 6.3096C332.991 6.4061 332.959 6.51192 332.952 6.62705C332.947 6.73126 332.979 6.84226 333.047 6.96004C333.167 7.16789 333.351 7.26977 333.598 7.26569C333.841 7.25469 334.173 7.18275 334.596 7.04989C334.863 6.96932 335.119 6.90914 335.364 6.86935C335.609 6.82956 335.838 6.82655 336.052 6.86033C336.268 6.88318 336.464 6.95028 336.639 7.06163C336.814 7.17298 336.964 7.33604 337.088 7.55082C337.256 7.8418 337.342 8.11975 337.348 8.38467C337.353 8.64959 337.3 8.90186 337.189 9.1415C337.081 9.37021 336.925 9.58027 336.721 9.7717C336.518 9.96313 336.291 10.1308 336.042 10.2748C335.668 10.4908 335.258 10.6301 334.814 10.6926C334.377 10.7511 333.954 10.6994 333.547 10.5375L333.901 9.54313C334.145 9.66112 334.419 9.71993 334.723 9.71957C335.035 9.71521 335.329 9.63302 335.607 9.47302C335.731 9.40102 335.843 9.32263 335.942 9.23785C336.044 9.14213 336.124 9.04056 336.182 8.93314C336.247 8.82171 336.281 8.70497 336.284 8.5829C336.288 8.46083 336.249 8.33052 336.169 8.19195C336.037 7.96332 335.829 7.85758 335.543 7.87473C335.264 7.88788 334.885 7.96796 334.407 8.11496C334.216 8.16939 334.019 8.2189 333.814 8.26347C333.611 8.29712 333.411 8.30198 333.212 8.27805C333.014 8.25413 332.825 8.19196 332.647 8.09154C332.472 7.98019 332.319 7.8102 332.187 7.58157C332.035 7.3183 331.957 7.06313 331.952 6.81607C331.951 6.55808 332.003 6.3202 332.109 6.10242C332.21 5.87771 332.355 5.67364 332.545 5.49022C332.731 5.29986 332.941 5.13669 333.177 5.00069C333.53 4.79669 333.91 4.66997 334.315 4.62053C334.728 4.5671 335.1 4.62001 335.432 4.77929L335.087 5.74086ZM340.494 2.61885C340.298 2.5195 340.066 2.47786 339.799 2.49394C339.527 2.50309 339.273 2.57566 339.038 2.71166C338.781 2.85966 338.581 3.04016 338.436 3.25315C338.298 3.46215 338.207 3.68979 338.165 3.93606C338.118 4.17541 338.119 4.42447 338.167 4.68325C338.221 4.93802 338.317 5.18319 338.453 5.41875C338.589 5.65431 338.753 5.85947 338.947 6.03425C339.147 6.20502 339.364 6.33355 339.599 6.41982C339.829 6.49917 340.073 6.52934 340.33 6.51034C340.587 6.49133 340.844 6.40783 341.1 6.25983C341.349 6.11583 341.547 5.93733 341.691 5.72434C341.843 5.50734 341.937 5.27771 341.973 5.03543L342.969 5.24979C342.902 5.61228 342.752 5.9528 342.52 6.27137C342.284 6.583 341.969 6.85282 341.574 7.08082C341.193 7.30082 340.804 7.44247 340.406 7.50576C340.015 7.56505 339.638 7.55185 339.275 7.46615C338.907 7.37352 338.562 7.20785 338.239 6.96915C337.924 6.72646 337.652 6.40765 337.424 6.01275C337.2 5.62477 337.062 5.23343 337.009 4.83873C336.957 4.44403 336.983 4.06437 337.086 3.69974C337.19 3.33511 337.365 2.99844 337.612 2.68973C337.865 2.37702 338.179 2.11267 338.553 1.89667C338.9 1.69667 339.283 1.56795 339.702 1.51052C340.128 1.44908 340.518 1.492 340.871 1.63927L340.494 2.61885ZM347.864 -0.02849C348.084 0.352561 348.216 0.742435 348.262 1.14113C348.314 1.53583 348.287 1.92096 348.181 2.29652C348.077 2.66115 347.9 3.00328 347.651 3.32292C347.397 3.63562 347.083 3.89998 346.709 4.11598C346.335 4.33198 345.949 4.47162 345.552 4.53492C345.15 4.59128 344.765 4.57315 344.398 4.48052C344.026 4.38096 343.679 4.21183 343.357 3.97313C343.041 3.73044 342.773 3.41856 342.553 3.03751C342.333 2.65646 342.199 2.27205 342.151 1.88428C342.105 1.48558 342.134 1.10392 342.238 0.739288C342.341 0.374657 342.52 0.0359877 342.774 -0.27672C343.023 -0.596356 343.335 -0.864174 343.709 -1.08017C344.083 -1.29617 344.471 -1.43236 344.873 -1.48872C345.27 -1.55201 345.653 -1.53734 346.021 -1.44471C346.395 -1.35608 346.74 -1.19042 347.056 -0.94772C347.374 -0.715951 347.644 -0.409541 347.864 -0.02849ZM346.845 0.55951C346.709 0.323951 346.541 0.120785 346.341 -0.0499896C346.148 -0.224764 345.936 -0.351826 345.705 -0.431174C345.471 -0.517451 345.221 -0.549087 344.957 -0.526082C344.701 -0.507077 344.44 -0.421574 344.177 -0.269574C343.914 -0.117574 343.706 0.0669235 343.555 0.283918C343.41 0.496913 343.316 0.726549 343.273 0.972826C343.227 1.21217 343.227 1.46124 343.275 1.72001C343.33 1.97478 343.425 2.21995 343.561 2.45551C343.697 2.69107 343.862 2.89624 344.055 3.07101C344.255 3.24178 344.473 3.37031 344.707 3.45659C344.942 3.54286 345.188 3.5765 345.445 3.55749C345.708 3.53449 345.972 3.44699 346.235 3.29499C346.498 3.14299 346.703 2.96049 346.847 2.74749C346.999 2.5305 347.097 2.29886 347.139 2.05259C347.182 1.80631 347.176 1.55578 347.121 1.30101C347.073 1.04224 346.981 0.795069 346.845 0.55951ZM354.117 -0.341231C354.031 -0.457938 353.941 -0.590502 353.846 -0.738923C353.747 -0.894271 353.668 -1.02391 353.608 -1.12783L353.587 -1.11583C353.614 -0.780559 353.533 -0.433392 353.343 -0.0743306C353.156 0.273803 352.882 0.551869 352.522 0.759869C352.203 0.943869 351.896 1.05191 351.601 1.08398C351.312 1.11206 351.04 1.08003 350.783 0.9879C350.53 0.884839 350.295 0.734065 350.079 0.535577C349.869 0.33309 349.685 0.0932827 349.525 -0.183845L347.761 -3.23918L348.738 -3.80318L350.31 -1.0804C350.426 -0.879481 350.551 -0.693492 350.687 -0.52243C350.826 -0.362297 350.977 -0.236948 351.14 -0.146384C351.303 -0.05582 351.481 -0.0109688 351.675 -0.0118303C351.868 -0.0126919 352.079 -0.0791227 352.308 -0.211123C352.703 -0.439123 352.938 -0.768615 353.012 -1.1996C353.083 -1.63751 352.976 -2.10242 352.692 -2.59432L351.18 -5.21318L352.157 -5.77718L354.389 -1.91125C354.465 -1.77961 354.566 -1.61187 354.693 -1.40802C354.82 -1.20418 354.936 -1.02658 355.042 -0.875231L354.117 -0.341231ZM354.734 -7.26537C354.82 -7.14866 354.913 -7.01263 355.011 -6.85729C355.106 -6.70887 355.184 -6.58269 355.244 -6.47877L355.275 -6.49677C355.261 -6.66441 355.275 -6.83365 355.314 -7.0045C355.357 -7.18628 355.424 -7.35874 355.515 -7.52188C355.601 -7.69195 355.714 -7.84923 355.852 -7.99372C355.99 -8.13822 356.149 -8.26247 356.329 -8.36647C356.648 -8.55047 356.954 -8.65305 357.246 -8.67419C357.535 -8.70227 357.808 -8.67024 358.064 -8.57811C358.32 -8.48598 358.553 -8.33867 358.763 -8.13618C358.979 -7.93769 359.167 -7.69988 359.327 -7.42276L361.091 -4.36742L360.114 -3.80342L358.536 -6.53659C358.42 -6.73751 358.293 -6.91804 358.154 -7.07817C358.022 -7.2423 357.875 -7.36965 357.712 -7.46022C357.549 -7.55078 357.37 -7.59563 357.177 -7.59477C356.983 -7.59391 356.772 -7.52748 356.544 -7.39548C356.156 -7.17148 355.923 -6.83852 355.846 -6.39661C355.771 -5.96562 355.876 -5.50418 356.16 -5.01228L357.672 -2.39342L356.695 -1.82942L354.463 -5.69536C354.387 -5.82699 354.285 -5.99473 354.159 -6.19858C354.032 -6.40242 353.915 -6.58002 353.809 -6.73137L354.734 -7.26537ZM362.773 -10.8394L361.463 -10.0834L362.945 -7.51645C363.117 -7.21854 363.297 -7.03576 363.483 -6.96813C363.666 -6.90742 363.879 -6.94707 364.121 -7.08707C364.212 -7.13907 364.302 -7.20546 364.394 -7.28624C364.486 -7.36703 364.562 -7.45221 364.621 -7.54177L365.114 -6.75957C365.02 -6.65 364.907 -6.54282 364.773 -6.43804C364.651 -6.33032 364.513 -6.23247 364.361 -6.14447C363.897 -5.87647 363.466 -5.79864 363.068 -5.91098C362.678 -6.02733 362.335 -6.34184 362.039 -6.85453L360.497 -9.52535L359.551 -8.97935L359.089 -9.77956L360.035 -10.3256L359.219 -11.7389L360.185 -12.2969L361.001 -10.8836L362.311 -11.6396L362.773 -10.8394Z" fill="black" fill-opacity="0.08"/>
<path d="M230.759 44.6852L233.284 43.2272C233.756 42.9552 234.267 42.7525 234.818 42.619C235.369 42.4856 235.921 42.4578 236.474 42.5357C237.027 42.6136 237.555 42.8167 238.059 43.1449C238.562 43.4731 239.002 43.9628 239.378 44.614C239.742 45.2445 239.94 45.8598 239.973 46.46C240.001 47.0533 239.913 47.6123 239.708 48.1372C239.499 48.6551 239.203 49.1263 238.82 49.5507C238.433 49.9682 238.004 50.3129 237.532 50.5849L235.007 52.0429L230.759 44.6852ZM235.514 50.5448L236.803 49.8008C237.246 49.5448 237.619 49.2464 237.921 48.9057C238.23 48.561 238.452 48.1929 238.586 47.8013C238.727 47.4058 238.774 46.9908 238.726 46.5564C238.678 46.122 238.529 45.6865 238.277 45.25C238.013 44.7928 237.704 44.435 237.352 44.1765C237 43.9181 236.619 43.7546 236.21 43.686C235.804 43.6064 235.376 43.6178 234.927 43.72C234.481 43.8113 234.036 43.9849 233.593 44.2409L232.304 44.9849L235.514 50.5448ZM243.848 46.9385L242.871 47.5025L240.027 42.5765L241.004 42.0125L243.848 46.9385ZM240.145 40.1394C240.249 40.3196 240.269 40.5065 240.205 40.7003C240.148 40.8901 240.03 41.037 239.85 41.141C239.67 41.245 239.483 41.2741 239.291 41.2283C239.094 41.1756 238.945 41.0626 238.845 40.8894C238.741 40.7093 238.718 40.5243 238.775 40.3346C238.827 40.1379 238.944 39.9875 239.124 39.8835C239.304 39.7795 239.492 39.7539 239.689 39.8066C239.889 39.8483 240.041 39.9593 240.145 40.1394ZM246.087 40.7409C245.872 40.6247 245.632 40.5692 245.367 40.5744C245.098 40.5726 244.839 40.6437 244.59 40.7877C244.479 40.8517 244.376 40.9296 244.281 41.0213C244.182 41.1061 244.104 41.2022 244.046 41.3096C243.991 41.4061 243.959 41.5119 243.952 41.6271C243.947 41.7313 243.979 41.8423 244.047 41.96C244.167 42.1679 244.351 42.2698 244.598 42.2657C244.841 42.2547 245.173 42.1828 245.596 42.0499C245.863 41.9693 246.119 41.9091 246.364 41.8693C246.609 41.8296 246.838 41.8266 247.052 41.8603C247.268 41.8832 247.464 41.9503 247.639 42.0616C247.814 42.173 247.964 42.336 248.088 42.5508C248.256 42.8418 248.342 43.1198 248.348 43.3847C248.353 43.6496 248.3 43.9019 248.189 44.1415C248.081 44.3702 247.925 44.5803 247.721 44.7717C247.518 44.9631 247.291 45.1308 247.042 45.2748C246.668 45.4908 246.258 45.6301 245.814 45.6926C245.377 45.7511 244.954 45.6994 244.547 45.5375L244.901 44.5431C245.145 44.6611 245.419 44.7199 245.723 44.7196C246.035 44.7152 246.329 44.633 246.607 44.473C246.731 44.401 246.843 44.3226 246.942 44.2378C247.044 44.1421 247.124 44.0406 247.182 43.9331C247.247 43.8217 247.281 43.705 247.284 43.5829C247.288 43.4608 247.249 43.3305 247.169 43.192C247.037 42.9633 246.829 42.8576 246.543 42.8747C246.264 42.8879 245.885 42.968 245.407 43.115C245.216 43.1694 245.019 43.2189 244.814 43.2635C244.611 43.2971 244.411 43.302 244.212 43.2781C244.014 43.2541 243.825 43.192 243.647 43.0915C243.472 42.9802 243.319 42.8102 243.187 42.5816C243.035 42.3183 242.957 42.0631 242.952 41.8161C242.951 41.5581 243.003 41.3202 243.109 41.1024C243.21 40.8777 243.355 40.6736 243.545 40.4902C243.731 40.2999 243.941 40.1367 244.177 40.0007C244.53 39.7967 244.91 39.67 245.315 39.6205C245.728 39.5671 246.1 39.62 246.432 39.7793L246.087 40.7409ZM251.494 37.6188C251.298 37.5195 251.066 37.4779 250.799 37.4939C250.527 37.5031 250.273 37.5757 250.038 37.7117C249.781 37.8597 249.581 38.0402 249.436 38.2532C249.298 38.4621 249.207 38.6898 249.165 38.9361C249.118 39.1754 249.119 39.4245 249.167 39.6832C249.221 39.938 249.317 40.1832 249.453 40.4187C249.589 40.6543 249.753 40.8595 249.947 41.0342C250.147 41.205 250.364 41.3335 250.599 41.4198C250.829 41.4992 251.073 41.5293 251.33 41.5103C251.587 41.4913 251.844 41.4078 252.1 41.2598C252.349 41.1158 252.547 40.9373 252.691 40.7243C252.843 40.5073 252.937 40.2777 252.973 40.0354L253.969 40.2498C253.902 40.6123 253.752 40.9528 253.52 41.2714C253.284 41.583 252.969 41.8528 252.574 42.0808C252.193 42.3008 251.804 42.4425 251.406 42.5058C251.015 42.5651 250.638 42.5518 250.275 42.4661C249.907 42.3735 249.562 42.2079 249.239 41.9692C248.924 41.7265 248.652 41.4077 248.424 41.0127C248.2 40.6248 248.062 40.2334 248.009 39.8387C247.957 39.444 247.983 39.0644 248.086 38.6997C248.19 38.3351 248.365 37.9984 248.612 37.6897C248.865 37.377 249.179 37.1127 249.553 36.8967C249.9 36.6967 250.283 36.568 250.702 36.5105C251.128 36.4491 251.518 36.492 251.871 36.6393L251.494 37.6188ZM258.864 34.9715C259.084 35.3526 259.216 35.7424 259.262 36.1411C259.314 36.5358 259.287 36.921 259.181 37.2965C259.077 37.6611 258.9 38.0033 258.651 38.3229C258.397 38.6356 258.083 38.9 257.709 39.116C257.335 39.332 256.949 39.4716 256.552 39.5349C256.15 39.5913 255.765 39.5731 255.398 39.4805C255.026 39.381 254.679 39.2118 254.357 38.9731C254.041 38.7304 253.773 38.4186 253.553 38.0375C253.333 37.6565 253.199 37.272 253.151 36.8843C253.105 36.4856 253.134 36.1039 253.238 35.7393C253.341 35.3747 253.52 35.036 253.774 34.7233C254.023 34.4036 254.335 34.1358 254.709 33.9198C255.083 33.7038 255.471 33.5676 255.873 33.5113C256.27 33.448 256.653 33.4627 257.021 33.5553C257.395 33.6439 257.74 33.8096 258.056 34.0523C258.374 34.284 258.644 34.5905 258.864 34.9715ZM257.845 35.5595C257.709 35.324 257.541 35.1208 257.341 34.95C257.148 34.7752 256.936 34.6482 256.705 34.5688C256.471 34.4825 256.221 34.4509 255.957 34.4739C255.701 34.4929 255.44 34.5784 255.177 34.7304C254.914 34.8824 254.706 35.0669 254.555 35.2839C254.41 35.4969 254.316 35.7265 254.273 35.9728C254.227 36.2122 254.227 36.4612 254.275 36.72C254.33 36.9748 254.425 37.22 254.561 37.4555C254.697 37.6911 254.862 37.8962 255.055 38.071C255.255 38.2418 255.473 38.3703 255.707 38.4566C255.942 38.5429 256.188 38.5765 256.445 38.5575C256.708 38.5345 256.972 38.447 257.235 38.295C257.498 38.143 257.703 37.9605 257.847 37.7475C257.999 37.5305 258.097 37.2989 258.139 37.0526C258.182 36.8063 258.176 36.5558 258.121 36.301C258.073 36.0422 257.981 35.7951 257.845 35.5595ZM265.117 34.6588C265.031 34.5421 264.941 34.4095 264.846 34.2611C264.747 34.1057 264.668 33.9761 264.608 33.8722L264.587 33.8842C264.614 34.2194 264.533 34.5666 264.343 34.9257C264.156 35.2738 263.882 35.5519 263.522 35.7599C263.203 35.9439 262.896 36.0519 262.601 36.084C262.312 36.1121 262.04 36.08 261.783 35.9879C261.53 35.8848 261.295 35.7341 261.079 35.5356C260.869 35.3331 260.685 35.0933 260.525 34.8162L258.761 31.7608L259.738 31.1968L261.31 33.9196C261.426 34.1205 261.551 34.3065 261.687 34.4776C261.826 34.6377 261.977 34.7631 262.14 34.8536C262.303 34.9442 262.481 34.989 262.675 34.9882C262.868 34.9873 263.079 34.9209 263.308 34.7889C263.703 34.5609 263.938 34.2314 264.012 33.8004C264.083 33.3625 263.976 32.8976 263.692 32.4057L262.18 29.7868L263.157 29.2228L265.389 33.0888C265.465 33.2204 265.566 33.3881 265.693 33.592C265.82 33.7958 265.936 33.9734 266.042 34.1248L265.117 34.6588ZM265.734 27.7346C265.82 27.8513 265.913 27.9874 266.011 28.1427C266.106 28.2911 266.184 28.4173 266.244 28.5212L266.275 28.5032C266.261 28.3356 266.275 28.1663 266.314 27.9955C266.357 27.8137 266.424 27.6413 266.515 27.4781C266.601 27.3081 266.714 27.1508 266.852 27.0063C266.99 26.8618 267.149 26.7375 267.329 26.6335C267.648 26.4495 267.954 26.347 268.246 26.3258C268.535 26.2977 268.808 26.3298 269.064 26.4219C269.32 26.514 269.553 26.6613 269.763 26.8638C269.979 27.0623 270.167 27.3001 270.327 27.5772L272.091 30.6326L271.114 31.1966L269.536 28.4634C269.42 28.2625 269.293 28.082 269.154 27.9218C269.022 27.7577 268.875 27.6303 268.712 27.5398C268.549 27.4492 268.37 27.4044 268.177 27.4052C267.983 27.4061 267.772 27.4725 267.544 27.6045C267.156 27.8285 266.923 28.1615 266.846 28.6034C266.771 29.0344 266.876 29.4958 267.16 29.9877L268.672 32.6066L267.695 33.1706L265.463 29.3046C265.387 29.173 265.285 29.0053 265.159 28.8014C265.032 28.5976 264.915 28.42 264.809 28.2686L265.734 27.7346ZM273.773 24.1606L272.463 24.9166L273.945 27.4835C274.117 27.7815 274.297 27.9642 274.483 28.0319C274.666 28.0926 274.879 28.0529 275.121 27.9129C275.212 27.8609 275.302 27.7945 275.394 27.7138C275.486 27.633 275.562 27.5478 275.621 27.4582L276.114 28.2404C276.02 28.35 275.907 28.4572 275.773 28.562C275.651 28.6697 275.513 28.7675 275.361 28.8555C274.897 29.1235 274.466 29.2014 274.068 29.089C273.678 28.9727 273.335 28.6582 273.039 28.1455L271.497 25.4746L270.551 26.0206L270.089 25.2204L271.035 24.6744L270.219 23.2611L271.185 22.7031L272.001 24.1164L273.311 23.3604L273.773 24.1606Z" fill="black" fill-opacity="0.08"/>
<path d="M69.7591 15.6852L72.2844 14.2272C72.7555 13.9552 73.2666 13.7525 73.8177 13.619C74.3689 13.4856 74.921 13.4578 75.474 13.5357C76.0271 13.6136 76.5554 13.8167 77.0589 14.1449C77.5625 14.4731 78.0023 14.9628 78.3783 15.614C78.7423 16.2445 78.9405 16.8598 78.9729 17.46C79.0014 18.0533 78.9131 18.6123 78.708 19.1372C78.499 19.6551 78.2029 20.1263 77.8197 20.5507C77.4326 20.9682 77.0035 21.3129 76.5324 21.5849L74.0071 23.0429L69.7591 15.6852ZM74.5139 21.5448L75.8025 20.8008C76.246 20.5448 76.6187 20.2464 76.9208 19.9057C77.2299 19.561 77.4515 19.1929 77.5857 18.8013C77.7268 18.4058 77.7736 17.9908 77.726 17.5564C77.6785 17.122 77.5287 16.6865 77.2767 16.25C77.0127 15.7928 76.7045 15.435 76.352 15.1765C75.9996 14.9181 75.6188 14.7546 75.2097 14.686C74.8035 14.6064 74.3759 14.6178 73.9268 14.72C73.4807 14.8113 73.036 14.9849 72.5925 15.2409L71.3039 15.9849L74.5139 21.5448ZM82.8482 17.9385L81.8714 18.5025L79.0274 13.5765L80.0042 13.0125L82.8482 17.9385ZM79.1445 11.1394C79.2485 11.3196 79.2687 11.5065 79.2051 11.7003C79.1484 11.8901 79.0299 12.037 78.8498 12.141C78.6697 12.245 78.4832 12.2741 78.2905 12.2283C78.0938 12.1756 77.9455 12.0626 77.8455 11.8894C77.7415 11.7093 77.7178 11.5243 77.7745 11.3346C77.8272 11.1379 77.9437 10.9875 78.1238 10.8835C78.3039 10.7795 78.4924 10.7539 78.6891 10.8066C78.8887 10.8483 79.0405 10.9593 79.1445 11.1394ZM85.0868 11.7409C84.872 11.6247 84.6321 11.5692 84.3672 11.5744C84.0982 11.5726 83.8391 11.6437 83.5897 11.7877C83.4788 11.8517 83.376 11.9296 83.2811 12.0213C83.1823 12.1061 83.1038 12.2022 83.0457 12.3096C82.9906 12.4061 82.9593 12.5119 82.9519 12.6271C82.9474 12.7313 82.9791 12.8423 83.0471 12.96C83.1671 13.1679 83.3507 13.2698 83.5977 13.2657C83.8408 13.2547 84.1734 13.1828 84.5955 13.0499C84.8631 12.9693 85.1193 12.9091 85.3642 12.8693C85.6091 12.8296 85.8383 12.8266 86.0518 12.8603C86.2683 12.8832 86.464 12.9503 86.6392 13.0616C86.8143 13.173 86.9639 13.336 87.0879 13.5508C87.2559 13.8418 87.3425 14.1198 87.3476 14.3847C87.3528 14.6496 87.2998 14.9019 87.1887 15.1415C87.0806 15.3702 86.9248 15.5803 86.7212 15.7717C86.5176 15.9631 86.2912 16.1308 86.0417 16.2748C85.6676 16.4908 85.2584 16.6301 84.8142 16.6926C84.3768 16.7511 83.9544 16.6994 83.5468 16.5375L83.9011 15.5431C84.1447 15.6611 84.4189 15.7199 84.7235 15.7196C85.0351 15.7152 85.3294 15.633 85.6065 15.473C85.7312 15.401 85.843 15.3226 85.9419 15.2378C86.0436 15.1421 86.1236 15.0406 86.1816 14.9331C86.2466 14.8217 86.2808 14.705 86.2843 14.5829C86.2877 14.4608 86.2494 14.3305 86.1694 14.192C86.0374 13.9633 85.8285 13.8576 85.5428 13.8747C85.2641 13.8879 84.8854 13.968 84.4068 14.115C84.2165 14.1694 84.0187 14.2189 83.8135 14.2635C83.6113 14.2971 83.4108 14.302 83.2123 14.2781C83.0137 14.2541 82.8254 14.192 82.6473 14.0915C82.4722 13.9802 82.3186 13.8102 82.1866 13.5816C82.0346 13.3183 81.9566 13.0631 81.9525 12.8161C81.9514 12.5581 82.0034 12.3202 82.1086 12.1024C82.2098 11.8777 82.3552 11.6736 82.5449 11.4902C82.7306 11.2999 82.9413 11.1367 83.1768 11.0007C83.5302 10.7967 83.9097 10.67 84.3153 10.6205C84.7278 10.5671 85.1002 10.62 85.4323 10.7793L85.0868 11.7409ZM90.4943 8.61885C90.2984 8.5195 90.0665 8.47786 89.7986 8.49394C89.5268 8.50309 89.2731 8.57566 89.0375 8.71166C88.7812 8.85966 88.5806 9.04016 88.4356 9.25315C88.2977 9.46215 88.2074 9.68979 88.1648 9.93606C88.1183 10.1754 88.1189 10.4245 88.1667 10.6832C88.2214 10.938 88.3167 11.1832 88.4527 11.4187C88.5887 11.6543 88.7534 11.8595 88.9467 12.0342C89.1469 12.205 89.3643 12.3335 89.5988 12.4198C89.8294 12.4992 90.0731 12.5293 90.33 12.5103C90.587 12.4913 90.8436 12.4078 91.0999 12.2598C91.3493 12.1158 91.5465 11.9373 91.6914 11.7243C91.8433 11.5073 91.937 11.2777 91.9727 11.0354L92.9694 11.2498C92.9015 11.6123 92.7517 11.9528 92.5199 12.2714C92.2842 12.583 91.9688 12.8528 91.5739 13.0808C91.1929 13.3008 90.8035 13.4425 90.4059 13.5058C90.0152 13.5651 89.6381 13.5518 89.2745 13.4661C88.907 13.3735 88.5619 13.2079 88.2394 12.9692C87.9237 12.7265 87.6519 12.4077 87.4239 12.0127C87.1999 11.6248 87.0617 11.2334 87.0094 10.8387C86.957 10.444 86.9826 10.0644 87.0861 9.69974C87.1897 9.33511 87.3648 8.99844 87.6115 8.68973C87.8652 8.37702 88.179 8.11267 88.5531 7.89667C88.8996 7.69667 89.2825 7.56795 89.702 7.51052C90.1284 7.44908 90.5181 7.492 90.871 7.63927L90.4943 8.61885ZM97.8636 5.97151C98.0836 6.35256 98.2163 6.74244 98.2618 7.14113C98.3141 7.53583 98.2871 7.92096 98.1806 8.29652C98.077 8.66115 97.9004 9.00328 97.6508 9.32292C97.3972 9.63562 97.0833 9.89998 96.7092 10.116C96.3351 10.332 95.9492 10.4716 95.5516 10.5349C95.1499 10.5913 94.7654 10.5731 94.3978 10.4805C94.0262 10.381 93.6792 10.2118 93.3566 9.97313C93.041 9.73044 92.7732 9.41856 92.5532 9.03751C92.3332 8.65646 92.199 8.27205 92.1506 7.88428C92.1052 7.48558 92.1342 7.10392 92.2378 6.73929C92.3414 6.37466 92.5199 6.03599 92.7736 5.72328C93.0232 5.40364 93.3351 5.13583 93.7092 4.91983C94.0833 4.70383 94.4712 4.56764 94.8728 4.51128C95.2704 4.44799 95.653 4.46266 96.0206 4.55529C96.3951 4.64392 96.7401 4.80958 97.0558 5.05228C97.3743 5.28405 97.6436 5.59046 97.8636 5.97151ZM96.8452 6.55951C96.7092 6.32395 96.5411 6.12078 96.3409 5.95001C96.1476 5.77524 95.9357 5.64817 95.7051 5.56883C95.4705 5.48255 95.2213 5.45091 94.9575 5.47392C94.7006 5.49292 94.4405 5.57843 94.1772 5.73043C93.9139 5.88243 93.7064 6.06692 93.5545 6.28392C93.4096 6.49691 93.3159 6.72655 93.2733 6.97283C93.2267 7.21217 93.2273 7.46124 93.2751 7.72001C93.3299 7.97478 93.4252 8.21995 93.5612 8.45551C93.6972 8.69107 93.8619 8.89624 94.0551 9.07101C94.2553 9.24178 94.4727 9.37031 94.7073 9.45659C94.9419 9.54286 95.1876 9.5765 95.4445 9.55749C95.7084 9.53449 95.9719 9.44699 96.2352 9.29499C96.4985 9.14299 96.7026 8.96049 96.8475 8.74749C96.9993 8.5305 97.0965 8.29886 97.1391 8.05259C97.1817 7.80631 97.1756 7.55578 97.1209 7.30101C97.0731 7.04224 96.9812 6.79507 96.8452 6.55951ZM104.117 5.65877C104.031 5.54206 103.941 5.4095 103.846 5.26108C103.747 5.10573 103.668 4.97609 103.608 4.87217L103.587 4.88417C103.614 5.21944 103.533 5.56661 103.343 5.92567C103.156 6.2738 102.882 6.55187 102.522 6.75987C102.203 6.94387 101.896 7.05191 101.601 7.08398C101.312 7.11206 101.04 7.08003 100.783 6.9879C100.53 6.88484 100.295 6.73406 100.079 6.53558C99.8693 6.33309 99.6847 6.09328 99.5247 5.81615L97.7607 2.76082L98.7376 2.19682L100.31 4.9196C100.426 5.12052 100.551 5.30651 100.687 5.47757C100.826 5.6377 100.977 5.76305 101.14 5.85362C101.303 5.94418 101.481 5.98903 101.675 5.98817C101.868 5.98731 102.079 5.92088 102.308 5.78888C102.703 5.56088 102.938 5.23138 103.012 4.8004C103.083 4.36249 102.976 3.89758 102.692 3.40568L101.18 0.786817L102.157 0.222817L104.389 4.08875C104.465 4.22039 104.566 4.38813 104.693 4.59198C104.82 4.79582 104.936 4.97342 105.042 5.12477L104.117 5.65877ZM104.734 -1.26537C104.82 -1.14866 104.913 -1.01263 105.011 -0.857286C105.106 -0.708866 105.184 -0.582694 105.244 -0.478771L105.275 -0.496771C105.261 -0.664407 105.275 -0.83365 105.314 -1.0045C105.357 -1.18628 105.424 -1.35874 105.515 -1.52188C105.601 -1.69195 105.714 -1.84923 105.852 -1.99372C105.99 -2.13822 106.149 -2.26247 106.329 -2.36647C106.648 -2.55047 106.954 -2.65305 107.246 -2.67419C107.535 -2.70227 107.808 -2.67024 108.064 -2.57811C108.32 -2.48598 108.553 -2.33867 108.763 -2.13618C108.979 -1.93769 109.167 -1.69988 109.327 -1.42276L111.091 1.63258L110.114 2.19658L108.536 -0.536594C108.42 -0.737512 108.293 -0.918038 108.154 -1.07817C108.022 -1.2423 107.875 -1.36965 107.712 -1.46022C107.549 -1.55078 107.37 -1.59563 107.177 -1.59477C106.983 -1.59391 106.772 -1.52748 106.544 -1.39548C106.156 -1.17148 105.923 -0.838522 105.846 -0.396609C105.771 0.0343751 105.876 0.495819 106.16 0.987721L107.672 3.60658L106.695 4.17058L104.463 0.304645C104.387 0.173009 104.285 0.00526748 104.159 -0.198579C104.032 -0.402425 103.915 -0.580022 103.809 -0.731371L104.734 -1.26537ZM112.773 -4.83935L111.463 -4.08335L112.945 -1.51645C113.117 -1.21854 113.297 -1.03576 113.483 -0.968128C113.666 -0.907421 113.879 -0.947067 114.121 -1.08707C114.212 -1.13907 114.302 -1.20546 114.394 -1.28624C114.486 -1.36703 114.562 -1.45221 114.621 -1.54177L115.114 -0.759567C115.02 -0.649998 114.907 -0.542821 114.773 -0.438036C114.651 -0.330324 114.513 -0.232467 114.361 -0.144467C113.897 0.123533 113.466 0.201361 113.068 0.0890176C112.678 -0.0273259 112.335 -0.341841 112.039 -0.854528L110.497 -3.52535L109.551 -2.97935L109.089 -3.77956L110.035 -4.32556L109.219 -5.73891L110.185 -6.29691L111.001 -4.88356L112.311 -5.63956L112.773 -4.83935Z" fill="black" fill-opacity="0.08"/>
</g>
</svg>
