<svg width="30" height="30" viewBox="0 0 30 30" fill="none" xmlns="http://www.w3.org/2000/svg">
<circle cx="15" cy="15" r="15" fill="white"/>
<circle cx="15" cy="15" r="14" fill="white"/>
<path d="M28.6931 12.1476C28.4602 11.2162 28.2272 10.4012 27.8778 9.58628C27.5283 8.77131 27.0624 7.95634 26.5965 7.2578C26.1306 6.55925 25.5482 5.86071 24.8493 5.16216C24.2669 4.58004 23.568 3.99792 22.7526 3.4158C22.0538 2.9501 21.2384 2.48441 20.423 2.13514C16.9286 0.621622 13.0848 0.621622 9.5904 2.13514C7.95968 2.83368 6.44544 3.8815 5.16416 5.16216C4.58176 5.74428 3.99936 6.44283 3.41696 7.2578C2.95104 7.95634 2.48512 8.77131 2.13568 9.58628C0.62144 13.079 0.62144 16.921 2.13568 20.4137C2.48512 21.2287 2.95104 22.0437 3.41696 22.7422C3.88288 23.4407 4.46528 24.1393 5.16416 24.8378C5.74656 25.42 6.44544 26.0021 7.2608 26.5842C7.95968 27.0499 8.77504 27.5156 9.5904 27.8649C13.0848 29.3784 16.9286 29.3784 20.423 27.8649C21.2384 27.5156 22.0538 27.0499 22.7526 26.5842C23.4515 26.1185 24.1504 25.5364 24.8493 24.8378C25.4317 24.2557 26.0141 23.5572 26.5965 22.7422C27.0624 22.0437 27.5283 21.2287 27.8778 20.4137C29.0426 17.8524 29.2755 14.9418 28.6931 12.1476ZM15.1814 27.1663C8.4256 27.1663 3.06752 21.6944 3.06752 15.0582C3.06752 8.42204 8.54208 2.9501 15.1814 2.9501C21.9373 2.9501 27.2954 8.42204 27.2954 15.0582C27.2954 21.6944 21.8208 27.1663 15.1814 27.1663Z" fill="black"/>
<path d="M15 26.2C15 26.2 15.5835 26.2 15.7 26.2C15.8165 26.2 16.8612 26.0021 16.9286 26.0021C16.9961 26.0021 17.0451 26.0021 17.0451 26.0021C17.1616 26.0021 17.2781 26.0021 17.3946 25.8857C16.3462 25.8857 15.2979 25.7692 14.2496 25.5364C12.7354 25.1871 11.2211 24.605 9.93984 23.5572C7.95968 21.9272 6.79488 19.3659 6.79488 16.6881C6.79488 14.7089 7.49376 12.8462 8.77504 11.3326C10.4058 9.35343 12.7354 8.42204 15.065 8.30561H15.4144V6.44283H15.065C14.3661 6.44283 13.6672 6.55925 12.9683 6.67568C12.2694 6.7921 11.5706 7.02495 10.8717 7.37422C10.1728 7.72349 9.5904 8.07276 9.008 8.53846C8.4256 9.00416 7.8432 9.46986 7.37728 10.052C6.91136 10.6341 6.56192 11.2162 6.21248 11.7983C5.86304 12.3805 5.63008 13.079 5.39712 13.6611C5.16416 14.3597 5.04768 14.9418 5.04768 15.6403V16.5717C5.04768 17.2703 5.16416 17.9688 5.28064 18.6674C5.39712 19.3659 5.63008 20.0645 5.97952 20.763C6.32896 21.578 6.99168 22.6343 7.95968 23.5572C9.27192 24.8082 10.4378 25.3264 12.0365 25.7783C13.601 26.2205 15 26.2 15 26.2Z" fill="black"/>
<path d="M18.4429 24.2557C17.744 24.2557 17.0451 24.1393 16.3462 24.0229C13.4342 23.4407 10.8717 21.6944 9.93984 19.0166C8.77504 15.7568 10.5222 12.1476 13.7837 11.0998C14.3661 10.8669 15.065 10.7505 15.7638 10.7505C16.5792 10.7505 17.3946 10.8669 18.2099 11.2162L19.0253 9.46986C18.7923 9.35343 18.5594 9.23701 18.3264 9.23701C17.511 9.00416 16.6957 8.88774 15.7638 8.88774C14.9485 8.88774 14.0166 9.00416 13.2013 9.35343C12.153 9.7027 11.2211 10.2848 10.4058 10.9834C10.0563 11.3326 9.70688 11.6819 9.35744 12.1476C9.008 12.6133 8.77504 12.9626 8.54208 13.4283C8.07616 14.3597 7.8432 15.4075 7.72672 16.4553C7.61024 17.5031 7.8432 18.6674 8.19264 19.5988C8.54208 20.6466 9.12448 21.578 9.93984 22.3929C10.6387 23.0915 11.4541 23.6736 12.3859 24.2557C13.4342 24.8378 14.7155 25.0707 15.9968 25.3035C16.8122 25.42 17.977 25.42 18.6758 25.42C19.2582 25.1871 19.4912 25.0707 19.8406 24.9543C20.0736 24.8378 20.423 24.7214 20.656 24.4886C20.889 24.3721 21.0054 24.2557 21.4714 24.0229C21.4714 24.0229 21.5878 24.0229 21.5878 23.9064C19.9571 24.2557 19.6077 24.2557 18.4429 24.2557Z" fill="black"/>
<path d="M21.9373 22.1601C21.4714 22.1601 20.889 22.2765 20.1901 22.2765C18.9088 22.2765 17.3946 22.1601 15.9968 21.6944C13.9002 20.9958 12.0365 19.2495 12.0365 17.0374C12.0365 14.8254 13.7837 13.079 15.8803 13.079C17.3946 13.079 18.6758 13.894 19.2582 15.0582L21.0054 14.2432C20.7725 13.7775 20.423 13.3119 19.9571 12.8462C17.744 10.6341 14.0166 10.6341 11.8035 12.8462C10.7552 13.894 10.0563 15.4075 10.0563 16.921C10.0563 17.736 10.1728 18.5509 10.5222 19.2495C10.8717 19.948 11.2211 20.5301 11.8035 21.1123C12.7354 22.1601 14.0166 22.8586 15.2979 23.3243C16.5792 23.79 18.5594 23.9064 20.3066 23.79C20.7725 23.79 21.2384 23.6736 21.8208 23.5572C22.4032 23.0915 22.9856 22.5094 23.568 21.8108C23.335 22.0437 22.5197 22.0437 21.9373 22.1601Z" fill="black"/>
</svg>
