<svg width="12" height="12" viewBox="0 0 12 12" fill="none" xmlns="http://www.w3.org/2000/svg">
<path fill-rule="evenodd" clipRule="evenodd" d="M4.86445 0.996094C4.42263 0.996094 4.06445 1.35427 4.06445 1.79609V2.88151H5.06445V1.99609H10.0045V7.85719H9.01951V8.85719H10.2045C10.6464 8.85719 11.0045 8.49902 11.0045 8.05719V1.79609C11.0045 1.35427 10.6464 0.996094 10.2045 0.996094H4.86445ZM2 10.0001V4.61124H7.12809V10.0001H2ZM1 4.11124C1 3.8351 1.22386 3.61124 1.5 3.61124H7.62809C7.90423 3.61124 8.12809 3.8351 8.12809 4.11124V10.5001C8.12809 10.7763 7.90423 11.0001 7.62809 11.0001H1.5C1.22386 11.0001 1 10.7763 1 10.5001V4.11124Z" fill="white"/>
</svg>
