<svg xmlns="http://www.w3.org/2000/svg" width="110" height="130" viewBox="0 0 110 130" fill="none">
<mask id="mask0_1_388" style="mask-type:alpha" maskUnits="userSpaceOnUse" x="0" y="0" width="110" height="130">
<rect width="110" height="130" fill="#292B32"/>
</mask>
<g mask="url(#mask0_1_388)">
<g opacity="0.5">
<circle cx="93.1567" cy="91" r="70.291" stroke="white" stroke-opacity="0.05" stroke-width="26"/>
<path d="M161.823 70.0145C165.638 81.3566 166.505 93.4845 164.341 105.264C162.177 117.043 157.053 128.089 149.45 137.368C141.846 146.647 132.011 153.856 120.864 158.322C109.717 162.787 97.6217 164.362 85.7106 162.9C73.7994 161.438 62.4612 156.986 52.7563 149.961C43.0514 142.936 35.297 133.567 30.2184 122.731C25.1398 111.895 21.9029 99.9455 22.717 88.0005C23.531 76.0556 26.3695 64.5052 32.8732 54.43" stroke="white" stroke-opacity="0.05" stroke-width="26"/>
<path opacity="0.5" d="M97.3404 83.3305L97.264 83.8973H97.836H117.475C117.475 83.8973 117.475 83.8973 117.475 83.8973C117.667 83.8974 117.855 83.951 118.018 84.0519C118.18 84.1529 118.311 84.297 118.395 84.4679C118.479 84.6387 118.514 84.8294 118.495 85.0186L118.992 85.0688L118.495 85.0186C118.476 85.2078 118.404 85.388 118.287 85.5388L85.0156 128.452C85.0155 128.452 85.0153 128.452 85.0152 128.452C84.9984 128.473 84.9749 128.489 84.948 128.496C84.9209 128.503 84.8922 128.501 84.8664 128.49C84.8407 128.479 84.8196 128.461 84.806 128.437C84.7926 128.414 84.7872 128.387 84.7905 128.361C84.7905 128.361 84.7906 128.361 84.7906 128.361L88.6596 99.6695L88.736 99.1027H88.164H68.5249C68.5248 99.1027 68.5248 99.1027 68.5247 99.1027C68.3328 99.1026 68.1449 99.049 67.9823 98.9481L67.7186 99.3729L67.9823 98.9481C67.8197 98.8471 67.689 98.703 67.6047 98.5321C67.5205 98.3613 67.486 98.1706 67.5051 97.9814C67.5242 97.7923 67.5961 97.612 67.7129 97.4612L100.984 54.5483C100.985 54.5481 100.985 54.5479 100.985 54.5476C101.002 54.5265 101.025 54.5111 101.052 54.5042C101.079 54.4971 101.108 54.4991 101.134 54.5098C101.159 54.5206 101.18 54.5393 101.194 54.5627C101.207 54.5858 101.213 54.6125 101.209 54.6388C101.209 54.639 101.209 54.6392 101.209 54.6395L97.3404 83.3305Z" fill="white" fill-opacity="0.15" stroke="url(#paint0_linear_1_388)"/>
</g>
</g>
<defs>
<linearGradient id="paint0_linear_1_388" x1="93" y1="54" x2="93" y2="129" gradientUnits="userSpaceOnUse">
<stop stop-color="white" stop-opacity="0.25"/>
<stop offset="0.919493" stop-color="white" stop-opacity="0"/>
</linearGradient>
</defs>
</svg>