<svg width="158" height="170" viewBox="0 0 158 170" fill="none" xmlns="http://www.w3.org/2000/svg">
<path fill-rule="evenodd" clipRule="evenodd" d="M69.6658 160.803C93.8343 160.089 113.185 151.433 112.888 141.469C112.888 141.469 112.888 141.469 112.888 141.469L112.888 141.469L112.722 135.928L110.62 135.99C104.732 128.904 88.0677 124.144 68.5878 124.719C49.1079 125.294 32.7576 131.029 27.3028 138.45L25.2006 138.512L25.3643 143.99C25.3647 144.011 25.3653 144.032 25.3659 144.053C25.6636 154.017 45.4973 161.516 69.6658 160.803Z" fill="url(#paint0_linear_1_325)"/>
<path d="M112.288 135.566C112.358 137.909 111.275 140.214 109.175 142.386C107.075 144.559 103.979 146.571 100.098 148.308C92.3372 151.781 81.5136 154.117 69.4705 154.475C57.4275 154.833 46.4843 153.143 38.5311 150.137C34.5535 148.633 31.3442 146.808 29.1181 144.764C26.8934 142.721 25.6759 140.483 25.6063 138.14C25.5367 135.797 26.6193 133.491 28.7188 131.32C30.8196 129.147 33.915 127.134 37.7963 125.398C45.5571 121.925 56.3807 119.588 68.4238 119.231C80.4668 118.873 91.41 120.563 99.3632 123.569C103.341 125.073 106.55 126.897 108.776 128.942C111.001 130.985 112.218 133.222 112.288 135.566Z" fill="url(#paint1_linear_1_325)" stroke="url(#paint2_linear_1_325)" stroke-width="0.840001"/>
<mask id="mask0_1_325" style="mask-type:alpha" maskUnits="userSpaceOnUse" x="25" y="118" width="88" height="37">
<path d="M112.399 136.859C112.399 139.203 111.248 141.475 109.085 143.584C106.921 145.694 103.767 147.613 99.8357 149.234C91.9752 152.474 81.0869 154.489 69.0385 154.489C56.99 154.489 46.1018 152.474 38.2413 149.234C34.3101 147.613 31.1563 145.694 28.9919 143.584C26.8289 141.475 25.6783 139.203 25.6783 136.859C25.6783 134.515 26.8289 132.242 28.9919 130.134C31.1563 128.024 34.3101 126.105 38.2413 124.484C46.1018 121.243 56.99 119.229 69.0385 119.229C81.0869 119.229 91.9752 121.243 99.8357 124.484C103.767 126.105 106.921 128.024 109.085 130.134C111.248 132.242 112.399 134.515 112.399 136.859Z" fill="url(#paint3_linear_1_325)" stroke="url(#paint4_linear_1_325)" stroke-width="0.840001"/>
</mask>
<g mask="url(#mask0_1_325)">
<g filter="url(#filter0_f_1_325)">
<ellipse cx="69.2747" cy="136.026" rx="37.6062" ry="15.2497" fill="url(#paint5_linear_1_325)"/>
</g>
</g>
<mask id="path-5-inside-1_1_325" fill="white">
<path fill-rule="evenodd" clipRule="evenodd" d="M103.912 31.2466H33.6482V134.31L33.7162 134.308C33.702 134.506 33.7 134.705 33.7105 134.905C34.0838 141.997 50.0995 147.134 69.4826 146.378C88.8535 145.622 104.257 139.268 103.903 132.181L103.912 132.181V31.2466Z"/>
</mask>
<path fill-rule="evenodd" clipRule="evenodd" d="M103.912 31.2466H33.6482V134.31L33.7162 134.308C33.702 134.506 33.7 134.705 33.7105 134.905C34.0838 141.997 50.0995 147.134 69.4826 146.378C88.8535 145.622 104.257 139.268 103.903 132.181L103.912 132.181V31.2466Z" fill="url(#paint6_linear_1_325)"/>
<path d="M33.6482 31.2466V30.4066H32.8082V31.2466H33.6482ZM103.912 31.2466H104.752V30.4066H103.912V31.2466ZM33.6482 134.31H32.8082V135.176L33.6736 135.15L33.6482 134.31ZM33.7162 134.308L34.554 134.368L34.6206 133.44L33.6907 133.469L33.7162 134.308ZM33.7105 134.905L32.8716 134.949L33.7105 134.905ZM69.4826 146.378L69.5153 147.217L69.4826 146.378ZM103.903 132.181L103.878 131.341L103.022 131.367L103.064 132.223L103.903 132.181ZM103.912 132.181L103.938 133.02L104.752 132.996V132.181H103.912ZM33.6482 32.0866H103.912V30.4066H33.6482V32.0866ZM34.4882 134.31V31.2466H32.8082V134.31H34.4882ZM33.6907 133.469L33.6228 133.471L33.6736 135.15L33.7416 135.148L33.6907 133.469ZM34.5493 134.861C34.5407 134.696 34.5423 134.532 34.554 134.368L32.8783 134.248C32.8616 134.481 32.8593 134.715 32.8716 134.949L34.5493 134.861ZM69.4499 145.538C59.8306 145.913 51.0828 144.824 44.7244 142.784C41.5419 141.764 39.0021 140.519 37.2524 139.137C35.4993 137.752 34.6252 136.301 34.5493 134.861L32.8716 134.949C32.9825 137.054 34.2503 138.906 36.2109 140.455C38.1748 142.007 40.9204 143.329 44.2113 144.384C50.7999 146.497 59.7515 147.598 69.5153 147.217L69.4499 145.538ZM103.064 132.223C103.136 133.659 102.418 135.163 100.821 136.672C99.2259 138.18 96.83 139.615 93.7693 140.877C87.6547 143.399 79.0634 145.163 69.4499 145.538L69.5153 147.217C79.2727 146.837 88.0685 145.046 94.4099 142.43C97.5772 141.124 100.177 139.593 101.975 137.893C103.773 136.194 104.847 134.246 104.742 132.139L103.064 132.223ZM103.887 131.341L103.878 131.341L103.929 133.021L103.938 133.02L103.887 131.341ZM103.072 31.2466V132.181H104.752V31.2466H103.072Z" fill="url(#paint7_linear_1_325)" fill-opacity="0.6" mask="url(#path-5-inside-1_1_325)"/>
<g filter="url(#filter1_f_1_325)">
<ellipse cx="35.1319" cy="14.2659" rx="35.1319" ry="14.2659" transform="matrix(0.999351 -0.0360275 0.036452 0.999335 33.1506 118.117)" fill="url(#paint8_linear_1_325)"/>
</g>
<path fill-rule="evenodd" clipRule="evenodd" d="M98.5061 96.2112L38.7292 99.0633V129.112L38.7909 129.109C38.7929 129.158 38.7955 129.207 38.7989 129.256C39.2682 136.094 52.9991 140.732 69.4677 139.615C85.6862 138.515 98.5116 132.244 98.4492 125.522L98.5061 125.519V96.2112Z" fill="url(#paint9_linear_1_325)"/>
<mask id="mask1_1_325" style="mask-type:alpha" maskUnits="userSpaceOnUse" x="38" y="96" width="61" height="44">
<path fill-rule="evenodd" clipRule="evenodd" d="M98.5061 96.1796L38.7292 99.1879V129.129L38.7913 129.125C38.7931 129.163 38.7952 129.201 38.7978 129.239C39.2633 136.077 52.9915 140.722 69.4608 139.614C85.2959 138.549 97.8995 132.553 98.4328 126.014L98.5061 126.011V96.1796Z" fill="url(#paint10_linear_1_325)"/>
</mask>
<g mask="url(#mask1_1_325)">
<g filter="url(#filter2_f_1_325)">
<ellipse cx="20.5498" cy="32.1871" rx="20.5498" ry="32.1871" transform="matrix(-0.075104 0.997176 -0.997407 -0.0719682 87.0872 119.506)" fill="#7B45D2" fill-opacity="0.54"/>
</g>
<g filter="url(#filter3_f_1_325)">
<ellipse cx="9.70573" cy="31.9999" rx="9.70573" ry="31.9999" transform="matrix(-1 -8.69115e-08 -0.00229748 -0.999997 96.0872 148.162)" fill="#2B3B7A"/>
</g>
<g filter="url(#filter4_f_1_325)">
<ellipse cx="3.01019" cy="31.9999" rx="3.01019" ry="31.9999" transform="matrix(-1 -8.69115e-08 -0.00229748 -0.999997 79.7607 148.162)" fill="white" fill-opacity="0.37"/>
</g>
<g filter="url(#filter5_f_1_325)">
<ellipse cx="13.3343" cy="20.6432" rx="13.3343" ry="20.6432" transform="matrix(-1 -8.69115e-08 -0.0022975 -0.999997 116.596 156.194)" fill="#8673D3"/>
</g>
<g opacity="0.6" filter="url(#filter6_f_1_325)">
<path d="M122.229 102.194C122.368 104.212 121.236 106.46 118.726 108.844C116.229 111.216 112.491 113.598 107.748 115.839C98.2715 120.317 84.9661 124.148 70.0855 126.244C55.2049 128.34 41.6336 128.294 31.7301 126.545C26.7735 125.67 22.7832 124.377 20.0119 122.747C17.2259 121.108 15.8109 119.219 15.6726 117.202C15.5343 115.185 16.6656 112.936 19.1758 110.552C21.6727 108.18 25.411 105.798 30.154 103.557C39.6306 99.0794 52.936 95.2478 67.8166 93.1521C82.6972 91.0563 96.2685 91.1026 106.172 92.851C111.129 93.7261 115.119 95.0194 117.89 96.6492C120.676 98.2876 122.091 100.177 122.229 102.194Z" stroke="url(#paint11_linear_1_325)" stroke-opacity="0.6" stroke-width="1.68"/>
</g>
</g>
<path d="M98.0355 95.4844C98.125 97.0075 97.4543 98.5432 96.0789 100.027C94.7025 101.513 92.6447 102.917 90.0383 104.157C84.8276 106.635 77.5035 108.415 69.3044 108.891C61.1054 109.367 53.6226 108.446 48.1572 106.588C45.4234 105.659 43.2152 104.502 41.6742 103.186C40.1344 101.871 39.2884 100.423 39.199 98.9001C39.1095 97.377 39.7802 95.8412 41.1556 94.357C42.532 92.8716 44.5897 91.4671 47.1962 90.2276C52.4069 87.7497 59.731 85.9695 67.9301 85.4935C76.1291 85.0175 83.6119 85.9382 89.0773 87.7962C91.8111 88.7257 94.0193 89.8825 95.5603 91.1985C97.1001 92.5135 97.9461 93.9612 98.0355 95.4844Z" fill="url(#paint12_linear_1_325)" stroke="url(#paint13_linear_1_325)" stroke-width="0.840001"/>
<ellipse cx="29.8872" cy="12.126" rx="29.8872" ry="12.126" transform="matrix(0.998319 -0.057957 0.0586385 0.998279 38.0703 86.8322)" fill="url(#paint14_linear_1_325)"/>
<mask id="mask2_1_325" style="mask-type:alpha" maskUnits="userSpaceOnUse" x="38" y="84" width="61" height="26">
<ellipse cx="29.8872" cy="12.126" rx="29.8872" ry="12.126" transform="matrix(0.998319 -0.057957 0.0586385 0.998279 38.0708 86.8322)" fill="#58A0C8"/>
</mask>
<g mask="url(#mask2_1_325)">
<g filter="url(#filter7_f_1_325)">
<ellipse cx="49.5165" cy="11.6322" rx="49.5165" ry="11.6322" transform="matrix(0.995562 -0.0941042 0.0952046 0.995458 11.3323 85.7745)" fill="url(#paint15_linear_1_325)"/>
</g>
</g>
<path d="M98.2457 95.4851C98.3395 97.0813 97.6335 98.6687 96.2334 100.178C94.8327 101.688 92.7498 103.105 90.1289 104.35C84.8881 106.84 77.5362 108.623 69.3171 109.101C61.098 109.578 53.5873 108.657 48.0906 106.791C45.3417 105.857 43.107 104.691 41.5391 103.353C39.9718 102.016 39.0848 100.521 38.991 98.9251C38.8972 97.3288 39.6032 95.7414 41.0033 94.2321C42.404 92.7223 44.4869 91.3052 47.1079 90.06C52.3487 87.5702 59.7005 85.7868 67.9196 85.3096C76.1387 84.8325 83.6494 85.753 89.1461 87.6195C91.895 88.5529 94.1297 89.7194 95.6976 91.0569C97.2649 92.3939 98.1519 93.8888 98.2457 95.4851Z" stroke="url(#paint16_linear_1_325)" stroke-width="0.42"/>
<path d="M75.1607 36.3955L71.8673 36.9948L71.0306 60.6962L75.5384 58.7754L76.1513 37.2464C76.1665 36.7125 75.6861 36.2999 75.1607 36.3955Z" fill="url(#paint17_linear_1_325)"/>
<path d="M75.5148 58.7506L70.969 60.7072L85.1699 62.9843L85.7563 63.4507L90.0587 61.3287L75.5148 58.7506Z" fill="url(#paint18_linear_1_325)"/>
<g filter="url(#filter8_f_1_325)">
<path d="M85.5238 63.5701L90.0574 61.3232" stroke="url(#paint19_linear_1_325)" stroke-width="0.840001" strokeLinecap="round"/>
</g>
<path d="M65.7502 95.8375L85.5506 63.5104L90.0579 61.3239L70.3751 92.6727L65.7502 95.8375Z" fill="url(#paint20_linear_1_325)"/>
<g filter="url(#filter9_di_1_325)">
<path d="M84.7378 62.4173L71.5058 60.385L72.4137 37.6068C72.4176 37.4991 72.3909 37.385 72.3377 37.2822C72.2844 37.1794 72.2077 37.0935 72.1192 37.0378C72.0308 36.9821 71.9355 36.9596 71.8481 36.9738C71.7606 36.9881 71.6859 37.0382 71.6354 37.1166L51.7585 68.3407C51.6546 68.5042 51.5981 68.7103 51.5957 68.9356C51.5932 69.1608 51.6447 69.3962 51.7445 69.615C51.8442 69.8339 51.9882 70.0274 52.16 70.1737C52.3319 70.32 52.5247 70.4132 52.7168 70.4428L65.9488 72.4751L65.0409 95.2533C65.037 95.361 65.0637 95.4751 65.1169 95.5779C65.1701 95.6807 65.2469 95.7666 65.3353 95.8223C65.4238 95.878 65.5191 95.9005 65.6065 95.8863C65.6939 95.872 65.7687 95.8219 65.8192 95.7435L85.696 64.5195C85.8 64.3559 85.8564 64.1498 85.8589 63.9246C85.8614 63.6993 85.8098 63.4639 85.7101 63.2451C85.6103 63.0262 85.4664 62.8327 85.2945 62.6864C85.1227 62.5401 84.9298 62.4469 84.7378 62.4173Z" fill="white" fill-opacity="0.65" shape-rendering="crispEdges"/>
<path d="M71.0898 60.2745L71.0715 60.7325L71.5365 60.8039L84.7684 62.8362C84.7684 62.8362 84.7685 62.8362 84.7685 62.8362C84.8668 62.8513 84.9718 62.8997 85.0728 62.9856C85.1748 63.0725 85.2695 63.1956 85.3384 63.3467L85.7101 63.2451L85.3384 63.3467C85.4073 63.4979 85.4444 63.6644 85.4426 63.8256C85.4408 63.9868 85.4003 64.1289 85.3314 64.2373L65.4701 95.4371C65.4615 95.4156 65.456 95.3895 65.4569 95.3628C65.4569 95.3627 65.4569 95.3625 65.4569 95.3623L66.3648 72.5857L66.3831 72.1276L65.9181 72.0562L52.6862 70.0239C52.6861 70.0239 52.6861 70.0239 52.686 70.0239C52.5878 70.0088 52.4828 69.9604 52.3818 69.8745L52.16 70.1737L52.3818 69.8745C52.2798 69.7876 52.1851 69.6645 52.1162 69.5134C52.0473 69.3622 52.0102 69.1957 52.0119 69.0345C52.0137 68.8733 52.0542 68.7312 52.1231 68.6228L71.9845 37.423C71.993 37.4444 71.9985 37.4705 71.9977 37.4971C71.9977 37.4973 71.9977 37.4976 71.9977 37.4978L71.0898 60.2745Z" stroke="url(#paint21_linear_1_325)" stroke-width="0.84" shape-rendering="crispEdges"/>
</g>
<g opacity="0.6" filter="url(#filter10_i_1_325)">
<path d="M119.516 94.4283C119.796 96.4309 118.826 98.7526 116.49 101.306C114.166 103.846 110.605 106.482 106.032 109.048C96.8941 114.175 83.8914 118.924 69.1951 122.051C54.4988 125.178 40.9577 126.078 30.9553 125.023C25.9492 124.496 21.8776 123.484 18.9983 122.051C16.1037 120.61 14.5589 118.824 14.2788 116.821C13.9987 114.819 14.9688 112.497 17.3046 109.944C19.6283 107.404 23.1895 104.768 27.7628 102.202C36.9005 97.0746 49.9031 92.3257 64.5994 89.1985C79.2957 86.0713 92.8369 85.1721 102.839 86.2263C107.845 86.754 111.917 87.7662 114.796 89.1989C117.691 90.6392 119.236 92.4257 119.516 94.4283Z" stroke="url(#paint22_linear_1_325)" stroke-width="1.68"/>
</g>
<path fill-rule="evenodd" clipRule="evenodd" d="M112.949 32.2762L112.949 39.3694H119.064V32.2762H126.198V26.1969H119.064V19.105L112.949 19.105L112.949 26.1969H105.815V32.2762H112.949Z" fill="#53EFDE"/>
<path fill-rule="evenodd" clipRule="evenodd" d="M100.609 56.3264L100.609 58.0943H102.134V56.3264H103.912V54.8109H102.134V53.0428L100.609 53.0428L100.609 54.8109H98.8311V56.3264H100.609Z" fill="#F6D7B6" fill-opacity="0.75"/>
<path fill-rule="evenodd" clipRule="evenodd" d="M88.2851 43.0931L88.2851 46.2453H91.003V43.0931H94.1736V40.3912H91.003V37.2389L88.2851 37.2389L88.2851 40.3912H85.1143V43.0931H88.2851Z" fill="#53EFDE" fill-opacity="0.61"/>
<path fill-rule="evenodd" clipRule="evenodd" d="M120.642 2.92739L120.642 4.5032H122.001V2.92739H123.587V1.57643H122.001V0L120.642 5.90517e-08L120.642 1.57643H119.057V2.92739H120.642Z" fill="#F1C08B" fill-opacity="0.34"/>
<path fill-rule="evenodd" clipRule="evenodd" d="M96.955 21.2302V23.5943H98.9934V21.2302H101.371V19.2038H98.9934V16.8395L96.955 16.8395V19.2038H94.5769V21.2302H96.955Z" fill="#F7D7B6"/>
<path opacity="0.5" d="M137.753 137.501V168" stroke="url(#paint23_linear_1_325)" stroke-width="2.88358" strokeLinecap="round"/>
<path opacity="0.5" d="M156 57.1901V99.9704" stroke="url(#paint24_linear_1_325)" stroke-width="2.88358" strokeLinecap="round"/>
<path opacity="0.5" d="M5.66235 105.625L5.66235 134.394" stroke="url(#paint25_linear_1_325)" stroke-width="2.88358" strokeLinecap="round"/>
<ellipse cx="5.66211" cy="53.0429" rx="5.66211" ry="5.62899" fill="url(#paint26_radial_1_325)"/>
<ellipse cx="142.117" cy="99.474" rx="7.92695" ry="7.88059" fill="url(#paint27_radial_1_325)"/>
<defs>
<filter id="filter0_f_1_325" x="23.2685" y="112.377" width="92.0124" height="47.2994" filterUnits="userSpaceOnUse" color-interpolation-filters="sRGB">
<feFlood flood-opacity="0" result="BackgroundImageFix"/>
<feBlend mode="normal" in="SourceGraphic" in2="BackgroundImageFix" result="shape"/>
<feGaussianBlur stdDeviation="4.2" result="effect1_foregroundBlur_1_325"/>
</filter>
<filter id="filter1_f_1_325" x="30.3067" y="113.434" width="76.9461" height="35.3468" filterUnits="userSpaceOnUse" color-interpolation-filters="sRGB">
<feFlood flood-opacity="0" result="BackgroundImageFix"/>
<feBlend mode="normal" in="SourceGraphic" in2="BackgroundImageFix" result="shape"/>
<feGaussianBlur stdDeviation="1.68" result="effect1_foregroundBlur_1_325"/>
</filter>
<filter id="filter2_f_1_325" x="4.49882" y="100.257" width="97.8827" height="74.8484" filterUnits="userSpaceOnUse" color-interpolation-filters="sRGB">
<feFlood flood-opacity="0" result="BackgroundImageFix"/>
<feBlend mode="normal" in="SourceGraphic" in2="BackgroundImageFix" result="shape"/>
<feGaussianBlur stdDeviation="8.40001" result="effect1_foregroundBlur_1_325"/>
</filter>
<filter id="filter3_f_1_325" x="59.8018" y="67.3621" width="53.0121" height="97.5995" filterUnits="userSpaceOnUse" color-interpolation-filters="sRGB">
<feFlood flood-opacity="0" result="BackgroundImageFix"/>
<feBlend mode="normal" in="SourceGraphic" in2="BackgroundImageFix" result="shape"/>
<feGaussianBlur stdDeviation="8.40001" result="effect1_foregroundBlur_1_325"/>
</filter>
<filter id="filter4_f_1_325" x="65.266" y="75.7621" width="22.8222" height="80.7995" filterUnits="userSpaceOnUse" color-interpolation-filters="sRGB">
<feFlood flood-opacity="0" result="BackgroundImageFix"/>
<feBlend mode="normal" in="SourceGraphic" in2="BackgroundImageFix" result="shape"/>
<feGaussianBlur stdDeviation="4.2" result="effect1_foregroundBlur_1_325"/>
</filter>
<filter id="filter5_f_1_325" x="73.0799" y="98.1078" width="60.2687" height="74.8864" filterUnits="userSpaceOnUse" color-interpolation-filters="sRGB">
<feFlood flood-opacity="0" result="BackgroundImageFix"/>
<feBlend mode="normal" in="SourceGraphic" in2="BackgroundImageFix" result="shape"/>
<feGaussianBlur stdDeviation="8.40001" result="effect1_foregroundBlur_1_325"/>
</filter>
<filter id="filter6_f_1_325" x="11.4674" y="87.3522" width="114.967" height="44.6917" filterUnits="userSpaceOnUse" color-interpolation-filters="sRGB">
<feFlood flood-opacity="0" result="BackgroundImageFix"/>
<feBlend mode="normal" in="SourceGraphic" in2="BackgroundImageFix" result="shape"/>
<feGaussianBlur stdDeviation="1.68" result="effect1_foregroundBlur_1_325"/>
</filter>
<filter id="filter7_f_1_325" x="7.387" y="75.1691" width="108.699" height="35.0502" filterUnits="userSpaceOnUse" color-interpolation-filters="sRGB">
<feFlood flood-opacity="0" result="BackgroundImageFix"/>
<feBlend mode="normal" in="SourceGraphic" in2="BackgroundImageFix" result="shape"/>
<feGaussianBlur stdDeviation="2.52" result="effect1_foregroundBlur_1_325"/>
</filter>
<filter id="filter8_f_1_325" x="84.2638" y="60.0631" width="7.05378" height="4.76704" filterUnits="userSpaceOnUse" color-interpolation-filters="sRGB">
<feFlood flood-opacity="0" result="BackgroundImageFix"/>
<feBlend mode="normal" in="SourceGraphic" in2="BackgroundImageFix" result="shape"/>
<feGaussianBlur stdDeviation="0.42" result="effect1_foregroundBlur_1_325"/>
</filter>
<filter id="filter9_di_1_325" x="49.9155" y="36.5496" width="37.6234" height="62.7008" filterUnits="userSpaceOnUse" color-interpolation-filters="sRGB">
<feFlood flood-opacity="0" result="BackgroundImageFix"/>
<feColorMatrix in="SourceAlpha" type="matrix" values="0 0 0 0 0 0 0 0 0 0 0 0 0 0 0 0 0 0 127 0" result="hardAlpha"/>
<feOffset dy="1.68"/>
<feGaussianBlur stdDeviation="0.84"/>
<feComposite in2="hardAlpha" operator="out"/>
<feColorMatrix type="matrix" values="0 0 0 0 0.176471 0 0 0 0 0.454902 0 0 0 0 0.576471 0 0 0 0.5 0"/>
<feBlend mode="normal" in2="BackgroundImageFix" result="effect1_dropShadow_1_325"/>
<feBlend mode="normal" in="SourceGraphic" in2="effect1_dropShadow_1_325" result="shape"/>
<feColorMatrix in="SourceAlpha" type="matrix" values="0 0 0 0 0 0 0 0 0 0 0 0 0 0 0 0 0 0 127 0" result="hardAlpha"/>
<feOffset dy="-0.42"/>
<feGaussianBlur stdDeviation="0.42"/>
<feComposite in2="hardAlpha" operator="arithmetic" k2="-1" k3="1"/>
<feColorMatrix type="matrix" values="0 0 0 0 0 0 0 0 0 0 0 0 0 0 0 0 0 0 0.25 0"/>
<feBlend mode="normal" in2="shape" result="effect2_innerShadow_1_325"/>
</filter>
<filter id="filter10_i_1_325" x="13.4016" y="84.8708" width="106.991" height="41.424" filterUnits="userSpaceOnUse" color-interpolation-filters="sRGB">
<feFlood flood-opacity="0" result="BackgroundImageFix"/>
<feBlend mode="normal" in="SourceGraphic" in2="BackgroundImageFix" result="shape"/>
<feColorMatrix in="SourceAlpha" type="matrix" values="0 0 0 0 0 0 0 0 0 0 0 0 0 0 0 0 0 0 127 0" result="hardAlpha"/>
<feOffset dy="-0.0840001"/>
<feGaussianBlur stdDeviation="0.21"/>
<feComposite in2="hardAlpha" operator="arithmetic" k2="-1" k3="1"/>
<feColorMatrix type="matrix" values="0 0 0 0 0 0 0 0 0 0 0 0 0 0 0 0 0 0 0.25 0"/>
<feBlend mode="normal" in2="shape" result="effect1_innerShadow_1_325"/>
</filter>
<linearGradient id="paint0_linear_1_325" x1="68.5879" y1="124.719" x2="69.6534" y2="160.803" gradientUnits="userSpaceOnUse">
<stop stop-color="#3A3064"/>
<stop offset="1" stop-color="#251B49"/>
</linearGradient>
<linearGradient id="paint1_linear_1_325" x1="68.4113" y1="118.811" x2="69.483" y2="154.895" gradientUnits="userSpaceOnUse">
<stop stop-color="#A39DC4"/>
<stop offset="1" stop-color="#271C53"/>
</linearGradient>
<linearGradient id="paint2_linear_1_325" x1="68.4113" y1="118.811" x2="69.483" y2="154.895" gradientUnits="userSpaceOnUse">
<stop stop-color="#EDE8FE"/>
<stop offset="0.0001" stop-color="#BCAFE9"/>
<stop offset="1" stop-color="#352A5C"/>
</linearGradient>
<linearGradient id="paint3_linear_1_325" x1="69.0385" y1="118.809" x2="69.0385" y2="154.909" gradientUnits="userSpaceOnUse">
<stop stop-color="#A39DC4"/>
<stop offset="1" stop-color="#271C53"/>
</linearGradient>
<linearGradient id="paint4_linear_1_325" x1="69.0385" y1="118.809" x2="69.0385" y2="154.909" gradientUnits="userSpaceOnUse">
<stop stop-color="#EDE8FE"/>
<stop offset="0.0001" stop-color="#BCAFE9"/>
<stop offset="1" stop-color="#352A5C"/>
</linearGradient>
<linearGradient id="paint5_linear_1_325" x1="67.3944" y1="154.973" x2="67.3944" y2="139.261" gradientUnits="userSpaceOnUse">
<stop stop-color="#271E4C"/>
<stop offset="1" stop-color="#271C53"/>
</linearGradient>
<linearGradient id="paint6_linear_1_325" x1="68.6181" y1="31.2466" x2="68.6181" y2="145.383" gradientUnits="userSpaceOnUse">
<stop stop-color="#326966" stop-opacity="0"/>
<stop offset="1" stop-color="#DBFFFF"/>
</linearGradient>
<linearGradient id="paint7_linear_1_325" x1="68.7803" y1="49.9854" x2="68.7803" y2="145.383" gradientUnits="userSpaceOnUse">
<stop offset="0.157208" stop-color="white" stop-opacity="0"/>
<stop offset="1" stop-color="white"/>
</linearGradient>
<linearGradient id="paint8_linear_1_325" x1="34.6371" y1="49.6848" x2="45.7106" y2="24.9291" gradientUnits="userSpaceOnUse">
<stop stop-color="#8D90B5"/>
<stop offset="1" stop-color="#33295E" stop-opacity="0.72"/>
</linearGradient>
<linearGradient id="paint9_linear_1_325" x1="104.407" y1="120.823" x2="41.545" y2="136.554" gradientUnits="userSpaceOnUse">
<stop stop-color="#3A3865"/>
<stop offset="1" stop-color="#42B6AD"/>
</linearGradient>
<linearGradient id="paint10_linear_1_325" x1="104.407" y1="120.808" x2="41.54" y2="136.529" gradientUnits="userSpaceOnUse">
<stop stop-color="#65638F"/>
<stop offset="1" stop-color="#42B6AD"/>
</linearGradient>
<linearGradient id="paint11_linear_1_325" x1="50.1619" y1="132.818" x2="42.2803" y2="93.9671" gradientUnits="userSpaceOnUse">
<stop/>
<stop offset="0.504709" stop-color="#627374" stop-opacity="0.17"/>
<stop offset="0.835979" stop-opacity="0"/>
</linearGradient>
<linearGradient id="paint12_linear_1_325" x1="98.4548" y1="95.46" x2="42.1599" y2="91.7474" gradientUnits="userSpaceOnUse">
<stop stop-color="#56889D"/>
<stop offset="1" stop-color="#94FDFB"/>
</linearGradient>
<linearGradient id="paint13_linear_1_325" x1="67.9054" y1="85.0742" x2="69.3125" y2="109.311" gradientUnits="userSpaceOnUse">
<stop stop-color="white" stop-opacity="0"/>
<stop offset="0.985849" stop-color="white" stop-opacity="0.35"/>
</linearGradient>
<linearGradient id="paint14_linear_1_325" x1="57.2518" y1="9.88144" x2="1.46613" y2="8.86053" gradientUnits="userSpaceOnUse">
<stop stop-color="#58A0C8" stop-opacity="0.62"/>
<stop offset="1" stop-color="#42AAA6"/>
</linearGradient>
<linearGradient id="paint15_linear_1_325" x1="49.9128" y1="6.07438" x2="49.2088" y2="23.2518" gradientUnits="userSpaceOnUse">
<stop stop-color="#5A7B7B"/>
<stop offset="1" stop-color="#58A8BD"/>
</linearGradient>
<linearGradient id="paint16_linear_1_325" x1="48.2587" y1="97.2051" x2="46.8096" y2="106.524" gradientUnits="userSpaceOnUse">
<stop stop-color="white" stop-opacity="0"/>
<stop offset="0.985849" stop-color="white" stop-opacity="0.71"/>
</linearGradient>
<linearGradient id="paint17_linear_1_325" x1="71.8284" y1="49.0699" x2="75.7647" y2="49.2177" gradientUnits="userSpaceOnUse">
<stop stop-color="white" stop-opacity="0.51"/>
<stop offset="1" stop-color="white" stop-opacity="0"/>
</linearGradient>
<linearGradient id="paint18_linear_1_325" x1="78.996" y1="61.6235" x2="79.2217" y2="59.4272" gradientUnits="userSpaceOnUse">
<stop stop-color="white" stop-opacity="0.51"/>
<stop offset="1" stop-color="white" stop-opacity="0"/>
</linearGradient>
<linearGradient id="paint19_linear_1_325" x1="85.8588" y1="63.4256" x2="90.0474" y2="61.3035" gradientUnits="userSpaceOnUse">
<stop stop-color="#FDFDFD"/>
<stop offset="0.918631" stop-color="white" stop-opacity="0"/>
</linearGradient>
<linearGradient id="paint20_linear_1_325" x1="77.6855" y1="77.0568" x2="79.4565" y2="78.1869" gradientUnits="userSpaceOnUse">
<stop stop-color="white" stop-opacity="0.3"/>
<stop offset="1" stop-color="white" stop-opacity="0"/>
</linearGradient>
<linearGradient id="paint21_linear_1_325" x1="66.5069" y1="36.1372" x2="57.5185" y2="94.6603" gradientUnits="userSpaceOnUse">
<stop offset="0.346563" stop-color="white"/>
<stop offset="0.919493" stop-color="white" stop-opacity="0"/>
</linearGradient>
<linearGradient id="paint22_linear_1_325" x1="49.7838" y1="129.997" x2="39.2113" y2="91.7826" gradientUnits="userSpaceOnUse">
<stop stop-color="#7AF7FF"/>
<stop offset="0.411185" stop-color="#56B8BE" stop-opacity="0.17"/>
<stop offset="0.581873" stop-color="#337A7E" stop-opacity="0"/>
</linearGradient>
<linearGradient id="paint23_linear_1_325" x1="138.253" y1="137.501" x2="138.253" y2="168" gradientUnits="userSpaceOnUse">
<stop stop-color="#F6D7B6"/>
<stop offset="1" stop-color="#F6D7B6" stop-opacity="0"/>
</linearGradient>
<linearGradient id="paint24_linear_1_325" x1="156.5" y1="57.1901" x2="156.5" y2="99.9704" gradientUnits="userSpaceOnUse">
<stop stop-color="#F6D7B6"/>
<stop offset="1" stop-color="#F6D7B6" stop-opacity="0"/>
</linearGradient>
<linearGradient id="paint25_linear_1_325" x1="6.16235" y1="105.625" x2="6.16235" y2="134.394" gradientUnits="userSpaceOnUse">
<stop stop-color="#F6D7B6"/>
<stop offset="1" stop-color="#F6D7B6" stop-opacity="0"/>
</linearGradient>
<radialGradient id="paint26_radial_1_325" cx="0" cy="0" r="1" gradientUnits="userSpaceOnUse" gradientTransform="translate(4.01827 54.7498) rotate(-45.3259) scale(5.97508 5.97558)">
<stop stop-color="#18C19F" stop-opacity="0.5"/>
<stop offset="0.607722" stop-color="#18BF9E" stop-opacity="0.15"/>
<stop offset="1" stop-color="#18C19F" stop-opacity="0"/>
</radialGradient>
<radialGradient id="paint27_radial_1_325" cx="0" cy="0" r="1" gradientUnits="userSpaceOnUse" gradientTransform="translate(139.815 101.864) rotate(-45.3259) scale(8.36511 8.36581)">
<stop stop-color="#18C19F" stop-opacity="0.5"/>
<stop offset="0.607722" stop-color="#18BF9E" stop-opacity="0.15"/>
<stop offset="1" stop-color="#18C19F" stop-opacity="0"/>
</radialGradient>
</defs>
</svg>
