<svg width="158" height="170" viewBox="0 0 158 170" fill="none" xmlns="http://www.w3.org/2000/svg">
<mask id="path-1-inside-1_1_682" fill="white">
<path fill-rule="evenodd" clipRule="evenodd" d="M69.6657 160.803C93.8341 160.089 113.185 151.433 112.888 141.469C112.888 141.469 112.888 141.469 112.888 141.469L112.888 141.469L112.722 135.928L110.62 135.99C104.731 128.904 88.0675 124.144 68.5877 124.719C49.1078 125.294 32.7575 131.029 27.3027 138.45L25.2005 138.512L25.3642 143.989C25.3646 144.01 25.3652 144.032 25.3658 144.053C25.6635 154.017 45.4972 161.516 69.6657 160.803Z"/>
</mask>
<path fill-rule="evenodd" clipRule="evenodd" d="M69.6657 160.803C93.8341 160.089 113.185 151.433 112.888 141.469C112.888 141.469 112.888 141.469 112.888 141.469L112.888 141.469L112.722 135.928L110.62 135.99C104.731 128.904 88.0675 124.144 68.5877 124.719C49.1078 125.294 32.7575 131.029 27.3027 138.45L25.2005 138.512L25.3642 143.989C25.3646 144.01 25.3652 144.032 25.3658 144.053C25.6635 154.017 45.4972 161.516 69.6657 160.803Z" fill="url(#paint0_linear_1_682)"/>
<path d="M112.888 141.469L112.862 140.629L112.023 140.654L112.048 141.493L112.888 141.469ZM112.888 141.469L112.913 142.308L113.753 142.283L113.728 141.444L112.888 141.469ZM112.722 135.928L113.562 135.903L113.537 135.063L112.697 135.088L112.722 135.928ZM110.62 135.99L109.974 136.527L110.235 136.842L110.645 136.829L110.62 135.99ZM27.3027 138.45L27.3278 139.29L27.7371 139.277L27.9796 138.948L27.3027 138.45ZM25.2005 138.512L25.1754 137.672L24.3358 137.697L24.3609 138.537L25.2005 138.512ZM25.3642 143.989L26.204 143.972L26.2038 143.964L25.3642 143.989ZM112.048 141.493C112.114 143.689 111.103 145.89 109.054 148.009C107.003 150.13 103.96 152.115 100.108 153.838C92.4093 157.282 81.6426 159.609 69.6406 159.963L69.6908 161.642C81.8572 161.283 92.8503 158.925 100.795 155.371C104.765 153.595 108.014 151.503 110.262 149.177C112.514 146.848 113.81 144.231 113.727 141.444L112.048 141.493ZM112.048 141.493C112.048 141.493 112.048 141.493 112.048 141.493C112.048 141.493 112.048 141.493 112.048 141.493L112.048 141.493C112.048 141.493 112.048 141.493 112.048 141.493L112.048 141.493C112.048 141.493 112.048 141.493 112.048 141.493L112.048 141.493C112.048 141.493 112.048 141.493 112.048 141.493C112.048 141.493 112.048 141.493 112.048 141.493L112.048 141.493C112.048 141.493 112.048 141.493 112.048 141.493C112.048 141.493 112.048 141.493 112.048 141.493L112.048 141.493C112.048 141.493 112.048 141.493 112.048 141.493C112.048 141.493 112.048 141.493 112.048 141.493L112.048 141.493C112.048 141.493 112.048 141.493 112.048 141.493C112.048 141.493 112.048 141.493 112.048 141.493C112.048 141.493 112.048 141.493 112.048 141.493L112.048 141.493L112.048 141.493C112.048 141.493 112.048 141.493 112.048 141.493C112.048 141.493 112.048 141.493 112.048 141.493L112.048 141.493L112.048 141.493C112.048 141.493 112.048 141.493 112.048 141.493C112.048 141.493 112.048 141.493 112.048 141.493C112.048 141.493 112.048 141.493 112.048 141.493L112.048 141.493C112.048 141.493 112.048 141.493 112.048 141.493C112.048 141.493 112.048 141.493 112.048 141.493L112.048 141.493C112.048 141.493 112.048 141.493 112.048 141.493C112.048 141.493 112.048 141.493 112.048 141.493L112.048 141.493C112.048 141.493 112.048 141.493 112.048 141.493C112.048 141.493 112.048 141.493 112.048 141.493L112.048 141.493C112.048 141.493 112.048 141.493 112.048 141.493L112.048 141.493C112.048 141.493 112.048 141.493 112.048 141.493L112.048 141.493C112.048 141.493 112.048 141.493 112.048 141.493C112.048 141.493 112.048 141.493 112.048 141.493L113.727 141.444C113.727 141.444 113.727 141.444 113.727 141.444C113.727 141.444 113.727 141.444 113.727 141.444L113.727 141.444C113.727 141.444 113.727 141.444 113.727 141.444L113.727 141.444C113.727 141.444 113.727 141.444 113.727 141.444L113.727 141.444C113.727 141.444 113.727 141.444 113.727 141.444C113.727 141.444 113.727 141.444 113.727 141.444L113.727 141.444C113.727 141.444 113.727 141.444 113.727 141.444C113.727 141.444 113.727 141.444 113.727 141.444L113.727 141.444C113.727 141.444 113.727 141.444 113.727 141.444C113.727 141.444 113.727 141.444 113.727 141.444L113.727 141.444C113.727 141.444 113.727 141.444 113.727 141.444C113.727 141.444 113.727 141.444 113.727 141.444C113.727 141.444 113.727 141.444 113.727 141.444L113.727 141.444L113.727 141.444C113.727 141.444 113.727 141.444 113.727 141.444C113.727 141.444 113.727 141.444 113.727 141.444L113.727 141.444L113.727 141.444C113.727 141.444 113.727 141.444 113.727 141.444C113.727 141.444 113.727 141.444 113.727 141.444C113.727 141.444 113.727 141.444 113.727 141.444L113.727 141.444C113.727 141.444 113.727 141.444 113.727 141.444C113.727 141.444 113.727 141.444 113.727 141.444L113.727 141.444C113.727 141.444 113.727 141.444 113.727 141.444C113.727 141.444 113.727 141.444 113.727 141.444L113.727 141.444C113.727 141.444 113.727 141.444 113.727 141.444C113.727 141.444 113.727 141.444 113.727 141.444L113.727 141.444C113.727 141.444 113.727 141.444 113.727 141.444L113.727 141.444C113.727 141.444 113.727 141.444 113.727 141.444L113.727 141.444C113.727 141.444 113.727 141.444 113.727 141.444C113.727 141.444 113.727 141.444 113.727 141.444L112.048 141.493ZM112.863 140.629L112.862 140.629L112.913 142.308L112.913 142.308L112.863 140.629ZM111.883 135.953L112.048 141.493L113.728 141.444L113.562 135.903L111.883 135.953ZM110.645 136.829L112.747 136.767L112.697 135.088L110.595 135.15L110.645 136.829ZM68.6128 125.559C78.2821 125.273 87.2338 126.313 94.4795 128.292C101.757 130.279 107.194 133.181 109.974 136.527L111.266 135.453C108.157 131.712 102.318 128.691 94.9216 126.671C87.4933 124.642 78.3731 123.59 68.5626 123.879L68.6128 125.559ZM27.9796 138.948C30.5548 135.444 35.8092 132.227 42.9548 129.813C50.0695 127.41 58.9434 125.844 68.6128 125.559L68.5626 123.879C58.7521 124.169 49.7108 125.758 42.4167 128.221C35.1535 130.675 29.5054 134.035 26.6258 137.952L27.9796 138.948ZM25.2256 139.352L27.3278 139.29L27.2776 137.61L25.1754 137.672L25.2256 139.352ZM26.2038 143.964L26.0402 138.487L24.3609 138.537L24.5245 144.014L26.2038 143.964ZM26.2054 144.028C26.2049 144.009 26.2044 143.99 26.204 143.972L24.5243 144.007C24.5248 144.031 24.5254 144.054 24.5261 144.078L26.2054 144.028ZM69.6406 159.963C57.6385 160.317 46.7519 158.63 38.861 155.646C34.9136 154.154 31.7566 152.352 29.5826 150.355C27.4114 148.361 26.271 146.223 26.2054 144.028L24.5261 144.078C24.6094 146.864 26.0598 149.401 28.4464 151.593C30.8302 153.782 34.1981 155.679 38.2673 157.218C46.4098 160.296 57.5243 162.001 69.6908 161.642L69.6406 159.963Z" fill="url(#paint1_linear_1_682)" mask="url(#path-1-inside-1_1_682)"/>
<path d="M112.288 135.566C112.358 137.909 111.275 140.214 109.175 142.386C107.075 144.559 103.979 146.571 100.098 148.308C92.3371 151.781 81.5136 154.117 69.4705 154.475C57.4274 154.833 46.4842 153.143 38.531 150.137C34.5534 148.633 31.3441 146.808 29.118 144.764C26.8934 142.721 25.6758 140.483 25.6062 138.14C25.5366 135.797 26.6192 133.491 28.7187 131.32C30.8195 129.147 33.9149 127.134 37.7963 125.398C45.5571 121.925 56.3806 119.588 68.4237 119.231C80.4668 118.873 91.4099 120.563 99.3632 123.569C103.341 125.073 106.55 126.897 108.776 128.942C111.001 130.985 112.218 133.222 112.288 135.566Z" fill="url(#paint2_linear_1_682)" stroke="url(#paint3_linear_1_682)" stroke-width="0.840001"/>
<mask id="mask0_1_682" style="mask-type:alpha" maskUnits="userSpaceOnUse" x="25" y="118" width="88" height="37">
<path d="M112.399 136.859C112.399 139.203 111.248 141.475 109.085 143.584C106.921 145.694 103.767 147.613 99.8356 149.234C91.9751 152.474 81.0869 154.489 69.0384 154.489C56.99 154.489 46.1017 152.474 38.2412 149.234C34.31 147.613 31.1563 145.694 28.9919 143.584C26.8288 141.475 25.6782 139.203 25.6782 136.859C25.6782 134.515 26.8288 132.242 28.9919 130.134C31.1563 128.024 34.31 126.105 38.2412 124.484C46.1017 121.243 56.99 119.229 69.0384 119.229C81.0869 119.229 91.9751 121.243 99.8356 124.484C103.767 126.105 106.921 128.024 109.085 130.134C111.248 132.242 112.399 134.515 112.399 136.859Z" fill="url(#paint4_linear_1_682)" stroke="url(#paint5_linear_1_682)" stroke-width="0.840001"/>
</mask>
<g mask="url(#mask0_1_682)">
<g filter="url(#filter0_f_1_682)">
<ellipse cx="69.2746" cy="136.026" rx="37.6062" ry="15.2497" fill="url(#paint6_linear_1_682)"/>
</g>
</g>
<g opacity="0.6">
<mask id="path-6-inside-2_1_682" fill="white">
<path fill-rule="evenodd" clipRule="evenodd" d="M103.912 31.2466H33.6481V134.31L33.716 134.308C33.7018 134.506 33.6999 134.705 33.7104 134.904C34.0837 141.996 50.0994 147.133 69.4825 146.377C88.8528 145.622 104.256 139.268 103.903 132.181L103.912 132.181V31.2466Z"/>
</mask>
<path fill-rule="evenodd" clipRule="evenodd" d="M103.912 31.2466H33.6481V134.31L33.716 134.308C33.7018 134.506 33.6999 134.705 33.7104 134.904C34.0837 141.996 50.0994 147.133 69.4825 146.377C88.8528 145.622 104.256 139.268 103.903 132.181L103.912 132.181V31.2466Z" fill="url(#paint7_linear_1_682)"/>
<path d="M33.6481 31.2466V30.4066H32.8081V31.2466H33.6481ZM103.912 31.2466H104.752V30.4066H103.912V31.2466ZM33.6481 134.31H32.8081V135.176L33.6735 135.15L33.6481 134.31ZM33.716 134.308L34.5539 134.368L34.6203 133.44L33.6906 133.469L33.716 134.308ZM33.7104 134.904L32.8715 134.948L33.7104 134.904ZM69.4825 146.377L69.5152 147.216L69.4825 146.377ZM103.903 132.181L103.878 131.341L103.022 131.368L103.064 132.223L103.903 132.181ZM103.912 132.181L103.938 133.02L104.752 132.996V132.181H103.912ZM33.6481 32.0866H103.912V30.4066H33.6481V32.0866ZM34.4881 134.31V31.2466H32.8081V134.31H34.4881ZM33.6906 133.469L33.6226 133.471L33.6735 135.15L33.7415 135.148L33.6906 133.469ZM34.5492 134.86C34.5405 134.696 34.5422 134.532 34.5539 134.368L32.8782 134.248C32.8615 134.481 32.8592 134.714 32.8715 134.948L34.5492 134.86ZM69.4497 145.538C59.8304 145.913 51.0827 144.823 44.7243 142.784C41.5418 141.763 39.0019 140.518 37.2523 139.136C35.4992 137.751 34.625 136.301 34.5492 134.86L32.8715 134.948C32.9823 137.054 34.2502 138.905 36.2107 140.454C38.1747 142.006 40.9203 143.328 44.2112 144.384C50.7998 146.497 59.7514 147.597 69.5152 147.216L69.4497 145.538ZM103.064 132.223C103.136 133.659 102.418 135.163 100.821 136.672C99.2253 138.18 96.8294 139.614 93.7687 140.877C87.6541 143.399 79.063 145.163 69.4497 145.538L69.5152 147.216C79.2723 146.836 88.0679 145.045 94.4092 142.43C97.5765 141.123 100.176 139.593 101.975 137.893C103.772 136.194 104.847 134.246 104.742 132.139L103.064 132.223ZM103.887 131.341L103.878 131.341L103.929 133.021L103.938 133.02L103.887 131.341ZM103.072 31.2466V132.181H104.752V31.2466H103.072Z" fill="url(#paint8_linear_1_682)" mask="url(#path-6-inside-2_1_682)"/>
</g>
<g filter="url(#filter1_f_1_682)">
<ellipse cx="35.1319" cy="14.2659" rx="35.1319" ry="14.2659" transform="matrix(0.999351 -0.0360275 0.036452 0.999335 33.1506 118.117)" fill="url(#paint9_linear_1_682)"/>
</g>
<path fill-rule="evenodd" clipRule="evenodd" d="M98.506 96.2112L38.7292 99.0633V129.112L38.7908 129.109C38.7928 129.158 38.7955 129.207 38.7989 129.256C39.2682 136.094 52.999 140.732 69.4677 139.615C85.6862 138.515 98.5115 132.244 98.4491 125.522L98.506 125.519V96.2112Z" fill="url(#paint10_linear_1_682)"/>
<mask id="mask1_1_682" style="mask-type:alpha" maskUnits="userSpaceOnUse" x="38" y="96" width="61" height="44">
<path fill-rule="evenodd" clipRule="evenodd" d="M98.506 96.1796L38.7292 99.1879V129.129L38.7913 129.125C38.793 129.163 38.7952 129.201 38.7978 129.239C39.2632 136.077 52.9915 140.722 69.4607 139.614C85.2959 138.549 97.8994 132.553 98.4327 126.014L98.506 126.011V96.1796Z" fill="url(#paint11_linear_1_682)"/>
</mask>
<g mask="url(#mask1_1_682)">
<g filter="url(#filter2_f_1_682)">
<ellipse cx="20.5498" cy="32.1871" rx="20.5498" ry="32.1871" transform="matrix(-0.075104 0.997176 -0.997407 -0.0719682 87.0872 119.506)" fill="#45D2B0" fill-opacity="0.54"/>
</g>
<g filter="url(#filter3_f_1_682)">
<ellipse cx="3.01019" cy="31.9999" rx="3.01019" ry="31.9999" transform="matrix(-1 -8.69115e-08 -0.00229748 -0.999997 79.76 148.162)" fill="white" fill-opacity="0.37"/>
</g>
<g filter="url(#filter4_f_1_682)">
<ellipse cx="13.3343" cy="20.6432" rx="13.3343" ry="20.6432" transform="matrix(-1 -8.69115e-08 -0.0022975 -0.999997 116.596 156.194)" fill="#419FBC"/>
</g>
<g opacity="0.6" filter="url(#filter5_f_1_682)">
<path d="M122.229 102.194C122.368 104.212 121.236 106.46 118.726 108.844C116.229 111.216 112.491 113.598 107.748 115.839C98.2714 120.317 84.966 124.148 70.0854 126.244C55.2048 128.34 41.6335 128.294 31.73 126.545C26.7734 125.67 22.783 124.377 20.0118 122.747C17.2258 121.108 15.8108 119.219 15.6725 117.202C15.5342 115.185 16.6655 112.936 19.1756 110.552C21.6726 108.18 25.4109 105.798 30.1539 103.557C39.6305 99.0794 52.9359 95.2478 67.8165 93.1521C82.6971 91.0563 96.2684 91.1026 106.172 92.851C111.128 93.7261 115.119 95.0194 117.89 96.6492C120.676 98.2876 122.091 100.177 122.229 102.194Z" stroke="url(#paint12_linear_1_682)" stroke-opacity="0.6" stroke-width="1.68"/>
</g>
</g>
<path d="M98.0355 95.4844C98.125 97.0075 97.4543 98.5432 96.0789 100.027C94.7025 101.513 92.6447 102.917 90.0383 104.157C84.8276 106.635 77.5035 108.415 69.3044 108.891C61.1054 109.367 53.6226 108.446 48.1572 106.588C45.4234 105.659 43.2152 104.502 41.6742 103.186C40.1344 101.871 39.2884 100.423 39.199 98.9001C39.1095 97.377 39.7802 95.8412 41.1556 94.357C42.532 92.8716 44.5897 91.4671 47.1962 90.2276C52.4069 87.7497 59.731 85.9695 67.9301 85.4935C76.1291 85.0175 83.6119 85.9382 89.0773 87.7962C91.8111 88.7257 94.0193 89.8825 95.5603 91.1985C97.1001 92.5135 97.9461 93.9612 98.0355 95.4844Z" fill="url(#paint13_linear_1_682)" stroke="url(#paint14_linear_1_682)" stroke-width="0.840001"/>
<ellipse cx="29.8872" cy="12.126" rx="29.8872" ry="12.126" transform="matrix(0.998319 -0.057957 0.0586385 0.998279 38.0703 86.8322)" fill="url(#paint15_linear_1_682)"/>
<mask id="mask2_1_682" style="mask-type:alpha" maskUnits="userSpaceOnUse" x="38" y="84" width="61" height="26">
<ellipse cx="29.8872" cy="12.126" rx="29.8872" ry="12.126" transform="matrix(0.998319 -0.057957 0.0586385 0.998279 38.0707 86.8322)" fill="#58A0C8"/>
</mask>
<g mask="url(#mask2_1_682)">
<ellipse cx="49.5165" cy="15.7549" rx="49.5165" ry="15.7549" transform="matrix(0.995562 -0.0941042 0.0952046 0.995458 11.3322 85.7745)" fill="url(#paint16_linear_1_682)"/>
</g>
<path d="M98.2456 95.4851C98.3394 97.0813 97.6334 98.6687 96.2333 100.178C94.8327 101.688 92.7497 103.105 90.1288 104.35C84.888 106.84 77.5361 108.623 69.317 109.101C61.0979 109.578 53.5872 108.657 48.0905 106.791C45.3417 105.857 43.1069 104.691 41.5391 103.353C39.9718 102.016 39.0847 100.521 38.9909 98.9251C38.8972 97.3288 39.6032 95.7414 41.0033 94.2321C42.4039 92.7223 44.4869 91.3052 47.1078 90.06C52.3486 87.5702 59.7005 85.7868 67.9196 85.3096C76.1387 84.8325 83.6494 85.753 89.146 87.6195C91.8949 88.5529 94.1296 89.7194 95.6975 91.0569C97.2648 92.3939 98.1519 93.8888 98.2456 95.4851Z" stroke="url(#paint17_linear_1_682)" stroke-width="0.42"/>
<path d="M75.1605 36.3955L71.8672 36.9948L71.0305 60.6962L75.5383 58.7754L76.1512 37.2464C76.1664 36.7125 75.686 36.2999 75.1605 36.3955Z" fill="url(#paint18_linear_1_682)"/>
<path d="M75.5146 58.7506L70.9688 60.7072L85.1697 62.9843L85.7561 63.4507L90.0586 61.3287L75.5146 58.7506Z" fill="url(#paint19_linear_1_682)"/>
<g filter="url(#filter6_f_1_682)">
<path d="M85.5236 63.5701L90.0572 61.3232" stroke="url(#paint20_linear_1_682)" stroke-width="0.840001" strokeLinecap="round"/>
</g>
<path opacity="0.6" d="M65.75 95.8375L85.5505 63.5104L90.0578 61.3239L70.3749 92.6727L65.75 95.8375Z" fill="url(#paint21_linear_1_682)"/>
<g filter="url(#filter7_di_1_682)">
<path d="M84.7376 62.4173L71.5056 60.385L72.4135 37.6068C72.4174 37.4991 72.3907 37.385 72.3375 37.2822C72.2843 37.1794 72.2075 37.0935 72.1191 37.0378C72.0306 36.9821 71.9353 36.9596 71.8479 36.9738C71.7604 36.9881 71.6857 37.0382 71.6352 37.1166L51.7583 68.3407C51.6544 68.5042 51.598 68.7103 51.5955 68.9356C51.593 69.1608 51.6445 69.3962 51.7443 69.615C51.8441 69.8339 51.988 70.0274 52.1599 70.1737C52.3317 70.32 52.5246 70.4133 52.7166 70.4428L65.9486 72.4751L65.0407 95.2533C65.0368 95.361 65.0635 95.4751 65.1167 95.5779C65.1699 95.6807 65.2467 95.7666 65.3352 95.8223C65.4236 95.878 65.5189 95.9005 65.6063 95.8863C65.6938 95.872 65.7685 95.8219 65.819 95.7435L85.6959 64.5195C85.7998 64.3559 85.8563 64.1498 85.8587 63.9246C85.8612 63.6993 85.8097 63.4639 85.7099 63.2451C85.6102 63.0262 85.4662 62.8327 85.2943 62.6864C85.1225 62.5401 84.9296 62.4469 84.7376 62.4173Z" fill="white"/>
<path d="M52.123 68.6228C52.0541 68.7312 52.0135 68.8733 52.0118 69.0345C52.01 69.1957 52.0471 69.3622 52.116 69.5134C52.1849 69.6645 52.2796 69.7876 52.3816 69.8745L52.1599 70.1737L52.3816 69.8745C52.4826 69.9604 52.5876 70.0088 52.6859 70.0239C52.6859 70.0239 52.686 70.0239 52.686 70.0239L65.9179 72.0562L66.3829 72.1276L66.3646 72.5857L65.4567 95.3623C65.4567 95.3626 65.4567 95.3628 65.4567 95.363C65.4559 95.3896 65.4614 95.4157 65.4699 95.4371L85.3313 64.2374L52.123 68.6228ZM52.123 68.6228L71.9843 37.423C71.9929 37.4445 71.9984 37.4705 71.9975 37.4972C71.9975 37.4974 71.9975 37.4976 71.9975 37.4978L71.0896 60.2745L71.0713 60.7325L71.5363 60.8039L84.7682 62.8362C84.7682 62.8362 84.7683 62.8362 84.7683 62.8362C84.8666 62.8513 84.9716 62.8997 85.0726 62.9856C85.1746 63.0725 85.2693 63.1956 85.3382 63.3467C85.4071 63.4979 85.4442 63.6644 85.4424 63.8256C85.4407 63.9867 85.4002 64.1288 85.3314 64.2372L52.123 68.6228Z" stroke="url(#paint22_linear_1_682)" stroke-width="0.84"/>
</g>
<g opacity="0.6" filter="url(#filter8_i_1_682)">
<path d="M119.516 94.4283C119.796 96.4309 118.826 98.7526 116.49 101.306C114.166 103.846 110.605 106.482 106.032 109.048C96.894 114.175 83.8914 118.924 69.1951 122.051C54.4988 125.178 40.9576 126.078 30.9553 125.023C25.9492 124.496 21.8775 123.484 18.9982 122.051C16.1037 120.61 14.5589 118.824 14.2787 116.821C13.9986 114.819 14.9687 112.497 17.3046 109.944C19.6282 107.404 23.1895 104.768 27.7628 102.202C36.9005 97.0746 49.9031 92.3257 64.5994 89.1985C79.2957 86.0713 92.8368 85.1721 102.839 86.2263C107.845 86.754 111.917 87.7662 114.796 89.1989C117.691 90.6392 119.236 92.4257 119.516 94.4283Z" stroke="url(#paint23_linear_1_682)" stroke-width="1.68"/>
</g>
<path fill-rule="evenodd" clipRule="evenodd" d="M112.948 32.2762L112.948 39.3694H119.063V32.2762H126.198V26.1969H119.063V19.105L112.948 19.105L112.948 26.1969H105.815V32.2762H112.948Z" fill="#3BDDCB"/>
<path fill-rule="evenodd" clipRule="evenodd" d="M100.609 56.3264L100.609 58.0943H102.134V56.3264H103.912V54.8109H102.134V53.0428L100.609 53.0428L100.609 54.8109H98.831V56.3264H100.609Z" fill="#F6D7B6" fill-opacity="0.75"/>
<path fill-rule="evenodd" clipRule="evenodd" d="M88.2851 43.0931L88.2851 46.2453H91.003V43.0931H94.1736V40.3912H91.003V37.2389L88.2851 37.2389L88.2851 40.3912H85.1143V43.0931H88.2851Z" fill="#3BDDCB" fill-opacity="0.61"/>
<path fill-rule="evenodd" clipRule="evenodd" d="M120.642 2.92739L120.642 4.5032H122.001V2.92739H123.587V1.57643H122.001V0L120.642 5.90517e-08L120.642 1.57643H119.057V2.92739H120.642Z" fill="#F1C08B" fill-opacity="0.34"/>
<path fill-rule="evenodd" clipRule="evenodd" d="M96.9549 21.2302V23.5943H98.9933V21.2302H101.371V19.2038H98.9933V16.8395L96.9549 16.8395V19.2038H94.5768V21.2302H96.9549Z" fill="#F7D7B6"/>
<path opacity="0.5" d="M137.753 137.501V168" stroke="url(#paint24_linear_1_682)" stroke-width="2.88358" strokeLinecap="round"/>
<path opacity="0.5" d="M156 57.1907V99.971" stroke="url(#paint25_linear_1_682)" stroke-width="2.88358" strokeLinecap="round"/>
<path opacity="0.5" d="M5.66235 105.625L5.66235 134.394" stroke="url(#paint26_linear_1_682)" stroke-width="2.88358" strokeLinecap="round"/>
<ellipse cx="5.66223" cy="53.0428" rx="5.66211" ry="5.62899" fill="url(#paint27_radial_1_682)"/>
<ellipse cx="142.117" cy="99.474" rx="7.92695" ry="7.88059" fill="url(#paint28_radial_1_682)"/>
<defs>
<filter id="filter0_f_1_682" x="23.2684" y="112.377" width="92.0125" height="47.2994" filterUnits="userSpaceOnUse" color-interpolation-filters="sRGB">
<feFlood flood-opacity="0" result="BackgroundImageFix"/>
<feBlend mode="normal" in="SourceGraphic" in2="BackgroundImageFix" result="shape"/>
<feGaussianBlur stdDeviation="4.2" result="effect1_foregroundBlur_1_682"/>
</filter>
<filter id="filter1_f_1_682" x="30.3067" y="113.434" width="76.946" height="35.3468" filterUnits="userSpaceOnUse" color-interpolation-filters="sRGB">
<feFlood flood-opacity="0" result="BackgroundImageFix"/>
<feBlend mode="normal" in="SourceGraphic" in2="BackgroundImageFix" result="shape"/>
<feGaussianBlur stdDeviation="1.68" result="effect1_foregroundBlur_1_682"/>
</filter>
<filter id="filter2_f_1_682" x="4.49876" y="100.257" width="97.8829" height="74.8484" filterUnits="userSpaceOnUse" color-interpolation-filters="sRGB">
<feFlood flood-opacity="0" result="BackgroundImageFix"/>
<feBlend mode="normal" in="SourceGraphic" in2="BackgroundImageFix" result="shape"/>
<feGaussianBlur stdDeviation="8.40001" result="effect1_foregroundBlur_1_682"/>
</filter>
<filter id="filter3_f_1_682" x="65.2652" y="75.7621" width="22.8222" height="80.7995" filterUnits="userSpaceOnUse" color-interpolation-filters="sRGB">
<feFlood flood-opacity="0" result="BackgroundImageFix"/>
<feBlend mode="normal" in="SourceGraphic" in2="BackgroundImageFix" result="shape"/>
<feGaussianBlur stdDeviation="4.2" result="effect1_foregroundBlur_1_682"/>
</filter>
<filter id="filter4_f_1_682" x="73.0798" y="98.1078" width="60.2688" height="74.8864" filterUnits="userSpaceOnUse" color-interpolation-filters="sRGB">
<feFlood flood-opacity="0" result="BackgroundImageFix"/>
<feBlend mode="normal" in="SourceGraphic" in2="BackgroundImageFix" result="shape"/>
<feGaussianBlur stdDeviation="8.40001" result="effect1_foregroundBlur_1_682"/>
</filter>
<filter id="filter5_f_1_682" x="11.4673" y="87.3522" width="114.967" height="44.6917" filterUnits="userSpaceOnUse" color-interpolation-filters="sRGB">
<feFlood flood-opacity="0" result="BackgroundImageFix"/>
<feBlend mode="normal" in="SourceGraphic" in2="BackgroundImageFix" result="shape"/>
<feGaussianBlur stdDeviation="1.68" result="effect1_foregroundBlur_1_682"/>
</filter>
<filter id="filter6_f_1_682" x="84.2635" y="60.0631" width="7.0539" height="4.76704" filterUnits="userSpaceOnUse" color-interpolation-filters="sRGB">
<feFlood flood-opacity="0" result="BackgroundImageFix"/>
<feBlend mode="normal" in="SourceGraphic" in2="BackgroundImageFix" result="shape"/>
<feGaussianBlur stdDeviation="0.42" result="effect1_foregroundBlur_1_682"/>
</filter>
<filter id="filter7_di_1_682" x="49.9154" y="36.5496" width="37.6234" height="62.7009" filterUnits="userSpaceOnUse" color-interpolation-filters="sRGB">
<feFlood flood-opacity="0" result="BackgroundImageFix"/>
<feColorMatrix in="SourceAlpha" type="matrix" values="0 0 0 0 0 0 0 0 0 0 0 0 0 0 0 0 0 0 127 0" result="hardAlpha"/>
<feOffset dy="1.68"/>
<feGaussianBlur stdDeviation="0.84"/>
<feComposite in2="hardAlpha" operator="out"/>
<feColorMatrix type="matrix" values="0 0 0 0 0.176471 0 0 0 0 0.454902 0 0 0 0 0.576471 0 0 0 0.3 0"/>
<feBlend mode="normal" in2="BackgroundImageFix" result="effect1_dropShadow_1_682"/>
<feBlend mode="normal" in="SourceGraphic" in2="effect1_dropShadow_1_682" result="shape"/>
<feColorMatrix in="SourceAlpha" type="matrix" values="0 0 0 0 0 0 0 0 0 0 0 0 0 0 0 0 0 0 127 0" result="hardAlpha"/>
<feOffset dy="-0.42"/>
<feGaussianBlur stdDeviation="0.42"/>
<feComposite in2="hardAlpha" operator="arithmetic" k2="-1" k3="1"/>
<feColorMatrix type="matrix" values="0 0 0 0 0 0 0 0 0 0 0 0 0 0 0 0 0 0 0.25 0"/>
<feBlend mode="normal" in2="shape" result="effect2_innerShadow_1_682"/>
</filter>
<filter id="filter8_i_1_682" x="13.4016" y="84.8708" width="106.991" height="41.424" filterUnits="userSpaceOnUse" color-interpolation-filters="sRGB">
<feFlood flood-opacity="0" result="BackgroundImageFix"/>
<feBlend mode="normal" in="SourceGraphic" in2="BackgroundImageFix" result="shape"/>
<feColorMatrix in="SourceAlpha" type="matrix" values="0 0 0 0 0 0 0 0 0 0 0 0 0 0 0 0 0 0 127 0" result="hardAlpha"/>
<feOffset dy="-0.0840001"/>
<feGaussianBlur stdDeviation="0.21"/>
<feComposite in2="hardAlpha" operator="arithmetic" k2="-1" k3="1"/>
<feColorMatrix type="matrix" values="0 0 0 0 0 0 0 0 0 0 0 0 0 0 0 0 0 0 0.25 0"/>
<feBlend mode="normal" in2="shape" result="effect1_innerShadow_1_682"/>
</filter>
<linearGradient id="paint0_linear_1_682" x1="68.4818" y1="121.171" x2="69.652" y2="160.803" gradientUnits="userSpaceOnUse">
<stop stop-color="#C7C0E0"/>
<stop offset="1" stop-color="#988DC0"/>
</linearGradient>
<linearGradient id="paint1_linear_1_682" x1="68.4818" y1="121.171" x2="69.652" y2="160.803" gradientUnits="userSpaceOnUse">
<stop stop-color="#DDD8F0" stop-opacity="0"/>
<stop offset="1" stop-color="#8277B9" stop-opacity="0.51"/>
</linearGradient>
<linearGradient id="paint2_linear_1_682" x1="68.4112" y1="118.811" x2="69.7034" y2="162.316" gradientUnits="userSpaceOnUse">
<stop stop-color="#E9E7F2"/>
<stop offset="0.83601" stop-color="#D8D4E8"/>
</linearGradient>
<linearGradient id="paint3_linear_1_682" x1="68.4112" y1="118.811" x2="69.4829" y2="154.895" gradientUnits="userSpaceOnUse">
<stop stop-color="#8780AA"/>
<stop offset="0.0001" stop-color="#BCAFE9" stop-opacity="0"/>
<stop offset="1" stop-color="#E9E4FD"/>
</linearGradient>
<linearGradient id="paint4_linear_1_682" x1="69.0384" y1="118.809" x2="69.0384" y2="154.909" gradientUnits="userSpaceOnUse">
<stop stop-color="#A39DC4"/>
<stop offset="1" stop-color="#271C53"/>
</linearGradient>
<linearGradient id="paint5_linear_1_682" x1="69.0384" y1="118.809" x2="69.0384" y2="154.909" gradientUnits="userSpaceOnUse">
<stop stop-color="#EDE8FE"/>
<stop offset="0.0001" stop-color="#BCAFE9"/>
<stop offset="1" stop-color="#352A5C"/>
</linearGradient>
<linearGradient id="paint6_linear_1_682" x1="67.3943" y1="154.973" x2="67.3943" y2="139.261" gradientUnits="userSpaceOnUse">
<stop stop-color="#9B8ED3"/>
<stop offset="0.0001" stop-color="#A697E0"/>
</linearGradient>
<linearGradient id="paint7_linear_1_682" x1="68.4404" y1="31.0805" x2="68.7763" y2="146.451" gradientUnits="userSpaceOnUse">
<stop stop-color="#0D8079" stop-opacity="0"/>
<stop offset="1" stop-color="#6EBDBD"/>
</linearGradient>
<linearGradient id="paint8_linear_1_682" x1="59.8349" y1="146.384" x2="59.8349" y2="38.0341" gradientUnits="userSpaceOnUse">
<stop stop-color="#7C6FAE" stop-opacity="0.74"/>
<stop offset="1" stop-color="#8074B0" stop-opacity="0"/>
</linearGradient>
<linearGradient id="paint9_linear_1_682" x1="54.6096" y1="38.8571" x2="51.8328" y2="14.152" gradientUnits="userSpaceOnUse">
<stop stop-color="#C3C6E6" stop-opacity="0.24"/>
<stop offset="1" stop-color="#33295E" stop-opacity="0.72"/>
<stop offset="1" stop-color="#D7CFF8" stop-opacity="0.72"/>
</linearGradient>
<linearGradient id="paint10_linear_1_682" x1="98.506" y1="110.836" x2="38.6942" y2="112.352" gradientUnits="userSpaceOnUse">
<stop stop-color="#097281"/>
<stop offset="0.730362" stop-color="#57E4E4"/>
<stop offset="1" stop-color="#2EC7C7"/>
</linearGradient>
<linearGradient id="paint11_linear_1_682" x1="104.407" y1="120.808" x2="41.5399" y2="136.529" gradientUnits="userSpaceOnUse">
<stop stop-color="#65638F"/>
<stop offset="1" stop-color="#42B6AD"/>
</linearGradient>
<linearGradient id="paint12_linear_1_682" x1="50.1617" y1="132.818" x2="42.2801" y2="93.9671" gradientUnits="userSpaceOnUse">
<stop/>
<stop offset="0.504709" stop-color="#627374" stop-opacity="0.17"/>
<stop offset="0.835979" stop-opacity="0"/>
</linearGradient>
<linearGradient id="paint13_linear_1_682" x1="98.4548" y1="95.46" x2="42.1599" y2="91.7474" gradientUnits="userSpaceOnUse">
<stop stop-color="#56889D"/>
<stop offset="1" stop-color="#94FDFB"/>
</linearGradient>
<linearGradient id="paint14_linear_1_682" x1="67.9054" y1="85.0742" x2="69.3125" y2="109.311" gradientUnits="userSpaceOnUse">
<stop stop-color="white" stop-opacity="0"/>
<stop offset="0.985849" stop-color="white" stop-opacity="0.35"/>
</linearGradient>
<linearGradient id="paint15_linear_1_682" x1="57.2518" y1="9.88144" x2="1.46613" y2="8.86053" gradientUnits="userSpaceOnUse">
<stop stop-color="#58A0C8" stop-opacity="0.62"/>
<stop offset="1" stop-color="#42AAA6"/>
</linearGradient>
<linearGradient id="paint16_linear_1_682" x1="99.033" y1="15.7549" x2="30.7826" y2="5.82244" gradientUnits="userSpaceOnUse">
<stop stop-color="#2DC6BA"/>
<stop offset="1" stop-color="#94FDFB"/>
</linearGradient>
<linearGradient id="paint17_linear_1_682" x1="48.2587" y1="97.2051" x2="46.8095" y2="106.524" gradientUnits="userSpaceOnUse">
<stop stop-color="white" stop-opacity="0"/>
<stop offset="0.985849" stop-color="white" stop-opacity="0.71"/>
</linearGradient>
<linearGradient id="paint18_linear_1_682" x1="71.8283" y1="49.0699" x2="75.7646" y2="49.2177" gradientUnits="userSpaceOnUse">
<stop stop-color="white" stop-opacity="0.51"/>
<stop offset="1" stop-color="white" stop-opacity="0"/>
</linearGradient>
<linearGradient id="paint19_linear_1_682" x1="78.9959" y1="61.6235" x2="79.2215" y2="59.4272" gradientUnits="userSpaceOnUse">
<stop stop-color="white" stop-opacity="0.51"/>
<stop offset="1" stop-color="white" stop-opacity="0"/>
</linearGradient>
<linearGradient id="paint20_linear_1_682" x1="85.8586" y1="63.4256" x2="90.0472" y2="61.3035" gradientUnits="userSpaceOnUse">
<stop stop-color="#FDFDFD"/>
<stop offset="0.918631" stop-color="white" stop-opacity="0"/>
</linearGradient>
<linearGradient id="paint21_linear_1_682" x1="77.6853" y1="77.0568" x2="79.4563" y2="78.1869" gradientUnits="userSpaceOnUse">
<stop stop-color="white" stop-opacity="0.3"/>
<stop offset="1" stop-color="white" stop-opacity="0"/>
</linearGradient>
<linearGradient id="paint22_linear_1_682" x1="66.5067" y1="36.1372" x2="57.5183" y2="94.6603" gradientUnits="userSpaceOnUse">
<stop offset="0.346563" stop-color="white"/>
<stop offset="0.919493" stop-color="white" stop-opacity="0"/>
</linearGradient>
<linearGradient id="paint23_linear_1_682" x1="49.7837" y1="129.997" x2="39.2113" y2="91.7826" gradientUnits="userSpaceOnUse">
<stop stop-color="#77FBEB"/>
<stop offset="0.411185" stop-color="#56B8BE" stop-opacity="0.17"/>
<stop offset="0.581873" stop-color="#337A7E" stop-opacity="0"/>
</linearGradient>
<linearGradient id="paint24_linear_1_682" x1="138.253" y1="137.501" x2="138.253" y2="168" gradientUnits="userSpaceOnUse">
<stop stop-color="#F6D7B6"/>
<stop offset="1" stop-color="#F6D7B6" stop-opacity="0"/>
</linearGradient>
<linearGradient id="paint25_linear_1_682" x1="156.5" y1="57.1907" x2="156.5" y2="99.971" gradientUnits="userSpaceOnUse">
<stop stop-color="#F6D7B6"/>
<stop offset="1" stop-color="#F6D7B6" stop-opacity="0"/>
</linearGradient>
<linearGradient id="paint26_linear_1_682" x1="6.16235" y1="105.625" x2="6.16235" y2="134.394" gradientUnits="userSpaceOnUse">
<stop stop-color="#F6D7B6"/>
<stop offset="1" stop-color="#F6D7B6" stop-opacity="0"/>
</linearGradient>
<radialGradient id="paint27_radial_1_682" cx="0" cy="0" r="1" gradientUnits="userSpaceOnUse" gradientTransform="translate(4.01839 54.7497) rotate(-45.3259) scale(5.97508 5.97558)">
<stop stop-color="#18C19F" stop-opacity="0.5"/>
<stop offset="0.607722" stop-color="#18BF9E" stop-opacity="0.15"/>
<stop offset="1" stop-color="#18C19F" stop-opacity="0"/>
</radialGradient>
<radialGradient id="paint28_radial_1_682" cx="0" cy="0" r="1" gradientUnits="userSpaceOnUse" gradientTransform="translate(139.815 101.864) rotate(-45.3259) scale(8.36511 8.36581)">
<stop stop-color="#18C19F" stop-opacity="0.5"/>
<stop offset="0.607722" stop-color="#18BF9E" stop-opacity="0.15"/>
<stop offset="1" stop-color="#18C19F" stop-opacity="0"/>
</radialGradient>
</defs>
</svg>
