<svg width="12" height="14" viewBox="0 0 12 14" fill="none" xmlns="http://www.w3.org/2000/svg">
<path fill-rule="evenodd" clipRule="evenodd" d="M6.00098 13.5C9.31468 13.5 12.001 10.8137 12.001 7.5C12.001 4.18629 9.31468 1.5 6.00098 1.5C2.68727 1.5 0.000976562 4.18629 0.000976562 7.5C0.000976562 10.8137 2.68727 13.5 6.00098 13.5ZM6.21916 10.5C6.52041 10.5 6.76461 10.2558 6.76461 9.95455C6.76461 9.6533 6.52041 9.40909 6.21916 9.40909H6.00098C5.69973 9.40909 5.45552 9.6533 5.45552 9.95455C5.45552 10.2558 5.69973 10.5 6.00098 10.5H6.21916ZM5.45552 7.93636C5.45552 8.29786 5.74857 8.59091 6.11007 8.59091C6.47156 8.59091 6.76461 8.29786 6.76461 7.93636V5.42727C6.76461 5.06578 6.47156 4.77273 6.11007 4.77273C5.74857 4.77273 5.45552 5.06578 5.45552 5.42727V7.93636Z" fill="#F58721"/>
</svg>
