<svg width="14" height="14" viewBox="0 0 14 14" fill="none" xmlns="http://www.w3.org/2000/svg">
<path opacity="0.6" fill-rule="evenodd" clipRule="evenodd" d="M10.5755 7.11611C10.4899 7.029 10.3721 6.97982 10.25 6.97982C10.1279 6.97982 10.0101 7.029 9.92449 7.11611L7.02015 10.0231C6.93316 10.1102 6.88546 10.2268 6.88406 10.3505V11.5377C6.88406 11.7935 7.09031 12 7.34566 12H8.53125C8.65332 12 8.77117 11.9508 8.85816 11.8637L11.7611 8.9567C11.9407 8.77686 11.9407 8.4832 11.7611 8.30336L10.5755 7.11611ZM11.7976 7.70622L11.1746 7.08239C10.8996 6.807 10.8996 6.3602 11.1746 6.08481C11.4496 5.80943 11.8958 5.80943 12.1708 6.08481L12.7937 6.70865C13.0687 6.98404 13.0687 7.43084 12.7937 7.70622C12.5187 7.98301 12.0726 7.98301 11.7976 7.70622ZM2 3.13425V9.86435C2 11.0432 2.95408 11.9986 4.13125 11.9986H5.01097V10.5655C5.01097 10.3898 5.08112 10.2212 5.20459 10.0976L10.3103 4.98186C10.5152 4.75846 10.7846 4.60532 11.0792 4.54349C11.2083 4.5168 11.3416 4.5168 11.4707 4.54349C11.7232 4.4606 11.8944 4.22596 11.8958 3.96041V3.13425C11.8958 1.95543 10.9417 1 9.76454 1H4.13125C2.95408 0.998598 2 1.95402 2 3.13425ZM3.83333 3.29167C3.83333 3.03854 4.03854 2.83333 4.29167 2.83333H9.79167C10.0448 2.83333 10.25 3.03854 10.25 3.29167C10.25 3.5448 10.0448 3.75 9.79167 3.75H4.29167C4.03854 3.75 3.83333 3.5448 3.83333 3.29167ZM4.29167 5.58333C4.03854 5.58333 3.83333 5.78854 3.83333 6.04167C3.83333 6.2948 4.03854 6.5 4.29167 6.5H6.125C6.37813 6.5 6.58333 6.2948 6.58333 6.04167C6.58333 5.78854 6.37813 5.58333 6.125 5.58333H4.29167Z" fill="white"/>
</svg>
