<svg width="14" height="15" viewBox="0 0 14 15" fill="none" xmlns="http://www.w3.org/2000/svg">
<g opacity="0.6">
<path fill-rule="evenodd" clipRule="evenodd" d="M4.46552 11.2573H10.1235V9.72563C10.7455 9.14191 11.1801 8.38001 11.3702 7.53985C11.5604 6.6997 11.4973 5.82052 11.1891 5.01761C10.881 4.21471 10.3423 3.52556 9.64359 3.04057C8.9449 2.55558 8.11887 2.29737 7.27383 2.29982C6.4288 2.30227 5.60422 2.56526 4.90824 3.0543C4.21226 3.54334 3.67737 4.23559 3.37373 5.04027C3.07008 5.84495 3.01186 6.72449 3.20669 7.56352C3.40153 8.40256 3.84032 9.16193 4.46552 9.74203V11.2573ZM4.90694 12.6996H9.61197C9.72827 12.6996 9.8398 12.6524 9.92204 12.5685C10.0043 12.4846 10.0505 12.3708 10.0505 12.2521C10.0505 12.1335 10.0043 12.0197 9.92204 11.9358C9.8398 11.8519 9.72827 11.8047 9.61197 11.8047H4.90694C4.79065 11.8047 4.67911 11.8519 4.59688 11.9358C4.51465 12.0197 4.46845 12.1335 4.46845 12.2521C4.46845 12.3708 4.51465 12.4846 4.59688 12.5685C4.67911 12.6524 4.79065 12.6996 4.90694 12.6996ZM9.1218 6.88858C9.20403 6.9725 9.31556 7.01964 9.43186 7.01964C9.48944 7.01964 9.54646 7.00806 9.59966 6.98558C9.65286 6.96309 9.7012 6.93013 9.74192 6.88858C9.78264 6.84704 9.81494 6.79771 9.83697 6.74343C9.85901 6.68914 9.87035 6.63096 9.87035 6.5722C9.86765 5.87597 9.5949 5.20915 9.11174 4.71754C8.62859 4.22593 7.97433 3.94951 7.29201 3.94873C7.17571 3.94873 7.06418 3.99587 6.98195 4.07978C6.89971 4.16369 6.85352 4.2775 6.85352 4.39617C6.85352 4.51483 6.89971 4.62864 6.98195 4.71255C7.06418 4.79646 7.17571 4.8436 7.29201 4.8436C7.74186 4.84399 8.17327 5.026 8.49205 5.34988C8.81082 5.67375 8.99105 6.11318 8.99336 6.5722C8.99336 6.69087 9.03956 6.80467 9.1218 6.88858Z" fill="white"/>
</g>
</svg>
