<svg width="12" height="12" viewBox="0 0 12 12" fill="none" xmlns="http://www.w3.org/2000/svg">
<path opacity="0.3" fill-rule="evenodd" clipRule="evenodd" d="M9.3551 6.67212C9.26173 6.57709 9.13316 6.52344 9 6.52344C8.86684 6.52344 8.73827 6.57709 8.6449 6.67212L5.47653 9.84341C5.38163 9.93844 5.32959 10.0657 5.32806 10.2005V11.4957C5.32806 11.7747 5.55306 12 5.83163 12H7.125C7.25816 12 7.38673 11.9464 7.48163 11.8513L10.6485 8.68004C10.8444 8.48384 10.8444 8.1635 10.6485 7.9673L9.3551 6.67212ZM10.6883 7.31588L10.0087 6.63533C9.70867 6.33491 9.70867 5.84749 10.0087 5.54707C10.3087 5.24665 10.7954 5.24665 11.0954 5.54707L11.775 6.22762C12.075 6.52804 12.075 7.01546 11.775 7.31588C11.475 7.61783 10.9883 7.61783 10.6883 7.31588ZM0 2.32827V9.6702C0 10.9562 1.04082 11.9985 2.325 11.9985H3.28469V10.4351C3.28469 10.2435 3.36122 10.0595 3.49592 9.92464L9.06582 4.34385C9.28929 4.10014 9.58316 3.93307 9.90459 3.86563C10.0454 3.83651 10.1908 3.83651 10.3316 3.86563C10.6071 3.7752 10.7939 3.51923 10.7954 3.22953V2.32827C10.7954 1.04228 9.75459 1.68467e-06 8.47041 1.68467e-06H2.325C1.04082 -0.00152939 0 1.04075 0 2.32827ZM2 2.5C2 2.22386 2.22386 2 2.5 2H8.5C8.77614 2 9 2.22386 9 2.5C9 2.77614 8.77614 3 8.5 3H2.5C2.22386 3 2 2.77614 2 2.5ZM2.5 5C2.22386 5 2 5.22386 2 5.5C2 5.77614 2.22386 6 2.5 6H4.5C4.77614 6 5 5.77614 5 5.5C5 5.22386 4.77614 5 4.5 5H2.5Z" fill="white"/>
</svg>
