<svg width="310" height="220" viewBox="0 0 310 220" fill="none" xmlns="http://www.w3.org/2000/svg">
<mask id="mask0_258_5143" style="mask-type:alpha" maskUnits="userSpaceOnUse" x="0" y="0" width="310" height="220">
<path d="M310 0H0V220H310V30V15.5882V0Z" fill="url(#paint0_linear_258_5143)"/>
</mask>
<g mask="url(#mask0_258_5143)">
<path fill-rule="evenodd" clipRule="evenodd" d="M113.303 54.0487C112.233 58.1608 114.205 62.4275 117.839 64.6292C133.44 74.0815 148.458 89.062 156.714 103.183C158.974 107.048 163.459 109.274 167.785 108.116L170.443 107.404C175.132 106.149 179.971 108.838 181.382 113.483L184.117 122.491C185.553 127.218 182.909 132.22 178.193 133.695L177.462 133.924C172.542 135.464 169.962 140.833 170.768 145.925C173.986 166.241 166.388 191.513 156.678 208.054C154.562 211.658 154.742 216.263 157.486 219.416L168.561 232.135C171.838 235.898 171.427 241.609 167.646 244.865L137.416 270.898C133.664 274.129 128.007 273.723 124.755 269.988L113.389 256.935C110.75 253.904 106.435 253.028 102.697 254.505C90.4719 259.339 77.7879 261.767 64.6452 261.789C60.6259 261.796 56.9386 264.203 55.6051 267.995L49.863 284.323C48.2204 288.993 43.1131 291.46 38.4333 289.843L0.725899 276.813C-3.99021 275.183 -6.4803 270.028 -4.82488 265.321L0.868206 249.132C2.2094 245.319 0.818109 241.109 -2.35216 238.6C-12.6665 230.439 -21.1675 220.743 -27.8551 209.512C-29.8953 206.086 -33.805 204.148 -37.7215 204.898L-54.6413 208.136C-59.5232 209.071 -64.2383 205.871 -65.1727 200.989L-72.639 161.979C-73.5734 157.097 -70.3733 152.382 -65.4914 151.448L-48.5716 148.209C-44.6551 147.46 -41.732 144.205 -40.5805 140.388C-35.767 124.428 -20.3757 101.533 -10.6598 87.0803L-10.1948 86.3886C-8.04924 83.1965 -8.208 79.0075 -10.5579 75.9627L-12.4044 73.5703C-15.4007 69.688 -14.7372 64.1214 -10.9123 61.0521L0.994313 51.4974C4.92303 48.3448 10.6742 49.0303 13.7519 53.018L14.9089 54.5171C17.4855 57.8556 22.0252 58.9175 26.014 57.5483C39.7519 52.8328 58.3183 50.6108 73.793 52.3706C78.6735 52.9256 83.497 50.0704 84.7342 45.3168L84.8801 44.7563C86.123 39.9812 90.9788 37.0972 95.7665 38.2905L107.263 41.1558C112.121 42.3667 115.057 47.31 113.796 52.1556L113.303 54.0487ZM148.588 164.174C145.788 211.884 103.668 248.829 54.5081 246.693C5.34877 244.557 -32.2335 204.148 -29.4342 156.437C-26.635 108.727 15.4858 71.7813 64.6452 73.9177C113.805 76.0541 151.387 116.463 148.588 164.174ZM57.8304 190.069C74.768 190.805 89.2805 178.075 90.245 161.637C91.2095 145.199 78.2607 131.276 61.3231 130.54C44.3854 129.804 29.8729 142.533 28.9085 158.971C27.944 175.41 40.8928 189.333 57.8304 190.069Z" fill="url(#paint1_linear_258_5143)" fill-opacity="0.05"/>
</g>
<defs>
<linearGradient id="paint0_linear_258_5143" x1="180" y1="-587.059" x2="180" y2="220" gradientUnits="userSpaceOnUse">
<stop stop-color="white" stop-opacity="0"/>
<stop offset="1" stop-color="white"/>
</linearGradient>
<linearGradient id="paint1_linear_258_5143" x1="36.8792" y1="43.5613" x2="82.6316" y2="282.605" gradientUnits="userSpaceOnUse">
<stop stop-color="#22232B"/>
<stop offset="1" stop-color="#22232B" stop-opacity="0"/>
</linearGradient>
</defs>
</svg>
