<svg width="16" height="16" viewBox="0 0 16 16" fill="none" xmlns="http://www.w3.org/2000/svg">
<path d="M12.1183 3.74596C12.0108 3.93669 12.0417 4.1738 12.1818 4.34198C12.6195 4.86718 12.953 5.45308 13.1822 6.09967C13.2568 6.31001 13.4509 6.45872 13.674 6.45872H14.5C14.7761 6.45872 15 6.68257 15 6.95872V9.04128C15 9.31743 14.7761 9.54128 14.5 9.54128H13.674C13.4509 9.54128 13.2568 9.68999 13.1822 9.90033C12.953 10.5469 12.6195 11.1328 12.1818 11.658C12.0417 11.8262 12.0108 12.0633 12.1183 12.254L12.5572 13.033C12.6906 13.2697 12.6106 13.5695 12.377 13.7083L10.643 14.7386C10.4018 14.882 10.0898 14.7987 9.95201 14.5542L9.53319 13.8109C9.42156 13.6128 9.19068 13.5175 8.96725 13.5598C8.32234 13.6819 7.67752 13.6819 7.03278 13.5598C6.80934 13.5175 6.57843 13.6128 6.4668 13.811L6.04799 14.5542C5.91022 14.7987 5.59824 14.882 5.35697 14.7386L3.62298 13.7083C3.38944 13.5695 3.30943 13.2697 3.44278 13.033L3.8817 12.254C3.98917 12.0633 3.95831 11.8262 3.81816 11.658C3.3805 11.1328 3.04704 10.5469 2.81776 9.90033C2.74318 9.68999 2.54911 9.54128 2.32595 9.54128H1.5C1.22386 9.54128 1 9.31743 1 9.04128V6.95872C1 6.68257 1.22386 6.45872 1.5 6.45872H2.32595C2.54911 6.45872 2.74318 6.31001 2.81776 6.09967C3.04704 5.45308 3.3805 4.86718 3.81816 4.34198C3.95831 4.1738 3.98917 3.93669 3.8817 3.74596L3.44278 2.96698C3.30943 2.73031 3.38944 2.43046 3.62298 2.29169L5.35697 1.26136C5.59824 1.118 5.91022 1.20125 6.04799 1.44576L6.46681 2.18907C6.57844 2.38718 6.80932 2.48252 7.03275 2.44021C7.67766 2.3181 8.32248 2.31809 8.96722 2.44019C9.19066 2.4825 9.42157 2.38716 9.5332 2.18904L9.95201 1.44576C10.0898 1.20125 10.4018 1.118 10.643 1.26136L12.377 2.29169C12.6106 2.43046 12.6906 2.7303 12.5572 2.96698L12.1183 3.74596ZM11.0001 8C10.9791 7.12215 10.6875 6.39432 10.1252 5.81651C9.56286 5.2387 8.85455 4.93901 8.00025 4.91743C7.14595 4.93901 6.43764 5.2387 5.87533 5.81651C5.31301 6.39432 5.02136 7.12215 5.00036 8C5.02136 8.87785 5.31301 9.60568 5.87533 10.1835C6.43764 10.7613 7.14595 11.061 8.00025 11.0826C8.85455 11.061 9.56286 10.7613 10.1252 10.1835C10.6875 9.60568 10.9791 8.87785 11.0001 8Z" fill="#9195FB"/>
</svg>
