<svg width="310" height="220" viewBox="0 0 310 220" fill="none" xmlns="http://www.w3.org/2000/svg">
<mask id="mask0_189_2550" style="mask-type:alpha" maskUnits="userSpaceOnUse" x="0" y="0" width="310" height="220">
<path d="M310 0H0V220H310V121.5V109.25V96V0Z" fill="url(#paint0_linear_189_2550)"/>
</mask>
<g mask="url(#mask0_189_2550)">
<g opacity="0.05">
<path fill-rule="evenodd" clipRule="evenodd" d="M117.838 56.6288C114.204 54.427 112.232 50.1603 113.302 46.0483L113.795 44.1551C115.056 39.3095 112.12 34.3662 107.262 33.1553L95.7658 30.29C90.9781 29.0967 86.1222 31.9807 84.8794 36.7558L84.7335 37.3163C83.4962 42.0699 78.6728 44.9251 73.7923 44.3701C58.3176 42.6103 39.7512 44.8324 26.0133 49.5478C22.0245 50.917 17.4848 49.8551 14.9081 46.5166L13.7512 45.0175C10.6735 41.0298 4.9223 40.3443 0.99358 43.497L-10.9131 53.0516C-14.738 56.1209 -15.4014 61.6875 -12.4051 65.5698L-10.5587 67.9622C-8.20873 71.007 -8.04998 75.196 -10.1955 78.3881C-10.349 78.6164 -10.504 78.847 -10.6605 79.0798C-20.3764 93.5325 -35.7678 116.428 -40.5813 132.387C-41.7327 136.205 -44.6559 139.459 -48.5723 140.209L-65.4921 143.447C-70.374 144.382 -73.5742 149.097 -72.6398 153.979L-65.1734 192.988C-64.239 197.87 -59.5239 201.07 -54.642 200.136L-37.7222 196.898C-33.8058 196.148 -29.896 198.086 -27.8558 201.512C-21.1682 212.743 -12.6672 222.439 -2.3529 230.6C0.817377 233.108 2.20867 237.318 0.867473 241.132L-4.82561 257.32C-6.48103 262.027 -3.99095 267.183 0.725167 268.812L38.4326 281.843C43.1124 283.46 48.2196 280.993 49.8623 276.322L55.6043 259.995C56.9378 256.203 60.6251 253.795 64.6445 253.788C77.7872 253.767 90.4711 251.339 102.696 246.505C106.434 245.027 110.749 245.903 113.389 248.934L124.754 261.988C128.006 265.722 133.663 266.129 137.415 262.898L167.646 236.864C171.427 233.608 171.837 227.897 168.56 224.134L157.486 211.415C154.741 208.263 154.561 203.658 156.677 200.053C166.388 183.513 173.985 158.24 170.768 137.924C169.961 132.833 172.541 127.463 177.461 125.924L178.193 125.695C182.908 124.219 185.552 119.218 184.117 114.49L181.381 105.482C179.97 100.838 175.131 98.1488 170.442 99.4038L167.784 100.115C163.458 101.273 158.974 99.0478 156.713 95.1822C148.457 81.0615 133.44 66.081 117.838 56.6288ZM54.5074 238.693C103.667 240.829 145.788 203.884 148.587 156.173C151.386 108.463 113.804 68.0536 64.6445 65.9172C15.4851 63.7809 -26.6357 100.726 -29.435 148.437C-32.2342 196.147 5.34804 236.556 54.5074 238.693Z" fill="url(#paint1_linear_189_2550)"/>
<ellipse cx="30.6972" cy="29.8156" rx="30.6972" ry="29.8156" transform="matrix(0.999057 0.0434168 -0.0585711 0.998283 30.6543 121.208)" fill="url(#paint2_linear_189_2550)"/>
</g>
</g>
<defs>
<linearGradient id="paint0_linear_189_2550" x1="180" y1="-466" x2="180" y2="220" gradientUnits="userSpaceOnUse">
<stop stop-color="white" stop-opacity="0"/>
<stop offset="1" stop-color="white"/>
</linearGradient>
<linearGradient id="paint1_linear_189_2550" x1="36.8784" y1="35.5608" x2="115.981" y2="364.518" gradientUnits="userSpaceOnUse">
<stop stop-color="white"/>
<stop offset="1" stop-color="white" stop-opacity="0"/>
</linearGradient>
<linearGradient id="paint2_linear_189_2550" x1="20.1742" y1="-0.836127" x2="39.9602" y2="56.9425" gradientUnits="userSpaceOnUse">
<stop stop-color="white"/>
<stop offset="0.732139" stop-color="white" stop-opacity="0"/>
</linearGradient>
</defs>
</svg>
