<svg
    className="h-svg"
    width="15"
    height="19"
    viewBox="0 0 15 19"
    fill="none"
    xmlns="http://www.w3.org/2000/svg"
    >
    <path
        fill="#22232b"
        d="M5.52576 14.8354C5.51638 14.8354 4.53436 14.8289 3.55235 14.3113C2.52655 13.7709 1.90731 12.8828 1.70403 11.6646H2.06369C2.18253 11.6646 2.25759 11.532 2.20129 11.4252L1.24742 9.63758C1.188 9.52595 1.0332 9.52595 0.973774 9.63758L0.0199055 11.4252C-0.0379521 11.5336 0.0371065 11.6646 0.157513 11.6646H0.565643C0.842422 13.7499 2.02772 14.8144 3.04101 15.3482C4.26227 15.9921 5.47572 16.0002 5.52576 16.0002C5.83694 16.0002 6.0887 15.7397 6.0887 15.4178C6.0887 15.0959 5.83694 14.8354 5.52576 14.8354ZM13.8432 6.33899H13.435C13.1567 4.25209 11.973 3.18923 10.9581 2.65537C9.73685 2.01151 8.52341 2.00342 8.47337 2.00342C8.16219 2.00342 7.91043 2.26388 7.91043 2.58581C7.91043 2.90774 8.16219 3.1682 8.47337 3.1682C8.48275 3.1682 9.46477 3.17467 10.4468 3.69235C11.4726 4.23268 12.0918 5.12082 12.2951 6.33899H11.9354C11.8166 6.33899 11.7415 6.47164 11.7978 6.57841L12.7517 8.36602C12.8111 8.47765 12.9659 8.47765 13.0254 8.36602L13.9792 6.57841C14.0386 6.47164 13.9636 6.33899 13.8432 6.33899Z"
    />
    <path
        fill="#22232b"
        d="M0.624 2.336H1.632V4.624H4.28V2.336H5.288V8H4.28V5.488H1.632V8H0.624V2.336Z"
    />
    <path
        fill="#22232b"
        d="M8.624 10.336H10.632C11 10.336 11.3707 10.384 11.744 10.48C12.1173 10.576 12.4533 10.736 12.752 10.96C13.0507 11.1787 13.2933 11.4693 13.48 11.832C13.6667 12.1893 13.76 12.6347 13.76 13.168C13.76 13.664 13.6667 14.0907 13.48 14.448C13.2933 14.8053 13.0507 15.0987 12.752 15.328C12.4533 15.5573 12.1173 15.728 11.744 15.84C11.3707 15.9467 11 16 10.632 16H8.624V10.336ZM10.472 15.12C10.7333 15.12 10.9947 15.0907 11.256 15.032C11.5173 14.968 11.752 14.864 11.96 14.72C12.1733 14.5707 12.3467 14.3707 12.48 14.12C12.6133 13.8693 12.68 13.552 12.68 13.168C12.68 12.7627 12.6133 12.432 12.48 12.176C12.3467 11.92 12.1733 11.72 11.96 11.576C11.752 11.432 11.5173 11.3333 11.256 11.28C10.9947 11.2267 10.7333 11.2 10.472 11.2H9.632V15.12H10.472Z"
    />
    </svg>