<svg width="30" height="30" viewBox="0 0 30 30" fill="none" xmlns="http://www.w3.org/2000/svg">
<circle cx="15.5359" cy="15.5364" r="13.3929" fill="white"/>
<path d="M15.4985 6.8999V13.4045L20.9963 15.8612L15.4985 6.8999Z" fill="#0F134F" fill-opacity="0.8"/>
<path d="M15.4985 6.8999L10 15.8612L15.4985 13.4045V6.8999Z" fill="#0F134F" fill-opacity="0.7"/>
<path d="M15.4985 20.0763V24.4961L20.9999 16.8849L15.4985 20.0763Z" fill="#0F134F"/>
<path d="M15.4985 24.4961V20.0755L10 16.8849L15.4985 24.4961Z" fill="#0F134F" fill-opacity="0.8"/>
<path d="M15.4985 19.0534L20.9963 15.8612L15.4985 13.406V19.0534Z" fill="#0F134F"/>
<path d="M10 15.8612L15.4985 19.0534V13.406L10 15.8612Z" fill="#0F134F" fill-opacity="0.9"/>
<path fill-rule="evenodd" clip-rule="evenodd" d="M19.3261 1.90452C19.5554 1.36192 20.186 1.10586 20.7346 1.33261C26.1743 3.58072 30 8.89363 30 15.0927C30 23.3258 23.2515 30 14.9267 30C10.6522 30 6.79169 28.2389 4.04984 25.4132C3.63812 24.9889 3.65215 24.3149 4.08118 23.9077C4.51021 23.5005 5.19178 23.5144 5.60349 23.9387C7.95612 26.3633 11.2625 27.8704 14.9267 27.8704C22.0622 27.8704 27.8467 22.1496 27.8467 15.0927C27.8467 9.78232 24.5708 5.22611 19.9044 3.29755C19.3557 3.07081 19.0968 2.44712 19.3261 1.90452Z" fill="url(#paint0_angular_594_20924)"/>
<circle cx="15.5359" cy="1.60714" r="1.60714" fill="#3D56D6"/>
<defs>
<radialGradient id="paint0_angular_594_20924" cx="0" cy="0" r="1" gradientUnits="userSpaceOnUse" gradientTransform="translate(18.8825 22.4949) rotate(90) scale(32.2022 17.7661)">
<stop offset="0.200113" stop-color="#00C2FF"/>
<stop offset="0.591769" stop-color="#5E4BFF"/>
</radialGradient>
</defs>
</svg>
