<svg width="30" height="30" viewBox="0 0 30 30" fill="none" xmlns="http://www.w3.org/2000/svg">
<circle cx="14.8569" cy="14.8569" r="12.8569" fill="white"/>
<path d="M16.4645 20.5626C16.4645 21.357 15.8188 22 15.0222 22C14.2256 22 13.5799 21.357 13.5799 20.5626C13.5799 19.7687 14.2256 19.1251 15.0222 19.1251C15.8188 19.1251 16.4645 19.7687 16.4645 20.5626ZM21 18.1045H9V16.1299H21V18.1045ZM15.0046 13.2602C17.3428 13.2602 19.2427 11.3908 19.2805 9.07045L19.2811 9H20.9974C20.9974 12.297 18.3144 14.9698 15.0046 14.9698C11.728 14.9698 9.06555 12.3502 9.01263 9.09872L9.01183 9H10.7282C10.7282 11.3529 12.6428 13.2602 15.0046 13.2602ZM16.4645 10.4377C16.4645 11.2316 15.8188 11.8751 15.0222 11.8751C14.2256 11.8751 13.5799 11.2316 13.5799 10.4377C13.5799 9.64379 14.2256 9.00028 15.0222 9.00028C15.8188 9.00028 16.4645 9.64379 16.4645 10.4377Z" fill="#0F134F"/>
<path fill-rule="evenodd" clipRule="evenodd" d="M19.3774 1.73033C19.6056 1.18437 20.2332 0.926726 20.7791 1.15488C26.1922 3.41692 29.9992 8.76277 29.9992 15.0003C29.9992 23.2844 23.2837 30 14.9996 30C10.7459 30 6.90427 28.228 4.17581 25.3848C3.76611 24.9579 3.78007 24.2796 4.20701 23.8699C4.63394 23.4602 5.31218 23.4742 5.72188 23.9011C8.06302 26.3407 11.3533 27.8572 14.9996 27.8572C22.1002 27.8572 27.8564 22.101 27.8564 15.0003C27.8564 9.65697 24.5965 5.07252 19.9529 3.132C19.4069 2.90385 19.1493 2.2763 19.3774 1.73033Z" fill="url(#paint0_angular_594_20928)"/>
<circle cx="15.5353" cy="1.60711" r="1.60711" fill="#3D56D6"/>
<defs>
<radialGradient id="paint0_angular_594_20928" cx="0" cy="0" r="1" gradientUnits="userSpaceOnUse" gradientTransform="translate(18.936 22.4484) rotate(90) scale(32.4019 17.6793)">
<stop offset="0.200113" stop-color="#00C2FF"/>
<stop offset="0.591769" stop-color="#5E4BFF"/>
</radialGradient>
</defs>
</svg>
