<svg width="30" height="30" viewBox="0 0 30 30" fill="none" xmlns="http://www.w3.org/2000/svg">
<circle cx="15" cy="15" r="15" fill="white"/>
<path d="M15 30C23.2843 30 30 23.2843 30 15C30 6.71573 23.2843 0 15 0C6.71573 0 0 6.71573 0 15C0 23.2843 6.71573 30 15 30ZM17.0591 23.5082C17.0591 24.6089 16.1674 25.5 15.0672 25.5C13.967 25.5 13.0752 24.6089 13.0752 23.5082C13.0752 22.408 13.967 21.5163 15.0672 21.5163C16.1674 21.5163 17.0591 22.408 17.0591 23.5082ZM23.323 20.1021H6.75V17.3657H23.323V20.1021ZM15.0429 13.3893C18.2721 13.3893 20.8961 10.7988 20.9482 7.58345L20.949 7.48583H23.3195C23.3195 12.0545 19.6139 15.7583 15.0429 15.7583C10.5176 15.7583 6.84053 12.1282 6.76744 7.62263L6.76633 7.48583H9.13676C9.13676 10.7462 11.7811 13.3893 15.0429 13.3893ZM17.0591 9.47807C17.0591 10.5782 16.1674 11.4699 15.0672 11.4699C13.967 11.4699 13.0752 10.5782 13.0752 9.47807C13.0752 8.37793 13.967 7.48622 15.0672 7.48622C16.1674 7.48622 17.0591 8.37793 17.0591 9.47807Z" fill="#A42921"/>
</svg>
