<svg width="30" height="30" viewBox="0 0 30 30" fill="none" xmlns="http://www.w3.org/2000/svg">
<circle cx="14.9999" cy="15.0004" r="12.8569" fill="white"/>
<ellipse cx="14.9999" cy="15" rx="8.99986" ry="9" fill="white"/>
<path fill-rule="evenodd" clipRule="evenodd" d="M13.6775 6.09644V10.1229H14.0839V6.046C14.2567 6.02852 14.431 6.01594 14.6066 6.00839V10.1229H15.013V5.99995C15.2871 6.00034 15.5582 6.01298 15.826 6.03734V10.1229H16.2324V6.08363C16.4137 6.10845 16.5932 6.13867 16.7709 6.17412V8.74969L17.1532 8.84572L18.3365 6.63868C18.4516 6.68466 18.5656 6.73295 18.6783 6.78349L17.9273 9.27069L18.2655 9.47314L20.1326 7.60601C20.2912 7.71629 20.446 7.83154 20.597 7.95154L17.7928 10.7558L18.0802 11.0432L20.9106 8.2127C21.0421 8.32734 21.1703 8.44574 21.2949 8.56774L18.4498 11.4129L18.7373 11.7003L21.579 8.85852C21.7644 9.05712 21.941 9.26413 22.1081 9.47892L19.312 12.2751L19.5994 12.5625L22.3529 9.8089C22.469 9.97304 22.5798 10.1412 22.6849 10.3132L20.9533 12.0448L21.1558 12.3831L23.3802 11.7114C23.4168 11.8045 23.4519 11.8984 23.4854 11.993L21.3492 13.1384L21.4452 13.5207H23.879C23.9113 13.7162 23.9374 13.9139 23.9569 14.1134H20.2549V14.5199H23.9874C23.9958 14.6789 24 14.839 24 15.0001C24 15.0141 24 15.0281 23.9999 15.0422H20.2549V15.4486H23.989C23.9755 15.7231 23.9498 15.9943 23.9123 16.2618H20.2549V16.6682H23.8457C23.8098 16.8596 23.7679 17.0489 23.7201 17.2358H21.6775L21.5815 17.6182L23.2816 18.5297C23.2295 18.6515 23.1749 18.772 23.1178 18.8911L21.2715 18.3336L21.069 18.6718L22.4494 20.0522C22.3148 20.2503 22.1724 20.4428 22.0229 20.6291L19.6219 18.2282L19.3345 18.5156L21.7604 20.9415C21.6453 21.0724 21.5264 21.1999 21.4039 21.3239L18.9649 18.8849L18.6775 19.1723L21.1119 21.6067C20.9123 21.7914 20.7043 21.9672 20.4886 22.1334L18.1027 19.7475L17.8153 20.0349L20.1573 22.3769C19.9849 22.4977 19.808 22.6126 19.6269 22.7213L18.3233 21.4177L17.985 21.6201L18.4916 23.2978C18.3585 23.3539 18.2238 23.4069 18.0876 23.4566L17.2694 21.9305L16.887 22.0265V23.8021C16.682 23.8458 16.4743 23.8826 16.2643 23.9121V20.691H15.8579V23.9599C15.6851 23.9762 15.5109 23.9877 15.3354 23.9941V20.691H14.929V24C14.6549 23.9978 14.3838 23.9835 14.116 23.9574V20.691H13.7096V23.9084C13.5088 23.8796 13.3102 23.8441 13.114 23.8023V22.0843L12.7317 21.9883L11.9392 23.4664C11.8402 23.4306 11.7421 23.3931 11.6448 23.354L12.1507 21.6785L11.8125 21.4761L10.4952 22.7934C10.2687 22.6622 10.0486 22.5215 9.83518 22.3717L12.1494 20.0574L11.862 19.77L9.50416 22.1279C9.36553 22.0208 9.23011 21.9098 9.09806 21.795L11.4923 19.4007L11.2049 19.1133L8.79705 21.5212C8.60067 21.3343 8.41272 21.1387 8.23383 20.9349L10.6301 18.5386L10.3427 18.2512L7.97164 20.6223C7.82701 20.4417 7.6892 20.2554 7.55859 20.0639L8.95034 18.6721L8.74789 18.3338L6.88481 18.8964C6.83154 18.7857 6.78048 18.6737 6.73167 18.5605L8.38093 17.6762L8.2849 17.2939H6.29493C6.24356 17.0984 6.1986 16.9003 6.16028 16.6999H9.6872V16.2934H6.09224C6.06738 16.1207 6.04743 15.9465 6.03253 15.7708H9.6872V15.3643H6.00723C6.00243 15.2435 6 15.1221 6 15.0001C6 14.8497 6.00369 14.7002 6.01098 14.5516H9.6872V14.1451H6.04008C6.05248 14.0135 6.06771 13.8828 6.08572 13.7529H8.6915L8.78752 13.3706L6.46828 12.1271C6.49174 12.0574 6.51602 11.9881 6.54112 11.9192L9.03823 12.6733L9.24068 12.335L7.27883 10.3731C7.38203 10.2013 7.49081 10.0332 7.6049 9.86902L10.3203 12.5845L10.6077 12.2971L7.84736 9.53666C7.9538 9.39751 8.06421 9.26156 8.17842 9.12898L10.9772 11.9278L11.2646 11.6404L8.45092 8.82666C8.63688 8.62945 8.83166 8.44063 9.03462 8.26084L11.8394 11.0656L12.1268 10.7782L9.34593 7.99734C9.48619 7.88394 9.62993 7.77468 9.77696 7.66972L11.7542 9.64696L12.0924 9.4445L11.2928 6.7965C11.3673 6.7628 11.4423 6.73008 11.5178 6.69836L12.7315 8.96207L13.1138 8.86605V6.19792C13.2996 6.15829 13.4876 6.1244 13.6775 6.09644ZM12.7073 6.29458C12.4324 6.36679 12.1627 6.45167 11.8987 6.54857L12.7073 8.05688V6.29458ZM10.922 6.97469L11.4694 8.78738L10.1192 7.43711C10.378 7.26975 10.6459 7.1153 10.922 6.97469ZM7.07036 10.7395C6.93076 10.9987 6.80351 11.2656 6.68939 11.5394L8.38112 12.0502L7.07036 10.7395ZM6.34535 12.5224C6.26828 12.7921 6.20348 13.067 6.15159 13.3464H7.88235L6.34535 12.5224ZM6.4121 17.7004C6.46311 17.8628 6.5186 18.0232 6.57842 18.1815L7.47575 17.7004H6.4121ZM7.07235 19.2644C7.1548 19.4174 7.24156 19.5677 7.33245 19.7152L8.09078 18.9569L7.07235 19.2644ZM10.8664 22.9969C10.9987 23.0654 11.1329 23.1308 11.2689 23.1928L11.5277 22.3357L10.8664 22.9969ZM12.33 23.5976C12.4547 23.6363 12.5806 23.6723 12.7075 23.7056V22.8935L12.33 23.5976ZM17.2935 23.7054C17.4294 23.6697 17.564 23.6309 17.6973 23.589L17.2935 22.8357V23.7054ZM18.8656 23.1301C18.9991 23.0665 19.1308 22.9997 19.2606 22.9298L18.608 22.2772L18.8656 23.1301ZM22.675 19.703C22.7642 19.5577 22.8494 19.4097 22.9305 19.2591L21.9286 18.9566L22.675 19.703ZM23.4334 18.1499C23.4958 17.983 23.5534 17.8137 23.6059 17.6423H22.4867L23.4334 18.1499ZM23.8021 13.1142C23.7495 12.8673 23.6867 12.6241 23.6142 12.3851L22.2544 13.1142H23.8021ZM23.2222 11.3345C23.1221 11.1104 23.0132 10.8911 22.8958 10.6772L21.8129 11.7601L23.2222 11.3345ZM19.7867 7.37708C19.5483 7.22703 19.3023 7.08786 19.0495 6.96027L18.5503 8.61357L19.7867 7.37708ZM17.9522 6.49532C17.6988 6.40739 17.4404 6.33047 17.1773 6.26511V7.94053L17.9522 6.49532Z" fill="#0F134F"/>
<path d="M14.9721 21.2414C18.4034 21.2414 21.185 18.4598 21.185 15.0284C21.185 11.5971 18.4034 8.81543 14.9721 8.81543C11.5408 8.81543 8.75918 11.5971 8.75918 15.0284C8.75918 18.4598 11.5408 21.2414 14.9721 21.2414Z" fill="#0F134F" stroke="white" stroke-width="0.406452"/>
<path fill-rule="evenodd" clipRule="evenodd" d="M15.3193 8.8792L14.5063 15.1445H15.3193L14.9999 21.1697C14.9999 21.1697 16.5299 21.4983 18.8699 19.8594C21.2099 18.2204 21.3206 14.4715 20.5799 12.5693C19.8392 10.6671 18.5099 9.77922 17.7899 9.41921C17.0699 9.05921 15.3193 8.8792 15.3193 8.8792Z" fill="white"/>
<path d="M9.28443 14.2103C9.42429 15.3494 10.1653 16.5345 11.3041 16.3947C15.169 15.9201 14.6259 13.4365 14.5739 12.6321C14.8536 14.9102 16.5838 15.7464 19.4825 15.3905C20.3452 15.2845 20.6986 13.5984 20.6031 12.8205C20.4837 11.8481 17.9092 11.706 14.6999 12.1C11.4907 12.4941 9.1096 12.7864 9.28443 14.2103Z" fill="#01C1AE"/>
<path fill-rule="evenodd" clipRule="evenodd" d="M14.8022 12.411C14.8493 12.4593 14.8815 12.5229 14.8904 12.5949C15.0199 13.65 15.474 14.3282 16.1976 14.72C16.9428 15.1235 18.0218 15.2498 19.4431 15.0753C19.5528 15.0618 19.6688 14.9966 19.7883 14.852C19.9088 14.7061 20.0152 14.4993 20.0999 14.2547C20.2707 13.7615 20.3266 13.1947 20.2857 12.8612C20.2752 12.7764 20.2097 12.6565 19.9461 12.5334C19.6851 12.4116 19.2928 12.3198 18.7774 12.2673C17.7656 12.1644 16.3707 12.2214 14.8022 12.411ZM14.2974 12.4731C12.8735 12.6494 11.6709 12.8127 10.8167 13.0759C10.3458 13.2211 10.0196 13.3857 9.82377 13.5698C9.64452 13.7382 9.57039 13.9244 9.60094 14.1731C9.66497 14.6946 9.86645 15.2156 10.1662 15.5814C10.4612 15.9414 10.831 16.1327 11.2647 16.0795C13.124 15.8512 13.8328 15.1568 14.1147 14.5111C14.3696 13.9272 14.3143 13.3243 14.2736 12.8804C14.2661 12.7994 14.2592 12.7238 14.2547 12.6545C14.2504 12.5887 14.2665 12.5261 14.2974 12.4731ZM20.2163 11.9547C20.5693 12.1195 20.8703 12.3819 20.9196 12.7834C20.9742 13.2278 20.9011 13.893 20.7034 14.4638C20.6039 14.7513 20.4661 15.0344 20.2807 15.2588C20.0943 15.4844 19.8426 15.6697 19.5209 15.7092C18.0435 15.8906 16.8081 15.7768 15.8935 15.2817C15.4611 15.0475 15.1108 14.7339 14.8443 14.3436C14.8085 14.4843 14.7613 14.6262 14.7 14.7666C14.3003 15.6824 13.3481 16.4672 11.3425 16.7134C10.6374 16.8 10.0674 16.4686 9.67215 15.9862C9.28176 15.5097 9.04282 14.8686 8.96699 14.251C8.91012 13.7878 9.06806 13.4035 9.38638 13.1043C9.68808 12.8208 10.1249 12.6208 10.6286 12.4655C11.6303 12.1569 13.0498 11.9826 14.6301 11.7885L14.6605 11.7848C16.2752 11.5865 17.7481 11.5206 18.8421 11.6319C19.3864 11.6873 19.8607 11.7887 20.2163 11.9547Z" fill="white"/>
<path d="M15.065 18.9373C16.4115 18.8274 17.4216 17.7404 17.3212 16.5092L12.445 16.9071C12.5455 18.1382 13.7185 19.0472 15.065 18.9373Z" fill="white"/>
<path fill-rule="evenodd" clipRule="evenodd" d="M12.3003 16.9187C12.2938 16.8388 12.3533 16.7687 12.4332 16.7622L17.3093 16.3643C17.3892 16.3578 17.4593 16.4173 17.4658 16.4972C17.5738 17.8202 16.4907 18.9664 15.0767 19.0818C13.6628 19.1971 12.4082 18.2416 12.3003 16.9187ZM12.6069 17.0393C12.7761 18.1062 13.8286 18.8923 15.0531 18.7924C16.2777 18.6925 17.1888 17.7461 17.1828 16.666L12.6069 17.0393Z" fill="#0F134F"/>
<path fill-rule="evenodd" clipRule="evenodd" d="M15.5746 17.6123C15.5746 17.545 15.6292 17.4904 15.6966 17.4904H17.0988C17.1662 17.4904 17.2207 17.545 17.2207 17.6123C17.2207 17.6797 17.1662 17.7343 17.0988 17.7343H15.6966C15.6292 17.7343 15.5746 17.6797 15.5746 17.6123Z" fill="#0F134F"/>
<path d="M16.4225 14.8539C15.3773 14.4591 14.9612 13.412 14.8838 12.9378C14.8838 12.2991 15.6096 12.212 17.3806 12.212C19.1515 12.212 20.2257 12.3571 20.3128 12.8217C20.3999 13.6346 20.1096 14.8539 19.7031 15.0572C19.2967 15.2604 17.729 15.3475 16.4225 14.8539Z" fill="black" stroke="black" stroke-width="0.0677419"/>
<path d="M13.3485 15.3987C14.1872 14.846 14.6228 13.78 14.3615 12.88C14.2126 12.3674 13.3955 12.4931 11.8647 12.7348C10.5002 12.9503 9.45501 13.5478 9.57114 14.0703C9.62917 14.9266 10.2897 15.8309 10.6744 15.9865C11.059 16.1421 12.3002 16.0897 13.3485 15.3987Z" fill="black" stroke="black" stroke-width="0.0677419"/>
<path d="M20.6029 10.18L21.1126 11.5574L22.49 12.0671L21.1126 12.5768L20.6029 13.9542L20.0932 12.5768L18.7158 12.0671L20.0932 11.5574L20.6029 10.18Z" fill="white"/>
<path fill-rule="evenodd" clipRule="evenodd" d="M19.3774 1.73033C19.6056 1.18437 20.2332 0.926726 20.7791 1.15488C26.1922 3.41692 29.9992 8.76277 29.9992 15.0003C29.9992 23.2844 23.2837 30 14.9996 30C10.7459 30 6.90427 28.228 4.17581 25.3848C3.76611 24.9579 3.78007 24.2796 4.20701 23.8699C4.63394 23.4602 5.31218 23.4742 5.72188 23.9011C8.06302 26.3407 11.3533 27.8572 14.9996 27.8572C22.1002 27.8572 27.8564 22.101 27.8564 15.0003C27.8564 9.65697 24.5965 5.07252 19.9529 3.132C19.4069 2.90385 19.1493 2.2763 19.3774 1.73033Z" fill="url(#paint0_angular_594_20921)"/>
<circle cx="15.5353" cy="1.60711" r="1.60711" fill="#3D56D6"/>
<defs>
<radialGradient id="paint0_angular_594_20921" cx="0" cy="0" r="1" gradientUnits="userSpaceOnUse" gradientTransform="translate(18.936 22.4484) rotate(90) scale(32.4019 17.6793)">
<stop offset="0.200113" stop-color="#00C2FF"/>
<stop offset="0.591769" stop-color="#5E4BFF"/>
</radialGradient>
</defs>
</svg>
