<svg width="30" height="30" viewBox="0 0 30 30" fill="none" xmlns="http://www.w3.org/2000/svg">
<circle cx="14.8569" cy="14.8568" r="12.8569" fill="white"/>
<path d="M19.9151 10.0736L8 7.99997L14.2547 23L23 12.8743L19.9151 10.0736ZM19.717 11.0161L21.5283 12.6589L16.5472 13.5206L19.717 11.0161ZM15.4717 13.3321L10.2358 9.18489L18.8113 10.693L15.4717 13.3321ZM15.1038 14.0592L14.2547 20.7917L9.61321 9.75042L15.1038 14.0592ZM15.8962 14.4362L21.4151 13.4937L15.0755 20.8186L15.8962 14.4362Z" fill="#0F134F"/>
<path fill-rule="evenodd" clipRule="evenodd" d="M19.3774 1.73033C19.6056 1.18436 20.2332 0.926718 20.7791 1.15487C26.1922 3.41692 29.9992 8.76277 29.9992 15.0003C29.9992 23.2844 23.2837 30 14.9996 30C10.7459 30 6.90427 28.228 4.17581 25.3848C3.76611 24.9579 3.78007 24.2796 4.20701 23.8699C4.63394 23.4602 5.31218 23.4742 5.72188 23.9011C8.06302 26.3407 11.3533 27.8572 14.9996 27.8572C22.1002 27.8572 27.8564 22.101 27.8564 15.0003C27.8564 9.65697 24.5965 5.07251 19.9529 3.13199C19.4069 2.90384 19.1493 2.27629 19.3774 1.73033Z" fill="url(#paint0_angular_594_20935)"/>
<circle cx="15.5353" cy="1.60711" r="1.60711" fill="#3D56D6"/>
<defs>
<radialGradient id="paint0_angular_594_20935" cx="0" cy="0" r="1" gradientUnits="userSpaceOnUse" gradientTransform="translate(18.936 22.4484) rotate(90) scale(32.4019 17.6793)">
<stop offset="0.200113" stop-color="#00C2FF"/>
<stop offset="0.591769" stop-color="#5E4BFF"/>
</radialGradient>
</defs>
</svg>
