<svg width="30" height="30" viewBox="0 0 30 30" fill="none" xmlns="http://www.w3.org/2000/svg">
<circle cx="15.5354" cy="15.5364" r="13.3929" fill="white"/>
<path d="M13.4208 16.8849C13.4188 17.1984 13.4169 17.5114 13.4169 17.8235C13.4169 18.4777 13.4199 19.1349 13.4229 19.7905C13.4258 20.4432 13.4288 21.0945 13.4288 21.7399C13.4288 21.9515 13.4881 21.9986 13.6899 21.9986C14.8412 21.9868 16.0044 21.9868 17.1558 21.9986C17.3932 22.0104 17.4644 21.9515 17.4644 21.7046C17.4585 20.4462 17.4585 19.1907 17.4585 17.9367C17.4585 16.6827 17.4585 15.4302 17.4525 14.1777C17.4525 13.9307 17.5237 13.8837 17.7611 13.8837C18.9242 13.8954 20.0992 13.8954 21.2623 13.8954C21.4047 13.8954 21.5 13.8837 21.5 13.6955C21.4921 12.9193 21.4947 12.1431 21.4974 11.3669C21.4987 10.9788 21.5 10.5907 21.5 10.2026C21.5 10.0732 21.4763 10.0026 21.322 10.0144C20.6898 10.0457 20.0577 10.0311 19.4262 10.0165C18.3977 9.99266 17.3709 9.96889 16.3487 10.1438C16.0757 10.1791 15.7908 10.2614 15.5772 10.4143C15.4988 10.4711 15.4198 10.5267 15.3409 10.5822C14.9301 10.8714 14.5228 11.1581 14.224 11.6021C13.9036 12.0608 13.6662 12.543 13.5593 13.0604C13.4644 13.5309 13.3932 14.0248 13.405 14.5305C13.4305 15.3122 13.4256 16.0999 13.4208 16.8849ZM9.5 10.2614V11.9314C9.5 12.2195 9.50297 12.5077 9.50593 12.7958C9.5089 13.084 9.51187 13.3721 9.51187 13.6602C9.51187 13.8602 9.57122 13.9072 9.76113 13.9072C10.1647 13.919 10.5445 13.8249 10.9125 13.672C11.2092 13.5544 11.5059 13.425 11.7552 13.2486C12.2062 12.9311 12.5979 12.543 12.8828 12.0373C13.2033 11.4727 13.4644 10.9082 13.4288 10.2379C13.4169 10.0732 13.3813 10.0262 13.2151 10.0262C12.0401 10.0379 10.8769 10.0379 9.71365 10.0262C9.51187 10.0144 9.5 10.0967 9.5 10.2614Z" fill="#0F134F"/>
<path fill-rule="evenodd" clipRule="evenodd" d="M19.3261 1.90452C19.5554 1.36192 20.186 1.10586 20.7346 1.33261C26.1743 3.58072 30 8.89363 30 15.0927C30 23.3258 23.2515 30 14.9267 30C10.6522 30 6.79169 28.2389 4.04984 25.4132C3.63812 24.9889 3.65215 24.3149 4.08118 23.9077C4.51021 23.5005 5.19178 23.5144 5.60349 23.9387C7.95612 26.3633 11.2625 27.8704 14.9267 27.8704C22.0622 27.8704 27.8467 22.1496 27.8467 15.0927C27.8467 9.78232 24.5708 5.22611 19.9044 3.29755C19.3557 3.07081 19.0968 2.44712 19.3261 1.90452Z" fill="url(#paint0_angular_594_20926)"/>
<circle cx="15.5359" cy="1.60714" r="1.60714" fill="#3D56D6"/>
<defs>
<radialGradient id="paint0_angular_594_20926" cx="0" cy="0" r="1" gradientUnits="userSpaceOnUse" gradientTransform="translate(18.8825 22.4949) rotate(90) scale(32.2022 17.7661)">
<stop offset="0.200113" stop-color="#00C2FF"/>
<stop offset="0.591769" stop-color="#5E4BFF"/>
</radialGradient>
</defs>
</svg>
