<svg width="30" height="30" viewBox="0 0 30 30" fill="none" xmlns="http://www.w3.org/2000/svg">
<circle cx="15.5354" cy="15.5364" r="13.3929" fill="white"/>
<path d="M13.7166 7.51735C13.8125 7.88686 13.5916 8.2644 13.2232 8.3606C11.5784 8.79016 8.31246 10.7216 8.37946 14.9891C8.44692 19.2853 11.6575 21.2161 13.2289 21.6409C13.5964 21.7403 13.8141 22.1197 13.7151 22.4883C13.616 22.857 13.2378 23.0754 12.8703 22.976C10.9304 22.4516 7.0816 20.1303 7.00122 15.0109C6.92038 9.86284 10.8864 7.54206 12.8759 7.02247C13.2443 6.92627 13.6207 7.14784 13.7166 7.51735ZM17.2834 7.51735C17.3793 7.14784 17.7557 6.92627 18.1241 7.02247C20.1136 7.54206 24.0796 9.86284 23.9988 15.0109C23.9184 20.1303 20.0696 22.4516 18.1297 22.976C17.7622 23.0754 17.384 22.857 17.2849 22.4883C17.1859 22.1197 17.4036 21.7403 17.7711 21.6409C19.3425 21.2161 22.5531 19.2853 22.6205 14.9891C22.6875 10.7216 19.4216 8.79016 17.7768 8.3606C17.4084 8.2644 17.1875 7.88686 17.2834 7.51735ZM14.753 9.99952C14.753 9.82982 14.8902 9.69225 15.0594 9.69225H15.9407C16.1099 9.69225 16.247 9.82982 16.247 9.99952V11.152C16.5415 11.2061 16.8089 11.2928 17.0492 11.4122C17.4882 11.6304 17.8246 11.9222 18.0584 12.2874C18.2648 12.6056 18.3801 12.9552 18.4043 13.3363C18.4097 13.421 18.3405 13.4899 18.2559 13.4899H17.2381C17.1535 13.4899 17.0862 13.4207 17.0737 13.3368C17.0502 13.1774 16.9895 13.022 16.8917 12.8708C16.7677 12.6669 16.5839 12.4985 16.3406 12.3657C16.102 12.2328 15.8086 12.1664 15.4602 12.1664C15.0928 12.1664 14.7946 12.2234 14.5655 12.3372C14.3413 12.4463 14.1767 12.5862 14.0717 12.757C13.9715 12.9278 13.9214 13.108 13.9214 13.2977C13.9214 13.44 13.9452 13.5681 13.9929 13.682C14.0454 13.7911 14.1361 13.893 14.2649 13.9879C14.3938 14.078 14.5751 14.1634 14.8089 14.2441C15.0427 14.3247 15.3409 14.4053 15.7036 14.486C16.3382 14.6283 16.8607 14.799 17.2711 14.9983C17.6814 15.1975 17.9868 15.4418 18.1872 15.7311C18.3876 16.0205 18.4878 16.3715 18.4878 16.7842C18.4878 17.1209 18.4163 17.4293 18.2731 17.7091C18.1347 17.989 17.9319 18.2309 17.6647 18.4349C17.4023 18.6341 17.0874 18.7906 16.7199 18.9045C16.57 18.9496 16.4124 18.9853 16.247 19.0118V20.1535C16.247 20.3232 16.1098 20.4608 15.9407 20.4608H15.0593C14.8902 20.4608 14.753 20.3232 14.753 20.1535V19.0141C14.3837 18.9568 14.054 18.8538 13.7639 18.7052C13.2915 18.4633 12.9336 18.1503 12.6903 17.766C12.4763 17.4282 12.3564 17.0738 12.3306 16.7029C12.3247 16.6182 12.3938 16.5494 12.4784 16.5494H13.5113C13.5927 16.5494 13.6592 16.6135 13.6694 16.6945C13.7063 16.9877 13.807 17.2263 13.9715 17.4103C14.1623 17.619 14.3961 17.7684 14.6729 17.8585C14.9497 17.9439 15.224 17.9866 15.496 17.9866C15.8587 17.9866 16.1617 17.9392 16.405 17.8443C16.6531 17.7494 16.8416 17.619 16.9704 17.453C17.0993 17.287 17.1637 17.0972 17.1637 16.8838C17.1637 16.694 17.1208 16.5185 17.0349 16.3572C16.9537 16.1912 16.7844 16.0418 16.5267 15.909C16.2738 15.7714 15.8921 15.6529 15.3815 15.5532C14.952 15.4631 14.5632 15.3564 14.2148 15.2331C13.8713 15.1097 13.5778 14.9603 13.3345 14.7848C13.0959 14.6093 12.9122 14.403 12.7833 14.1658C12.6545 13.9286 12.5901 13.6511 12.5901 13.3333C12.5901 13.0297 12.6569 12.7428 12.7905 12.4724C12.9289 12.202 13.1221 11.9625 13.3702 11.7538C13.6231 11.5451 13.9261 11.3814 14.2792 11.2628C14.4298 11.2123 14.5877 11.1725 14.753 11.1435V9.99952Z" fill="#0F134F"/>
<path fill-rule="evenodd" clipRule="evenodd" d="M19.3261 1.90452C19.5554 1.36192 20.186 1.10586 20.7346 1.33261C26.1743 3.58072 30 8.89363 30 15.0927C30 23.3258 23.2515 30 14.9267 30C10.6522 30 6.79169 28.2389 4.04984 25.4132C3.63812 24.9889 3.65215 24.3149 4.08118 23.9077C4.51021 23.5005 5.19178 23.5144 5.60349 23.9387C7.95612 26.3633 11.2625 27.8704 14.9267 27.8704C22.0622 27.8704 27.8467 22.1496 27.8467 15.0927C27.8467 9.78232 24.5708 5.22611 19.9044 3.29755C19.3557 3.07081 19.0968 2.44712 19.3261 1.90452Z" fill="url(#paint0_angular_594_20925)"/>
<circle cx="15.5359" cy="1.60714" r="1.60714" fill="#3D56D6"/>
<defs>
<radialGradient id="paint0_angular_594_20925" cx="0" cy="0" r="1" gradientUnits="userSpaceOnUse" gradientTransform="translate(18.8825 22.4949) rotate(90) scale(32.2022 17.7661)">
<stop offset="0.200113" stop-color="#00C2FF"/>
<stop offset="0.591769" stop-color="#5E4BFF"/>
</radialGradient>
</defs>
</svg>
