<svg width="30" height="30" viewBox="0 0 30 30" fill="none" xmlns="http://www.w3.org/2000/svg">
<circle cx="15.5359" cy="15.5364" r="13.3929" fill="white"/>
<path fill-rule="evenodd" clipRule="evenodd" d="M19.3261 1.90452C19.5554 1.36192 20.186 1.10586 20.7346 1.33261C26.1743 3.58072 30 8.89363 30 15.0927C30 23.3258 23.2515 30 14.9267 30C10.6522 30 6.79169 28.2389 4.04984 25.4132C3.63812 24.9889 3.65215 24.3149 4.08118 23.9077C4.51021 23.5005 5.19178 23.5144 5.60349 23.9387C7.95612 26.3633 11.2625 27.8704 14.9267 27.8704C22.0622 27.8704 27.8467 22.1496 27.8467 15.0927C27.8467 9.78232 24.5708 5.22611 19.9044 3.29755C19.3557 3.07081 19.0968 2.44712 19.3261 1.90452Z" fill="url(#paint0_angular_594_20922)"/>
<circle cx="15.5359" cy="1.60714" r="1.60714" fill="#3D56D6"/>
<rect x="10.7139" y="8.03467" width="8.57143" height="1.07143" rx="0.535714" fill="#0F134F"/>
<path d="M14.8037 9.64111L14.8037 21.9986C14.8037 22.2404 14.6077 22.4365 14.3659 22.4365C14.1241 22.4365 13.928 22.2404 13.928 21.9986L13.928 9.64111L14.8037 9.64111Z" fill="#0F134F"/>
<path d="M16.2051 9.64111L16.2051 21.9986C16.2051 22.2404 16.009 22.4364 15.7672 22.4364C15.5254 22.4364 15.3294 22.2404 15.3294 21.9986L15.3294 9.64111L16.2051 9.64111Z" fill="#0F134F"/>
<path d="M14.2238 13.2821L14.2238 13.2821C13.9967 13.3602 13.8413 13.4627 13.7399 13.5793C13.6433 13.6941 13.5988 13.8173 13.5988 13.9573V13.9678L13.5986 13.9678C13.5936 14.0855 13.6211 14.176 13.6736 14.2513C13.7411 14.3428 13.8373 14.4283 13.9696 14.5049C14.1107 14.5835 14.2775 14.6548 14.4716 14.7176C14.6699 14.7786 14.8828 14.8313 15.1106 14.8755L15.1138 14.8761L15.1138 14.8761L16.0858 15.0773C16.5704 15.1713 17.0182 15.2972 17.4283 15.4557C17.8423 15.6157 18.2063 15.8146 18.5173 16.0544C18.8327 16.2975 19.0808 16.5871 19.2574 16.9231C19.441 17.2656 19.5314 17.6526 19.5353 18.0779L19.5353 18.0817C19.5314 18.7079 19.3454 19.2609 18.973 19.7291M14.2238 13.2821L18.7774 19.5735M14.2238 13.2821L14.2262 13.2813C14.449 13.202 14.7344 13.1583 15.0895 13.1583C15.6123 13.1583 15.9953 13.256 16.262 13.426L16.284 13.4404C16.3969 13.5158 16.5106 13.6036 16.6337 13.6989L16.6403 13.7039C16.759 13.7958 16.8862 13.8943 17.0177 13.9832C17.2836 14.1629 17.5991 14.3264 17.9662 14.3264C18.3563 14.3264 18.7253 14.1583 18.9548 13.8887C19.1918 13.6105 19.2791 13.2189 19.0706 12.8337C18.9975 12.6989 18.9122 12.5698 18.8149 12.4465C18.4475 11.9811 17.9392 11.6261 17.3033 11.3749M14.2238 13.2821L17.3033 11.3749M18.973 19.7291L18.7774 19.5735M18.973 19.7291C18.9731 19.729 18.9732 19.7289 18.9733 19.7288L18.7774 19.5735M18.973 19.7291C18.6066 20.1914 18.0848 20.5398 17.4249 20.7838L17.4243 20.784C16.765 21.0259 15.9811 21.1429 15.0789 21.1429C14.1828 21.1429 13.3913 21.0241 12.7091 20.7801L12.7086 20.78C12.0274 20.535 11.4816 20.1672 11.0846 19.67L11.0834 19.6684L11.0834 19.6684C10.9343 19.4786 10.8119 19.2718 10.7165 19.0487C10.548 18.655 10.6515 18.2701 10.8915 17.997C11.1261 17.73 11.4921 17.5645 11.8802 17.5645H12.0682C12.388 17.5645 12.655 17.7036 12.8725 17.8739C13.0857 18.0409 13.2717 18.2547 13.4279 18.4341L13.4301 18.4366M18.7774 19.5735C18.4458 19.9919 17.9661 20.3172 17.3382 20.5493C16.7139 20.7783 15.9608 20.8929 15.0789 20.8929C14.2042 20.8929 13.4423 20.7768 12.7932 20.5447C12.1477 20.3126 11.6433 19.969 11.28 19.514C11.1445 19.3415 11.0333 19.1536 10.9463 18.9503C10.6949 18.3627 11.2411 17.8145 11.8802 17.8145H12.0682C12.5552 17.8145 12.9233 18.2351 13.243 18.6024M13.4301 18.4366C13.4297 18.4361 13.4292 18.4356 13.4288 18.4351L13.243 18.6024M13.4301 18.4366L13.4315 18.4383L13.243 18.6024M13.4301 18.4366C13.5837 18.6067 13.7931 18.7422 14.069 18.8374M13.243 18.6024C13.4299 18.8101 13.6786 18.9673 13.989 19.0742C14.3029 19.1781 14.6574 19.23 15.0525 19.23C15.4405 19.23 15.7774 19.1811 16.0631 19.0834C16.3523 18.9857 16.5763 18.8498 16.735 18.6757C16.8938 18.5016 16.9731 18.3016 16.9731 18.0756C16.9731 17.8649 16.9008 17.6877 16.7562 17.5442C16.6151 17.4007 16.407 17.2785 16.1319 17.1777C15.8603 17.0769 15.5269 16.9853 15.1319 16.9029L13.952 16.6463M14.069 18.8374C14.0685 18.8372 14.068 18.837 14.0675 18.8369L13.989 19.0742L14.0704 18.8379C14.0699 18.8377 14.0695 18.8375 14.069 18.8374ZM14.069 18.8374C14.3529 18.9311 14.6797 18.98 15.0525 18.98C15.4204 18.98 15.7287 18.9335 15.9822 18.8468L15.983 18.8465C16.2437 18.7585 16.4273 18.6421 16.5503 18.5072C16.669 18.3771 16.7231 18.2364 16.7231 18.0756C16.7231 17.9289 16.6756 17.8165 16.5801 17.7216L16.5779 17.7195L16.5779 17.7195C16.4719 17.6116 16.3008 17.5059 16.0459 17.4125L16.0449 17.4121C15.7885 17.317 15.468 17.2284 15.0808 17.1476L15.0787 17.1472L15.0787 17.1472L13.9004 16.891L13.952 16.6463M13.952 16.6463L13.8988 16.8906L13.8996 16.8908M13.952 16.6463C13.0384 16.4539 12.317 16.1531 11.7879 15.7439C11.2588 15.3347 10.9961 14.7834 10.9996 14.0902C10.9961 13.5221 11.1707 13.0259 11.5234 12.6014C11.8797 12.1769 12.3682 11.8455 12.989 11.6073C13.6098 11.3691 14.3153 11.25 15.1054 11.25C15.9096 11.25 16.6116 11.3691 17.2112 11.6073L13.8996 16.8908M13.8996 16.8908C12.9632 16.6935 12.2032 16.3811 11.635 15.9416C11.0421 15.4831 10.746 14.8574 10.7496 14.0903C10.746 13.4658 10.9398 12.9125 11.3311 12.4416L11.3319 12.4407L11.3319 12.4407C11.7204 11.9778 12.2469 11.6243 12.8994 11.3739C13.5537 11.1229 14.2903 11 15.1054 11C15.9336 11 16.6681 11.1226 17.3033 11.3749M13.8996 16.8908L17.3033 11.3749" fill="#0F134F" stroke="white" stroke-width="0.5"/>
<path d="M16.2051 12.0435L16.2051 14.0246C16.2051 14.2664 16.009 14.4625 15.7672 14.4625C15.5254 14.4625 15.3294 14.2664 15.3294 14.0246L15.3294 12.0435L16.2051 12.0435Z" fill="#0F134F"/>
<path d="M16.2051 16.0693L16.2051 17.9526L15.3294 17.9526L15.3294 16.0693L16.2051 16.0693Z" fill="#0F134F"/>
<path d="M16.2051 19.8193L16.2051 21.7026L15.3294 21.7026L15.3294 19.8193L16.2051 19.8193Z" fill="#0F134F"/>
<path d="M14.8037 12.6245L14.8037 13.7902C14.8037 14.032 14.6077 14.228 14.3659 14.228C14.1241 14.228 13.928 14.032 13.928 13.7902L13.928 12.6245L14.8037 12.6245Z" fill="#0F134F"/>
<path d="M14.8037 16.6062L14.8037 17.7719C14.8037 18.0137 14.6077 18.2098 14.3659 18.2098C14.1241 18.2098 13.928 18.0137 13.928 17.7719L13.928 16.6062L14.8037 16.6062Z" fill="#0F134F"/>
<path d="M14.8037 19.8193L14.8037 21.3128C14.8037 21.5546 14.6077 21.7506 14.3659 21.7506C14.1241 21.7506 13.928 21.5546 13.928 21.3128L13.928 19.8193L14.8037 19.8193Z" fill="#0F134F"/>
<path fill-rule="evenodd" clipRule="evenodd" d="M24.3472 15.5556C24.1996 15.5556 24.0779 15.6711 24.0648 15.8181C23.6501 20.4528 19.7499 24.0858 14.9998 24.0858C10.2497 24.0858 6.34945 20.4528 5.93481 15.8181C5.92166 15.6711 5.8 15.5556 5.6524 15.5556C5.49201 15.5556 5.36427 15.6911 5.37827 15.8509C5.81007 20.7776 9.95288 24.6422 14.9998 24.6422C20.0467 24.6422 24.1895 20.7776 24.6213 15.8509C24.6353 15.6911 24.5076 15.5556 24.3472 15.5556ZM5.6524 14.443C5.8 14.443 5.92166 14.3275 5.93481 14.1805C6.34945 9.54577 10.2497 5.91276 14.9998 5.91276C19.7499 5.91276 23.6501 9.54577 24.0648 14.1805C24.0779 14.3275 24.1996 14.443 24.3472 14.443C24.5076 14.443 24.6353 14.3075 24.6213 14.1477C24.1895 9.22099 20.0467 5.35645 14.9998 5.35645C9.95288 5.35645 5.81007 9.22099 5.37827 14.1477C5.36427 14.3075 5.49201 14.443 5.6524 14.443Z" fill="#0F134F"/>
<defs>
<radialGradient id="paint0_angular_594_20922" cx="0" cy="0" r="1" gradientUnits="userSpaceOnUse" gradientTransform="translate(18.8825 22.4949) rotate(90) scale(32.2022 17.7661)">
<stop offset="0.200113" stop-color="#00C2FF"/>
<stop offset="0.591769" stop-color="#5E4BFF"/>
</radialGradient>
</defs>
</svg>
