<svg width="30" height="30" viewBox="0 0 30 30" fill="none" xmlns="http://www.w3.org/2000/svg">
<circle cx="14.8569" cy="14.8568" r="12.8569" fill="white"/>
<path d="M22.8246 13.3701C22.6915 12.8378 22.5584 12.3721 22.3587 11.9064C22.159 11.4407 21.8928 10.9751 21.6266 10.5759C21.3603 10.1767 21.0275 9.77755 20.6282 9.37838C20.2954 9.04574 19.896 8.7131 19.4301 8.38046C19.0307 8.11435 18.5648 7.84823 18.0989 7.64865C16.1021 6.78378 13.9056 6.78378 11.9088 7.64865C10.977 8.04782 10.1117 8.64657 9.37952 9.37838C9.04672 9.71102 8.71392 10.1102 8.38112 10.5759C8.11488 10.9751 7.84864 11.4407 7.64896 11.9064C6.78368 13.9023 6.78368 16.0977 7.64896 18.0936C7.84864 18.5593 8.11488 19.0249 8.38112 19.4241C8.64736 19.8233 8.98016 20.2225 9.37952 20.6216C9.71232 20.9543 10.1117 21.2869 10.5776 21.6195C10.977 21.8857 11.4429 22.1518 11.9088 22.3514C13.9056 23.2162 16.1021 23.2162 18.0989 22.3514C18.5648 22.1518 19.0307 21.8857 19.4301 21.6195C19.8294 21.3534 20.2288 21.0208 20.6282 20.6216C20.961 20.289 21.2938 19.8898 21.6266 19.4241C21.8928 19.0249 22.159 18.5593 22.3587 18.0936C23.0243 16.6299 23.1574 14.9667 22.8246 13.3701ZM15.1037 21.9522C11.2432 21.9522 8.18144 18.8254 8.18144 15.0333C8.18144 11.2412 11.3098 8.11435 15.1037 8.11435C18.9642 8.11435 22.0259 11.2412 22.0259 15.0333C22.0259 18.8254 18.8976 21.9522 15.1037 21.9522Z" fill="#0F134F"/>
<path d="M15 21.4C15 21.4 15.3334 21.4 15.4 21.4C15.4666 21.4 16.0635 21.2869 16.1021 21.2869C16.1406 21.2869 16.1686 21.2869 16.1686 21.2869C16.2352 21.2869 16.3018 21.2869 16.3683 21.2204C15.7693 21.2204 15.1702 21.1538 14.5712 21.0208C13.7059 20.8212 12.8406 20.4886 12.1085 19.8898C10.977 18.9584 10.3114 17.4948 10.3114 15.9647C10.3114 14.8337 10.7107 13.7692 11.4429 12.9044C12.3747 11.7734 13.7059 11.2412 15.0371 11.1746H15.2368V10.1102H15.0371C14.6378 10.1102 14.2384 10.1767 13.839 10.2432C13.4397 10.3098 13.0403 10.4428 12.641 10.6424C12.2416 10.842 11.9088 11.0416 11.576 11.3077C11.2432 11.5738 10.9104 11.8399 10.6442 12.1726C10.3779 12.5052 10.1782 12.8378 9.97856 13.1705C9.77888 13.5031 9.64576 13.9023 9.51264 14.2349C9.37952 14.6341 9.31296 14.9667 9.31296 15.3659V15.8981C9.31296 16.2973 9.37952 16.6965 9.44608 17.0956C9.51264 17.4948 9.64576 17.894 9.84544 18.2931C10.0451 18.7588 10.4238 19.3625 10.977 19.8898C11.7268 20.6047 12.393 20.9008 13.3066 21.159C14.2005 21.4117 15 21.4 15 21.4Z" fill="#0F134F"/>
<path d="M16.9674 20.289C16.568 20.289 16.1686 20.2225 15.7693 20.1559C14.1053 19.8233 12.641 18.8254 12.1085 17.2952C11.4429 15.4324 12.4413 13.3701 14.305 12.7713C14.6378 12.6383 15.0371 12.5717 15.4365 12.5717C15.9024 12.5717 16.3683 12.6383 16.8342 12.8378L17.3002 11.8399C17.167 11.7734 17.0339 11.7069 16.9008 11.7069C16.4349 11.5738 15.969 11.5073 15.4365 11.5073C14.9706 11.5073 14.4381 11.5738 13.9722 11.7734C13.3731 11.973 12.8406 12.3056 12.3747 12.7048C12.175 12.9044 11.9754 13.104 11.7757 13.3701C11.576 13.6362 11.4429 13.8358 11.3098 14.1019C11.0435 14.6341 10.9104 15.2328 10.8438 15.8316C10.7773 16.4304 10.9104 17.0956 11.1101 17.6279C11.3098 18.2266 11.6426 18.7588 12.1085 19.2245C12.5078 19.6237 12.9738 19.9563 13.5062 20.289C14.1053 20.6216 14.8374 20.7547 15.5696 20.8877C16.0355 20.9543 16.7011 20.9543 17.1005 20.9543C17.4333 20.8212 17.5664 20.7547 17.7661 20.6882C17.8992 20.6216 18.0989 20.5551 18.232 20.422C18.3651 20.3555 18.4317 20.289 18.6979 20.1559C18.6979 20.1559 18.7645 20.1559 18.7645 20.0894C17.8326 20.289 17.633 20.289 16.9674 20.289Z" fill="#0F134F"/>
<path d="M18.9642 19.0915C18.6979 19.0915 18.3651 19.158 17.9658 19.158C17.2336 19.158 16.3683 19.0915 15.5696 18.8254C14.3715 18.4262 13.3066 17.4283 13.3066 16.1642C13.3066 14.9002 14.305 13.9023 15.503 13.9023C16.3683 13.9023 17.1005 14.368 17.4333 15.0333L18.4317 14.5676C18.2986 14.3015 18.0989 14.0353 17.8326 13.7692C16.568 12.5052 14.4381 12.5052 13.1734 13.7692C12.5744 14.368 12.175 15.2328 12.175 16.0977C12.175 16.5634 12.2416 17.0291 12.4413 17.4283C12.641 17.8274 12.8406 18.1601 13.1734 18.4927C13.7059 19.0915 14.4381 19.4906 15.1702 19.7568C15.9024 20.0229 17.0339 20.0894 18.0323 20.0229C18.2986 20.0229 18.5648 19.9563 18.8976 19.8898C19.2304 19.6237 19.5632 19.2911 19.896 18.8919C19.7629 19.0249 19.297 19.0249 18.9642 19.0915Z" fill="#0F134F"/>
<path fill-rule="evenodd" clipRule="evenodd" d="M19.3774 1.73033C19.6056 1.18436 20.2332 0.926718 20.7791 1.15487C26.1922 3.41692 29.9992 8.76277 29.9992 15.0003C29.9992 23.2844 23.2837 30 14.9996 30C10.7459 30 6.90427 28.228 4.17581 25.3848C3.76611 24.9579 3.78007 24.2796 4.20701 23.8699C4.63394 23.4602 5.31218 23.4742 5.72188 23.9011C8.06302 26.3407 11.3533 27.8572 14.9996 27.8572C22.1002 27.8572 27.8564 22.101 27.8564 15.0003C27.8564 9.65697 24.5965 5.07251 19.9529 3.13199C19.4069 2.90384 19.1493 2.27629 19.3774 1.73033Z" fill="url(#paint0_angular_594_20930)"/>
<circle cx="15.5353" cy="1.60711" r="1.60711" fill="#3D56D6"/>
<defs>
<radialGradient id="paint0_angular_594_20930" cx="0" cy="0" r="1" gradientUnits="userSpaceOnUse" gradientTransform="translate(18.936 22.4484) rotate(90) scale(32.4019 17.6793)">
<stop offset="0.200113" stop-color="#00C2FF"/>
<stop offset="0.591769" stop-color="#5E4BFF"/>
</radialGradient>
</defs>
</svg>
