<svg width="30" height="30" viewBox="0 0 30 30" fill="none" xmlns="http://www.w3.org/2000/svg">
<circle cx="14.9999" cy="15.0004" r="12.8569" fill="white"/>
<path d="M20.1705 7.99995C20.1124 8.00007 20.0553 8.01455 20.0051 8.04186C20.0051 8.04186 19.1005 8.52742 18.7166 8.726C18.402 8.88877 18.3791 9.08467 18.381 9.15086C18.3791 9.21705 18.402 9.41295 18.7166 9.57572C19.1005 9.7743 20.0048 10.2601 20.0048 10.2601C20.0551 10.2874 20.1124 10.3016 20.1705 10.3017C20.2582 10.3017 20.3424 10.269 20.4044 10.2109C20.4665 10.1528 20.5013 10.0739 20.5013 9.99175C20.5013 9.93735 20.4859 9.88393 20.4568 9.83685C20.4277 9.78977 20.3859 9.75069 20.3356 9.72354L19.2216 9.15081L20.3359 8.57856C20.3862 8.55141 20.4278 8.51186 20.4569 8.46478C20.486 8.4177 20.5013 8.36427 20.5014 8.30988C20.5014 8.22768 20.4665 8.14886 20.4045 8.09074C20.3424 8.03262 20.2582 7.99996 20.1705 7.99995ZM11.1377 8.16585C10.9883 8.16585 10.8404 8.19341 10.7023 8.24695C10.5643 8.3005 10.4389 8.37899 10.3332 8.47793C10.2276 8.57687 10.1438 8.69434 10.0866 8.82362C10.0294 8.9529 10 9.09146 10 9.23139C10 9.37133 10.0294 9.5099 10.0866 9.63918C10.1438 9.76846 10.2276 9.88593 10.3332 9.98488C10.4389 10.0838 10.5643 10.1623 10.7023 10.2159C10.8404 10.2694 10.9883 10.297 11.1377 10.297C11.2871 10.297 11.4351 10.2694 11.5731 10.2159C11.7111 10.1623 11.8365 10.0838 11.9422 9.98487C12.0478 9.88592 12.1316 9.76845 12.1888 9.63917C12.246 9.50989 12.2754 9.37132 12.2754 9.23139C12.2754 8.9488 12.1555 8.67777 11.9422 8.47795C11.7288 8.27812 11.4394 8.16586 11.1377 8.16585Z" fill="#0F134F"/>
<path d="M11.3741 11.1823C11.0682 11.1823 10.7748 11.2949 10.5585 11.4954C10.3422 11.6958 10.2207 11.9677 10.2207 12.2511C10.221 12.3304 10.2309 12.4094 10.25 12.4867L10.2475 12.4872L11.8834 18.6666L11.8865 18.6659C11.9527 18.8922 12.0975 19.0921 12.2984 19.2346C12.4993 19.3772 12.7452 19.4546 12.9983 19.4549C13.243 19.4546 13.4813 19.3822 13.6787 19.2482C13.8761 19.1141 14.0224 18.9253 14.0963 18.7092L14.0978 18.7157L15.3171 15.4911L16.5364 18.7157L16.5378 18.7092C16.6118 18.9253 16.7581 19.1141 16.9555 19.2482C17.1529 19.3822 17.3912 19.4546 17.6359 19.4549C17.889 19.4546 18.1349 19.3772 18.3358 19.2346C18.5367 19.0921 18.6814 18.8922 18.7477 18.6659L18.7508 18.6666L20.3866 12.4872L20.3841 12.4867C20.4033 12.4094 20.4132 12.3304 20.4135 12.2511C20.4135 11.9677 20.292 11.6958 20.0757 11.4954C19.8593 11.2949 19.566 11.1823 19.2601 11.1823C18.9861 11.1826 18.7211 11.2733 18.5127 11.4382C18.3043 11.603 18.166 11.8312 18.1226 12.0819L18.12 12.0815L17.4425 14.6336L16.4061 11.8904L16.4023 11.8916L16.4002 11.8869C16.3894 11.8597 16.3774 11.8329 16.3642 11.8067C16.3613 11.8004 16.3583 11.7941 16.3552 11.7879C16.3417 11.7622 16.3271 11.737 16.3114 11.7124C16.3077 11.7062 16.3039 11.7 16.3 11.6939C16.284 11.67 16.267 11.6467 16.2491 11.624C16.2444 11.6178 16.2396 11.6116 16.2348 11.6054C16.2169 11.5838 16.1981 11.5628 16.1785 11.5425C16.1723 11.5359 16.1661 11.5293 16.1598 11.5228C16.1401 11.5035 16.1196 11.4848 16.0984 11.4669C16.0914 11.4607 16.0843 11.4546 16.0771 11.4485C16.0559 11.4315 16.034 11.4152 16.0115 11.3996C16.0031 11.3935 15.9946 11.3874 15.9859 11.3815C15.9641 11.3673 15.9417 11.3538 15.9188 11.3409C15.9086 11.335 15.8983 11.3291 15.8879 11.3235C15.8655 11.3118 15.8427 11.3009 15.8195 11.2907C15.8079 11.2852 15.7962 11.28 15.7844 11.2749C15.7621 11.266 15.7396 11.2576 15.7167 11.25C15.7031 11.2451 15.6894 11.2405 15.6756 11.2361C15.6534 11.2296 15.6309 11.2236 15.6083 11.2184C15.5937 11.2146 15.579 11.2111 15.5642 11.2079C15.5422 11.2036 15.52 11.1999 15.4977 11.1968C15.4817 11.1943 15.4656 11.192 15.4495 11.1901C15.4286 11.188 15.4077 11.1865 15.3867 11.1856C15.3636 11.1838 15.3405 11.1828 15.3173 11.1823C15.2937 11.1828 15.2695 11.1839 15.2459 11.1857C15.2258 11.1866 15.2057 11.1881 15.1857 11.19C15.1684 11.1921 15.1511 11.1945 15.1338 11.1973C15.1127 11.2002 15.0917 11.2037 15.0709 11.2077C15.0554 11.2111 15.04 11.2147 15.0246 11.2187C15.0024 11.2239 14.9804 11.2297 14.9585 11.2361C14.9447 11.2405 14.931 11.2451 14.9175 11.25C14.8946 11.2576 14.872 11.266 14.8497 11.2749C14.8379 11.28 14.8262 11.2852 14.8146 11.2906C14.7915 11.3009 14.7687 11.3118 14.7464 11.3234C14.7356 11.3293 14.725 11.3353 14.7145 11.3415C14.6921 11.354 14.6701 11.3673 14.6487 11.3812C14.6396 11.3874 14.6307 11.3937 14.6218 11.4001C14.5996 11.4155 14.578 11.4317 14.557 11.4485C14.5499 11.4546 14.5428 11.4607 14.5357 11.4669C14.5146 11.4848 14.4941 11.5034 14.4745 11.5228C14.468 11.5294 14.4616 11.5362 14.4553 11.543C14.4359 11.5631 14.4173 11.5838 14.3996 11.6051C14.3946 11.6116 14.3896 11.618 14.3846 11.6246C14.3669 11.647 14.3501 11.6701 14.3342 11.6938C14.3303 11.7001 14.3263 11.7065 14.3225 11.7128C14.307 11.7372 14.2925 11.7622 14.2791 11.7876C14.2759 11.7941 14.2727 11.8006 14.2697 11.8071C14.2566 11.8332 14.2448 11.8598 14.2341 11.8868L14.2319 11.8916L14.228 11.8903L13.1917 14.6336L12.5141 12.0814L12.5115 12.0819C12.4681 11.8312 12.3298 11.603 12.1214 11.4382C11.913 11.2733 11.6481 11.1826 11.3741 11.1823Z" fill="#0F134F"/>
<path d="M10.9482 20.4686C10.9483 20.26 11.1192 20.0909 11.33 20.0909C11.4105 20.0911 11.4889 20.1164 11.554 20.1633L11.5873 20.1842C11.5873 20.1842 13.2456 21.2842 15.3166 21.2506C17.3876 21.2842 19.0459 20.1842 19.0459 20.1842L19.0792 20.1633C19.1443 20.1164 19.2227 20.0911 19.3032 20.0909C19.514 20.0909 19.6849 20.26 19.6849 20.4686C19.6848 20.6126 19.602 20.744 19.4714 20.8074C17.2601 22.1159 15.3166 21.9972 15.3166 21.9972C15.3166 21.9972 13.373 22.1159 11.1618 20.8074C11.0311 20.744 10.9483 20.6126 10.9482 20.4686Z" fill="#0F134F"/>
<path fill-rule="evenodd" clipRule="evenodd" d="M19.3774 1.73033C19.6056 1.18437 20.2332 0.926726 20.7791 1.15488C26.1922 3.41692 29.9992 8.76277 29.9992 15.0003C29.9992 23.2844 23.2837 30 14.9996 30C10.7459 30 6.90427 28.228 4.17581 25.3848C3.76611 24.9579 3.78007 24.2796 4.20701 23.8699C4.63394 23.4602 5.31218 23.4742 5.72188 23.9011C8.06302 26.3407 11.3533 27.8572 14.9996 27.8572C22.1002 27.8572 27.8564 22.101 27.8564 15.0003C27.8564 9.65697 24.5965 5.07252 19.9529 3.132C19.4069 2.90385 19.1493 2.2763 19.3774 1.73033Z" fill="url(#paint0_angular_594_20916)"/>
<circle cx="15.5353" cy="1.60711" r="1.60711" fill="#3D56D6"/>
<defs>
<radialGradient id="paint0_angular_594_20916" cx="0" cy="0" r="1" gradientUnits="userSpaceOnUse" gradientTransform="translate(18.936 22.4484) rotate(90) scale(32.4019 17.6793)">
<stop offset="0.200113" stop-color="#00C2FF"/>
<stop offset="0.591769" stop-color="#5E4BFF"/>
</radialGradient>
</defs>
</svg>
