<svg width="30" height="30" viewBox="0 0 30 30" fill="none" xmlns="http://www.w3.org/2000/svg">
<circle cx="14.8569" cy="14.8569" r="12.8569" fill="white"/>
<mask id="path-2-outside-1_269_10128" maskUnits="userSpaceOnUse" x="6.30469" y="12.9795" width="17" height="8" fill="black">
<rect fill="white" x="6.30469" y="12.9795" width="17" height="8"/>
<path fill-rule="evenodd" clipRule="evenodd" d="M15.025 13.9795V14.4725L14.8655 14.4726C13.0266 14.4729 11.3665 14.6212 10.1701 14.8588C9.57051 14.9779 9.09565 15.1179 8.77451 15.2687C8.61353 15.3443 8.49973 15.4187 8.42842 15.4879C8.35732 15.5569 8.34108 15.6077 8.34108 15.6408C8.34108 15.674 8.35732 15.7248 8.42842 15.7938C8.49973 15.863 8.61353 15.9374 8.77451 16.013C9.09565 16.1638 9.57051 16.3037 10.1701 16.4228C11.3665 16.6605 13.0266 16.8088 14.8655 16.8091L14.8891 16.8091V16.8069L15.0486 16.8069C17.1008 16.8073 18.9633 16.9923 20.3169 17.2934C20.9925 17.4436 21.55 17.6246 21.9425 17.831C22.1386 17.9341 22.3014 18.0475 22.4169 18.173C22.5332 18.2994 22.6094 18.4471 22.6094 18.6127C22.6094 18.7783 22.5332 18.9259 22.4169 19.0523C22.3014 19.1779 22.1386 19.2913 21.9425 19.3944C21.55 19.6007 20.9925 19.7818 20.3169 19.932C18.9633 20.2331 17.1008 20.4181 15.0486 20.4185L14.8891 20.4185V19.9255L15.0486 19.9254C16.8874 19.9251 18.5475 19.7768 19.744 19.5391C20.3435 19.4201 20.8184 19.2801 21.1395 19.1293C21.3005 19.0537 21.4143 18.9793 21.4856 18.9101C21.5567 18.8411 21.573 18.7903 21.573 18.7572C21.573 18.724 21.5567 18.6732 21.4856 18.6042C21.4143 18.535 21.3005 18.4606 21.1395 18.385C20.8184 18.2342 20.3435 18.0943 19.744 17.9752C18.5475 17.7375 16.8874 17.5892 15.0486 17.5889L15.025 17.5889V17.5911L14.8654 17.5911C12.8133 17.5907 10.9508 17.4057 9.59712 17.1046C8.92158 16.9544 8.36405 16.7734 7.97152 16.567C7.77542 16.4639 7.6127 16.3505 7.49717 16.2249C7.38086 16.0986 7.30469 15.9509 7.30469 15.7853C7.30469 15.6197 7.38086 15.4721 7.49717 15.3457C7.6127 15.2201 7.77542 15.1067 7.97152 15.0036C8.36405 14.7973 8.92158 14.6162 9.59712 14.466C10.9508 14.1649 12.8133 13.9799 14.8654 13.9795L15.025 13.9795ZM14.7059 17.4312C10.8887 17.4125 7.78328 16.7521 7.48732 15.9162C7.78754 16.7637 10.9756 17.4307 14.8654 17.4315V16.9687H14.8654V17.4316C14.8121 17.4316 14.759 17.4314 14.7059 17.4312ZM14.8654 14.1391H14.8654V14.313C11.1734 14.3137 8.18154 14.908 8.18154 15.6408C8.18154 15.6716 8.18681 15.7021 8.19719 15.7324C8.1868 15.7021 8.18152 15.6716 8.18152 15.6408C8.18152 14.9079 11.1734 14.3137 14.8654 14.3129V14.1391ZM15.0486 17.4293V16.9664H15.0486V17.4293C18.7407 17.4301 21.7325 18.0243 21.7325 18.7572C21.7325 18.7915 21.726 18.8255 21.7131 18.8592C21.726 18.8255 21.7325 18.7915 21.7325 18.7571C21.7325 18.0242 18.7407 17.43 15.0486 17.4293ZM15.2081 20.2585C18.911 20.2404 21.9439 19.6185 22.3926 18.8183C21.9374 19.63 18.8235 20.2581 15.0486 20.2589V20.085H15.0486V20.2589C15.1019 20.2589 15.1551 20.2588 15.2081 20.2585Z"/>
</mask>
<path fill-rule="evenodd" clipRule="evenodd" d="M15.025 13.9795V14.4725L14.8655 14.4726C13.0266 14.4729 11.3665 14.6212 10.1701 14.8588C9.57051 14.9779 9.09565 15.1179 8.77451 15.2687C8.61353 15.3443 8.49973 15.4187 8.42842 15.4879C8.35732 15.5569 8.34108 15.6077 8.34108 15.6408C8.34108 15.674 8.35732 15.7248 8.42842 15.7938C8.49973 15.863 8.61353 15.9374 8.77451 16.013C9.09565 16.1638 9.57051 16.3037 10.1701 16.4228C11.3665 16.6605 13.0266 16.8088 14.8655 16.8091L14.8891 16.8091V16.8069L15.0486 16.8069C17.1008 16.8073 18.9633 16.9923 20.3169 17.2934C20.9925 17.4436 21.55 17.6246 21.9425 17.831C22.1386 17.9341 22.3014 18.0475 22.4169 18.173C22.5332 18.2994 22.6094 18.4471 22.6094 18.6127C22.6094 18.7783 22.5332 18.9259 22.4169 19.0523C22.3014 19.1779 22.1386 19.2913 21.9425 19.3944C21.55 19.6007 20.9925 19.7818 20.3169 19.932C18.9633 20.2331 17.1008 20.4181 15.0486 20.4185L14.8891 20.4185V19.9255L15.0486 19.9254C16.8874 19.9251 18.5475 19.7768 19.744 19.5391C20.3435 19.4201 20.8184 19.2801 21.1395 19.1293C21.3005 19.0537 21.4143 18.9793 21.4856 18.9101C21.5567 18.8411 21.573 18.7903 21.573 18.7572C21.573 18.724 21.5567 18.6732 21.4856 18.6042C21.4143 18.535 21.3005 18.4606 21.1395 18.385C20.8184 18.2342 20.3435 18.0943 19.744 17.9752C18.5475 17.7375 16.8874 17.5892 15.0486 17.5889L15.025 17.5889V17.5911L14.8654 17.5911C12.8133 17.5907 10.9508 17.4057 9.59712 17.1046C8.92158 16.9544 8.36405 16.7734 7.97152 16.567C7.77542 16.4639 7.6127 16.3505 7.49717 16.2249C7.38086 16.0986 7.30469 15.9509 7.30469 15.7853C7.30469 15.6197 7.38086 15.4721 7.49717 15.3457C7.6127 15.2201 7.77542 15.1067 7.97152 15.0036C8.36405 14.7973 8.92158 14.6162 9.59712 14.466C10.9508 14.1649 12.8133 13.9799 14.8654 13.9795L15.025 13.9795ZM14.7059 17.4312C10.8887 17.4125 7.78328 16.7521 7.48732 15.9162C7.78754 16.7637 10.9756 17.4307 14.8654 17.4315V16.9687H14.8654V17.4316C14.8121 17.4316 14.759 17.4314 14.7059 17.4312ZM14.8654 14.1391H14.8654V14.313C11.1734 14.3137 8.18154 14.908 8.18154 15.6408C8.18154 15.6716 8.18681 15.7021 8.19719 15.7324C8.1868 15.7021 8.18152 15.6716 8.18152 15.6408C8.18152 14.9079 11.1734 14.3137 14.8654 14.3129V14.1391ZM15.0486 17.4293V16.9664H15.0486V17.4293C18.7407 17.4301 21.7325 18.0243 21.7325 18.7572C21.7325 18.7915 21.726 18.8255 21.7131 18.8592C21.726 18.8255 21.7325 18.7915 21.7325 18.7571C21.7325 18.0242 18.7407 17.43 15.0486 17.4293ZM15.2081 20.2585C18.911 20.2404 21.9439 19.6185 22.3926 18.8183C21.9374 19.63 18.8235 20.2581 15.0486 20.2589V20.085H15.0486V20.2589C15.1019 20.2589 15.1551 20.2588 15.2081 20.2585Z" fill="#0F134F"/>
<path d="M15.025 14.4725L15.025 14.6594L15.2118 14.6593V14.4725H15.025ZM15.025 13.9795H15.2118V13.7926L15.025 13.7927L15.025 13.9795ZM14.8655 14.4726L14.8655 14.6594H14.8655L14.8655 14.4726ZM10.1701 14.8588L10.2065 15.0421L10.1701 14.8588ZM8.77451 15.2687L8.85392 15.4378L8.77451 15.2687ZM8.42842 15.4879L8.2983 15.3538L8.2983 15.3538L8.42842 15.4879ZM8.42842 15.7938L8.2983 15.9279L8.2983 15.9279L8.42842 15.7938ZM8.77451 16.013L8.69511 16.1821L8.69511 16.1821L8.77451 16.013ZM10.1701 16.4228L10.1337 16.6061L10.1701 16.4228ZM14.8655 16.8091L14.8655 16.6223H14.8655L14.8655 16.8091ZM14.8891 16.8091L14.889 16.996L15.0759 16.996V16.8091H14.8891ZM14.8891 16.8069L14.8891 16.62L14.7022 16.62V16.8069H14.8891ZM15.0486 16.8069L15.0487 16.6201L15.0486 16.8069ZM20.3169 17.2934L20.3575 17.111L20.3169 17.2934ZM21.9425 17.831L21.8556 17.9964L21.9425 17.831ZM22.4169 18.173L22.5544 18.0465V18.0465L22.4169 18.173ZM22.4169 19.0523L22.5544 19.1788L22.5544 19.1788L22.4169 19.0523ZM21.9425 19.3944L21.8556 19.229L21.9425 19.3944ZM20.3169 19.932L20.3575 20.1144L20.3169 19.932ZM15.0486 20.4185L15.0486 20.2316L15.0486 20.4185ZM14.8891 20.4185H14.7022V20.6054L14.8891 20.6053L14.8891 20.4185ZM14.8891 19.9255L14.889 19.7386L14.7022 19.7387V19.9255H14.8891ZM15.0486 19.9254L15.0486 20.1123H15.0486L15.0486 19.9254ZM19.744 19.5391L19.7076 19.3559L19.744 19.5391ZM21.1395 19.1293L21.0601 18.9602L21.1395 19.1293ZM21.4856 18.9101L21.3555 18.776L21.3555 18.776L21.4856 18.9101ZM21.4856 18.6042L21.3555 18.7383L21.3555 18.7383L21.4856 18.6042ZM21.1395 18.385L21.0601 18.5541L21.1395 18.385ZM19.744 17.9752L19.7804 17.7919L19.744 17.9752ZM15.0486 17.5889L15.0485 17.7757H15.0485L15.0486 17.5889ZM15.025 17.5889L15.025 17.402L14.8382 17.402V17.5889H15.025ZM15.025 17.5911L15.025 17.778L15.2118 17.778V17.5911H15.025ZM14.8654 17.5911L14.8654 17.7779L14.8654 17.5911ZM9.59712 17.1046L9.55656 17.287L9.59712 17.1046ZM7.97152 16.567L7.88459 16.7324L7.97152 16.567ZM7.49717 16.2249L7.3597 16.3515H7.3597L7.49717 16.2249ZM7.49717 15.3457L7.63465 15.4722L7.63465 15.4722L7.49717 15.3457ZM7.97152 15.0036L8.05846 15.169L8.05846 15.169L7.97152 15.0036ZM9.59712 14.466L9.63769 14.6484L9.59712 14.466ZM14.8654 13.9795L14.8654 13.7927L14.8654 13.9795ZM7.48732 15.9162L7.66342 15.8539L7.3112 15.9786L7.48732 15.9162ZM14.7059 17.4312L14.7068 17.2443H14.7068L14.7059 17.4312ZM14.8654 17.4315L14.8654 17.6183L15.0523 17.6184V17.4315H14.8654ZM14.8654 16.9687V16.7818H14.6786V16.9687H14.8654ZM14.8654 16.9687H15.0523V16.7818H14.8654V16.9687ZM14.8654 17.4316L14.8654 17.6184L15.0523 17.6184V17.4316H14.8654ZM14.8654 14.1391H15.0523V13.9522H14.8654V14.1391ZM14.8654 14.1391V13.9522H14.6786V14.1391H14.8654ZM14.8654 14.313L14.8655 14.4998L15.0523 14.4998V14.313H14.8654ZM8.19719 15.7324L8.02048 15.793L8.37391 15.6717L8.19719 15.7324ZM14.8654 14.3129L14.8655 14.4998L15.0523 14.4997V14.3129H14.8654ZM15.0486 16.9664H15.2355V16.7796H15.0486V16.9664ZM15.0486 17.4293H14.8618V17.6161L15.0486 17.6161L15.0486 17.4293ZM15.0486 16.9664V16.7796H14.8618V16.9664H15.0486ZM15.0486 17.4293H14.8618V17.6161L15.0486 17.6162L15.0486 17.4293ZM21.7131 18.8592L21.5386 18.7924L21.8875 18.926L21.7131 18.8592ZM22.3926 18.8183L22.5556 18.9097L22.2296 18.7269L22.3926 18.8183ZM15.2081 20.2585L15.2072 20.0717H15.2072L15.2081 20.2585ZM15.0486 20.2589H14.8618V20.4458L15.0487 20.4457L15.0486 20.2589ZM15.0486 20.085H15.2355V19.8982H15.0486V20.085ZM15.0486 20.085V19.8982H14.8618V20.085H15.0486ZM15.0486 20.2589H14.8618V20.4458L15.0486 20.4458L15.0486 20.2589ZM15.2118 14.4725V13.9795H14.8382V14.4725H15.2118ZM14.8655 14.6594L15.025 14.6594L15.025 14.2857L14.8654 14.2857L14.8655 14.6594ZM10.2065 15.0421C11.3877 14.8075 13.035 14.6597 14.8655 14.6594L14.8654 14.2857C13.0182 14.2861 11.3454 14.4349 10.1337 14.6756L10.2065 15.0421ZM8.85392 15.4378C9.15509 15.2964 9.61297 15.16 10.2065 15.0421L10.1337 14.6756C9.52804 14.7959 9.0362 14.9394 8.69511 15.0996L8.85392 15.4378ZM8.55853 15.622C8.60911 15.5729 8.7024 15.509 8.85392 15.4378L8.69511 15.0996C8.52465 15.1796 8.39036 15.2645 8.2983 15.3538L8.55853 15.622ZM8.52792 15.6408C8.52792 15.6563 8.52378 15.6641 8.52464 15.6625C8.52608 15.6596 8.53389 15.6459 8.55853 15.622L8.2983 15.3538C8.20567 15.4437 8.15425 15.5398 8.15425 15.6408H8.52792ZM8.55853 15.6597C8.53389 15.6358 8.52608 15.6221 8.52464 15.6192C8.52378 15.6175 8.52792 15.6254 8.52792 15.6408H8.15425C8.15425 15.7419 8.20567 15.838 8.2983 15.9279L8.55853 15.6597ZM8.85392 15.8439C8.7024 15.7727 8.60911 15.7088 8.55853 15.6597L8.2983 15.9279C8.39036 16.0172 8.52465 16.1021 8.69511 16.1821L8.85392 15.8439ZM10.2065 16.2396C9.61297 16.1217 9.15509 15.9853 8.85392 15.8439L8.69511 16.1821C9.0362 16.3423 9.52804 16.4858 10.1337 16.6061L10.2065 16.2396ZM14.8655 16.6223C13.035 16.6219 11.3877 16.4742 10.2065 16.2396L10.1337 16.6061C11.3454 16.8468 13.0182 16.9956 14.8654 16.996L14.8655 16.6223ZM14.8891 16.6223L14.8655 16.6223L14.8654 16.996L14.889 16.996L14.8891 16.6223ZM14.7022 16.8069V16.8091H15.0759V16.8069H14.7022ZM15.0487 16.6201L14.8891 16.62L14.889 16.9937L15.0486 16.9937L15.0487 16.6201ZM20.3575 17.111C18.987 16.8062 17.1103 16.6205 15.0487 16.6201L15.0486 16.9937C17.0913 16.9941 18.9395 17.1784 20.2764 17.4757L20.3575 17.111ZM22.0295 17.6656C21.6158 17.4482 21.04 17.2628 20.3575 17.111L20.2764 17.4757C20.945 17.6245 21.4842 17.8011 21.8556 17.9964L22.0295 17.6656ZM22.5544 18.0465C22.419 17.8994 22.236 17.7742 22.0295 17.6656L21.8556 17.9964C22.0413 18.094 22.1837 18.1956 22.2794 18.2996L22.5544 18.0465ZM22.7962 18.6127C22.7962 18.3861 22.6913 18.1954 22.5544 18.0465L22.2794 18.2996C22.3751 18.4035 22.4225 18.5081 22.4225 18.6127H22.7962ZM22.5544 19.1788C22.6913 19.03 22.7962 18.8393 22.7962 18.6127H22.4225C22.4225 18.7172 22.3751 18.8219 22.2794 18.9258L22.5544 19.1788ZM22.0295 19.5597C22.236 19.4512 22.419 19.3259 22.5544 19.1788L22.2794 18.9258C22.1837 19.0298 22.0413 19.1314 21.8556 19.229L22.0295 19.5597ZM20.3575 20.1144C21.04 19.9626 21.6158 19.7772 22.0295 19.5597L21.8556 19.229C21.4842 19.4242 20.945 19.6009 20.2764 19.7496L20.3575 20.1144ZM15.0487 20.6053C17.1103 20.6049 18.987 20.4192 20.3575 20.1144L20.2764 19.7496C18.9395 20.047 17.0913 20.2312 15.0486 20.2316L15.0487 20.6053ZM14.8891 20.6053L15.0487 20.6053L15.0486 20.2316L14.889 20.2317L14.8891 20.6053ZM14.7022 19.9255V20.4185H15.0759V19.9255H14.7022ZM15.0485 19.7386L14.889 19.7386L14.8891 20.1123L15.0486 20.1123L15.0485 19.7386ZM19.7076 19.3559C18.5263 19.5905 16.879 19.7383 15.0485 19.7386L15.0486 20.1123C16.8959 20.1119 18.5687 19.9631 19.7804 19.7224L19.7076 19.3559ZM21.0601 18.9602C20.759 19.1016 20.3011 19.238 19.7076 19.3559L19.7804 19.7224C20.386 19.6021 20.8779 19.4586 21.2189 19.2984L21.0601 18.9602ZM21.3555 18.776C21.3049 18.8251 21.2117 18.889 21.0601 18.9602L21.2189 19.2984C21.3894 19.2184 21.5237 19.1335 21.6158 19.0442L21.3555 18.776ZM21.3861 18.7572C21.3861 18.7417 21.3903 18.7339 21.3894 18.7355C21.388 18.7384 21.3802 18.7521 21.3555 18.776L21.6157 19.0442C21.7084 18.9543 21.7598 18.8582 21.7598 18.7572H21.3861ZM21.3555 18.7383C21.3802 18.7622 21.388 18.7759 21.3894 18.7788C21.3903 18.7805 21.3861 18.7726 21.3861 18.7572H21.7598C21.7598 18.6561 21.7084 18.56 21.6157 18.4701L21.3555 18.7383ZM21.0601 18.5541C21.2117 18.6253 21.3049 18.6892 21.3555 18.7383L21.6158 18.4701C21.5237 18.3808 21.3894 18.2959 21.2189 18.2159L21.0601 18.5541ZM19.7076 18.1584C20.3011 18.2763 20.759 18.4127 21.0601 18.5541L21.2189 18.2159C20.8779 18.0557 20.386 17.9122 19.7804 17.7919L19.7076 18.1584ZM15.0485 17.7757C16.879 17.7761 18.5263 17.9238 19.7076 18.1584L19.7804 17.7919C18.5687 17.5512 16.8959 17.4024 15.0486 17.402L15.0485 17.7757ZM15.025 17.7757L15.0485 17.7757L15.0486 17.402L15.025 17.402L15.025 17.7757ZM15.2118 17.5911V17.5889H14.8382V17.5911H15.2118ZM14.8654 17.7779L15.025 17.778L15.025 17.4043L14.8655 17.4043L14.8654 17.7779ZM9.55656 17.287C10.9271 17.5918 12.8038 17.7775 14.8654 17.7779L14.8655 17.4043C12.8227 17.4039 10.9745 17.2196 9.63769 16.9223L9.55656 17.287ZM7.88459 16.7324C8.29825 16.9498 8.8741 17.1352 9.55656 17.287L9.63769 16.9223C8.96906 16.7735 8.42985 16.5969 8.05846 16.4016L7.88459 16.7324ZM7.3597 16.3515C7.49507 16.4986 7.6781 16.6238 7.88459 16.7324L8.05846 16.4016C7.87275 16.304 7.73033 16.2024 7.63465 16.0984L7.3597 16.3515ZM7.11785 15.7853C7.11785 16.0119 7.22272 16.2026 7.3597 16.3515L7.63465 16.0984C7.53899 15.9945 7.49152 15.8899 7.49152 15.7853H7.11785ZM7.3597 15.2192C7.22272 15.368 7.11785 15.5587 7.11785 15.7853H7.49152C7.49152 15.6808 7.53899 15.5761 7.63465 15.4722L7.3597 15.2192ZM7.88459 14.8383C7.6781 14.9468 7.49507 15.0721 7.3597 15.2192L7.63465 15.4722C7.73033 15.3682 7.87275 15.2666 8.05846 15.169L7.88459 14.8383ZM9.55656 14.2836C8.8741 14.4354 8.29825 14.6208 7.88459 14.8383L8.05846 15.169C8.42985 14.9738 8.96906 14.7971 9.63769 14.6484L9.55656 14.2836ZM14.8654 13.7927C12.8038 13.7931 10.9271 13.9788 9.55656 14.2836L9.63769 14.6484C10.9745 14.351 12.8227 14.1668 14.8655 14.1664L14.8654 13.7927ZM15.025 13.7927L14.8654 13.7927L14.8655 14.1664L15.025 14.1663L15.025 13.7927ZM7.3112 15.9786C7.36375 16.127 7.47219 16.2551 7.60806 16.3655C7.74497 16.4768 7.9205 16.5789 8.12547 16.6728C8.5354 16.8606 9.08547 17.0256 9.73761 17.163C11.0435 17.4381 12.7873 17.6086 14.705 17.618L14.7068 17.2443C12.8073 17.235 11.0897 17.066 9.81465 16.7973C9.17629 16.6628 8.65595 16.5048 8.28109 16.3331C8.09367 16.2472 7.94821 16.1605 7.84373 16.0756C7.73822 15.9898 7.68487 15.9144 7.66343 15.8539L7.3112 15.9786ZM14.8655 17.2447C12.9298 17.2443 11.1734 17.078 9.86806 16.8084C9.21454 16.6734 8.68115 16.514 8.29677 16.3402C8.10458 16.2533 7.9553 16.1653 7.8481 16.0791C7.73978 15.9919 7.68519 15.9153 7.66342 15.8539L7.31121 15.9786C7.3645 16.1291 7.47521 16.2587 7.61389 16.3702C7.7537 16.4827 7.93314 16.5858 8.14282 16.6807C8.56219 16.8703 9.12522 17.0365 9.79248 17.1744C11.1286 17.4503 12.9112 17.6179 14.8654 17.6183L14.8655 17.2447ZM14.6786 16.9687V17.4315H15.0523V16.9687H14.6786ZM14.8654 16.7818H14.8654V17.1555H14.8654V16.7818ZM15.0523 17.4316V16.9687H14.6786V17.4316H15.0523ZM14.705 17.618C14.7583 17.6182 14.8118 17.6184 14.8654 17.6184L14.8655 17.2447C14.8125 17.2447 14.7596 17.2446 14.7068 17.2443L14.705 17.618ZM14.8654 13.9522H14.8654V14.3259H14.8654V13.9522ZM15.0523 14.313V14.1391H14.6786V14.313H15.0523ZM8.36837 15.6408C8.36837 15.6177 8.37939 15.5735 8.44742 15.5075C8.51571 15.4412 8.62651 15.3683 8.78611 15.2934C9.10433 15.144 9.57671 15.0045 10.1754 14.8856C11.3696 14.6484 13.0278 14.5002 14.8655 14.4998L14.8654 14.1262C13.011 14.1265 11.3273 14.2758 10.1026 14.5191C9.49177 14.6404 8.98543 14.787 8.6273 14.9552C8.44873 15.039 8.29695 15.1328 8.18719 15.2393C8.07719 15.3461 7.99471 15.4808 7.99471 15.6408H8.36837ZM8.37391 15.6717C8.36986 15.6599 8.36837 15.6499 8.36837 15.6408H7.99471C7.99471 15.6934 8.00377 15.7443 8.02046 15.793L8.37391 15.6717ZM7.99468 15.6408C7.99468 15.6933 8.00376 15.7443 8.02048 15.793L8.3739 15.6717C8.36983 15.6599 8.36835 15.6498 8.36835 15.6408H7.99468ZM14.8654 14.1261C13.011 14.1265 11.3272 14.2758 10.1025 14.519C9.49174 14.6404 8.98541 14.7869 8.62728 14.9551C8.4487 15.0389 8.29692 15.1327 8.18717 15.2393C8.07717 15.346 7.99468 15.4807 7.99468 15.6408H8.36835C8.36835 15.6176 8.37936 15.5734 8.4474 15.5074C8.51569 15.4411 8.62649 15.3683 8.78609 15.2933C9.10431 15.1439 9.57669 15.0045 10.1754 14.8856C11.3696 14.6483 13.0278 14.5001 14.8655 14.4998L14.8654 14.1261ZM14.6786 14.1391V14.3129H15.0523V14.1391H14.6786ZM14.8618 16.9664V17.4293H15.2355V16.9664H14.8618ZM15.0486 17.1533H15.0486V16.7796H15.0486V17.1533ZM15.2354 17.4293V16.9664H14.8618V17.4293H15.2354ZM21.9193 18.7572C21.9193 18.5971 21.8369 18.4624 21.7269 18.3556C21.6171 18.2491 21.4653 18.1553 21.2868 18.0715C20.9286 17.9033 20.4223 17.7568 19.8115 17.6354C18.5868 17.3921 16.9031 17.2429 15.0486 17.2425L15.0486 17.6162C16.8862 17.6165 18.5444 17.7647 19.7387 18.0019C20.3373 18.1209 20.8097 18.2603 21.1279 18.4097C21.2875 18.4847 21.3983 18.5575 21.4666 18.6238C21.5347 18.6898 21.5457 18.734 21.5457 18.7572H21.9193ZM21.8875 18.926C21.908 18.8724 21.9193 18.8158 21.9193 18.7572H21.5457C21.5457 18.7671 21.5439 18.7786 21.5386 18.7924L21.8875 18.926ZM21.5457 18.7571C21.5457 18.7671 21.5439 18.7785 21.5386 18.7923L21.8875 18.926C21.908 18.8725 21.9194 18.8158 21.9194 18.7571H21.5457ZM15.0486 17.6161C16.8862 17.6165 18.5444 17.7647 19.7387 18.0019C20.3374 18.1208 20.8097 18.2603 21.128 18.4097C21.2876 18.4846 21.3984 18.5575 21.4667 18.6237C21.5347 18.6898 21.5457 18.7339 21.5457 18.7571H21.9194C21.9194 18.5971 21.8369 18.4623 21.7269 18.3556C21.6171 18.2491 21.4653 18.1553 21.2868 18.0714C20.9286 17.9033 20.4223 17.7567 19.8115 17.6354C18.5868 17.3921 16.9031 17.2428 15.0487 17.2424L15.0486 17.6161ZM22.2296 18.7269C22.1502 18.8686 21.9289 19.0373 21.5288 19.2063C21.1392 19.3707 20.6156 19.521 19.9837 19.6486C18.7212 19.9034 17.0497 20.0627 15.2072 20.0717L15.2091 20.4454C17.0694 20.4363 18.7658 20.2756 20.0576 20.0148C20.703 19.8846 21.2531 19.7283 21.6741 19.5505C22.0846 19.3772 22.4107 19.1681 22.5556 18.9097L22.2296 18.7269ZM15.0487 20.4457C16.9452 20.4454 18.6799 20.2875 20.0018 20.026C20.6621 19.8953 21.2252 19.7377 21.6558 19.5581C22.0756 19.3831 22.4087 19.1716 22.5556 18.9097L22.2296 18.7269C22.1489 18.8709 21.9221 19.0422 21.512 19.2133C21.1128 19.3798 20.5761 19.5314 19.9292 19.6594C18.6366 19.9151 16.9269 20.0717 15.0486 20.0721L15.0487 20.4457ZM14.8618 20.085V20.2589H15.2355V20.085H14.8618ZM15.0486 20.2718H15.0486V19.8982H15.0486V20.2718ZM15.2354 20.2589V20.085H14.8618V20.2589H15.2354ZM15.2072 20.0717C15.1545 20.072 15.1016 20.0721 15.0486 20.0721L15.0486 20.4458C15.1022 20.4458 15.1557 20.4456 15.2091 20.4454L15.2072 20.0717Z" fill="white" mask="url(#path-2-outside-1_269_10128)"/>
<path fill-rule="evenodd" clipRule="evenodd" d="M16.3628 12.1451V15.9244C16.2402 15.9406 15.7849 15.9691 14.9021 15.9691C14.1348 15.9691 13.5704 15.9379 13.3801 15.9222V12.1451H9.21582V9.38086H20.5257V12.1451H16.3628ZM15.128 16.7471C15.0514 16.7476 14.9709 16.7478 14.8864 16.7478C14.1191 16.7478 13.5703 16.7322 13.3801 16.7165L13.3801 22.9997H16.3628L16.3628 16.7795C15.9621 16.7613 15.5495 16.7503 15.128 16.7471Z" fill="#0F134F"/>
<path fill-rule="evenodd" clipRule="evenodd" d="M19.3774 1.73033C19.6056 1.18436 20.2332 0.926718 20.7791 1.15487C26.1922 3.41692 29.9992 8.76277 29.9992 15.0003C29.9992 23.2844 23.2837 30 14.9996 30C10.7459 30 6.90427 28.228 4.17581 25.3848C3.76611 24.9579 3.78007 24.2796 4.20701 23.8699C4.63394 23.4602 5.31218 23.4742 5.72188 23.9011C8.06302 26.3407 11.3533 27.8572 14.9996 27.8572C22.1002 27.8572 27.8564 22.101 27.8564 15.0003C27.8564 9.65697 24.5965 5.07251 19.9529 3.13199C19.4069 2.90384 19.1493 2.27629 19.3774 1.73033Z" fill="url(#paint0_angular_269_10128)"/>
<circle cx="15.5353" cy="1.60711" r="1.60711" fill="#3D56D6"/>
<defs>
<radialGradient id="paint0_angular_269_10128" cx="0" cy="0" r="1" gradientUnits="userSpaceOnUse" gradientTransform="translate(18.936 22.4484) rotate(90) scale(32.4019 17.6793)">
<stop offset="0.200113" stop-color="#00C2FF"/>
<stop offset="0.591769" stop-color="#5E4BFF"/>
</radialGradient>
</defs>
</svg>
