<svg width="12" height="12" viewBox="0 0 12 12" fill="none" xmlns="http://www.w3.org/2000/svg">
<path fill-rule="evenodd" clipRule="evenodd" d="M2.63618 10.3358H9.38479V8.56844C10.1266 7.8949 10.645 7.01577 10.8718 6.04634C11.0986 5.07691 11.0233 4.06244 10.6558 3.136C10.2883 2.20955 9.64568 1.41437 8.81231 0.854747C7.97895 0.295126 6.9937 -0.00280734 5.98579 1.99372e-05C4.97788 0.00284721 3.99437 0.306304 3.16424 0.870591C2.3341 1.43488 1.69612 2.23365 1.33395 3.16214C0.971773 4.09064 0.902326 5.10551 1.13471 6.07365C1.3671 7.04179 1.89047 7.918 2.63618 8.58736V10.3358ZM3.16268 12H8.77461C8.91332 12 9.04635 11.9456 9.14443 11.8488C9.24252 11.752 9.29762 11.6206 9.29762 11.4837C9.29762 11.3468 9.24252 11.2155 9.14443 11.1186C9.04635 11.0218 8.91332 10.9674 8.77461 10.9674H3.16268C3.02397 10.9674 2.89094 11.0218 2.79286 11.1186C2.69477 11.2155 2.63967 11.3468 2.63967 11.4837C2.63967 11.6206 2.69477 11.752 2.79286 11.8488C2.89094 11.9456 3.02397 12 3.16268 12ZM8.18895 5.29455C8.28703 5.39138 8.42006 5.44577 8.55878 5.44577C8.62746 5.44577 8.69547 5.43242 8.75892 5.40647C8.82238 5.38052 8.88004 5.3425 8.9286 5.29455C8.97717 5.24661 9.01569 5.1897 9.04198 5.12706C9.06826 5.06442 9.08179 4.99729 9.08179 4.92949C9.07856 4.12613 8.75325 3.35671 8.17696 2.78945C7.60068 2.22219 6.82031 1.90325 6.00648 1.90234C5.86776 1.90234 5.73473 1.95674 5.63665 2.05356C5.53857 2.15038 5.48346 2.2817 5.48346 2.41863C5.48346 2.55555 5.53857 2.68687 5.63665 2.78369C5.73473 2.88052 5.86776 2.93491 6.00648 2.93491C6.54303 2.93536 7.0576 3.14537 7.43782 3.51908C7.81804 3.8928 8.033 4.39984 8.03576 4.92949C8.03576 5.06641 8.09087 5.19773 8.18895 5.29455Z" fill="#B3B4B7"/>
</svg>
