<svg width="12" height="12" viewBox="0 0 12 12" fill="none" xmlns="http://www.w3.org/2000/svg">
<path fill-rule="evenodd" clipRule="evenodd" d="M2.63325 10.3358H9.38186V8.56844C10.1237 7.8949 10.642 7.01577 10.8688 6.04634C11.0956 5.07691 11.0204 4.06244 10.6528 3.136C10.2853 2.20955 9.64275 1.41437 8.80938 0.854747C7.97602 0.295126 6.99077 -0.00280734 5.98286 1.99372e-05C4.97495 0.00284721 3.99144 0.306304 3.16131 0.870591C2.33118 1.43488 1.69319 2.23365 1.33102 3.16214C0.968843 4.09064 0.899397 5.10551 1.13178 6.07365C1.36417 7.04179 1.88754 7.918 2.63325 8.58736V10.3358ZM3.15975 12H8.77168C8.91039 12 9.04342 11.9456 9.1415 11.8488C9.23959 11.752 9.29469 11.6206 9.29469 11.4837C9.29469 11.3468 9.23959 11.2155 9.1415 11.1186C9.04342 11.0218 8.91039 10.9674 8.77168 10.9674H3.15975C3.02104 10.9674 2.88801 11.0218 2.78993 11.1186C2.69184 11.2155 2.63674 11.3468 2.63674 11.4837C2.63674 11.6206 2.69184 11.752 2.78993 11.8488C2.88801 11.9456 3.02104 12 3.15975 12ZM8.18602 5.29455C8.28411 5.39138 8.41714 5.44577 8.55585 5.44577C8.62453 5.44577 8.69254 5.43242 8.756 5.40647C8.81945 5.38052 8.87711 5.3425 8.92567 5.29455C8.97424 5.24661 9.01276 5.1897 9.03905 5.12706C9.06533 5.06442 9.07886 4.99729 9.07886 4.92949C9.07563 4.12613 8.75032 3.35671 8.17403 2.78945C7.59775 2.22219 6.81738 1.90325 6.00355 1.90234C5.86483 1.90234 5.7318 1.95674 5.63372 2.05356C5.53564 2.15038 5.48053 2.2817 5.48053 2.41863C5.48053 2.55555 5.53564 2.68687 5.63372 2.78369C5.7318 2.88052 5.86483 2.93491 6.00355 2.93491C6.5401 2.93536 7.05467 3.14537 7.43489 3.51908C7.81511 3.8928 8.03007 4.39984 8.03283 4.92949C8.03283 5.06641 8.08794 5.19773 8.18602 5.29455Z" fill="#B3B4B7"/>
</svg>
