<svg width="12" height="12" viewBox="0 0 12 12" fill="none" xmlns="http://www.w3.org/2000/svg">
<g clip-path="url(#clip0_471_1928)">
<path d="M9.24375 9.35627C7.74375 7.65002 2.49375 7.76252 2.4 7.23752V3.35627C2.49375 2.60627 6.7125 2.94377 8.90625 0.91877C11.1562 -1.12498 12 2.77502 12 5.43752C12 8.10002 10.7625 11.0813 9.24375 9.35627ZM0 6.52502V4.16252C0 3.73127 0.35625 3.37502 0.80625 3.37502H1.6125V7.31252H0.80625C0.35625 7.31252 0 6.97502 0 6.52502ZM3.35625 8.32502C3.91875 8.43752 4.35 8.60627 4.35 8.60627C4.35 8.60627 4.3125 9.20627 4.8 9.88127C5.38125 10.7063 6.3375 11.625 5.49375 11.625H4.06875C3.375 11.625 3.675 11.1375 3 10.0313C2.25 8.77502 2.4375 8.11877 2.4375 8.11877C2.4375 8.11877 2.79375 8.21252 3.35625 8.32502Z" fill="url(#paint0_linear_471_1928)"/>
</g>
<defs>
<linearGradient id="paint0_linear_471_1928" x1="-3.63215e-08" y1="5.98651" x2="12" y2="5.98651" gradientUnits="userSpaceOnUse">
<stop stop-color="#7CDA68"/>
<stop offset="1" stop-color="#2DC69D"/>
</linearGradient>
<clipPath id="clip0_471_1928">
<rect width="12" height="12" fill="white"/>
</clipPath>
</defs>
</svg>
