<svg width="218" height="130" viewBox="0 0 218 130" fill="none" xmlns="http://www.w3.org/2000/svg">
<path d="M203.414 62.9C205.214 63.5 206.848 64.3333 208.314 65.4C209.848 66.4667 211.148 67.7 212.214 69.1C213.281 70.5 214.081 72.0333 214.614 73.7C215.214 75.3 215.514 76.9333 215.514 78.6C215.514 82.7333 214.648 86.3 212.914 89.3C211.181 92.2333 208.914 94.6667 206.114 96.6C203.314 98.4667 200.148 99.8333 196.614 100.7C193.081 101.567 189.514 102 185.914 102C182.314 102 178.748 101.567 175.214 100.7C171.748 99.9 168.548 98.6 165.614 96.8C162.748 95 160.214 92.7333 158.014 90C155.881 87.2667 154.348 84 153.414 80.2L175.614 75C176.014 76.7333 176.981 78.3333 178.514 79.8C180.114 81.2667 182.148 82 184.614 82C185.281 82 185.981 81.9333 186.714 81.8C187.448 81.6 188.114 81.3333 188.714 81C189.314 80.6 189.814 80.1 190.214 79.5C190.614 78.9 190.814 78.1333 190.814 77.2C190.814 75.0667 189.881 73.6667 188.014 73C186.148 72.3333 183.648 72 180.514 72H173.714V55.6H181.314C183.848 55.6 185.881 55.2667 187.414 54.6C188.948 53.8667 189.714 52.5 189.714 50.5C189.714 48.9667 189.114 47.9 187.914 47.3C186.714 46.7 185.448 46.4 184.114 46.4C182.448 46.4 180.914 46.9333 179.514 48C178.114 49 177.248 50.5 176.914 52.5L154.814 47.8C156.014 43.9333 157.714 40.7 159.914 38.1C162.114 35.4333 164.614 33.3 167.414 31.7C170.281 30.1 173.314 28.9667 176.514 28.3C179.781 27.5667 182.981 27.2 186.114 27.2C189.248 27.2 192.481 27.6 195.814 28.4C199.148 29.1333 202.181 30.3667 204.914 32.1C207.648 33.7667 209.881 35.9333 211.614 38.6C213.348 41.2 214.214 44.3667 214.214 48.1C214.214 52.1 213.148 55.3 211.014 57.7C208.948 60.0333 206.414 61.6333 203.414 62.5V62.9Z" fill="url(#paint0_linear_966_4668)"/>
<path d="M203.414 62.9H202.414V63.6208L203.098 63.8487L203.414 62.9ZM208.314 65.4L207.726 66.2087L207.735 66.2149L207.743 66.2209L208.314 65.4ZM212.214 69.1L213.01 68.494H213.01L212.214 69.1ZM214.614 73.7L213.662 74.0048L213.669 74.0281L213.678 74.0511L214.614 73.7ZM212.914 89.3L213.775 89.8088L213.78 89.8003L212.914 89.3ZM206.114 96.6L206.669 97.4321L206.676 97.4275L206.682 97.4229L206.114 96.6ZM196.614 100.7L196.852 101.671L196.614 100.7ZM175.214 100.7L175.453 99.7287L175.439 99.7256L175.214 100.7ZM165.614 96.8L165.082 97.6469L165.091 97.6523L165.614 96.8ZM158.014 90L157.226 90.6153L157.231 90.6212L157.235 90.627L158.014 90ZM153.414 80.2L153.186 79.2263L152.202 79.4569L152.443 80.4385L153.414 80.2ZM175.614 75L176.589 74.7751L176.363 73.7975L175.386 74.0264L175.614 75ZM178.514 79.8L177.823 80.5226L177.831 80.53L177.839 80.5372L178.514 79.8ZM186.714 81.8L186.893 82.7839L186.936 82.7761L186.977 82.7648L186.714 81.8ZM188.714 81L189.2 81.8742L189.235 81.8545L189.269 81.832L188.714 81ZM190.214 79.5L191.046 80.0547V80.0547L190.214 79.5ZM173.714 72H172.714V73H173.714V72ZM173.714 55.6V54.6H172.714V55.6H173.714ZM187.414 54.6L187.813 55.5171L187.829 55.5099L187.846 55.5021L187.414 54.6ZM179.514 48L180.095 48.8137L180.108 48.8048L180.12 48.7954L179.514 48ZM176.914 52.5L176.706 53.4781L177.729 53.6956L177.901 52.6644L176.914 52.5ZM154.814 47.8L153.859 47.5036L153.534 48.5502L154.606 48.7781L154.814 47.8ZM159.914 38.1L160.678 38.746L160.686 38.7364L159.914 38.1ZM167.414 31.7L166.927 30.8268L166.918 30.8318L167.414 31.7ZM176.514 28.3L176.718 29.279L176.726 29.2774L176.733 29.2757L176.514 28.3ZM195.814 28.4L195.581 29.3724L195.59 29.3746L195.599 29.3766L195.814 28.4ZM204.914 32.1L204.379 32.9445L204.386 32.9492L204.394 32.9538L204.914 32.1ZM211.614 38.6L210.776 39.145L210.782 39.1547L211.614 38.6ZM211.014 57.7L210.267 57.0356L210.266 57.037L211.014 57.7ZM203.414 62.5L203.137 61.5393L202.414 61.748V62.5H203.414ZM203.098 63.8487C204.805 64.4178 206.346 65.2051 207.726 66.2087L208.902 64.5913C207.349 63.4615 205.623 62.5822 203.73 61.9513L203.098 63.8487ZM207.743 66.2209C209.196 67.2317 210.419 68.3939 211.419 69.706L213.01 68.494C211.876 67.0061 210.499 65.7016 208.885 64.5791L207.743 66.2209ZM211.419 69.706C212.417 71.0158 213.163 72.4474 213.662 74.0048L215.567 73.3952C214.998 71.6193 214.145 69.9842 213.01 68.494L211.419 69.706ZM213.678 74.0511C214.237 75.5417 214.514 77.0563 214.514 78.6H216.514C216.514 76.8104 216.192 75.0583 215.551 73.3489L213.678 74.0511ZM214.514 78.6C214.514 82.5917 213.678 85.9788 212.048 88.7997L213.78 89.8003C215.617 86.6212 216.514 82.875 216.514 78.6H214.514ZM212.053 88.7913C210.394 91.6001 208.227 93.9262 205.546 95.7771L206.682 97.4229C209.602 95.4072 211.968 92.8666 213.775 89.8087L212.053 88.7913ZM205.56 95.768C202.864 97.5652 199.806 98.8875 196.376 99.7288L196.852 101.671C200.489 100.779 203.765 99.3682 206.669 97.4321L205.56 95.768ZM196.376 99.7288C192.92 100.577 189.433 101 185.914 101V103C189.595 103 193.242 102.557 196.852 101.671L196.376 99.7288ZM185.914 101C182.395 101 178.909 100.577 175.452 99.7288L174.976 101.671C178.587 102.557 182.233 103 185.914 103V101ZM175.439 99.7256C172.074 98.9491 168.975 97.6892 166.137 95.9477L165.091 97.6523C168.12 99.5108 171.421 100.851 174.989 101.674L175.439 99.7256ZM166.146 95.9531C163.377 94.2143 160.926 92.023 158.793 89.373L157.235 90.627C159.502 93.4437 162.118 95.7857 165.082 97.6469L166.146 95.9531ZM158.803 89.3847C156.767 86.7761 155.289 83.642 154.385 79.9615L152.443 80.4385C153.406 84.358 154.995 87.7572 157.226 90.6153L158.803 89.3847ZM153.642 81.1736L175.842 75.9736L175.386 74.0264L153.186 79.2263L153.642 81.1736ZM174.64 75.2249C175.092 77.1822 176.176 78.9476 177.823 80.5226L179.205 79.0774C177.785 77.7191 176.937 76.2844 176.589 74.7751L174.64 75.2249ZM177.839 80.5372C179.648 82.1961 181.934 83 184.614 83V81C182.361 81 180.58 80.3372 179.19 79.0628L177.839 80.5372ZM184.614 83C185.347 83 186.108 82.9267 186.893 82.7839L186.535 80.8161C185.854 80.94 185.214 81 184.614 81V83ZM186.977 82.7648C187.78 82.5459 188.523 82.2505 189.2 81.8742L188.229 80.1258C187.706 80.4162 187.115 80.6542 186.451 80.8352L186.977 82.7648ZM189.269 81.832C189.979 81.3588 190.573 80.7645 191.046 80.0547L189.382 78.9453C189.055 79.4354 188.65 79.8412 188.16 80.1679L189.269 81.832ZM191.046 80.0547C191.584 79.2483 191.814 78.2732 191.814 77.2H189.814C189.814 77.9934 189.645 78.5517 189.382 78.9453L191.046 80.0547ZM191.814 77.2C191.814 75.9886 191.548 74.8986 190.946 73.9953C190.34 73.086 189.449 72.4506 188.351 72.0583L187.678 73.9417C188.446 74.216 188.955 74.614 189.282 75.1047C189.613 75.6014 189.814 76.278 189.814 77.2H191.814ZM188.351 72.0583C186.332 71.3373 183.704 71 180.514 71V73C183.592 73 185.963 73.3294 187.678 73.9417L188.351 72.0583ZM180.514 71H173.714V73H180.514V71ZM174.714 72V55.6H172.714V72H174.714ZM173.714 56.6H181.314V54.6H173.714V56.6ZM181.314 56.6C183.921 56.6 186.106 56.2592 187.813 55.5171L187.016 53.6829C185.656 54.2741 183.774 54.6 181.314 54.6V56.6ZM187.846 55.5021C188.782 55.0545 189.519 54.3927 190.011 53.5142C190.499 52.6457 190.714 51.625 190.714 50.5H188.714C188.714 51.375 188.547 52.0376 188.267 52.5357C187.993 53.024 187.58 53.4122 186.983 53.6979L187.846 55.5021ZM190.714 50.5C190.714 49.6044 190.539 48.7761 190.136 48.0597C189.729 47.3356 189.122 46.7859 188.361 46.4056L187.467 48.1944C187.906 48.4141 188.2 48.6977 188.393 49.0403C188.59 49.3906 188.714 49.8623 188.714 50.5H190.714ZM188.361 46.4056C187.024 45.7366 185.604 45.4 184.114 45.4V47.4C185.291 47.4 186.405 47.6634 187.467 48.1944L188.361 46.4056ZM184.114 45.4C182.216 45.4 180.472 46.0131 178.908 47.2046L180.12 48.7954C181.357 47.8535 182.679 47.4 184.114 47.4V45.4ZM178.933 47.1863C177.279 48.3677 176.296 50.1243 175.928 52.3356L177.901 52.6644C178.199 50.8757 178.95 49.6323 180.095 48.8137L178.933 47.1863ZM177.122 51.5219L155.022 46.8219L154.606 48.7781L176.706 53.4781L177.122 51.5219ZM155.769 48.0964C156.937 44.3342 158.579 41.226 160.678 38.7459L159.151 37.4541C156.849 40.174 155.092 43.5325 153.859 47.5036L155.769 48.0964ZM160.686 38.7364C162.814 36.1562 165.223 34.104 167.91 32.5682L166.918 30.8318C164.006 32.496 161.414 34.7104 159.143 37.4636L160.686 38.7364ZM167.902 32.5732C170.68 31.0224 173.618 29.9249 176.718 29.279L176.31 27.321C173.011 28.0085 169.882 29.1776 166.927 30.8268L167.902 32.5732ZM176.733 29.2757C179.933 28.5574 183.059 28.2 186.114 28.2V26.2C182.902 26.2 179.629 26.5759 176.295 27.3243L176.733 29.2757ZM186.114 28.2C189.162 28.2 192.317 28.589 195.581 29.3724L196.048 27.4276C192.645 26.611 189.333 26.2 186.114 26.2V28.2ZM195.599 29.3766C198.825 30.0863 201.749 31.2769 204.379 32.9445L205.45 31.2555C202.613 29.4564 199.47 28.1803 196.029 27.4234L195.599 29.3766ZM204.394 32.9538C207 34.5431 209.125 36.6046 210.776 39.145L212.453 38.055C210.637 35.2621 208.295 32.9902 205.435 31.2462L204.394 32.9538ZM210.782 39.1547C212.386 41.5607 213.214 44.525 213.214 48.1H215.214C215.214 44.2083 214.309 40.8393 212.446 38.0453L210.782 39.1547ZM213.214 48.1C213.214 51.9176 212.2 54.8606 210.267 57.0356L211.762 58.3644C214.095 55.7394 215.214 52.2824 215.214 48.1H213.214ZM210.266 57.037C208.325 59.2282 205.955 60.7251 203.137 61.5393L203.692 63.4607C206.873 62.5416 209.57 60.8385 211.763 58.363L210.266 57.037ZM202.414 62.5V62.9H204.414V62.5H202.414Z" fill="url(#paint1_linear_966_4668)"/>
<mask id="path-3-inside-1_966_4668" fill="white">
<path fill-rule="evenodd" clipRule="evenodd" d="M110.673 104.38C132.72 104.38 150.592 85.262 150.592 61.679C150.592 38.096 132.72 18.9783 110.673 18.9783C88.6267 18.9783 70.7544 38.096 70.7544 61.679C70.7544 85.262 88.6267 104.38 110.673 104.38ZM110.673 83.9784C123.479 83.9784 133.86 73.4636 133.86 60.493C133.86 47.5223 123.479 37.0076 110.673 37.0076C97.8677 37.0076 87.4868 47.5223 87.4868 60.493C87.4868 73.4636 97.8677 83.9784 110.673 83.9784Z"/>
</mask>
<path fill-rule="evenodd" clipRule="evenodd" d="M110.673 104.38C132.72 104.38 150.592 85.262 150.592 61.679C150.592 38.096 132.72 18.9783 110.673 18.9783C88.6267 18.9783 70.7544 38.096 70.7544 61.679C70.7544 85.262 88.6267 104.38 110.673 104.38ZM110.673 83.9784C123.479 83.9784 133.86 73.4636 133.86 60.493C133.86 47.5223 123.479 37.0076 110.673 37.0076C97.8677 37.0076 87.4868 47.5223 87.4868 60.493C87.4868 73.4636 97.8677 83.9784 110.673 83.9784Z" fill="url(#paint2_linear_966_4668)"/>
<path d="M149.592 61.679C149.592 84.7742 132.105 103.38 110.673 103.38V105.38C133.335 105.38 151.592 85.7497 151.592 61.679H149.592ZM110.673 19.9783C132.105 19.9783 149.592 38.5838 149.592 61.679H151.592C151.592 37.6083 133.335 17.9783 110.673 17.9783V19.9783ZM71.7544 61.679C71.7544 38.5838 89.2414 19.9783 110.673 19.9783V17.9783C88.012 17.9783 69.7544 37.6083 69.7544 61.679H71.7544ZM110.673 103.38C89.2414 103.38 71.7544 84.7742 71.7544 61.679H69.7544C69.7544 85.7497 88.012 105.38 110.673 105.38V103.38ZM132.86 60.493C132.86 72.9234 122.914 82.9784 110.673 82.9784V84.9784C124.043 84.9784 134.86 74.0038 134.86 60.493H132.86ZM110.673 38.0076C122.914 38.0076 132.86 48.0625 132.86 60.493H134.86C134.86 46.9822 124.043 36.0076 110.673 36.0076V38.0076ZM88.4868 60.493C88.4868 48.0625 98.432 38.0076 110.673 38.0076V36.0076C97.3034 36.0076 86.4868 46.9822 86.4868 60.493H88.4868ZM110.673 82.9784C98.432 82.9784 88.4868 72.9234 88.4868 60.493H86.4868C86.4868 74.0038 97.3034 84.9784 110.673 84.9784V82.9784Z" fill="url(#paint3_linear_966_4668)" mask="url(#path-3-inside-1_966_4668)"/>
<path fill-rule="evenodd" clipRule="evenodd" d="M136.518 32.5303L133.592 29.6266L130.992 32.2071L128.391 29.6254L125.465 32.529L128.066 35.1107L125.465 37.6924L128.391 40.596L130.992 38.0144L133.592 40.5947L136.518 37.6911L133.918 35.1107L136.518 32.5303Z" fill="#F0F2F7"/>
<path fill-rule="evenodd" clipRule="evenodd" d="M94.9256 32.5303L91.9998 29.6266L89.3997 32.2071L86.7983 29.6254L83.8725 32.529L86.4739 35.1107L83.8726 37.6924L86.7984 40.596L89.3997 38.0144L91.9997 40.5947L94.9255 37.6911L92.3255 35.1107L94.9256 32.5303Z" fill="#F0F2F7"/>
<path fill-rule="evenodd" clipRule="evenodd" d="M132.903 60.8071C132.903 60.7814 132.903 60.7557 132.903 60.73C132.903 57.1336 132.113 53.7241 130.699 50.6699L86.1255 62.6181C86.4046 66.2075 87.4726 69.5722 89.1539 72.5345L132.903 60.8071Z" fill="url(#paint4_linear_966_4668)"/>
<path d="M58.8 100H37.2V87.5H3.1V68.1L29.9 29.2H58.7V68.9H68.3V87.5H58.8V100ZM37.1 51L25.3 68.9H37.5V51H37.1Z" fill="url(#paint5_linear_966_4668)"/>
<path d="M58.8 100V101H59.8V100H58.8ZM37.2 100H36.2V101H37.2V100ZM37.2 87.5H38.2V86.5H37.2V87.5ZM3.1 87.5H2.1V88.5H3.1V87.5ZM3.1 68.1L2.27651 67.5327L2.1 67.7889V68.1H3.1ZM29.9 29.2V28.2H29.3746L29.0765 28.6327L29.9 29.2ZM58.7 29.2H59.7V28.2H58.7V29.2ZM58.7 68.9H57.7V69.9H58.7V68.9ZM68.3 68.9H69.3V67.9H68.3V68.9ZM68.3 87.5V88.5H69.3V87.5H68.3ZM58.8 87.5V86.5H57.8V87.5H58.8ZM37.1 51V50H36.5615L36.2651 50.4496L37.1 51ZM25.3 68.9L24.4651 68.3496L23.4431 69.9H25.3V68.9ZM37.5 68.9V69.9H38.5V68.9H37.5ZM37.5 51H38.5V50H37.5V51ZM58.8 99H37.2V101H58.8V99ZM38.2 100V87.5H36.2V100H38.2ZM37.2 86.5H3.1V88.5H37.2V86.5ZM4.1 87.5V68.1H2.1V87.5H4.1ZM3.92349 68.6673L30.7235 29.7673L29.0765 28.6327L2.27651 67.5327L3.92349 68.6673ZM29.9 30.2H58.7V28.2H29.9V30.2ZM57.7 29.2V68.9H59.7V29.2H57.7ZM58.7 69.9H68.3V67.9H58.7V69.9ZM67.3 68.9V87.5H69.3V68.9H67.3ZM68.3 86.5H58.8V88.5H68.3V86.5ZM57.8 87.5V100H59.8V87.5H57.8ZM36.2651 50.4496L24.4651 68.3496L26.1349 69.4504L37.9349 51.5504L36.2651 50.4496ZM25.3 69.9H37.5V67.9H25.3V69.9ZM38.5 68.9V51H36.5V68.9H38.5ZM37.5 50H37.1V52H37.5V50Z" fill="url(#paint6_linear_966_4668)"/>
<defs>
<linearGradient id="paint0_linear_966_4668" x1="170.576" y1="17.381" x2="147.163" y2="90.9816" gradientUnits="userSpaceOnUse">
<stop stop-color="#4EDABE"/>
<stop offset="1" stop-color="#4C54FF" stop-opacity="0"/>
</linearGradient>
<linearGradient id="paint1_linear_966_4668" x1="183.817" y1="19.0476" x2="182.866" y2="125.676" gradientUnits="userSpaceOnUse">
<stop stop-color="#95FFDF"/>
<stop offset="0.604167" stop-color="#F0F2F7"/>
</linearGradient>
<linearGradient id="paint2_linear_966_4668" x1="91.0724" y1="21.1133" x2="54.7064" y2="78.2884" gradientUnits="userSpaceOnUse">
<stop stop-color="#4EDABE"/>
<stop offset="1" stop-color="#4C54FF" stop-opacity="0"/>
</linearGradient>
<linearGradient id="paint3_linear_966_4668" x1="110.39" y1="31.4913" x2="110.041" y2="101.543" gradientUnits="userSpaceOnUse">
<stop stop-color="#95FFDF"/>
<stop offset="0.604167" stop-color="#F0F2F7"/>
</linearGradient>
<linearGradient id="paint4_linear_966_4668" x1="137.445" y1="30.1291" x2="87.8049" y2="36.918" gradientUnits="userSpaceOnUse">
<stop stop-color="#4EDABE"/>
<stop offset="1" stop-color="#4C54FF" stop-opacity="0"/>
</linearGradient>
<linearGradient id="paint5_linear_966_4668" x1="20.4621" y1="17.381" x2="-2.95109" y2="90.9816" gradientUnits="userSpaceOnUse">
<stop stop-color="#4EDABE"/>
<stop offset="1" stop-color="#4C54FF" stop-opacity="0"/>
</linearGradient>
<linearGradient id="paint6_linear_966_4668" x1="33.7023" y1="19.0476" x2="32.752" y2="125.676" gradientUnits="userSpaceOnUse">
<stop stop-color="#95FFDF"/>
<stop offset="0.604167" stop-color="#F0F2F7"/>
</linearGradient>
</defs>
</svg>
