<svg width="30" height="30" viewBox="0 0 30 30" fill="none" xmlns="http://www.w3.org/2000/svg">
<circle cx="15" cy="15" r="15" fill="white"/>
<path d="M15 28.3C7.65461 28.3 1.7 22.3454 1.7 15C1.7 7.65461 7.65461 1.7 15 1.7C22.3454 1.7 28.3 7.65461 28.3 15C28.3 22.3454 22.3454 28.3 15 28.3ZM15 29C22.732 29 29 22.732 29 15C29 7.26801 22.732 1 15 1C7.26801 1 1 7.26801 1 15C1 22.732 7.26801 29 15 29Z" fill="#070001"/>
<path d="M15.0954 4.3253C17.0458 4.3253 18.9265 5.05668 20.2848 6.41498C21.6779 7.77327 22.4441 9.5495 22.4441 11.465V23.2717H7.74668V11.465C7.74668 9.5495 8.5129 7.77327 9.90602 6.41498C11.2643 5.05668 13.1102 4.3253 15.0954 4.3253ZM15.0954 3.94219C13.0405 3.94219 11.0902 4.7084 9.62739 6.13635C8.16462 7.5643 7.36357 9.44501 7.36357 11.465V23.6548H22.8272V11.465C22.8272 9.44501 22.0262 7.5643 20.5634 6.17118C19.1006 4.7084 17.1502 3.94219 15.0954 3.94219Z" fill="#070001"/>
<path d="M19.6454 7.11575C19.5409 7.01126 19.4016 6.87195 19.2971 6.76747C18.1478 5.75745 16.685 5.23503 15.1178 5.23503C13.4112 5.23503 11.7743 5.89677 10.5901 7.11575C9.37113 8.33473 8.7094 9.93682 8.7094 11.6434V22.3008H21.5261V11.6782C21.5261 9.93681 20.8295 8.33473 19.6454 7.11575ZM17.6602 21.639C17.0681 21.848 16.4064 21.9525 15.7447 21.9525H11.1125V19.828C11.008 19.7235 10.9036 19.5842 10.8339 19.4797C10.0329 18.4348 9.61493 17.1462 9.61493 15.8227V11.8175C9.61493 10.2503 10.207 8.78749 11.2518 7.63817C11.3912 7.63817 11.5653 7.63817 11.7394 7.67299C12.8191 7.77748 14.2819 8.16059 15.5357 9.03129C16.6502 9.7975 18.0085 11.1906 18.0085 13.4544V21.5345C17.904 21.5694 17.7995 21.6042 17.6602 21.639Z" fill="#070001"/>
<path d="M15.5706 9.03082C14.3168 8.19494 12.854 7.77701 11.7744 7.67252C11.6002 7.67252 11.4261 7.6377 11.2868 7.6377C10.2419 8.78702 9.64985 10.2498 9.64985 11.8171V15.8223C9.64985 17.1457 10.0678 18.4344 10.8688 19.4792C10.9733 19.5837 11.043 19.723 11.1475 19.8275V21.952H15.7796C16.4413 21.952 17.0682 21.8475 17.6951 21.6386C17.8344 21.6037 17.9389 21.5689 18.0782 21.4992V13.4191C18.0434 11.1553 16.6851 9.79703 15.5706 9.03082ZM11.4957 21.5689V20.2106C12.1226 20.8027 12.854 21.2903 13.6551 21.5689H11.4957ZM17.6603 21.2554C17.0682 21.4644 16.4065 21.5689 15.7448 21.5689C14.2123 21.5689 12.7844 20.9768 11.6699 19.8623C11.6002 19.7927 11.5306 19.723 11.4609 19.6534C11.3216 19.514 11.1823 19.3399 11.0778 19.1658C10.3464 18.1906 9.96331 17.0064 9.96331 15.7875V11.8171C9.96331 10.4239 10.4857 9.06564 11.3913 8.0208C13.8292 8.12529 17.6255 9.79703 17.6255 13.4191V21.2554H17.6603Z" fill="#070001"/>
<path d="M13.6313 16.9119C13.5268 16.9119 13.4223 16.8075 13.4223 16.703V13.1505C13.4223 12.2102 14.1885 11.4439 15.1289 11.4439C16.0692 11.4439 16.8355 12.2102 16.8355 13.1505C16.8355 13.255 16.731 13.3595 16.6265 13.3595C16.522 13.3595 16.4175 13.255 16.4175 13.1505C16.4175 12.454 15.8254 11.8619 15.1289 11.8619C14.4323 11.8619 13.8402 12.454 13.8402 13.1505V16.703C13.8402 16.8075 13.7358 16.9119 13.6313 16.9119Z" fill="#070001"/>
<path d="M15.7558 14.1608C15.6513 14.1608 15.5468 14.0563 15.5468 13.9519C15.5468 13.7081 15.3727 13.5339 15.1289 13.5339C14.8851 13.5339 14.711 13.7081 14.711 13.9519C14.711 14.0563 14.6065 14.1608 14.502 14.1608C14.3975 14.1608 14.293 14.0563 14.293 13.9519C14.293 13.4643 14.6761 13.0812 15.1637 13.0812C15.6513 13.0812 16.0344 13.4643 16.0344 13.9519C15.9648 14.0563 15.8603 14.1608 15.7558 14.1608Z" fill="#070001"/>
<path d="M13.6313 16.9119C13.0044 16.9119 12.4822 16.3891 12.4822 15.7622C12.4822 15.6577 12.5866 15.5532 12.6911 15.5532C12.7956 15.5532 12.9001 15.6577 12.9001 15.7622C12.9001 16.1453 13.2135 16.4587 13.5966 16.4587C13.9798 16.4587 14.2932 16.1453 14.2932 15.7622C14.2932 15.6577 14.3977 15.5532 14.5022 15.5532C14.6067 15.5532 14.7111 15.6577 14.7111 15.7622C14.746 16.3891 14.2582 16.9119 13.6313 16.9119Z" fill="#070001"/>
<path d="M12.4124 14.5096C12.3428 14.5096 12.3079 14.4748 12.2731 14.44L11.3327 13.4996V14.3006C11.3327 14.4051 11.2283 14.5096 11.1238 14.5096C11.0193 14.5096 10.88 14.4051 10.88 14.2658V12.9772C10.88 12.8727 10.9496 12.803 11.0193 12.7682C11.1238 12.7334 11.1934 12.7334 11.2631 12.803L12.2034 13.7434V13.1862C12.2034 13.0817 12.3079 12.9772 12.4124 12.9772C12.5169 12.9772 12.6214 13.0817 12.6214 13.1862V14.2658C12.6214 14.3703 12.5517 14.44 12.4821 14.4748C12.4821 14.5096 12.4472 14.5096 12.4124 14.5096Z" fill="#070001"/>
<path d="M13.5966 13.3942C13.4921 13.3942 13.3877 13.2897 13.3877 13.1853C13.3877 13.1504 13.3877 12.2797 12.7956 12.2797C12.6911 12.2797 12.5866 12.1752 12.5866 12.0708C12.5866 11.9663 12.6911 11.8618 12.7956 11.8618C13.5966 11.8618 13.8056 12.7325 13.8056 13.1853C13.8056 13.2897 13.7011 13.3942 13.5966 13.3942Z" fill="#070001"/>
</svg>
