<svg width="12" height="12" viewBox="0 0 12 12" fill="none" xmlns="http://www.w3.org/2000/svg">
<g clip-path="url(#clip0_109_16235)">
<path d="M2.56701 8.30555C2.59252 8.3117 2.62076 8.31844 2.65158 8.32569C2.81237 8.36352 3.04372 8.41545 3.32683 8.47208C3.60145 8.527 3.84449 8.59577 4.01889 8.65084C4.09352 8.67441 4.15539 8.69541 4.20157 8.71165C4.20172 8.7143 4.20187 8.717 4.20204 8.71973C4.20656 8.7934 4.21806 8.89726 4.24569 9.02284C4.30096 9.27405 4.42078 9.61213 4.67788 9.96835C4.67805 9.96859 4.67823 9.96883 4.6784 9.96906L4.8 9.88124C4.9269 10.0614 5.07167 10.2459 5.21168 10.4244C5.71299 11.0636 6.15329 11.625 5.49375 11.625H4.06875C3.65229 11.625 3.59394 11.4493 3.46781 11.0696C3.38383 10.8167 3.2698 10.4734 3 10.0312M2.56701 8.30555L2.41825 8.26869C2.40557 8.52847 2.45781 9.12307 3 10.0312M2.56701 8.30555C2.56541 8.37398 2.56901 8.46632 2.58593 8.58223C2.6296 8.88137 2.76253 9.3407 3.12842 9.95373M2.56701 8.30555L3.12842 9.95373M3 10.0312L3.12879 9.95435C3.12867 9.95414 3.12855 9.95393 3.12842 9.95373M3 10.0312L3.12805 9.95311C3.12817 9.95332 3.1283 9.95352 3.12842 9.95373M9.35633 9.25712C8.95501 8.80066 8.31524 8.47733 7.60272 8.23705C6.88665 7.99558 6.07747 7.83173 5.31908 7.70592C4.93944 7.64294 4.5711 7.58927 4.2326 7.54025L4.18902 7.53394C3.86692 7.4873 3.57399 7.44488 3.3231 7.40221C3.05944 7.35737 2.85009 7.31349 2.7058 7.26662C2.6331 7.243 2.58532 7.22123 2.55728 7.2031C2.55449 7.20129 2.55208 7.19965 2.55 7.19816V3.36898C2.5554 3.34864 2.57999 3.30698 2.6854 3.25247C2.79709 3.19472 2.96342 3.1418 3.1824 3.08966C3.4473 3.02659 3.76685 2.96934 4.12782 2.90467C4.36653 2.86191 4.62334 2.8159 4.89445 2.76282C6.23534 2.50027 7.87674 2.07291 9.00755 1.02937C9.55254 0.534485 9.97334 0.434165 10.2954 0.53173C10.6284 0.632626 10.9203 0.962259 11.161 1.47682C11.6395 2.49981 11.85 4.11458 11.85 5.43749C11.85 6.75198 11.5435 8.13446 11.0616 8.96704C10.8188 9.38652 10.5493 9.63611 10.2804 9.70017C10.0264 9.76066 9.71688 9.66663 9.35633 9.25712ZM0.15 6.52499V4.16249C0.15 3.81637 0.436784 3.52499 0.80625 3.52499H1.4625V7.16249H0.80625C0.434419 7.16249 0.15 6.88755 0.15 6.52499Z" fill="url(#paint0_linear_109_16235)" stroke="url(#paint1_linear_109_16235)" stroke-width="0.3"/>
</g>
<defs>
<linearGradient id="paint0_linear_109_16235" x1="-8.66667" y1="-10.0381" x2="1.93269" y2="13.4236" gradientUnits="userSpaceOnUse">
<stop stop-color="#F6D7B6"/>
<stop offset="1" stop-color="#53EFDE"/>
</linearGradient>
<linearGradient id="paint1_linear_109_16235" x1="6" y1="0.347931" x2="6" y2="11.625" gradientUnits="userSpaceOnUse">
<stop stop-color="white"/>
<stop offset="1" stop-color="white" stop-opacity="0"/>
</linearGradient>
<clipPath id="clip0_109_16235">
<rect width="12" height="12" fill="white"/>
</clipPath>
</defs>
</svg>
