<svg width="15" height="20" viewBox="0 0 15 20" fill="none" xmlns="http://www.w3.org/2000/svg">
<path d="M5.87809 19.182C4.59543 19.182 3.52076 18.9307 2.65409 18.428C1.78742 17.908 1.14609 17.232 0.730091 16.4C0.331425 15.568 0.149425 14.6667 0.184092 13.696H3.82409C3.87609 14.4587 4.13609 15.0307 4.60409 15.412C5.07209 15.7933 5.65276 15.984 6.34609 15.984C7.02209 15.984 7.62876 15.802 8.16609 15.438C8.72076 15.074 9.15409 14.58 9.46609 13.956C9.77809 13.3147 9.93409 12.6127 9.93409 11.85C9.93409 11.07 9.70876 10.4633 9.25809 10.03C8.80742 9.59665 8.19209 9.37999 7.41209 9.37999C6.58009 9.37999 5.93876 9.56199 5.48809 9.92599C5.03743 10.29 4.67343 10.6973 4.39609 11.148L0.860092 11.096L3.01809 0.799988H14.3021L13.7821 4.07599H5.43609L4.47409 8.54799H4.63009C4.90743 8.18399 5.38409 7.81132 6.06009 7.42999C6.75343 7.03132 7.64609 6.83199 8.73809 6.83199C10.2634 6.83199 11.4421 7.24799 12.2741 8.07999C13.1234 8.89465 13.5481 10.004 13.5481 11.408C13.5481 12.7947 13.2188 14.086 12.5601 15.282C11.9014 16.4607 10.9914 17.4053 9.83009 18.116C8.66876 18.8267 7.35143 19.182 5.87809 19.182Z" fill="url(#paint0_linear_1333_23)"/>
<defs>
<linearGradient id="paint0_linear_1333_23" x1="6.00009" y1="-12" x2="6.00009" y2="26" gradientUnits="userSpaceOnUse">
<stop stop-color="#67B854"/>
<stop offset="1" stop-color="#15A283"/>
</linearGradient>
</defs>
</svg>
