<svg width="15" height="19" viewBox="0 0 15 19" fill="none" xmlns="http://www.w3.org/2000/svg">
<path d="M5.69816 18.382C4.41549 18.382 3.34083 18.1307 2.47416 17.628C1.60749 17.108 0.96616 16.432 0.55016 15.6C0.151493 14.768 -0.0305067 13.8667 0.00416002 12.896H3.64416C3.69616 13.6587 3.95616 14.2307 4.42416 14.612C4.89216 14.9933 5.47283 15.184 6.16616 15.184C6.84216 15.184 7.44883 15.002 7.98616 14.638C8.54083 14.274 8.97416 13.78 9.28616 13.156C9.59816 12.5147 9.75416 11.8127 9.75416 11.05C9.75416 10.27 9.52883 9.66333 9.07816 9.23C8.62749 8.79667 8.01216 8.58 7.23216 8.58C6.40016 8.58 5.75883 8.762 5.30816 9.126C4.85749 9.49 4.49349 9.89733 4.21616 10.348L0.68016 10.296L2.83816 0H14.1222L13.6022 3.276H5.25616L4.29416 7.748H4.45016C4.72749 7.384 5.20416 7.01133 5.88016 6.63C6.57349 6.23133 7.46616 6.032 8.55816 6.032C10.0835 6.032 11.2622 6.448 12.0942 7.28C12.9435 8.09467 13.3682 9.204 13.3682 10.608C13.3682 11.9947 13.0388 13.286 12.3802 14.482C11.7215 15.6607 10.8115 16.6053 9.65016 17.316C8.48883 18.0267 7.17149 18.382 5.69816 18.382Z" fill="#C0EA6A"/>
</svg>
