<svg width="30" height="30" viewBox="0 0 30 30" fill="none" xmlns="http://www.w3.org/2000/svg">
<rect width="30" height="30" rx="6" fill="black"/>
<path d="M11.4369 11.7403H5.31209C5.14304 11.7403 5 11.5974 5 11.4286V5.31169C5 5.14286 5.14304 5 5.31209 5H11.4369C11.606 5 11.749 5.14286 11.749 5.31169V11.4286C11.762 11.5974 11.619 11.7403 11.4369 11.7403Z" fill="white"/>
<path d="M24.6879 11.7532H18.5631C18.394 11.7532 18.251 11.6104 18.251 11.4416V5.32467C18.251 5.15584 18.394 5.01299 18.5631 5.01299H24.6879C24.857 5.01299 25 5.15584 25 5.32467V11.4416C25 11.6104 24.857 11.7532 24.6879 11.7532Z" fill="white"/>
<path d="M11.4369 25H5.31209C5.14304 25 5 24.8571 5 24.6883V18.5714C5 18.4026 5.14304 18.2597 5.31209 18.2597H11.4369C11.606 18.2597 11.749 18.4026 11.749 18.5714V24.6883C11.762 24.8442 11.619 25 11.4369 25Z" fill="white"/>
<path d="M24.6879 25H18.5631C18.394 25 18.251 24.8571 18.251 24.6883V18.5714C18.251 18.4026 18.394 18.2597 18.5631 18.2597H24.6879C24.857 18.2597 25 18.4026 25 18.5714V24.6883C25 24.8571 24.857 25 24.6879 25Z" fill="white"/>
<path d="M18.0689 18.4026H11.9441C11.775 18.4026 11.632 18.2597 11.632 18.0909V11.974C11.632 11.8052 11.775 11.6623 11.9441 11.6623H18.0689C18.2379 11.6623 18.381 11.8052 18.381 11.974V18.0909C18.394 18.2597 18.2509 18.4026 18.0689 18.4026Z" fill="white"/>
</svg>
