<svg width="14" height="17" viewBox="0 0 14 17" fill="none" xmlns="http://www.w3.org/2000/svg">
<path fill-rule="evenodd" clip-rule="evenodd" d="M0 3C0 1.34315 1.34315 0 3 0H11C12.6569 0 14 1.34315 14 3V9.64584C13.2039 8.93328 12.1525 8.5 11 8.5C9.92835 8.5 8.9442 8.8746 8.17133 9.5H5.75C5.33579 9.5 5 9.83579 5 10.25C5 10.6642 5.33579 11 5.75 11H6.96776C6.66835 11.6025 6.5 12.2816 6.5 13C6.5 14.1525 6.93328 15.2039 7.64584 16H3C1.34315 16 0 14.6569 0 13V3ZM2 5.75C2 5.33579 2.33579 5 2.75 5H6.25C6.66421 5 7 5.33579 7 5.75C7 6.16421 6.66421 6.5 6.25 6.5H2.75C2.33579 6.5 2 6.16421 2 5.75ZM8.75 5C8.33579 5 8 5.33579 8 5.75C8 6.16421 8.33579 6.5 8.75 6.5H11.25C11.6642 6.5 12 6.16421 12 5.75C12 5.33579 11.6642 5 11.25 5H8.75ZM2 10.25C2 9.83579 2.33579 9.5 2.75 9.5H3.25C3.66421 9.5 4 9.83579 4 10.25C4 10.6642 3.66421 11 3.25 11H2.75C2.33579 11 2 10.6642 2 10.25ZM8 13C8 11.3431 9.34315 10 11 10C12.6569 10 14 11.3431 14 13C14 14.6569 12.6569 16 11 16C9.34315 16 8 14.6569 8 13ZM10.5 13.5C10.5 13.7761 10.7239 14 11 14H12.5C12.7761 14 13 13.7761 13 13.5C13 13.2239 12.7761 13 12.5 13H11.5V12C11.5 11.7239 11.2761 11.5 11 11.5C10.7239 11.5 10.5 11.7239 10.5 12V13.5Z" fill="#9C9DAA"/>
</svg>
