<svg width="17" height="19" viewBox="0 0 17 19" fill="none" xmlns="http://www.w3.org/2000/svg">
<g id="Group 1321319592">
<path id="Subtract" fill-rule="evenodd" clipRule="evenodd" d="M3 2C1.34315 2 0 3.34315 0 5V15C0 16.6569 1.34315 18 3 18H7.64584C6.93328 17.2039 6.5 16.1525 6.5 15C6.5 12.5147 8.51472 10.5 11 10.5C12.1525 10.5 13.2039 10.9333 14 11.6458V5C14 3.34315 12.6569 2 11 2H3Z" fill="#B3B4B7"/>
<circle id="Ellipse 6681" cx="13.5" cy="3.5" r="2.75" fill="#FF5266" stroke="#1F2027" stroke-width="1.5"/>
<rect id="Rectangle 4098" x="2" y="7" width="5" height="1.5" rx="0.75" fill="#1F2027"/>
<rect id="Rectangle 4100" x="8" y="7" width="4" height="1.5" rx="0.75" fill="#1F2027"/>
<rect id="Rectangle 4099" x="2" y="11.5" width="2" height="1.5" rx="0.75" fill="#1F2027"/>
<rect id="Rectangle 4101" x="5" y="11.5" width="4" height="1.5" rx="0.75" fill="#1F2027"/>
<path id="Subtract_2" fill-rule="evenodd" clipRule="evenodd" d="M11 12C9.34315 12 8 13.3431 8 15C8 16.6569 9.34315 18 11 18C12.6569 18 14 16.6569 14 15C14 13.3431 12.6569 12 11 12ZM11 16C10.7239 16 10.5 15.7761 10.5 15.5V14C10.5 13.7239 10.7239 13.5 11 13.5C11.2761 13.5 11.5 13.7239 11.5 14V15H12.5C12.7761 15 13 15.2239 13 15.5C13 15.7761 12.7761 16 12.5 16H11Z" fill="#B3B4B7"/>
</g>
</svg>
