<svg width="12" height="12" viewBox="0 0 12 12" fill="none" xmlns="http://www.w3.org/2000/svg">
<path d="M10.3375 8.16609L7.73954 8.16609L7.73954 9.0361L9.09554 9.0361C8.30954 9.83409 7.21754 10.3381 6.00554 10.3381C3.60554 10.3381 1.66754 8.40009 1.66754 6.00009L0.797539 6.00009C0.797538 8.86809 3.13154 11.2021 5.99954 11.2021C7.33154 11.2021 8.54954 10.6921 9.46754 9.8581L9.46754 10.7641L10.3375 10.7641L10.3375 8.16609ZM11.2015 6.0001C11.2015 3.1321 8.86754 0.798096 5.99954 0.798095C4.66754 0.798095 3.44954 1.3021 2.53154 2.1241L2.53154 1.2301L1.66154 1.2301L1.66154 3.8281L4.25954 3.8281L4.25954 2.9581L2.90354 2.9581C3.68954 2.1601 4.78154 1.6561 5.99354 1.6561C8.39354 1.6561 10.3315 3.5941 10.3315 5.9941L11.2015 5.9941L11.2015 6.0001Z" fill="#22232B"/>
</svg>
