<svg width="80" height="80" viewBox="0 0 80 80" fill="none" xmlns="http://www.w3.org/2000/svg">
<circle cx="40" cy="40" r="40" fill="#4B52DF" fill-opacity="0.04"/>
<g filter="url(#filter0_f_109_15127)">
<path d="M16.9999 61.5982C15.4232 59.9159 21.7498 56.6056 22.4202 54.1891C23.6244 53.5043 26.9964 51.538 27.82 50.9943C28.6436 50.4505 42.3326 39.4074 48.1166 39.8908L57.9638 50.1258L59.2443 53.1282L59.3818 57.9002L59.4346 59.7321L58.2943 61.5982C57.7857 64.6685 56.2736 63.9878 55.3235 65.2827C54.6344 66.2218 51.1539 69.3608 47.5 68.9999C42.7102 68.5267 40.5 66.4999 40.5 66.4999L32.9998 66.4999C29.7792 66.4999 23 67.9999 16.9999 61.5982Z" fill="#1C214A" fill-opacity="0.15"/>
</g>
<mask id="mask0_109_15127" style="mask-type:alpha" maskUnits="userSpaceOnUse" x="0" y="0" width="80" height="80">
<circle cx="40" cy="40" r="40" fill="#4B52DF"/>
</mask>
<g mask="url(#mask0_109_15127)">
<g opacity="0.2">
<path d="M11 29.7191L11.5 28.8608L13.5 30.0052V43.5973L12.5 44.7416V30.5773L11 29.7191Z" fill="url(#paint0_linear_109_15127)"/>
<g filter="url(#filter1_b_109_15127)">
<path d="M17.25 33.152L18 32.2937L16.25 31.1494V32.5798L17.25 33.152Z" fill="white" fill-opacity="0.1"/>
</g>
<path d="M14.9999 26L11.4999 28.8608L13.4999 30.0052V41.8609L16.2499 43.2913V31.1495L17.9999 32.2938L14.9999 26Z" fill="url(#paint1_linear_109_15127)" fill-opacity="0.7"/>
<path d="M14.9999 26L11.4999 28.8608L13.4999 30.0052V41.9143L16.2499 43.3447V31.1495L17.9999 32.2938L14.9999 26Z" fill="url(#paint2_linear_109_15127)" fill-opacity="0.8"/>
</g>
<g opacity="0.2">
<path d="M64 40.1878L64.4286 39.4521L66.1428 40.433V52.0834L65.2857 53.0643V40.9234L64 40.1878Z" fill="url(#paint3_linear_109_15127)"/>
<g filter="url(#filter2_b_109_15127)">
<path d="M69.3571 43.1302L70 42.3946L68.5 41.4137V42.6398L69.3571 43.1302Z" fill="white" fill-opacity="0.1"/>
</g>
<path d="M67.4286 37L64.4286 39.4521L66.1429 40.433V50.5951L68.5 51.8211V41.4139L70 42.3947L67.4286 37Z" fill="url(#paint4_linear_109_15127)" fill-opacity="0.7"/>
<path d="M67.4286 37L64.4286 39.4521L66.1429 40.433V50.6409L68.5 51.8669V41.4139L70 42.3947L67.4286 37Z" fill="url(#paint5_linear_109_15127)" fill-opacity="0.8"/>
</g>
<g filter="url(#filter3_b_109_15127)">
<path d="M22.2219 54.8863L22.0971 50.5566L47.8128 51.9822L47.412 56.8687C45.3251 59.6371 37.5245 59.6121 33.7276 59.4298C26.6763 59.0913 22.2531 55.9687 22.2219 54.8863Z" fill="url(#paint6_linear_109_15127)" fill-opacity="0.8"/>
</g>
<path d="M22.2219 54.8863L22.0971 50.5566L47.8128 51.9822L47.412 56.8687C45.3251 59.6371 37.5245 59.6121 33.7276 59.4298C26.6763 59.0913 22.2531 55.9687 22.2219 54.8863Z" fill="url(#paint7_linear_109_15127)" fill-opacity="0.8"/>
<g filter="url(#filter4_bd_109_15127)">
<ellipse cx="4.31495" cy="13.0616" rx="4.31495" ry="13.0616" transform="matrix(0.0433899 -1.00542 0.991724 0.0562584 21.8966 54.8949)" fill="#A42921"/>
<path d="M35.218 47.1039C38.7836 47.3061 41.9846 47.9732 44.2763 48.8839C45.423 49.3395 46.3339 49.853 46.949 50.3935C47.5659 50.9354 47.865 51.4854 47.842 52.0178C47.819 52.5502 47.474 53.0636 46.8135 53.5331C46.1549 54.0012 45.2042 54.4091 44.0239 54.7328C41.6649 55.3797 38.4222 55.6812 34.8566 55.4789C31.291 55.2766 28.0901 54.6096 25.7983 53.6989C24.6516 53.2432 23.7407 52.7297 23.1256 52.1893C22.5088 51.6474 22.2096 51.0974 22.2326 50.565C22.2556 50.0326 22.6006 49.5192 23.2611 49.0497C23.9197 48.5815 24.8704 48.1736 26.0507 47.85C28.4097 47.2031 31.6525 46.9016 35.218 47.1039Z" stroke="#C95048" stroke-width="0.3"/>
</g>
<g filter="url(#filter5_bd_109_15127)">
<ellipse cx="2.84043" cy="9.1221" rx="2.84043" ry="9.1221" transform="matrix(0.13019 -0.991847 -0.998187 -0.0549782 43.6314 54.3573)" fill="#C7433B"/>
</g>
<g filter="url(#filter6_b_109_15127)">
<path d="M22.0041 50.6329L21.8793 46.3032L47.595 47.7287L47.1942 52.6152C45.1073 55.3837 37.3067 55.3587 33.5098 55.1764C26.4585 54.8379 22.0353 51.7153 22.0041 50.6329Z" fill="url(#paint8_linear_109_15127)" fill-opacity="0.8"/>
</g>
<path d="M22.0041 50.6329L21.8793 46.3032L47.595 47.7287L47.1942 52.6152C45.1073 55.3837 37.3067 55.3587 33.5098 55.1764C26.4585 54.8379 22.0353 51.7153 22.0041 50.6329Z" fill="url(#paint9_linear_109_15127)" fill-opacity="0.8"/>
<g filter="url(#filter7_bd_109_15127)">
<ellipse cx="4.31495" cy="13.0616" rx="4.31495" ry="13.0616" transform="matrix(0.0433899 -1.00542 0.991724 0.0562584 21.6797 50.6415)" fill="#CE5B53"/>
<path d="M35.0011 42.8505C38.5667 43.0527 41.7677 43.7197 44.0594 44.6305C45.2061 45.0861 46.117 45.5996 46.7321 46.14C47.3489 46.682 47.6481 47.232 47.6251 47.7644C47.6021 48.2968 47.2571 48.8102 46.5966 49.2797C45.938 49.7478 44.9873 50.1557 43.807 50.4794C41.448 51.1263 38.2053 51.4278 34.6397 51.2255C31.0741 51.0232 27.8731 50.3562 25.5814 49.4455C24.4347 48.9898 23.5238 48.4763 22.9087 47.9359C22.2919 47.3939 21.9927 46.844 22.0157 46.3116C22.0387 45.7792 22.3837 45.2658 23.0442 44.7963C23.7028 44.3281 24.6535 43.9202 25.8338 43.5966C28.1928 42.9497 31.4355 42.6482 35.0011 42.8505Z" stroke="#E76B63" stroke-width="0.3"/>
</g>
<g filter="url(#filter8_bd_109_15127)">
<ellipse cx="2.84043" cy="9.1221" rx="2.84043" ry="9.1221" transform="matrix(0.13019 -0.991847 -0.998187 -0.0549782 43.4133 50.1034)" fill="#C7433B"/>
</g>
<g filter="url(#filter9_b_109_15127)">
<path d="M16.7559 60.5143L16.6415 56.5437L40.2246 57.851L39.857 62.3323C37.9432 64.8711 30.7895 64.8482 27.3075 64.681C20.8409 64.3706 16.7845 61.507 16.7559 60.5143Z" fill="url(#paint10_linear_109_15127)" fill-opacity="0.8"/>
</g>
<path d="M16.7559 60.5143L16.6415 56.5437L40.2246 57.851L39.857 62.3323C37.9432 64.8711 30.7895 64.8482 27.3075 64.681C20.8409 64.3706 16.7845 61.507 16.7559 60.5143Z" fill="url(#paint11_linear_109_15127)" fill-opacity="0.8"/>
<g filter="url(#filter10_bd_109_15127)">
<ellipse cx="3.95712" cy="11.9784" rx="3.95712" ry="11.9784" transform="matrix(0.0433899 -1.00542 0.991724 0.0562584 16.4577 60.5216)" fill="#CE5B53"/>
<path d="M28.6738 53.3892C31.9427 53.5746 34.8769 54.1861 36.9771 55.0207C38.028 55.4383 38.8619 55.9086 39.4245 56.4029C39.9888 56.8987 40.2599 57.3997 40.2391 57.8824C40.2183 58.3651 39.9054 58.8329 39.3011 59.2624C38.6987 59.6906 37.8283 60.0642 36.7466 60.3609C34.5849 60.9537 31.6124 61.2301 28.3434 61.0447C25.0745 60.8592 22.1403 60.2477 20.0402 59.4131C18.9893 58.9955 18.1554 58.5253 17.5928 58.031C17.0284 57.5351 16.7573 57.0342 16.7781 56.5515C16.799 56.0688 17.1119 55.601 17.7162 55.1714C18.3186 54.7432 19.1889 54.3696 20.2706 54.073C22.4324 53.4802 25.4049 53.2037 28.6738 53.3892Z" stroke="#E76B63" stroke-width="0.3"/>
</g>
<g filter="url(#filter11_bd_109_15127)">
<ellipse cx="2.60488" cy="8.64862" rx="2.60488" ry="8.64862" transform="matrix(0.13019 -0.991847 -0.998187 -0.0549782 36.954 60.0598)" fill="#E06C65"/>
</g>
<path d="M24.2635 57.1313C23.6098 57.0985 23.0882 56.9188 23.0977 56.7299C23.1072 56.541 23.6441 56.4145 24.2979 56.4474C24.9513 56.4802 25.4732 56.6599 25.4637 56.8488C25.4542 57.0377 24.9169 57.1642 24.2635 57.1313ZM26.2324 58.3084L26.3754 55.4631L28.0005 55.5448L27.8576 58.3901L26.2324 58.3084ZM30.2907 57.0872C30.2628 57.6416 31.7787 58.1694 33.6879 58.2743L33.7458 58.2774L33.7254 58.6843C31.012 58.548 28.8443 57.8013 28.8837 57.0165C28.9227 56.2396 31.1104 55.7167 33.787 55.8386L33.8682 55.8425L33.8478 56.2495C31.9114 56.1522 30.3188 56.5272 30.2907 57.0872ZM32.5962 57.5501C31.9428 57.5173 31.4209 57.3376 31.4304 57.1487C31.4399 56.9598 31.9772 56.8333 32.6306 56.8662C33.2839 56.899 33.8058 57.0787 33.7964 57.2676C33.7869 57.4565 33.2496 57.583 32.5962 57.5501Z" fill="white"/>
<g filter="url(#filter12_b_109_15127)">
<path d="M25.005 45.9172L24.8802 41.5875L50.596 43.013L50.1951 47.8995C48.1082 50.668 40.3076 50.643 36.5107 50.4607C29.4594 50.1222 25.0362 46.9996 25.005 45.9172Z" fill="url(#paint12_linear_109_15127)" fill-opacity="0.8"/>
</g>
<path d="M25.005 45.9172L24.8802 41.5875L50.596 43.013L50.1951 47.8995C48.1082 50.668 40.3076 50.643 36.5107 50.4607C29.4594 50.1222 25.0362 46.9996 25.005 45.9172Z" fill="url(#paint13_linear_109_15127)" fill-opacity="0.8"/>
<g filter="url(#filter13_bd_109_15127)">
<ellipse cx="4.31495" cy="13.0616" rx="4.31495" ry="13.0616" transform="matrix(0.0433899 -1.00542 0.991724 0.0562584 24.68 45.9252)" fill="#CE5B53"/>
<path d="M38.0014 38.1341C41.567 38.3364 44.768 39.0034 47.0597 39.9142C48.2064 40.3698 49.1173 40.8833 49.7324 41.4237C50.3492 41.9657 50.6484 42.5157 50.6254 43.048C50.6024 43.5804 50.2574 44.0939 49.5969 44.5634C48.9383 45.0315 47.9876 45.4394 46.8073 45.7631C44.4483 46.41 41.2056 46.7114 37.64 46.5092C34.0744 46.3069 30.8734 45.6399 28.5817 44.7292C27.435 44.2735 26.5241 43.76 25.909 43.2196C25.2922 42.6776 24.993 42.1277 25.016 41.5953C25.039 41.0629 25.384 40.5495 26.0445 40.08C26.7031 39.6118 27.6538 39.2039 28.8341 38.8803C31.1931 38.2334 34.4359 37.9319 38.0014 38.1341Z" stroke="#E76B63" stroke-width="0.3"/>
</g>
<g filter="url(#filter14_bd_109_15127)">
<ellipse cx="2.84043" cy="9.43069" rx="2.84043" ry="9.43069" transform="matrix(0.13019 -0.991847 -0.998187 -0.0549782 47.0299 45.4216)" fill="#E06C65"/>
</g>
<path d="M33.1917 42.2284C32.4788 42.1925 31.9101 41.9966 31.9205 41.7906C31.9308 41.5847 32.5163 41.4467 33.2292 41.4826C33.9416 41.5184 34.5107 41.7143 34.5004 41.9203C34.49 42.1263 33.9042 42.2642 33.1917 42.2284ZM35.3386 43.5118L35.4945 40.4093L37.2666 40.4984L37.1107 43.6009L35.3386 43.5118ZM39.7638 42.1803C39.7335 42.7848 41.3864 43.3603 43.4682 43.4747L43.5315 43.478L43.5091 43.9218C40.5504 43.7731 38.1866 42.9589 38.2296 42.1032C38.2722 41.256 40.6577 40.6858 43.5763 40.8188L43.6649 40.823L43.6426 41.2668C41.5311 41.1606 39.7945 41.5696 39.7638 42.1803ZM42.2778 42.685C41.5654 42.6492 40.9963 42.4532 41.0066 42.2473C41.017 42.0413 41.6028 41.9034 42.3153 41.9392C43.0278 41.975 43.5969 42.171 43.5865 42.3769C43.5762 42.5829 42.9903 42.7208 42.2778 42.685Z" fill="white"/>
<path d="M42.0312 42.289L44.8229 40.7789L56.6759 64.1877C56.6759 64.1877 55.6071 65.8239 52.451 66.8936C51.7986 67.1147 50.824 67.4375 49.3446 67.0485C44.1686 65.6876 35.985 53.8678 39.5602 45.1585C40.0736 43.4377 41.4214 42.5285 42.0312 42.289Z" fill="url(#paint14_linear_109_15127)" fill-opacity="0.8"/>
<path d="M42.0306 42.2896L44.8223 40.7796L56.6753 64.1883C56.6753 64.1883 55.6065 65.8245 52.4504 66.8942C51.798 67.1153 50.8234 67.4381 49.344 67.0491C44.1681 65.6882 35.9845 53.8684 39.5596 45.1591C40.073 43.4383 41.4208 42.5291 42.0306 42.2896Z" fill="url(#paint15_linear_109_15127)" fill-opacity="0.8"/>
<g filter="url(#filter15_bd_109_15127)">
<ellipse cx="8.22591" cy="13.4914" rx="8.22591" ry="13.4914" transform="matrix(0.924714 -0.387809 0.380245 0.921911 37.9625 43.635)" fill="#CE5B53"/>
<path d="M58.167 49.7509C59.5749 53.1643 60.0004 56.603 59.5572 59.3996C59.1135 62.1993 57.8059 64.3294 55.7721 65.1823C53.7384 66.0352 51.3184 65.4684 49.0367 63.8117C46.7574 62.1568 44.6391 59.4282 43.2312 56.0147C41.8233 52.6012 41.3979 49.1626 41.8411 46.3659C42.2848 43.5663 43.5924 41.4361 45.6261 40.5832C47.6599 39.7303 50.0799 40.2971 52.3616 41.9538C54.6408 43.6087 56.7591 46.3374 58.167 49.7509Z" stroke="#E76B63" stroke-width="0.3"/>
</g>
<g filter="url(#filter16_bd_109_15127)">
<ellipse cx="6.54574" cy="10.3981" rx="6.54574" ry="10.3981" transform="matrix(0.502991 -0.863975 -0.595778 -0.803862 53.9711 66.701)" fill="#E06C65"/>
</g>
<path d="M55.0575 56.688C55.455 57.3706 55.4949 58.0872 55.1472 58.2897C54.7995 58.4922 54.1958 58.1038 53.7984 57.4213C53.4011 56.7391 53.361 56.022 53.7087 55.8195C54.0564 55.617 54.6603 56.0058 55.0575 56.688ZM55.8074 53.4231L50.5693 56.4735L49.5812 54.7768L54.8193 51.7263L55.8074 53.4231ZM50.7664 50.7847C51.787 50.1903 51.681 48.1011 50.5364 46.0977L50.5014 46.0371L51.2506 45.6008C52.9003 48.4337 53.0665 51.4123 51.6218 52.2536C50.1915 53.0866 47.7186 51.5125 46.0685 48.7321L46.0187 48.6475L46.7679 48.2112C47.9453 50.2329 49.7354 51.385 50.7664 50.7847ZM49.9913 47.9884C50.3886 48.6705 50.4287 49.3876 50.081 49.5901C49.7332 49.7926 49.1294 49.4038 48.7321 48.7216C48.3349 48.0395 48.2947 47.3224 48.6425 47.1199C48.9902 46.9174 49.5941 47.3062 49.9913 47.9884Z" fill="white"/>
<path d="M25.852 15.4538C26.8246 13.4155 29.0428 12.2822 31.2644 12.6886L55.8998 17.1954C58.2748 17.6299 60 19.6994 60 22.1138V30.1658C60 33.3019 57.1464 35.6638 54.0655 35.0777L29.8802 30.4764C27.6954 30.0608 26.0478 28.2521 25.8371 26.0381L25.1311 18.6171C25.0453 17.7155 25.206 16.8076 25.596 15.9903L25.852 15.4538Z" fill="url(#paint16_linear_109_15127)"/>
<g filter="url(#filter17_ii_109_15127)">
<path d="M25 18.2329C25 15.7365 27.2616 13.85 29.7175 14.2978L54.9923 18.9061C56.9459 19.2623 58.3424 20.9978 58.2723 22.9823L57.9324 32.6083C57.8447 35.0937 55.5343 36.8974 53.1019 36.3794L47.1912 35.1208C46.3351 34.9385 45.4428 35.0421 44.6512 35.4156L43.0098 36.1901C41.5027 36.9013 39.7126 36.6035 38.5168 35.4428L37.141 34.1073C36.6109 33.5927 35.9485 33.235 35.2275 33.0738L28.1275 31.4869C26.2996 31.0783 25 29.4561 25 27.5832V18.2329Z" fill="url(#paint17_linear_109_15127)" fill-opacity="0.8"/>
</g>
<g filter="url(#filter18_dii_109_15127)">
<path d="M32.5 25.5L37.3691 23.4125L40.4307 27.9587L50.1279 24.1254M50.1279 24.1254L45.2722 22.4022M50.1279 24.1254L48.1175 28.7081" stroke="url(#paint18_linear_109_15127)" stroke-width="2.5" strokeLinecap="square" stroke-linejoin="bevel" shape-rendering="crispEdges"/>
</g>
<g filter="url(#filter19_f_109_15127)">
<ellipse cx="38.5" cy="41" rx="9.5" ry="2" fill="#7CFFE8" fill-opacity="0.4"/>
</g>
<g filter="url(#filter20_f_109_15127)">
<ellipse cx="54.4235" cy="49.1797" rx="6.71988" ry="3" transform="rotate(-126.734 54.4235 49.1797)" fill="#78FFE7" fill-opacity="0.3"/>
</g>
<g filter="url(#filter21_f_109_15127)">
<ellipse cx="22.1909" cy="60.3743" rx="6.71988" ry="3.51207" transform="rotate(-170.897 22.1909 60.3743)" fill="#78FFE7" fill-opacity="0.3"/>
</g>
</g>
<defs>
<filter id="filter0_f_109_15127" x="14.7484" y="37.8754" width="46.6862" height="33.1533" filterUnits="userSpaceOnUse" color-interpolation-filters="sRGB">
<feFlood flood-opacity="0" result="BackgroundImageFix"/>
<feBlend mode="normal" in="SourceGraphic" in2="BackgroundImageFix" result="shape"/>
<feGaussianBlur stdDeviation="1" result="effect1_foregroundBlur_109_15127"/>
</filter>
<filter id="filter1_b_109_15127" x="12.25" y="27.1494" width="9.75" height="10.0026" filterUnits="userSpaceOnUse" color-interpolation-filters="sRGB">
<feFlood flood-opacity="0" result="BackgroundImageFix"/>
<feGaussianBlur in="BackgroundImageFix" stdDeviation="2"/>
<feComposite in2="SourceAlpha" operator="in" result="effect1_backgroundBlur_109_15127"/>
<feBlend mode="normal" in="SourceGraphic" in2="effect1_backgroundBlur_109_15127" result="shape"/>
</filter>
<filter id="filter2_b_109_15127" x="64.5" y="37.4137" width="9.5" height="9.71655" filterUnits="userSpaceOnUse" color-interpolation-filters="sRGB">
<feFlood flood-opacity="0" result="BackgroundImageFix"/>
<feGaussianBlur in="BackgroundImageFix" stdDeviation="2"/>
<feComposite in2="SourceAlpha" operator="in" result="effect1_backgroundBlur_109_15127"/>
<feBlend mode="normal" in="SourceGraphic" in2="effect1_backgroundBlur_109_15127" result="shape"/>
</filter>
<filter id="filter3_b_109_15127" x="18.1529" y="46.6124" width="33.6042" height="16.8313" filterUnits="userSpaceOnUse" color-interpolation-filters="sRGB">
<feFlood flood-opacity="0" result="BackgroundImageFix"/>
<feGaussianBlur in="BackgroundImageFix" stdDeviation="1.97213"/>
<feComposite in2="SourceAlpha" operator="in" result="effect1_backgroundBlur_109_15127"/>
<feBlend mode="normal" in="SourceGraphic" in2="effect1_backgroundBlur_109_15127" result="shape"/>
</filter>
<filter id="filter4_bd_109_15127" x="12.0825" y="36.8906" width="45.9097" height="28.8016" filterUnits="userSpaceOnUse" color-interpolation-filters="sRGB">
<feFlood flood-opacity="0" result="BackgroundImageFix"/>
<feGaussianBlur in="BackgroundImageFix" stdDeviation="5"/>
<feComposite in2="SourceAlpha" operator="in" result="effect1_backgroundBlur_109_15127"/>
<feColorMatrix in="SourceAlpha" type="matrix" values="0 0 0 0 0 0 0 0 0 0 0 0 0 0 0 0 0 0 127 0" result="hardAlpha"/>
<feOffset dy="1"/>
<feGaussianBlur stdDeviation="1"/>
<feComposite in2="hardAlpha" operator="out"/>
<feColorMatrix type="matrix" values="0 0 0 0 0 0 0 0 0 0 0 0 0 0 0 0 0 0 0.1 0"/>
<feBlend mode="normal" in2="effect1_backgroundBlur_109_15127" result="effect2_dropShadow_109_15127"/>
<feBlend mode="normal" in="SourceGraphic" in2="effect2_dropShadow_109_15127" result="shape"/>
</filter>
<filter id="filter5_bd_109_15127" x="15.7824" y="38.1765" width="38.2264" height="25.724" filterUnits="userSpaceOnUse" color-interpolation-filters="sRGB">
<feFlood flood-opacity="0" result="BackgroundImageFix"/>
<feGaussianBlur in="BackgroundImageFix" stdDeviation="5"/>
<feComposite in2="SourceAlpha" operator="in" result="effect1_backgroundBlur_109_15127"/>
<feColorMatrix in="SourceAlpha" type="matrix" values="0 0 0 0 0 0 0 0 0 0 0 0 0 0 0 0 0 0 127 0" result="hardAlpha"/>
<feOffset dy="1"/>
<feGaussianBlur stdDeviation="1"/>
<feComposite in2="hardAlpha" operator="out"/>
<feColorMatrix type="matrix" values="0 0 0 0 0 0 0 0 0 0 0 0 0 0 0 0 0 0 0.1 0"/>
<feBlend mode="normal" in2="effect1_backgroundBlur_109_15127" result="effect2_dropShadow_109_15127"/>
<feBlend mode="normal" in="SourceGraphic" in2="effect2_dropShadow_109_15127" result="shape"/>
</filter>
<filter id="filter6_b_109_15127" x="17.9351" y="42.359" width="33.6042" height="16.8313" filterUnits="userSpaceOnUse" color-interpolation-filters="sRGB">
<feFlood flood-opacity="0" result="BackgroundImageFix"/>
<feGaussianBlur in="BackgroundImageFix" stdDeviation="1.97213"/>
<feComposite in2="SourceAlpha" operator="in" result="effect1_backgroundBlur_109_15127"/>
<feBlend mode="normal" in="SourceGraphic" in2="effect1_backgroundBlur_109_15127" result="shape"/>
</filter>
<filter id="filter7_bd_109_15127" x="11.8656" y="32.6372" width="45.9097" height="28.8016" filterUnits="userSpaceOnUse" color-interpolation-filters="sRGB">
<feFlood flood-opacity="0" result="BackgroundImageFix"/>
<feGaussianBlur in="BackgroundImageFix" stdDeviation="5"/>
<feComposite in2="SourceAlpha" operator="in" result="effect1_backgroundBlur_109_15127"/>
<feColorMatrix in="SourceAlpha" type="matrix" values="0 0 0 0 0 0 0 0 0 0 0 0 0 0 0 0 0 0 127 0" result="hardAlpha"/>
<feOffset dy="1"/>
<feGaussianBlur stdDeviation="1"/>
<feComposite in2="hardAlpha" operator="out"/>
<feColorMatrix type="matrix" values="0 0 0 0 0 0 0 0 0 0 0 0 0 0 0 0 0 0 0.1 0"/>
<feBlend mode="normal" in2="effect1_backgroundBlur_109_15127" result="effect2_dropShadow_109_15127"/>
<feBlend mode="normal" in="SourceGraphic" in2="effect2_dropShadow_109_15127" result="shape"/>
</filter>
<filter id="filter8_bd_109_15127" x="15.5643" y="33.9226" width="38.2264" height="25.724" filterUnits="userSpaceOnUse" color-interpolation-filters="sRGB">
<feFlood flood-opacity="0" result="BackgroundImageFix"/>
<feGaussianBlur in="BackgroundImageFix" stdDeviation="5"/>
<feComposite in2="SourceAlpha" operator="in" result="effect1_backgroundBlur_109_15127"/>
<feColorMatrix in="SourceAlpha" type="matrix" values="0 0 0 0 0 0 0 0 0 0 0 0 0 0 0 0 0 0 127 0" result="hardAlpha"/>
<feOffset dy="1"/>
<feGaussianBlur stdDeviation="1"/>
<feComposite in2="hardAlpha" operator="out"/>
<feColorMatrix type="matrix" values="0 0 0 0 0 0 0 0 0 0 0 0 0 0 0 0 0 0 0.1 0"/>
<feBlend mode="normal" in2="effect1_backgroundBlur_109_15127" result="effect2_dropShadow_109_15127"/>
<feBlend mode="normal" in="SourceGraphic" in2="effect2_dropShadow_109_15127" result="shape"/>
</filter>
<filter id="filter9_b_109_15127" x="12.6972" y="52.5994" width="31.4717" height="16.0897" filterUnits="userSpaceOnUse" color-interpolation-filters="sRGB">
<feFlood flood-opacity="0" result="BackgroundImageFix"/>
<feGaussianBlur in="BackgroundImageFix" stdDeviation="1.97213"/>
<feComposite in2="SourceAlpha" operator="in" result="effect1_backgroundBlur_109_15127"/>
<feBlend mode="normal" in="SourceGraphic" in2="effect1_backgroundBlur_109_15127" result="shape"/>
</filter>
<filter id="filter10_bd_109_15127" x="6.62811" y="43.181" width="43.761" height="28.0718" filterUnits="userSpaceOnUse" color-interpolation-filters="sRGB">
<feFlood flood-opacity="0" result="BackgroundImageFix"/>
<feGaussianBlur in="BackgroundImageFix" stdDeviation="5"/>
<feComposite in2="SourceAlpha" operator="in" result="effect1_backgroundBlur_109_15127"/>
<feColorMatrix in="SourceAlpha" type="matrix" values="0 0 0 0 0 0 0 0 0 0 0 0 0 0 0 0 0 0 127 0" result="hardAlpha"/>
<feOffset dy="1"/>
<feGaussianBlur stdDeviation="1"/>
<feComposite in2="hardAlpha" operator="out"/>
<feColorMatrix type="matrix" values="0 0 0 0 0 0 0 0 0 0 0 0 0 0 0 0 0 0 0.1 0"/>
<feBlend mode="normal" in2="effect1_backgroundBlur_109_15127" result="effect2_dropShadow_109_15127"/>
<feBlend mode="normal" in="SourceGraphic" in2="effect2_dropShadow_109_15127" result="shape"/>
</filter>
<filter id="filter11_bd_109_15127" x="10.0205" y="44.3732" width="37.2794" height="25.255" filterUnits="userSpaceOnUse" color-interpolation-filters="sRGB">
<feFlood flood-opacity="0" result="BackgroundImageFix"/>
<feGaussianBlur in="BackgroundImageFix" stdDeviation="5"/>
<feComposite in2="SourceAlpha" operator="in" result="effect1_backgroundBlur_109_15127"/>
<feColorMatrix in="SourceAlpha" type="matrix" values="0 0 0 0 0 0 0 0 0 0 0 0 0 0 0 0 0 0 127 0" result="hardAlpha"/>
<feOffset dy="1"/>
<feGaussianBlur stdDeviation="1"/>
<feComposite in2="hardAlpha" operator="out"/>
<feColorMatrix type="matrix" values="0 0 0 0 0 0 0 0 0 0 0 0 0 0 0 0 0 0 0.1 0"/>
<feBlend mode="normal" in2="effect1_backgroundBlur_109_15127" result="effect2_dropShadow_109_15127"/>
<feBlend mode="normal" in="SourceGraphic" in2="effect2_dropShadow_109_15127" result="shape"/>
</filter>
<filter id="filter12_b_109_15127" x="20.936" y="37.6433" width="33.6042" height="16.8313" filterUnits="userSpaceOnUse" color-interpolation-filters="sRGB">
<feFlood flood-opacity="0" result="BackgroundImageFix"/>
<feGaussianBlur in="BackgroundImageFix" stdDeviation="1.97213"/>
<feComposite in2="SourceAlpha" operator="in" result="effect1_backgroundBlur_109_15127"/>
<feBlend mode="normal" in="SourceGraphic" in2="effect1_backgroundBlur_109_15127" result="shape"/>
</filter>
<filter id="filter13_bd_109_15127" x="14.8659" y="27.9209" width="45.9097" height="28.8016" filterUnits="userSpaceOnUse" color-interpolation-filters="sRGB">
<feFlood flood-opacity="0" result="BackgroundImageFix"/>
<feGaussianBlur in="BackgroundImageFix" stdDeviation="5"/>
<feComposite in2="SourceAlpha" operator="in" result="effect1_backgroundBlur_109_15127"/>
<feColorMatrix in="SourceAlpha" type="matrix" values="0 0 0 0 0 0 0 0 0 0 0 0 0 0 0 0 0 0 127 0" result="hardAlpha"/>
<feOffset dy="1"/>
<feGaussianBlur stdDeviation="1"/>
<feComposite in2="hardAlpha" operator="out"/>
<feColorMatrix type="matrix" values="0 0 0 0 0 0 0 0 0 0 0 0 0 0 0 0 0 0 0.1 0"/>
<feBlend mode="normal" in2="effect1_backgroundBlur_109_15127" result="effect2_dropShadow_109_15127"/>
<feBlend mode="normal" in="SourceGraphic" in2="effect2_dropShadow_109_15127" result="shape"/>
</filter>
<filter id="filter14_bd_109_15127" x="18.5651" y="29.2208" width="38.842" height="25.7301" filterUnits="userSpaceOnUse" color-interpolation-filters="sRGB">
<feFlood flood-opacity="0" result="BackgroundImageFix"/>
<feGaussianBlur in="BackgroundImageFix" stdDeviation="5"/>
<feComposite in2="SourceAlpha" operator="in" result="effect1_backgroundBlur_109_15127"/>
<feColorMatrix in="SourceAlpha" type="matrix" values="0 0 0 0 0 0 0 0 0 0 0 0 0 0 0 0 0 0 127 0" result="hardAlpha"/>
<feOffset dy="1"/>
<feGaussianBlur stdDeviation="1"/>
<feComposite in2="hardAlpha" operator="out"/>
<feColorMatrix type="matrix" values="0 0 0 0 0 0 0 0 0 0 0 0 0 0 0 0 0 0 0.1 0"/>
<feBlend mode="normal" in2="effect1_backgroundBlur_109_15127" result="effect2_dropShadow_109_15127"/>
<feBlend mode="normal" in="SourceGraphic" in2="effect2_dropShadow_109_15127" result="shape"/>
</filter>
<filter id="filter15_bd_109_15127" x="31.5233" y="30.0393" width="38.3516" height="45.687" filterUnits="userSpaceOnUse" color-interpolation-filters="sRGB">
<feFlood flood-opacity="0" result="BackgroundImageFix"/>
<feGaussianBlur in="BackgroundImageFix" stdDeviation="5"/>
<feComposite in2="SourceAlpha" operator="in" result="effect1_backgroundBlur_109_15127"/>
<feColorMatrix in="SourceAlpha" type="matrix" values="0 0 0 0 0 0 0 0 0 0 0 0 0 0 0 0 0 0 127 0" result="hardAlpha"/>
<feOffset dy="1"/>
<feGaussianBlur stdDeviation="1"/>
<feComposite in2="hardAlpha" operator="out"/>
<feColorMatrix type="matrix" values="0 0 0 0 0 0 0 0 0 0 0 0 0 0 0 0 0 0 0.1 0"/>
<feBlend mode="normal" in2="effect1_backgroundBlur_109_15127" result="effect2_dropShadow_109_15127"/>
<feBlend mode="normal" in="SourceGraphic" in2="effect2_dropShadow_109_15127" result="shape"/>
</filter>
<filter id="filter16_bd_109_15127" x="34.0517" y="32.594" width="34.0338" height="40.1862" filterUnits="userSpaceOnUse" color-interpolation-filters="sRGB">
<feFlood flood-opacity="0" result="BackgroundImageFix"/>
<feGaussianBlur in="BackgroundImageFix" stdDeviation="5"/>
<feComposite in2="SourceAlpha" operator="in" result="effect1_backgroundBlur_109_15127"/>
<feColorMatrix in="SourceAlpha" type="matrix" values="0 0 0 0 0 0 0 0 0 0 0 0 0 0 0 0 0 0 127 0" result="hardAlpha"/>
<feOffset dy="1"/>
<feGaussianBlur stdDeviation="1"/>
<feComposite in2="hardAlpha" operator="out"/>
<feColorMatrix type="matrix" values="0 0 0 0 0 0 0 0 0 0 0 0 0 0 0 0 0 0 0.1 0"/>
<feBlend mode="normal" in2="effect1_backgroundBlur_109_15127" result="effect2_dropShadow_109_15127"/>
<feBlend mode="normal" in="SourceGraphic" in2="effect2_dropShadow_109_15127" result="shape"/>
</filter>
<filter id="filter17_ii_109_15127" x="24.5" y="13.7317" width="34.3748" height="23.6411" filterUnits="userSpaceOnUse" color-interpolation-filters="sRGB">
<feFlood flood-opacity="0" result="BackgroundImageFix"/>
<feBlend mode="normal" in="SourceGraphic" in2="BackgroundImageFix" result="shape"/>
<feColorMatrix in="SourceAlpha" type="matrix" values="0 0 0 0 0 0 0 0 0 0 0 0 0 0 0 0 0 0 127 0" result="hardAlpha"/>
<feOffset dx="0.6" dy="0.8"/>
<feGaussianBlur stdDeviation="0.4"/>
<feComposite in2="hardAlpha" operator="arithmetic" k2="-1" k3="1"/>
<feColorMatrix type="matrix" values="0 0 0 0 1 0 0 0 0 1 0 0 0 0 1 0 0 0 0.5 0"/>
<feBlend mode="normal" in2="shape" result="effect1_innerShadow_109_15127"/>
<feColorMatrix in="SourceAlpha" type="matrix" values="0 0 0 0 0 0 0 0 0 0 0 0 0 0 0 0 0 0 127 0" result="hardAlpha"/>
<feOffset dx="-0.5" dy="-0.5"/>
<feGaussianBlur stdDeviation="0.25"/>
<feComposite in2="hardAlpha" operator="arithmetic" k2="-1" k3="1"/>
<feColorMatrix type="matrix" values="0 0 0 0 0.192157 0 0 0 0 0.196078 0 0 0 0 0.223529 0 0 0 0.2 0"/>
<feBlend mode="normal" in2="effect1_innerShadow_109_15127" result="effect2_innerShadow_109_15127"/>
</filter>
<filter id="filter18_dii_109_15127" x="29.8586" y="20.1062" width="22.414" height="11.5488" filterUnits="userSpaceOnUse" color-interpolation-filters="sRGB">
<feFlood flood-opacity="0" result="BackgroundImageFix"/>
<feColorMatrix in="SourceAlpha" type="matrix" values="0 0 0 0 0 0 0 0 0 0 0 0 0 0 0 0 0 0 127 0" result="hardAlpha"/>
<feOffset dy="0.3"/>
<feGaussianBlur stdDeviation="0.5"/>
<feComposite in2="hardAlpha" operator="out"/>
<feColorMatrix type="matrix" values="0 0 0 0 0.125781 0 0 0 0 0.273125 0 0 0 0 0.2875 0 0 0 0.5 0"/>
<feBlend mode="normal" in2="BackgroundImageFix" result="effect1_dropShadow_109_15127"/>
<feBlend mode="normal" in="SourceGraphic" in2="effect1_dropShadow_109_15127" result="shape"/>
<feColorMatrix in="SourceAlpha" type="matrix" values="0 0 0 0 0 0 0 0 0 0 0 0 0 0 0 0 0 0 127 0" result="hardAlpha"/>
<feOffset dy="-0.5"/>
<feGaussianBlur stdDeviation="0.25"/>
<feComposite in2="hardAlpha" operator="arithmetic" k2="-1" k3="1"/>
<feColorMatrix type="matrix" values="0 0 0 0 0.568627 0 0 0 0 0.760784 0 0 0 0 0.784314 0 0 0 0.3 0"/>
<feBlend mode="normal" in2="shape" result="effect2_innerShadow_109_15127"/>
<feColorMatrix in="SourceAlpha" type="matrix" values="0 0 0 0 0 0 0 0 0 0 0 0 0 0 0 0 0 0 127 0" result="hardAlpha"/>
<feOffset dy="0.2"/>
<feGaussianBlur stdDeviation="0.25"/>
<feComposite in2="hardAlpha" operator="arithmetic" k2="-1" k3="1"/>
<feColorMatrix type="matrix" values="0 0 0 0 0.596078 0 0 0 0 0.909804 0 0 0 0 0.933333 0 0 0 0.7 0"/>
<feBlend mode="normal" in2="effect2_innerShadow_109_15127" result="effect3_innerShadow_109_15127"/>
</filter>
<filter id="filter19_f_109_15127" x="23" y="33" width="31" height="16" filterUnits="userSpaceOnUse" color-interpolation-filters="sRGB">
<feFlood flood-opacity="0" result="BackgroundImageFix"/>
<feBlend mode="normal" in="SourceGraphic" in2="BackgroundImageFix" result="shape"/>
<feGaussianBlur stdDeviation="3" result="effect1_foregroundBlur_109_15127"/>
</filter>
<filter id="filter20_f_109_15127" x="41.7393" y="35.5017" width="25.3682" height="27.3561" filterUnits="userSpaceOnUse" color-interpolation-filters="sRGB">
<feFlood flood-opacity="0" result="BackgroundImageFix"/>
<feBlend mode="normal" in="SourceGraphic" in2="BackgroundImageFix" result="shape"/>
<feGaussianBlur stdDeviation="4" result="effect1_foregroundBlur_109_15127"/>
</filter>
<filter id="filter21_f_109_15127" x="7.53204" y="48.7462" width="29.3177" height="23.2562" filterUnits="userSpaceOnUse" color-interpolation-filters="sRGB">
<feFlood flood-opacity="0" result="BackgroundImageFix"/>
<feBlend mode="normal" in="SourceGraphic" in2="BackgroundImageFix" result="shape"/>
<feGaussianBlur stdDeviation="4" result="effect1_foregroundBlur_109_15127"/>
</filter>
<linearGradient id="paint0_linear_109_15127" x1="12.1685" y1="28.8608" x2="12.1685" y2="38.8737" gradientUnits="userSpaceOnUse">
<stop stop-color="#DCDCDE"/>
<stop offset="0.807598" stop-color="#DCDCDE" stop-opacity="0"/>
</linearGradient>
<linearGradient id="paint1_linear_109_15127" x1="15.8332" y1="25.9796" x2="-6.72405" y2="58.0496" gradientUnits="userSpaceOnUse">
<stop offset="0.0310084" stop-color="#4D5146"/>
<stop offset="0.0746502" stop-color="#FDFDFD"/>
<stop offset="0.110398" stop-color="#737373" stop-opacity="0.9"/>
<stop offset="0.165539" stop-color="#FDFDFD"/>
<stop offset="0.213361" stop-color="#4B4D48" stop-opacity="0"/>
</linearGradient>
<linearGradient id="paint2_linear_109_15127" x1="15.0832" y1="26.6675" x2="12.6383" y2="47.094" gradientUnits="userSpaceOnUse">
<stop offset="0.0474135" stop-color="#49FFDA"/>
<stop offset="0.622282" stop-color="#4449B3" stop-opacity="0.33"/>
<stop offset="0.942708" stop-color="#282931" stop-opacity="0"/>
</linearGradient>
<linearGradient id="paint3_linear_109_15127" x1="65.0016" y1="39.4521" x2="65.0016" y2="48.0346" gradientUnits="userSpaceOnUse">
<stop stop-color="#DCDCDE"/>
<stop offset="0.807598" stop-color="#DCDCDE" stop-opacity="0"/>
</linearGradient>
<linearGradient id="paint4_linear_109_15127" x1="68.1429" y1="36.9825" x2="48.8081" y2="64.4711" gradientUnits="userSpaceOnUse">
<stop offset="0.0310084" stop-color="#4D5146"/>
<stop offset="0.0746502" stop-color="#FDFDFD"/>
<stop offset="0.110398" stop-color="#737373" stop-opacity="0.9"/>
<stop offset="0.165539" stop-color="#FDFDFD"/>
<stop offset="0.213361" stop-color="#4B4D48" stop-opacity="0"/>
</linearGradient>
<linearGradient id="paint5_linear_109_15127" x1="67.5" y1="37.5722" x2="65.4044" y2="55.0806" gradientUnits="userSpaceOnUse">
<stop offset="0.0474135" stop-color="#49FFDA"/>
<stop offset="0.622282" stop-color="#4449B3" stop-opacity="0.33"/>
<stop offset="0.942708" stop-color="#282931" stop-opacity="0"/>
</linearGradient>
<linearGradient id="paint6_linear_109_15127" x1="23.515" y1="43.3662" x2="52.1979" y2="49.0285" gradientUnits="userSpaceOnUse">
<stop offset="0.0768632" stop-color="#737373"/>
<stop offset="0.134224" stop-color="#FDFDFD"/>
<stop offset="0.210088" stop-color="#737373" stop-opacity="0.19"/>
<stop offset="0.304868" stop-color="#626161"/>
<stop offset="0.473832" stop-color="#9A9DA0"/>
<stop offset="0.601534" stop-color="#737373" stop-opacity="0.27"/>
<stop offset="1" stop-color="#4B4D48" stop-opacity="0"/>
</linearGradient>
<linearGradient id="paint7_linear_109_15127" x1="22.3867" y1="56.2936" x2="47.2512" y2="54.494" gradientUnits="userSpaceOnUse">
<stop stop-color="#A42921"/>
<stop offset="1" stop-color="#A42921" stop-opacity="0"/>
</linearGradient>
<linearGradient id="paint8_linear_109_15127" x1="23.2972" y1="39.1127" x2="51.9801" y2="44.7751" gradientUnits="userSpaceOnUse">
<stop offset="0.0768632" stop-color="#F5F2F2"/>
<stop offset="0.134224" stop-color="#FDFDFD"/>
<stop offset="0.210088" stop-color="#9D9E9D" stop-opacity="0.19"/>
<stop offset="0.304868" stop-color="#E2DFDF"/>
<stop offset="0.473832" stop-color="#899098"/>
<stop offset="0.601534" stop-color="#E9E9E9" stop-opacity="0.27"/>
<stop offset="1" stop-color="#BEBEBE" stop-opacity="0"/>
</linearGradient>
<linearGradient id="paint9_linear_109_15127" x1="22.1689" y1="52.0402" x2="47.0334" y2="50.2406" gradientUnits="userSpaceOnUse">
<stop stop-color="#A42921"/>
<stop offset="1" stop-color="#A42921" stop-opacity="0"/>
</linearGradient>
<linearGradient id="paint10_linear_109_15127" x1="17.9417" y1="49.9495" x2="44.246" y2="55.1423" gradientUnits="userSpaceOnUse">
<stop offset="0.0768632" stop-color="#F5F2F2"/>
<stop offset="0.134224" stop-color="#FDFDFD"/>
<stop offset="0.210088" stop-color="#9D9E9D" stop-opacity="0.19"/>
<stop offset="0.304868" stop-color="#E2DFDF"/>
<stop offset="0.473832" stop-color="#899098"/>
<stop offset="0.601534" stop-color="#E9E9E9" stop-opacity="0.27"/>
<stop offset="1" stop-color="#BEBEBE" stop-opacity="0"/>
</linearGradient>
<linearGradient id="paint11_linear_109_15127" x1="16.9071" y1="61.805" x2="39.7096" y2="60.1545" gradientUnits="userSpaceOnUse">
<stop stop-color="#A42921"/>
<stop offset="1" stop-color="#A42921" stop-opacity="0"/>
</linearGradient>
<linearGradient id="paint12_linear_109_15127" x1="26.2981" y1="34.397" x2="54.981" y2="40.0594" gradientUnits="userSpaceOnUse">
<stop offset="0.0768632" stop-color="#F5F2F2"/>
<stop offset="0.134224" stop-color="#FDFDFD"/>
<stop offset="0.210088" stop-color="#9D9E9D" stop-opacity="0.19"/>
<stop offset="0.304868" stop-color="#E2DFDF"/>
<stop offset="0.473832" stop-color="#899098"/>
<stop offset="0.601534" stop-color="#E9E9E9" stop-opacity="0.27"/>
<stop offset="1" stop-color="#BEBEBE" stop-opacity="0"/>
</linearGradient>
<linearGradient id="paint13_linear_109_15127" x1="25.1698" y1="47.3245" x2="50.0344" y2="45.5249" gradientUnits="userSpaceOnUse">
<stop stop-color="#A42921"/>
<stop offset="1" stop-color="#A42921" stop-opacity="0"/>
</linearGradient>
<linearGradient id="paint14_linear_109_15127" x1="30" y1="52" x2="61.132" y2="57.79" gradientUnits="userSpaceOnUse">
<stop offset="0.0768632" stop-color="#AEAAAA"/>
<stop offset="0.134224" stop-color="#FDFDFD"/>
<stop offset="0.210088" stop-color="#A8A5A5" stop-opacity="0.19"/>
<stop offset="0.304868" stop-color="#A77171"/>
<stop offset="0.473832" stop-color="#9A9DA0"/>
<stop offset="0.601534" stop-color="#737373" stop-opacity="0.27"/>
<stop offset="1" stop-color="#4B4D48" stop-opacity="0"/>
</linearGradient>
<linearGradient id="paint15_linear_109_15127" x1="43.3217" y1="62.1229" x2="54.3544" y2="52.8038" gradientUnits="userSpaceOnUse">
<stop stop-color="#A42921"/>
<stop offset="1" stop-color="#A42921" stop-opacity="0"/>
</linearGradient>
<linearGradient id="paint16_linear_109_15127" x1="41.359" y1="12" x2="41.359" y2="27.2624" gradientUnits="userSpaceOnUse">
<stop stop-color="#D7D7E8"/>
<stop offset="0.807598" stop-color="#DADAEA" stop-opacity="0"/>
</linearGradient>
<linearGradient id="paint17_linear_109_15127" x1="43.4096" y1="14.3588" x2="31.2973" y2="55.2921" gradientUnits="userSpaceOnUse">
<stop offset="0.0608283" stop-color="#77E5EC"/>
<stop offset="0.768594" stop-color="#EF7E76" stop-opacity="0.38"/>
<stop offset="1" stop-color="white" stop-opacity="0"/>
</linearGradient>
<linearGradient id="paint18_linear_109_15127" x1="42" y1="20" x2="35.5" y2="45.5" gradientUnits="userSpaceOnUse">
<stop stop-color="white"/>
<stop offset="1" stop-color="white" stop-opacity="0"/>
</linearGradient>
</defs>
</svg>
