<svg width="310" height="220" viewBox="0 0 310 220" fill="none" xmlns="http://www.w3.org/2000/svg">
<mask id="mask0_258_5140" style="mask-type:alpha" maskUnits="userSpaceOnUse" x="0" y="0" width="310" height="220">
<path d="M310 0H0V220H310V125.5V113.25V100V0Z" fill="url(#paint0_linear_258_5140)"/>
</mask>
<g mask="url(#mask0_258_5140)">
<path fill-rule="evenodd" clipRule="evenodd" d="M51.6197 7.89256C62.4088 3.78375 65.5283 13.2691 68.9555 23.6897L68.9556 23.6901L68.9558 23.6905L68.9559 23.6909L68.9561 23.6914L68.9563 23.6919C69.5565 25.517 70.1662 27.3709 70.8282 29.1853C71.2541 30.3527 71.7513 31.5745 72.2552 32.813C73.9582 36.9983 75.7394 41.3756 75.116 44.4982C74.5412 47.3786 72.669 49.7134 69.5919 51.4471C67.7918 52.4602 65.7247 52.3346 64.3965 52.1738C57.6014 51.3495 55.1266 43.7457 52.4261 35.4486C51.8216 33.5914 51.2059 31.6995 50.5278 29.8411C50.0957 28.6568 49.5526 27.3846 48.9969 26.083C47.5557 22.7072 46.0301 19.1335 46.1379 16.3828C46.2823 12.6901 48.0149 11.1353 50.5778 8.83537L50.578 8.83527L50.5782 8.83506L50.5794 8.83395C50.9127 8.53488 51.26 8.22319 51.6197 7.89256ZM-5.54874 53.5451C-2.59254 52.4485 -0.268406 52.498 1.85814 53.1797C7.99767 56.8238 14.1387 60.4696 20.2773 64.1153C21.2852 64.7453 22.3944 65.316 23.5218 65.896C25.8778 67.1082 28.3128 68.3611 30.0668 70.2803C33.7044 74.2583 32.5441 79.8616 30.2941 82.6598C27.9206 85.6129 23.0164 86.7938 19.7596 85.8547C16.9418 85.0415 14.0879 83.0757 11.4243 81.2409C10.4294 80.5556 9.46106 79.8885 8.53104 79.3067C6.49792 78.0943 4.46421 76.8825 2.43071 75.6709L2.4205 75.6648L2.41028 75.6587C1.07245 74.8615 -0.265299 74.0644 -1.60272 73.2673C-2.12778 72.9387 -2.68081 72.6105 -3.24554 72.2754C-7.78006 69.5845 -13.069 66.4459 -10.6874 59.0549C-10.0685 57.133 -8.82741 56.1669 -7.30596 54.9825L-7.30594 54.9825L-7.30589 54.9825C-6.75185 54.5512 -6.16063 54.091 -5.54874 53.5451ZM140.39 17.4364C140.659 9.2697 132.544 6.53452 126.02 9.04869C125.027 9.88716 124.032 10.7259 123.037 11.5646C121.67 13.3083 120.901 15.6352 120.191 17.7825C120.073 18.1389 119.956 18.4904 119.839 18.8334C119.205 20.4151 118.571 21.9973 117.937 23.5795C117.21 25.3934 116.483 27.2073 115.756 29.0204L113.923 33.6051L113.861 33.7619L113.705 34.1506C112.667 36.7475 111.629 39.3442 110.59 41.9409C109.427 47.7819 114.266 52.3918 118.589 53.1732C121.901 53.7714 126.291 51.6035 128.059 49.1983C129.349 47.4435 130.137 45.0124 130.85 42.8133L130.85 42.8128C131.009 42.323 131.164 41.8446 131.32 41.3878L134.074 34.5142L136.559 28.3118C136.967 27.1179 137.524 25.9377 138.088 24.7446C139.185 22.4222 140.304 20.0513 140.39 17.4364ZM170.963 165.693C171.004 165.807 170.946 165.932 170.833 165.973L61.9337 205.706C61.8207 205.747 61.6957 205.689 61.6545 205.576L44.9052 159.669C44.2981 158.006 43.6587 156.318 43.016 154.622L43.016 154.622C40.069 146.845 37.0554 138.893 36.8003 132.254C36.2174 117.097 41.2333 104.575 50.7962 93.6337C54.9747 88.8535 60.1299 84.6767 66.5983 80.7695L73.2959 77.6286C75.4043 76.8199 77.5134 76.0111 79.6224 75.2036C81.0389 74.9011 82.4073 74.5768 83.7429 74.2603L83.743 74.2603L83.7431 74.2603L83.7432 74.2603C87.1015 73.4645 90.252 72.718 93.4357 72.4909C113.842 71.0363 130.944 78.3885 142.758 93.5942C146.83 98.8337 149.64 106.833 152.39 114.665L152.39 114.665L152.39 114.666L152.391 114.666C152.984 116.356 153.575 118.039 154.176 119.685C159.564 134.451 164.953 149.223 170.341 163.99L170.963 165.693ZM41.9696 236.249C41.8566 236.29 41.7984 236.415 41.8397 236.528L49.1796 256.645C49.2209 256.758 49.3459 256.816 49.4589 256.775L213.262 197.01C213.375 196.969 213.433 196.844 213.392 196.731L206.052 176.614C206.01 176.501 205.885 176.442 205.772 176.484L41.9696 236.249ZM-20.9087 125.494C-18.2557 124.46 -16.0129 124.197 -13.73 123.929C-13.2199 123.869 -12.7079 123.809 -12.1888 123.74C-9.48008 123.315 -6.77137 122.89 -4.06264 122.465L-4.05532 122.464C-1.35586 122.041 1.34361 121.617 4.04304 121.193C5.11646 121.064 6.18477 120.872 7.23423 120.684C10.2227 120.147 13.0584 119.637 15.4239 120.676C18.7088 122.118 22.2375 126.438 21.3139 131.119C20.8112 133.667 19.2167 136.13 16.7075 137.733C14.5811 139.092 11.9472 139.325 9.69085 139.526C9.16485 139.572 8.65937 139.617 8.18562 139.674L7.5883 139.768C2.3771 140.586 -2.83436 141.404 -8.04592 142.22C-9.19928 142.36 -10.3497 142.564 -11.4823 142.766C-14.4878 143.301 -17.3677 143.814 -19.8433 143.02C-24.5979 141.497 -27.8982 134.184 -25.1202 129.627C-24.3897 128.428 -23.4839 127.68 -22.4436 126.821L-22.4435 126.821C-21.9596 126.422 -21.4467 125.998 -20.9087 125.494ZM195.371 68C197.774 59.8566 189.702 53.7493 182.114 56.6086C179.869 57.8175 177.622 59.0265 175.378 60.2348C173.039 61.5315 170.699 62.8285 168.36 64.1255C165.906 65.4862 163.451 66.8469 160.997 68.2073C160.136 68.7276 159.232 69.1788 158.346 69.6217C156.742 70.4226 155.192 71.1967 154.041 72.3044C150.948 75.2809 149.954 81.5799 154.03 85.8091C156.051 87.9085 159.309 88.877 162.522 88.4231C164.825 88.0991 167.01 86.7112 168.888 85.5185C169.324 85.241 169.745 84.9741 170.146 84.7335C172.233 83.5993 174.32 82.4648 176.407 81.3303C179.166 79.8307 181.925 78.3311 184.683 76.8319C185.671 76.244 186.646 75.7127 187.584 75.202C191.242 73.2095 194.329 71.5276 195.371 68Z" fill="url(#paint1_linear_258_5140)" fill-opacity="0.05"/>
</g>
<defs>
<linearGradient id="paint0_linear_258_5140" x1="180" y1="-466" x2="180" y2="220" gradientUnits="userSpaceOnUse">
<stop stop-color="white" stop-opacity="0"/>
<stop offset="1" stop-color="white"/>
</linearGradient>
<linearGradient id="paint1_linear_258_5140" x1="51.4755" y1="7.94311" x2="131.361" y2="226.892" gradientUnits="userSpaceOnUse">
<stop stop-color="#22232B"/>
<stop offset="1" stop-color="#22232B" stop-opacity="0"/>
</linearGradient>
</defs>
</svg>
