<svg width="16" height="16" viewBox="0 0 16 16" fill="none" xmlns="http://www.w3.org/2000/svg">
<path d="M8.01055 0.000133352C8.94189 -0.0129266 8.74831 0.935609 8.74831 1.82531C8.74831 2.1989 8.81184 2.67178 8.66452 2.91374C8.55968 3.08598 8.384 3.1925 8.14476 3.2319C8.00483 3.25488 7.87447 3.19814 7.7926 3.15652C7.28003 2.89578 7.42368 2.13246 7.42368 1.38993C7.42368 1.07893 7.35794 0.660971 7.45725 0.418692C7.56598 0.153373 7.74129 0.111913 8.01055 0.000133352Z" fill="#B3B4B7"/>
<path d="M3.24949 1.59914C3.46594 1.59798 3.61466 1.65586 3.73576 1.74986C4.04596 2.12934 4.35622 2.50895 4.66631 2.88851C4.82136 3.08733 5.05211 3.27243 5.15259 3.51645C5.29358 3.85859 5.0869 4.19265 4.87596 4.32017C4.6534 4.45477 4.30933 4.41553 4.1214 4.27833C3.89808 4.11523 3.72154 3.81029 3.55133 3.59183C3.3809 3.38247 3.21033 3.17317 3.0399 2.96389C2.80396 2.66099 2.42015 2.30656 2.78844 1.83356C2.90458 1.68434 3.05354 1.67708 3.24949 1.59914Z" fill="#B3B4B7"/>
<path d="M12.7815 1.82534C13.2614 1.81672 13.7204 2.18406 13.5109 2.70442C13.4094 2.95662 13.1682 3.11704 13.0079 3.31562C12.7927 3.55562 12.5775 3.79565 12.3623 4.03563C12.2481 4.17719 12.1205 4.36135 11.9683 4.46261C11.7977 4.57613 11.4636 4.61265 11.264 4.49613C11.0036 4.34401 10.8 3.93285 11.0125 3.58354C11.2249 3.34632 11.4373 3.10908 11.6497 2.87184C11.8173 2.68494 11.985 2.49786 12.1527 2.31094C12.2624 2.17488 12.3793 2.01102 12.5299 1.9174C12.6139 1.88674 12.6977 1.85604 12.7815 1.82534Z" fill="#B3B4B7"/>
<path d="M11.994 12.7C11.994 12.8657 11.8597 13 11.694 13H4.3062C4.14051 13 4.0062 12.8657 4.0062 12.7V9.6304C4.0062 8.95128 3.95835 8.20048 4.1286 7.67163C4.44766 6.68041 5.06578 5.99088 5.93995 5.51029C6.32191 5.30033 6.75265 5.15227 7.26174 5.05249C7.43035 5.0375 7.59898 5.02252 7.76758 5.00753C7.92259 5.00498 8.07763 5.00246 8.23264 5C8.57871 5.04858 8.89286 5.06585 9.18731 5.15009C10.5375 5.53643 11.4675 6.41301 11.8716 7.67163C12.041 8.19898 11.994 8.94558 11.994 9.62288C11.994 10.6485 11.994 11.6744 11.994 12.7Z" fill="#B3B4B7"/>
<rect x="2" y="14.5" width="12" height="1.5" rx="0.3" fill="#B3B4B7"/>
<path d="M0.565928 5.87779C0.80501 5.87259 0.977362 5.92733 1.16956 5.96985C1.53848 6.04239 1.90738 6.115 2.27629 6.18754C2.55437 6.2526 2.84932 6.25626 3.02244 6.42194C3.20036 6.59222 3.32627 6.9539 3.15656 7.23404C3.06419 7.38652 2.9034 7.50786 2.70385 7.55222C2.49533 7.59856 2.27729 7.51642 2.10861 7.47684C1.73971 7.4043 1.37079 7.33176 1.0019 7.25914C0.718153 7.1928 0.416366 7.18378 0.222244 7.03314C-0.0485405 6.82302 -0.0892954 6.27372 0.197091 6.04518C0.307439 5.95711 0.41929 5.94031 0.565928 5.87779Z" fill="#B3B4B7"/>
<path d="M15.28 6.21245C15.8366 6.20659 16.2135 6.79038 15.8669 7.25902C15.6782 7.51404 15.3498 7.5052 14.9698 7.57712C14.5953 7.63292 14.2208 7.68882 13.8464 7.74464C13.6793 7.7768 13.4603 7.84422 13.2679 7.8032C13.05 7.75686 12.8627 7.61774 12.7817 7.43478C12.6184 7.06614 12.8307 6.6833 13.1002 6.56412C13.256 6.49524 13.4548 6.50089 13.6452 6.46357C14.0169 6.40501 14.3886 6.34637 14.7603 6.28781C14.9334 6.26269 15.1067 6.23757 15.28 6.21245Z" fill="#B3B4B7"/>
</svg>
