<svg width="16" height="16" viewBox="0 0 16 16" fill="none" xmlns="http://www.w3.org/2000/svg">
<path d="M12.1234 3.74596C12.016 3.93669 12.0468 4.1738 12.187 4.34198C12.6246 4.86718 12.9581 5.45308 13.1874 6.09967C13.2619 6.31001 13.456 6.45872 13.6792 6.45872H14.5051C14.7813 6.45872 15.0051 6.68257 15.0051 6.95872V9.04128C15.0051 9.31743 14.7813 9.54128 14.5051 9.54128H13.6792C13.456 9.54128 13.2619 9.68999 13.1874 9.90033C12.9581 10.5469 12.6246 11.1328 12.187 11.658C12.0468 11.8262 12.016 12.0633 12.1234 12.254L12.5623 13.033C12.6957 13.2697 12.6157 13.5695 12.3821 13.7083L10.6482 14.7386C10.4069 14.882 10.0949 14.7987 9.95713 14.5542L9.53831 13.8109C9.42669 13.6128 9.19581 13.5175 8.97238 13.5598C8.32747 13.6819 7.68264 13.6819 7.0379 13.5598C6.81446 13.5175 6.58356 13.6128 6.47192 13.811L6.05312 14.5542C5.91535 14.7987 5.60337 14.882 5.3621 14.7386L3.62811 13.7083C3.39457 13.5695 3.31455 13.2697 3.44791 13.033L3.88683 12.254C3.9943 12.0633 3.96344 11.8262 3.82329 11.658C3.38563 11.1328 3.05217 10.5469 2.82289 9.90033C2.74831 9.68999 2.55424 9.54128 2.33108 9.54128H1.50513C1.22898 9.54128 1.00513 9.31743 1.00513 9.04128V6.95872C1.00513 6.68257 1.22898 6.45872 1.50513 6.45872H2.33108C2.55424 6.45872 2.74831 6.31001 2.82289 6.09967C3.05217 5.45308 3.38563 4.86718 3.82329 4.34198C3.96344 4.1738 3.9943 3.93669 3.88683 3.74596L3.44791 2.96698C3.31455 2.73031 3.39457 2.43046 3.62811 2.29169L5.3621 1.26136C5.60337 1.118 5.91535 1.20125 6.05312 1.44576L6.47194 2.18907C6.58357 2.38718 6.81445 2.48252 7.03787 2.44021C7.68279 2.3181 8.32761 2.31809 8.97235 2.44019C9.19579 2.4825 9.4267 2.38716 9.53833 2.18904L9.95713 1.44576C10.0949 1.20125 10.4069 1.118 10.6482 1.26136L12.3821 2.29169C12.6157 2.43046 12.6957 2.7303 12.5623 2.96698L12.1234 3.74596ZM11.0053 8C10.9843 7.12215 10.6926 6.39432 10.1303 5.81651C9.56799 5.2387 8.85968 4.93901 8.00538 4.91743C7.15107 4.93901 6.44277 5.2387 5.88045 5.81651C5.31814 6.39432 5.02648 7.12215 5.00548 8C5.02648 8.87785 5.31814 9.60568 5.88045 10.1835C6.44277 10.7613 7.15107 11.061 8.00538 11.0826C8.85968 11.061 9.56799 10.7613 10.1303 10.1835C10.6926 9.60568 10.9843 8.87785 11.0053 8Z" fill="white"/>
</svg>
