<svg width="16" height="16" viewBox="0 0 16 16" fill="none" xmlns="http://www.w3.org/2000/svg">
<path d="M12.1232 3.74596C12.0157 3.93669 12.0466 4.1738 12.1867 4.34198C12.6244 4.86718 12.9578 5.45308 13.1871 6.09967C13.2617 6.31001 13.4558 6.45872 13.6789 6.45872H14.5049C14.781 6.45872 15.0049 6.68257 15.0049 6.95872V9.04128C15.0049 9.31743 14.781 9.54128 14.5049 9.54128H13.6789C13.4558 9.54128 13.2617 9.68999 13.1871 9.90033C12.9578 10.5469 12.6244 11.1328 12.1867 11.658C12.0466 11.8262 12.0157 12.0633 12.1232 12.254L12.5621 13.033C12.6955 13.2697 12.6154 13.5695 12.3819 13.7083L10.6479 14.7386C10.4066 14.882 10.0947 14.7987 9.95689 14.5542L9.53807 13.8109C9.42644 13.6128 9.19556 13.5175 8.97214 13.5598C8.32722 13.6819 7.6824 13.6819 7.03766 13.5598C6.81422 13.5175 6.58331 13.6128 6.47168 13.811L6.05288 14.5542C5.91511 14.7987 5.60313 14.882 5.36186 14.7386L3.62786 13.7083C3.39432 13.5695 3.31431 13.2697 3.44766 13.033L3.88658 12.254C3.99405 12.0633 3.9632 11.8262 3.82304 11.658C3.38539 11.1328 3.05192 10.5469 2.82264 9.90033C2.74806 9.68999 2.554 9.54128 2.33083 9.54128H1.50488C1.22874 9.54128 1.00488 9.31743 1.00488 9.04128V6.95872C1.00488 6.68257 1.22874 6.45872 1.50488 6.45872H2.33083C2.554 6.45872 2.74806 6.31001 2.82264 6.09967C3.05192 5.45308 3.38539 4.86718 3.82304 4.34198C3.9632 4.1738 3.99405 3.93669 3.88658 3.74596L3.44766 2.96698C3.31431 2.73031 3.39432 2.43046 3.62786 2.29169L5.36186 1.26136C5.60313 1.118 5.91511 1.20125 6.05288 1.44576L6.4717 2.18907C6.58332 2.38718 6.8142 2.48252 7.03763 2.44021C7.68254 2.3181 8.32737 2.31809 8.97211 2.44019C9.19555 2.4825 9.42645 2.38716 9.53809 2.18904L9.95689 1.44576C10.0947 1.20125 10.4066 1.118 10.6479 1.26136L12.3819 2.29169C12.6154 2.43046 12.6955 2.7303 12.5621 2.96698L12.1232 3.74596ZM11.005 8C10.984 7.12215 10.6924 6.39432 10.1301 5.81651C9.56774 5.2387 8.85944 4.93901 8.00513 4.91743C7.15083 4.93901 6.44252 5.2387 5.88021 5.81651C5.3179 6.39432 5.02624 7.12215 5.00524 8C5.02624 8.87785 5.3179 9.60568 5.88021 10.1835C6.44252 10.7613 7.15083 11.061 8.00513 11.0826C8.85944 11.061 9.56774 10.7613 10.1301 10.1835C10.6924 9.60568 10.984 8.87785 11.005 8Z" fill="#22232B"/>
</svg>
