<svg width="16" height="17" viewBox="0 0 16 17" fill="none" xmlns="http://www.w3.org/2000/svg">
<path d="M8 1.5C4.15 1.5 1 4.65 1 8.5C1 12.35 4.15 15.5 8 15.5C11.85 15.5 15 12.35 15 8.5C15 4.65 11.85 1.5 8 1.5Z" fill="#22232B"/>
<path d="M3 8.5C3 5.75 5.25 3.5 8 3.5C10.75 3.5 13 5.75 13 8.5" stroke="white" strokeLinecap="round"/>
<path d="M8.20311 10.7333C7.76117 10.7333 7.35607 10.4866 7.1351 10.088C7.1351 10.088 7.1351 10.069 7.11668 10.069L5.69881 7.43063C5.64357 7.31675 5.66198 7.18388 5.73564 7.08897C5.82771 6.99407 5.9566 6.97509 6.06709 7.03203L8.60822 8.34172L8.82919 8.45561H8.8476C9.19747 8.68338 9.40002 9.08198 9.40002 9.49957C9.40002 10.1639 8.86601 10.7333 8.20311 10.7333Z" fill="white"/>
</svg>
