<svg width="16" height="17" viewBox="0 0 16 17" fill="none" xmlns="http://www.w3.org/2000/svg">
<path d="M8 1.5C4.15 1.5 1 4.65 1 8.5C1 12.35 4.15 15.5 8 15.5C11.85 15.5 15 12.35 15 8.5C15 4.65 11.85 1.5 8 1.5Z" fill="white"/>
<path d="M3 8.5C3 5.75 5.25 3.5 8 3.5C10.75 3.5 13 5.75 13 8.5" stroke="#40414A" strokeLinecap="round"/>
<path d="M8.20317 10.7333C7.76124 10.7333 7.35613 10.4866 7.13516 10.088C7.13516 10.088 7.13516 10.069 7.11675 10.069L5.69887 7.43063C5.64363 7.31675 5.66204 7.18388 5.7357 7.08897C5.82777 6.99407 5.95666 6.97509 6.06715 7.03203L8.60828 8.34172L8.82925 8.45561H8.84766C9.19753 8.68338 9.40008 9.08198 9.40008 9.49957C9.40008 10.1639 8.86607 10.7333 8.20317 10.7333Z" fill="#40414A"/>
</svg>
