<svg width="502" height="58" viewBox="0 0 502 58" fill="none" xmlns="http://www.w3.org/2000/svg">
<g filter="url(#filter0_di_50_4738)">
<path d="M465.751 12.2737C466.151 12.6737 469.585 13.4404 471.251 13.7737C486.851 14.1739 493.751 20.9403 495.251 24.2734C496.851 27.0734 494.251 27.1068 492.751 26.7734C485.151 25.5734 483.918 26.2734 484.251 26.7734C485.451 29.5734 483.418 28.9401 482.251 28.2734C481.451 28.6734 480.918 29.4401 480.751 29.7734C477.951 34.9734 473.918 31.9401 472.251 29.7734C470.251 27.3734 467.418 25.4401 466.251 24.7734C461.451 22.3734 458.585 23.1068 457.751 23.7734C457.751 25.7734 457.085 24.9401 456.751 24.2734C453.551 24.6734 453.085 27.1068 453.251 28.2734C453.651 32.2734 452.751 33.2734 452.251 33.2734C449.851 32.8734 450.918 28.4401 451.751 26.2734C448.551 28.6734 443.085 27.2734 440.751 26.2734L435.751 23.7734C430.251 20.7734 429.085 22.6068 427.751 23.2734C424.951 25.2734 420.585 26.1068 418.751 26.2734C414.351 26.6734 408.918 25.4401 406.751 24.7734C399.551 23.1734 396.085 25.4401 395.251 26.7734C393.251 29.5734 390.751 30.9401 389.751 31.2734C388.151 32.0734 387.751 32.9401 387.751 33.2734C386.951 36.8734 383.751 35.1068 382.251 33.7734C380.251 31.7734 378.251 32.7734 378.251 33.2734C378.251 33.6734 374.585 44.7734 372.751 50.2734C371.751 33.7734 368.918 40.1068 366.751 36.2734C366.351 35.4734 364.585 33.2734 363.751 32.2734C362.151 30.6734 361.751 31.6068 361.751 32.2734C360.751 38.7734 359.918 38.6068 359.251 38.7734C358.451 38.7734 358.585 35.7734 358.751 34.2734C357.151 37.0734 353.751 37.7734 352.251 37.7734C348.651 37.7734 345.751 35.4401 344.751 34.2734C341.578 30.5709 339.085 31.9401 338.251 32.2734C338.251 33.8734 337.585 34.6068 337.251 34.7734C336.051 35.1734 335.751 33.6068 335.751 32.7734C333.751 32.3734 331.251 32.6068 330.251 32.7734C328.251 33.1734 327.751 38.2734 327.751 40.7734C327.751 48.2734 327.418 50.7734 326.251 50.7734C325.051 50.7734 325.085 45.4401 325.251 42.7734C325.251 39.9734 324.918 38.2734 324.751 37.7734C323.551 34.5734 321.251 32.1068 320.251 31.2734C315.051 26.8734 309.085 26.4401 306.751 26.7734C301.151 27.5734 293.418 30.7734 290.251 32.2734C283.451 35.0734 278.085 33.7734 276.251 32.7734C273.751 37.2734 269.918 37.7734 268.251 37.7734C263.851 37.3734 259.085 34.2734 257.251 32.7734C254.451 30.7734 253.085 31.9401 252.751 32.7734C251.551 34.7734 250.251 35.6068 249.751 35.7734C245.351 36.9734 242.585 33.9401 241.751 32.2734C241.751 36.2734 241.085 36.9401 240.751 36.7734C239.151 36.7734 239.751 33.4401 240.251 31.7734C235.451 31.7734 231.918 34.1068 230.751 35.2734C226.351 40.0734 221.251 41.2734 219.251 41.2734C214.851 41.2734 211.418 39.2734 210.251 38.2734C206.251 35.4734 200.251 32.7734 197.751 31.7734C192.151 29.7734 187.751 30.9401 186.251 31.7734C181.851 33.7734 177.751 33.2734 176.251 32.7734C177.451 39.5734 176.418 40.9401 175.751 40.7734C173.351 40.3734 173.418 35.2734 173.751 32.7734C167.351 33.1734 164.418 30.9401 163.751 29.7734C164.151 30.9734 163.585 31.2734 163.251 31.2734C162.451 31.2734 162.251 30.2734 162.251 29.7734C162.251 29.3734 161.918 29.2734 161.751 29.2734C159.251 29.2734 161.251 32.2734 161.251 32.7734C162.051 35.1734 161.918 36.1068 161.751 36.2734C160.951 36.6734 160.085 35.4401 159.751 34.7734C158.551 33.1734 158.585 34.4401 158.751 35.2734C159.792 38.2813 158.852 39.1934 158.251 39.2734C155.451 40.0734 156.418 34.9401 157.251 32.2734C158.451 27.8734 157.751 27.7734 157.251 28.2734C155.251 30.2734 152.085 31.1068 150.751 31.2734C146.751 31.6734 144.418 30.1068 143.751 29.2734C142.551 28.0734 142.585 28.7734 142.751 29.2734C143.551 31.2734 142.751 31.7734 142.251 31.7734C141.451 31.7734 140.251 29.4401 139.751 28.2734C138.551 25.8734 137.918 26.9401 137.751 27.7734C136.951 29.7734 134.085 30.2734 132.751 30.2734C130.351 30.6734 130.085 32.1068 130.251 32.7734C130.251 39.9734 129.251 40.7734 128.751 40.2734C127.951 40.2734 124.751 32.2734 123.251 28.2734H119.251C119.251 29.8734 118.251 30.2734 117.751 30.2734C114.951 30.2734 113.585 28.2734 113.251 27.2734C112.051 26.8734 108.751 25.1068 107.251 24.2734C102.451 21.8734 97.2513 25.6068 95.2513 25.7734C93.6513 25.7734 91.2513 26.4401 90.2513 26.7734C85.8513 27.9734 79.4179 26.6068 76.7513 25.7734C73.9513 24.9734 73.7513 23.5 69.7513 23.5C65.7513 23.5 62.4179 22.8333 61.2513 23.5C56.4513 25.5 51.9179 23.9401 49.7513 23.2734C51.7513 26.8734 50.5846 28.1068 49.7513 28.2734C48.5513 28.2734 48.2513 26.6068 48.2513 25.7734C47.8513 23.3734 47.3668 22.8206 47.2002 23.4872C46.2002 22.9872 46.0846 23.2734 46.7513 22.2734L45.2513 21.7734C44.4513 22.5734 43.9179 21.7734 43.7513 21.2734C38.5513 20.4734 34.5846 22.2734 33.2513 23.2734C29.2513 26.0734 26.9179 27.1068 26.2513 27.2734C23.0513 28.0734 21.5846 26.6068 21.2513 25.7734C20.4513 24.5734 19.5846 24.6068 19.2513 24.7734C16.4513 25.5734 16.7513 24.4401 17.2513 23.7734C14.0513 21.7734 11.7513 21.2734 7.75128 23.7734C3.75128 26.2734 7.25128 20.2734 11.7513 17.2734C16.2513 14.2734 21.4179 14.4401 23.2513 14.7734C26.0513 15.5734 28.7513 14.7734 29.7513 14.2734C32.5513 12.6734 34.2513 12.9401 34.7513 13.2734C35.5513 13.6734 35.7513 13.4401 35.7513 13.2734C36.5513 11.2734 38.0846 11.7734 38.7513 12.2734C43.9513 11.0734 50.5846 13.4401 53.2513 14.7734C56.8513 15.9734 63.0846 14.9401 65.7513 14.2734C72.1513 13.0734 78.4179 14.7734 80.7513 15.7734C84.7513 16.9734 88.7513 15.2734 90.2513 14.2734C94.6513 11.8734 100.751 10.9401 103.251 10.7734C109.251 10.3734 117.418 13.9401 120.751 15.7734C125.551 17.7734 131.418 16.6068 133.751 15.7734C137.751 14.1734 145.751 12.4401 149.251 11.7734C156.851 10.5734 163.418 10.9401 165.751 11.2734C174.951 12.0734 183.251 9.9401 186.251 8.77344C195.451 5.57344 201.085 7.4401 202.751 8.77344C203.551 9.57344 204.751 9.4401 205.251 9.27344C210.051 8.07344 215.251 10.4401 217.251 11.7734C218.451 12.5734 221.751 12.7734 223.251 12.7734H231.251C233.251 12.7734 242.418 13.1068 246.751 13.2734C248.751 13.2734 251.585 11.9401 252.751 11.2734C258.351 8.47344 265.085 10.4401 267.751 11.7734C268.951 12.5734 273.585 13.1068 275.751 13.2734C282.951 13.6734 289.751 10.44 292.251 8.77327C295.051 6.77314 300.085 5.60695 302.251 5.27387C308.651 4.07387 320.585 7.10681 325.751 8.77327C333.351 10.7728 343.585 10.2735 347.751 9.77387C355.751 9.37387 362.085 12.2739 364.251 13.7739C365.051 14.5739 368.251 15.7739 369.751 16.2739C376.951 18.6739 384.751 14.2739 387.751 11.7739C389.751 9.77387 394.251 8.94014 396.251 8.77327C401.051 8.37327 406.251 11.2733 408.251 12.7733C410.251 13.9733 412.751 14.9399 413.751 15.2733C416.951 16.0733 423.085 14.6069 425.751 13.7737C432.151 12.1741 437.085 13.4402 438.751 14.2733C439.551 14.6729 441.751 15.1065 442.751 15.2733C450.251 15.7733 452.251 13.2733 455.251 11.7733C457.651 10.5733 460.251 10.9402 461.251 11.2737C462.051 11.6741 462.918 11.4405 463.251 11.2737C465.251 10.2737 465.251 11.7737 465.751 12.2737Z" fill="white"/>
</g>
<defs>
<filter id="filter0_di_50_4738" x="0" y="0" width="501.754" height="57.7734" filterUnits="userSpaceOnUse" color-interpolation-filters="sRGB">
<feFlood flood-opacity="0" result="BackgroundImageFix"/>
<feColorMatrix in="SourceAlpha" type="matrix" values="0 0 0 0 0 0 0 0 0 0 0 0 0 0 0 0 0 0 127 0" result="hardAlpha"/>
<feOffset dy="1"/>
<feGaussianBlur stdDeviation="3"/>
<feComposite in2="hardAlpha" operator="out"/>
<feColorMatrix type="matrix" values="0 0 0 0 0.843346 0 0 0 0 0.880821 0 0 0 0 0.909968 0 0 0 1 0"/>
<feBlend mode="normal" in2="BackgroundImageFix" result="effect1_dropShadow_50_4738"/>
<feBlend mode="normal" in="SourceGraphic" in2="effect1_dropShadow_50_4738" result="shape"/>
<feColorMatrix in="SourceAlpha" type="matrix" values="0 0 0 0 0 0 0 0 0 0 0 0 0 0 0 0 0 0 127 0" result="hardAlpha"/>
<feOffset dy="-4"/>
<feGaussianBlur stdDeviation="4"/>
<feComposite in2="hardAlpha" operator="arithmetic" k2="-1" k3="1"/>
<feColorMatrix type="matrix" values="0 0 0 0 0.211765 0 0 0 0 0.254902 0 0 0 0 0.27451 0 0 0 0.1 0"/>
<feBlend mode="normal" in2="shape" result="effect2_innerShadow_50_4738"/>
</filter>
</defs>
</svg>
