<svg width="253" height="26" viewBox="0 0 253 26" fill="none" xmlns="http://www.w3.org/2000/svg">
<mask id="mask0_50_3906" style="mask-type:alpha" maskUnits="userSpaceOnUse" x="0" y="0" width="253" height="26">
<rect width="253" height="26" fill="#F0F2F7"/>
</mask>
<g mask="url(#mask0_50_3906)">
<g filter="url(#filter0_ii_50_3906)">
<path d="M322.251 -14.2263C320.585 -14.5596 317.151 -15.3263 316.751 -15.7263C316.251 -16.2263 316.251 -17.7263 314.251 -16.7263C313.918 -16.5595 313.051 -16.3259 312.251 -16.7263C311.251 -17.0598 308.651 -17.4267 306.251 -16.2267C303.251 -14.7267 301.251 -12.2267 293.751 -12.7267C292.751 -12.8935 290.551 -13.3271 289.751 -13.7267C288.085 -14.5598 283.151 -15.8259 276.751 -14.2263C275.112 -13.7143 272.165 -12.9631 269.393 -12.6458C266.74 -16.6095 264.948 -18.5811 266.319 -12.5123C265.748 -12.5415 265.218 -12.61 264.751 -12.7267C263.751 -13.0601 261.251 -14.0267 259.251 -15.2267C257.251 -16.7267 252.051 -19.6267 247.251 -19.2267C245.251 -19.0599 240.751 -18.2261 238.751 -16.2261C235.751 -13.7261 227.951 -9.32613 220.751 -11.7261C219.251 -12.2261 216.051 -13.4261 215.251 -14.2261C213.085 -15.7261 206.751 -18.6261 198.751 -18.2261C194.585 -17.7265 184.351 -17.2272 176.751 -19.2267C171.585 -20.8932 159.651 -23.9261 153.251 -22.7261C151.085 -22.393 146.051 -21.2269 143.251 -19.2267C140.751 -17.56 133.951 -14.3266 126.751 -14.7266C124.585 -14.8932 119.951 -15.4266 118.751 -16.2266C116.085 -17.5599 109.351 -19.5266 103.751 -16.7266C102.585 -16.0599 99.7513 -14.7266 97.7513 -14.7266C93.4179 -14.8932 84.2512 -15.2266 82.2512 -15.2266H74.2512C72.7512 -15.2266 69.4512 -15.4266 68.2512 -16.2266C66.2512 -17.5599 61.0512 -19.9266 56.2512 -18.7266C55.7512 -18.5599 54.5512 -18.4266 53.7512 -19.2266C52.0846 -20.5599 46.4512 -22.4266 37.2512 -19.2266C34.2512 -18.0599 25.9512 -15.9266 16.7512 -16.7266C14.4179 -17.0599 7.85123 -17.4266 0.251221 -16.2266C-3.24878 -15.5599 -11.2488 -13.8266 -15.2488 -12.2266C-17.5821 -11.3932 -23.4488 -10.2266 -28.2488 -12.2266C-31.5821 -14.0599 -39.7488 -17.6266 -45.7488 -17.2266C-48.2488 -17.0599 -54.3488 -16.1266 -58.7488 -13.7266C-60.2488 -12.7266 -64.2488 -11.0266 -68.2488 -12.2266C-70.5821 -13.2266 -76.8488 -14.9266 -83.2488 -13.7266C-85.9154 -13.0599 -92.1488 -12.0266 -95.7488 -13.2266C-98.4154 -14.5599 -105.049 -16.9266 -110.249 -15.7266C-110.915 -16.2266 -112.449 -16.7266 -113.249 -14.7266C-113.249 -14.5599 -113.449 -14.3266 -114.249 -14.7266C-114.749 -15.0599 -116.449 -15.3266 -119.249 -13.7266C-120.249 -13.2266 -122.949 -12.4266 -125.749 -13.2266C-127.582 -13.5599 -132.749 -13.7266 -137.249 -10.7266C-141.749 -7.72656 -145.249 -1.72656 -141.249 -4.22656C-137.249 -6.72656 -134.949 -6.22656 -131.749 -4.22656C-132.249 -3.5599 -132.549 -2.42656 -129.749 -3.22656C-129.415 -3.39323 -128.549 -3.42656 -127.749 -2.22656C-127.415 -1.39323 -125.949 0.0734367 -122.749 -0.726562C-122.082 -0.893229 -119.749 -1.92656 -115.749 -4.72656C-114.415 -5.72656 -110.449 -7.52656 -105.249 -6.72656C-105.082 -6.22656 -104.549 -5.42656 -103.749 -6.22656L-102.249 -5.72656C-102.915 -4.72656 -102.8 -5.01278 -101.8 -4.51278C-101.633 -5.17945 -101.149 -4.62656 -100.749 -2.22656C-100.749 -1.39323 -100.449 0.273438 -99.2488 0.273438C-98.4154 0.106771 -97.2488 -1.12656 -99.2488 -4.72656C-97.0821 -4.0599 -92.5488 -2.5 -87.7488 -4.5C-86.5821 -5.16667 -83.2488 -4.5 -79.2488 -4.5C-75.2488 -4.5 -75.0488 -3.02656 -72.2488 -2.22656C-69.5821 -1.39323 -63.1488 -0.0265617 -58.7488 -1.22656C-57.7488 -1.5599 -55.3488 -2.22656 -53.7488 -2.22656C-51.7488 -2.39323 -46.5488 -6.12656 -41.7488 -3.72656C-40.2488 -2.89323 -36.9488 -1.12656 -35.7488 -0.726562C-35.4154 0.273438 -37.3002 -6.5 -34.5002 -6.5C-34.0002 -6.5 -29.7488 1.87344 -29.7488 0.273438H-25.7488C-24.2488 4.27344 -23.3002 -1 -22.5002 -1C-22.0002 -0.5 -21.0002 -1.3 -21.0002 -8.5C-21.1669 -9.16667 -18.4002 0.673437 -16.0002 0.273438C-14.6669 0.273438 -12.0488 1.77344 -11.2488 -0.226562C-11.0821 -1.0599 -10.4488 -2.12656 -9.24878 0.273438C-8.74878 1.4401 -7.80023 -1.22656 -7.00024 -1.22656C-6.76547 -1.22656 -6.40918 -0.234571 -6.17999 0.610905C-6.39883 0.615332 -6.34689 0.979048 -6.24878 1.27344C-5.8244 2.33441 -5.92105 1.56618 -6.17999 0.610905C-6.02716 0.607813 -5.74225 0.779974 -5.24878 1.27344C-4.58212 2.10677 -6 -8.1 -2 -8.5C-0.666656 -8.66667 1.5 -6.5 3.5 -8.5C4 -9 8.95148 -17.6734 7.75146 -13.2734C6.91812 -10.6068 4.95148 -7.2 7.75146 -8C8.35168 -8.08007 10.292 -7.26561 9.25146 -10.2734C9.08481 -11.1068 9.05145 -12.3734 10.2515 -10.7734C10.4741 -10.3283 10.9344 -9.6305 11.4539 -9.335C11.2971 -6.81023 11.1956 -3.44559 11.5113 -1.18867C6.62216 -0.596577 -1 -0.226562 -1 -0.226562C4 9.5 21.4997 5.27344 25.4998 16.5C25.6676 16.971 25.4998 12.7734 29.9997 6.77344C32.1696 3.88006 32.8512 5.77344 37.2512 3.77344C38.7512 2.9401 43.1512 1.77344 48.7512 3.77344C51.2512 4.77344 57.2512 7.47344 61.2512 10.2734C62.4179 11.2734 65.8512 13.2734 70.2512 13.2734C72.2512 13.2734 77.3512 12.0734 81.7512 7.27344C82.9047 6.11994 86.1258 2.09236 90.8377 2.00156C90.8503 2.27767 90.9039 2.31937 90.9997 2C90.9455 2 90.8915 2.00052 90.8377 2.00156C90.7842 0.836742 91.4579 -4.5 92.7513 -4.5C93.0846 -4.33333 91.4997 0.5 91.9997 1.5C92.833 3.16667 96.3513 8.97344 100.751 7.77344C101.251 7.60677 102.551 6.77344 103.751 4.77344C104.085 3.9401 105.451 2.77344 108.251 4.77344C110.085 6.27344 114.851 9.37344 119.251 9.77344C120.918 9.77344 124.751 9.27344 127.251 4.77344C129.085 5.77344 134.451 7.07344 141.251 4.27344C144.418 2.77344 146.5 14.7734 154.5 14.7734C165 14.7734 166.051 -1.12656 171.251 3.27344C172.251 4.10677 174.551 6.57344 175.751 9.77344C175.918 10.2734 176.251 11.9734 176.251 14.7734C176.085 17.4401 176.051 22.7734 177.251 22.7734C178.418 22.7734 178.751 20.2734 178.751 12.7734C178.751 10.2734 179.251 5.17344 181.251 4.77344C182.251 4.60677 184.751 4.37344 186.751 4.77344C186.751 5.60677 187.051 7.17344 188.251 6.77344C188.585 6.60677 189.251 5.87344 189.251 4.27344C190.085 3.9401 192.578 2.5709 195.751 6.27344C196.751 7.4401 199.651 9.77344 203.251 9.77344C204.751 9.77344 208.151 9.07344 209.751 6.27344C209.585 7.77344 209.451 10.7734 210.251 10.7734C210.918 10.6068 211.751 10.7734 212.751 4.27344C212.751 3.60677 213.151 2.67344 214.751 4.27344C215.585 5.27344 217.351 7.47344 217.751 8.27344C219.918 12.1068 222.751 5.77344 223.751 22.2734C225.585 16.7734 229.251 5.67344 229.251 5.27344C229.251 4.77344 231.251 3.77344 233.251 5.77344C234.751 7.10677 237.951 8.87344 238.751 5.27344C238.751 4.9401 239.151 4.07344 240.751 3.27344C241.751 2.9401 244.251 1.57344 246.251 -1.22656C247.085 -2.5599 250.551 -4.82656 257.751 -3.22656C258.149 -3.10407 258.658 -2.96245 259.25 -2.81535C257.18 -2.22554 256.291 -1.52304 257.751 -0.726562L260.249 0.52227L260.251 0.523438C260.257 0.52648 260.262 0.529276 260.268 0.53183L262.751 1.77344C263.517 2.10163 263.672 0.784708 263.571 -1.00912C263.587 -1.01845 263.602 -1.0278 263.618 -1.03719C267.707 -1.36775 273.943 -1.30785 277.347 -1.09802C277.921 -0.509987 278.403 -0.183083 278.751 -0.226562C279.085 0.440104 279.751 1.27344 279.751 -0.726562C279.927 -0.866899 278.951 -0.999113 277.347 -1.09802C276.851 -1.60563 276.286 -2.30782 275.679 -3.13431C276.775 -3.55415 277.845 -4.07925 278.751 -4.72656C279.118 -4.91001 277.277 -4.91678 274.529 -4.7677C274.114 -5.37639 273.689 -6.01839 273.26 -6.67533C274.121 -7.09189 274.914 -7.42303 275.595 -7.62426C280.878 -6.52148 285.483 -6.07251 286.251 -7.5C286.418 -7.83333 286.951 -8.6 287.751 -9C288.916 -8.3345 290.944 -7.70222 289.758 -10.4853C290.091 -10.0078 292.816 -6.55525 299.5 -5.5C301 -5.16667 303.6 -5.2 302 -8C300.5 -11.3331 337.851 -13.8261 322.251 -14.2263Z" fill="white"/>
</g>
</g>
<defs>
<filter id="filter0_ii_50_3906" x="-143" y="-27" width="469.069" height="49.7734" filterUnits="userSpaceOnUse" color-interpolation-filters="sRGB">
<feFlood flood-opacity="0" result="BackgroundImageFix"/>
<feBlend mode="normal" in="SourceGraphic" in2="BackgroundImageFix" result="shape"/>
<feColorMatrix in="SourceAlpha" type="matrix" values="0 0 0 0 0 0 0 0 0 0 0 0 0 0 0 0 0 0 127 0" result="hardAlpha"/>
<feOffset dy="-4"/>
<feGaussianBlur stdDeviation="4"/>
<feComposite in2="hardAlpha" operator="arithmetic" k2="-1" k3="1"/>
<feColorMatrix type="matrix" values="0 0 0 0 0.784261 0 0 0 0 0.830325 0 0 0 0 0.830325 0 0 0 0.5 0"/>
<feBlend mode="normal" in2="shape" result="effect1_innerShadow_50_3906"/>
<feColorMatrix in="SourceAlpha" type="matrix" values="0 0 0 0 0 0 0 0 0 0 0 0 0 0 0 0 0 0 127 0" result="hardAlpha"/>
<feOffset dy="-2"/>
<feGaussianBlur stdDeviation="1.5"/>
<feComposite in2="hardAlpha" operator="arithmetic" k2="-1" k3="1"/>
<feColorMatrix type="matrix" values="0 0 0 0 1 0 0 0 0 1 0 0 0 0 1 0 0 0 0.6 0"/>
<feBlend mode="normal" in2="effect1_innerShadow_50_3906" result="effect2_innerShadow_50_3906"/>
</filter>
</defs>
</svg>
