<svg width="322" height="26" viewBox="0 0 322 26" fill="none" xmlns="http://www.w3.org/2000/svg">
<mask id="mask0_70_14" style="mask-type:alpha" maskUnits="userSpaceOnUse" x="0" y="0" width="322" height="26">
<rect width="322" height="26" fill="#F0F2F7"/>
</mask>
<g mask="url(#mask0_70_14)">
<g filter="url(#filter0_ii_70_14)">
<path d="M307.251 -9.22628C305.585 -9.55961 302.151 -10.3263 301.751 -10.7263C301.251 -11.2263 301.251 -12.7263 299.251 -11.7263C298.918 -11.5595 298.051 -11.3259 297.251 -11.7263C296.251 -12.0598 293.651 -12.4267 291.251 -11.2267C288.251 -9.72673 286.251 -7.22673 278.751 -7.72673C277.751 -7.89354 275.551 -8.32709 274.751 -8.72673C273.085 -9.55976 268.151 -10.8259 261.751 -9.22628C259.085 -8.3931 252.951 -6.92673 249.751 -7.72673C248.751 -8.06006 246.251 -9.02673 244.251 -10.2267C242.251 -11.7267 237.051 -14.6267 232.251 -14.2267C230.251 -14.0599 225.751 -13.2261 223.751 -11.2261C220.751 -8.72613 212.951 -4.32613 205.751 -6.72613C204.251 -7.22613 201.051 -8.42613 200.251 -9.22613C198.085 -10.7261 191.751 -13.6261 183.751 -13.2261C179.585 -12.7265 169.351 -12.2272 161.751 -14.2267C156.585 -15.8932 144.651 -18.9261 138.251 -17.7261C136.085 -17.393 131.051 -16.2269 128.251 -14.2267C125.751 -12.56 118.951 -9.32656 111.751 -9.72656C109.585 -9.89323 104.951 -10.4266 103.751 -11.2266C101.085 -12.5599 94.3513 -14.5266 88.7513 -11.7266C87.5847 -11.0599 84.7513 -9.72656 82.7513 -9.72656C78.418 -9.89323 69.2513 -10.2266 67.2513 -10.2266H59.2513C57.7513 -10.2266 54.4513 -10.4266 53.2513 -11.2266C51.2513 -12.5599 46.0513 -14.9266 41.2513 -13.7266C40.7513 -13.5599 39.5513 -13.4266 38.7513 -14.2266C37.0846 -15.5599 31.4513 -17.4266 22.2513 -14.2266C19.2513 -13.0599 10.9513 -10.9266 1.75128 -11.7266C-0.582062 -12.0599 -7.14871 -12.4266 -14.7487 -11.2266C-18.2487 -10.5599 -26.2487 -8.82656 -30.2487 -7.22656C-32.5821 -6.39323 -38.4487 -5.22656 -43.2487 -7.22656C-46.5821 -9.0599 -54.7487 -12.6266 -60.7487 -12.2266C-63.2487 -12.0599 -69.3487 -11.1266 -73.7487 -8.72656C-75.2487 -7.72656 -79.2487 -6.02656 -83.2487 -7.22656C-85.5821 -8.22656 -91.8487 -9.92656 -98.2487 -8.72656C-100.915 -8.0599 -107.149 -7.02656 -110.749 -8.22656C-113.415 -9.5599 -120.049 -11.9266 -125.249 -10.7266C-125.915 -11.2266 -127.449 -11.7266 -128.249 -9.72656C-128.249 -9.5599 -128.449 -9.32656 -129.249 -9.72656C-129.749 -10.0599 -131.449 -10.3266 -134.249 -8.72656C-135.249 -8.22656 -137.949 -7.42656 -140.749 -8.22656C-142.582 -8.5599 -147.749 -8.72656 -152.249 -5.72656C-156.749 -2.72656 -160.249 3.27344 -156.249 0.773438C-152.249 -1.72656 -149.949 -1.22656 -146.749 0.773438C-147.249 1.4401 -147.549 2.57344 -144.749 1.77344C-144.415 1.60677 -143.549 1.57344 -142.749 2.77344C-142.415 3.60677 -140.949 5.07344 -137.749 4.27344C-137.082 4.10677 -134.749 3.07344 -130.749 0.273438C-129.415 -0.726562 -125.449 -2.52656 -120.249 -1.72656C-120.082 -1.22656 -119.549 -0.426563 -118.749 -1.22656L-117.249 -0.726562C-117.915 0.273438 -117.8 -0.0127831 -116.8 0.487217C-116.633 -0.179449 -116.149 0.373438 -115.749 2.77344C-115.749 3.60677 -115.449 5.27344 -114.249 5.27344C-113.415 5.10677 -112.249 3.87344 -114.249 0.273438C-112.082 0.940104 -107.549 2.5 -102.749 0.5C-101.582 -0.166666 -98.2487 0.5 -94.2487 0.5C-90.2487 0.5 -90.0487 1.97344 -87.2487 2.77344C-84.5821 3.60677 -78.1487 4.97344 -73.7487 3.77344C-72.7487 3.4401 -70.3487 2.77344 -68.7487 2.77344C-66.7487 2.60677 -61.5487 -1.12656 -56.7487 1.27344C-55.2487 2.10677 -51.9487 3.87344 -50.7487 4.27344C-50.4154 5.27344 -52.3002 -1.5 -49.5002 -1.5C-49.0002 -1.5 -44.7487 6.87344 -44.7487 5.27344H-40.7487C-39.2487 9.27344 -38.3002 4 -37.5002 4C-37.0002 4.5 -36.0002 3.7 -36.0002 -3.5C-36.1668 -4.16667 -33.4002 5.67344 -31.0002 5.27344C-29.6668 5.27344 -27.0487 6.77344 -26.2487 4.77344C-26.0821 3.9401 -25.4487 2.87344 -24.2487 5.27344C-23.7487 6.4401 -22.8002 3.77344 -22.0002 3.77344C-21.7654 3.77344 -21.4091 4.76543 -21.1799 5.6109C-21.3988 5.61533 -21.3468 5.97905 -21.2487 6.27344C-20.8243 7.33441 -20.921 6.56618 -21.1799 5.6109C-21.0271 5.60781 -20.7422 5.77997 -20.2487 6.27344C-19.5821 7.10677 -20.0002 1.67344 -16.0002 1.27344C-14.6668 1.10677 -8.74872 7.27344 -6.74872 5.27344C-6.6373 5.16201 -6.49109 4.44604 -6.34445 3.4492C-6.07004 3.60247 -5.71063 3.63198 -5.24872 3.5C-4.6485 3.41993 -3.70816 2.50782 -4.74872 -0.5C-4.91537 -1.33333 -4.94873 -2.6 -3.74872 -1C-3.59045 -0.683455 -3.31192 -0.239153 -2.97739 0.0973969C-3.45227 2.79739 -3.73965 6.27344 -2.24872 6.27344C-2.17609 6.27344 -1.88184 5.3237 -1.65573 4.70739C-1.71384 5.3944 -1.74872 6.10487 -1.74872 6.77344C-1.18454 3.6705 -1.36304 3.90959 -1.65573 4.70739C-1.36621 1.28408 -0.500183 -1.55657 -0.500183 4.27344C-0.500183 -1.22656 0.499817 -1.22656 0.499817 2.77344C1.16647 3.9401 6.49982 12 6.49982 12C10.4998 17 8.99982 21.5 10.4998 21.5C10.9998 21.5 10.4998 16.5 12.2513 9.77344C13.7513 10.2734 17.8513 10.7734 22.2513 8.77344C23.7513 7.9401 28.1513 6.77344 33.7513 8.77344C36.2513 9.77344 42.2513 12.4734 46.2513 15.2734C47.4179 16.2734 50.8513 18.2734 55.2513 18.2734C57.2513 18.2734 62.3513 17.0734 66.7513 12.2734C67.918 11.1068 71.4513 8.77344 76.2513 8.77344C75.7513 10.4401 75.1513 13.7734 76.7513 13.7734C77.0847 13.9401 77.7513 13.2734 77.7513 9.27344C78.5847 10.9401 81.3513 13.9734 85.7513 12.7734C86.2513 12.6068 87.5513 11.7734 88.7513 9.77344C89.0847 8.9401 90.4513 7.77344 93.2513 9.77344C95.0847 11.2734 99.8513 14.3734 104.251 14.7734C105.918 14.7734 109.751 14.2734 112.251 9.77344C114.085 10.7734 119.451 12.0734 126.251 9.27344C129.418 7.77344 137.151 4.57344 142.751 3.77344C145.085 3.4401 151.051 3.87344 156.251 8.27344C157.251 9.10677 159.551 11.5734 160.751 14.7734C160.918 15.2734 161.251 16.9734 161.251 19.7734C161.085 22.4401 161.051 27.7734 162.251 27.7734C163.418 27.7734 163.751 25.2734 163.751 17.7734C163.751 15.2734 164.251 10.1734 166.251 9.77344C167.251 9.60677 169.751 9.37344 171.751 9.77344C171.751 10.6068 172.051 12.1734 173.251 11.7734C173.585 11.6068 174.251 10.8734 174.251 9.27344C175.085 8.9401 177.578 7.5709 180.751 11.2734C181.751 12.4401 184.651 14.7734 188.251 14.7734C189.751 14.7734 193.151 14.0734 194.751 11.2734C194.585 12.7734 194.451 15.7734 195.251 15.7734C195.918 15.6068 196.751 15.7734 197.751 9.27344C197.751 8.60677 198.151 7.67344 199.751 9.27344C200.585 10.2734 202.351 12.4734 202.751 13.2734C204.918 17.1068 207.751 10.7734 208.751 27.2734C210.585 21.7734 214.251 10.6734 214.251 10.2734C214.251 9.77344 216.251 8.77344 218.251 10.7734C219.751 12.1068 222.951 13.8734 223.751 10.2734C223.751 9.9401 224.151 9.07344 225.751 8.27344C226.751 7.9401 229.251 6.57344 231.251 3.77344C232.085 2.4401 235.551 0.173437 242.751 1.77344C243.149 1.89593 243.658 2.03755 244.25 2.18465C242.18 2.77446 241.291 3.47696 242.751 4.27344L247.751 6.77344C250.085 7.77344 257 12.7734 258 16.2734C258 21.5 258 23.2734 258.5 23.2734C259 23.2734 259.9 22.2734 259.5 18.2734C259.333 17.1068 260.551 5.17344 263.751 4.77344C264.085 5.4401 264.751 6.27344 264.751 4.27344C265.585 3.60677 268.451 2.87344 273.251 5.27344C274.418 5.9401 295.251 10.3734 297.251 12.7734C298.918 14.9401 302.951 17.9734 305.751 12.7734C305.918 12.4401 306.451 11.6734 307.251 11.2734C308.418 11.9401 310.451 12.5734 309.251 9.77344C308.918 9.27344 310.151 8.57344 317.751 9.77344C319.251 10.1068 321.851 10.0734 320.251 7.27344C318.751 3.94029 322.851 -8.82605 307.251 -9.22628Z" fill="white"/>
</g>
</g>
<defs>
<filter id="filter0_ii_70_14" x="-158" y="-22" width="478.754" height="49.7734" filterUnits="userSpaceOnUse" color-interpolation-filters="sRGB">
<feFlood flood-opacity="0" result="BackgroundImageFix"/>
<feBlend mode="normal" in="SourceGraphic" in2="BackgroundImageFix" result="shape"/>
<feColorMatrix in="SourceAlpha" type="matrix" values="0 0 0 0 0 0 0 0 0 0 0 0 0 0 0 0 0 0 127 0" result="hardAlpha"/>
<feOffset dy="-4"/>
<feGaussianBlur stdDeviation="4"/>
<feComposite in2="hardAlpha" operator="arithmetic" k2="-1" k3="1"/>
<feColorMatrix type="matrix" values="0 0 0 0 0.784261 0 0 0 0 0.830325 0 0 0 0 0.830325 0 0 0 0.5 0"/>
<feBlend mode="normal" in2="shape" result="effect1_innerShadow_70_14"/>
<feColorMatrix in="SourceAlpha" type="matrix" values="0 0 0 0 0 0 0 0 0 0 0 0 0 0 0 0 0 0 127 0" result="hardAlpha"/>
<feOffset dy="-2"/>
<feGaussianBlur stdDeviation="1.5"/>
<feComposite in2="hardAlpha" operator="arithmetic" k2="-1" k3="1"/>
<feColorMatrix type="matrix" values="0 0 0 0 1 0 0 0 0 1 0 0 0 0 1 0 0 0 0.6 0"/>
<feBlend mode="normal" in2="effect1_innerShadow_70_14" result="effect2_innerShadow_70_14"/>
</filter>
</defs>
</svg>
