<svg width="493" height="49" viewBox="0 0 493 49" fill="none" xmlns="http://www.w3.org/2000/svg">
<g filter="url(#filter0_diii_50_8350)">
<path d="M461.249 7.27372C461.649 7.67372 465.083 8.44039 466.749 8.77372C482.349 9.17395 489.249 15.9403 490.749 19.2734C492.349 22.0734 489.749 22.1068 488.249 21.7734C480.649 20.5734 479.416 21.2734 479.749 21.7734C480.949 24.5734 478.916 23.9401 477.749 23.2734C476.949 23.6734 476.416 24.4401 476.249 24.7734C473.449 29.9734 469.416 26.9401 467.749 24.7734C465.749 22.3734 462.916 20.4401 461.749 19.7734C456.949 17.3734 454.083 18.1068 453.249 18.7734C453.249 20.7734 452.583 19.9401 452.249 19.2734C449.049 19.6734 448.583 22.1068 448.749 23.2734C449.149 27.2734 448.249 28.2734 447.749 28.2734C445.349 27.8734 446.416 23.4401 447.249 21.2734C444.049 23.6734 438.583 22.2734 436.249 21.2734L431.249 18.7734C425.749 15.7734 424.583 17.6068 423.249 18.2734C420.449 20.2734 416.083 21.1068 414.249 21.2734C409.849 21.6734 404.416 20.4401 402.249 19.7734C395.049 18.1734 391.583 20.4401 390.749 21.7734C388.749 24.5734 386.249 25.9401 385.249 26.2734C383.649 27.0734 383.249 27.9401 383.249 28.2734C382.449 31.8734 379.249 30.1068 377.749 28.7734C375.749 26.7734 373.749 27.7734 373.749 28.2734C373.749 28.6734 370.083 39.7734 368.249 45.2734C367.249 28.7734 364.416 35.1068 362.249 31.2734C361.849 30.4734 360.083 28.2734 359.249 27.2734C357.649 25.6734 357.249 26.6068 357.249 27.2734C356.249 33.7734 355.416 33.6068 354.749 33.7734C353.949 33.7734 354.083 30.7734 354.249 29.2734C352.649 32.0734 349.249 32.7734 347.749 32.7734C344.149 32.7734 341.249 30.4401 340.249 29.2734C337.076 25.5709 334.583 26.9401 333.749 27.2734C333.749 28.8734 333.083 29.6068 332.749 29.7734C331.549 30.1734 331.249 28.6068 331.249 27.7734C329.249 27.3734 326.749 27.6068 325.749 27.7734C323.749 28.1734 323.249 33.2734 323.249 35.7734C323.249 43.2734 322.916 45.7734 321.749 45.7734C320.549 45.7734 320.583 40.4401 320.749 37.7734C320.749 34.9734 320.416 33.2734 320.249 32.7734C319.049 29.5734 316.749 27.1068 315.749 26.2734C310.549 21.8734 304.583 21.4401 302.249 21.7734C296.649 22.5734 288.916 25.7734 285.749 27.2734C278.949 30.0734 273.583 28.7734 271.749 27.7734C269.249 32.2734 265.416 32.7734 263.749 32.7734C259.349 32.3734 254.583 29.2734 252.749 27.7734C249.949 25.7734 248.583 26.9401 248.249 27.7734C247.049 29.7734 245.749 30.6068 245.249 30.7734C240.849 31.9734 238.083 28.9401 237.249 27.2734C237.249 31.2734 236.583 31.9401 236.249 31.7734C234.649 31.7734 235.249 28.4401 235.749 26.7734C230.949 26.7734 227.416 29.1068 226.249 30.2734C221.849 35.0734 216.749 36.2734 214.749 36.2734C210.349 36.2734 206.916 34.2734 205.749 33.2734C201.749 30.4734 195.749 27.7734 193.249 26.7734C187.649 24.7734 183.249 25.9401 181.749 26.7734C177.349 28.7734 173.249 28.2734 171.749 27.7734C172.949 34.5734 171.916 35.9401 171.249 35.7734C168.849 35.3734 168.916 30.2734 169.249 27.7734C162.849 28.1734 159.916 25.9401 159.249 24.7734C159.649 25.9734 159.083 26.2734 158.749 26.2734C157.949 26.2734 157.749 25.2734 157.749 24.7734C157.749 24.3734 157.416 24.2734 157.249 24.2734C154.749 24.2734 156.749 27.2734 156.749 27.7734C157.549 30.1734 157.416 31.1068 157.249 31.2734C156.449 31.6734 155.583 30.4401 155.249 29.7734C154.049 28.1734 154.083 29.4401 154.249 30.2734C155.29 33.2813 154.35 34.1934 153.749 34.2734C150.949 35.0734 151.916 29.9401 152.749 27.2734C153.949 22.8734 153.249 22.7734 152.749 23.2734C150.749 25.2734 147.583 26.1068 146.249 26.2734C142.249 26.6734 139.916 25.1068 139.249 24.2734C138.049 23.0734 138.083 23.7734 138.249 24.2734C139.049 26.2734 138.249 26.7734 137.749 26.7734C136.949 26.7734 135.749 24.4401 135.249 23.2734C134.049 20.8734 133.416 21.9401 133.249 22.7734C132.449 24.7734 129.583 25.2734 128.249 25.2734C125.849 25.6734 125.583 27.1068 125.749 27.7734C125.749 34.9734 124.749 35.7734 124.249 35.2734C123.449 35.2734 120.249 27.2734 118.749 23.2734H114.749C114.749 24.8734 113.749 25.2734 113.249 25.2734C110.449 25.2734 109.083 23.2734 108.749 22.2734C107.549 21.8734 104.249 20.1068 102.749 19.2734C97.9493 16.8734 92.7493 20.6068 90.7493 20.7734C89.1493 20.7734 86.7493 21.4401 85.7493 21.7734C81.3493 22.9734 74.916 21.6068 72.2493 20.7734C69.4493 19.9734 69.2493 18.5 65.2493 18.5C61.2493 18.5 57.916 17.8333 56.7493 18.5C51.9493 20.5 47.416 18.9401 45.2493 18.2734C47.2493 21.8734 46.0827 23.1068 45.2493 23.2734C44.0493 23.2734 43.7493 21.6068 43.7493 20.7734C43.3493 18.3734 42.8649 17.8206 42.6982 18.4872C41.6982 17.9872 41.5827 18.2734 42.2493 17.2734L40.7493 16.7734C39.9493 17.5734 39.416 16.7734 39.2493 16.2734C34.0493 15.4734 30.0827 17.2734 28.7493 18.2734C24.7493 21.0734 22.416 22.1068 21.7493 22.2734C18.5493 23.0734 17.0827 21.6068 16.7493 20.7734C15.9493 19.5734 15.0827 19.6068 14.7493 19.7734C11.9493 20.5734 12.2493 19.4401 12.7493 18.7734C9.54932 16.7734 7.24933 16.2734 3.24933 18.7734C-0.750671 21.2734 2.74933 15.2734 7.24933 12.2734C11.7493 9.27344 16.916 9.4401 18.7493 9.77344C21.5493 10.5734 24.2493 9.77344 25.2493 9.27344C28.0493 7.67344 29.7493 7.9401 30.2493 8.27344C31.0493 8.67344 31.2493 8.4401 31.2493 8.27344C32.0493 6.27344 33.5827 6.77344 34.2493 7.27344C39.4493 6.07344 46.0827 8.4401 48.7493 9.77344C52.3493 10.9734 58.5827 9.9401 61.2493 9.27344C67.6493 8.07344 73.916 9.77344 76.2493 10.7734C80.2493 11.9734 84.2493 10.2734 85.7493 9.27344C90.1493 6.87344 96.2493 5.9401 98.7493 5.77344C104.749 5.37344 112.916 8.9401 116.249 10.7734C121.049 12.7734 126.916 11.6068 129.249 10.7734C133.249 9.17344 141.249 7.4401 144.749 6.77344C152.349 5.57344 158.916 5.9401 161.249 6.27344C170.449 7.07344 178.749 4.9401 181.749 3.77344C190.949 0.573437 196.583 2.4401 198.249 3.77344C199.049 4.57344 200.249 4.4401 200.749 4.27344C205.549 3.07344 210.749 5.4401 212.749 6.77344C213.949 7.57344 217.249 7.77344 218.749 7.77344H226.749C228.749 7.77344 237.916 8.10677 242.249 8.27344C244.249 8.27344 247.083 6.9401 248.249 6.27344C253.849 3.47344 260.583 5.4401 263.249 6.77344C264.449 7.57344 269.083 8.10677 271.249 8.27344C278.449 8.67344 285.249 5.43999 287.749 3.77327C290.549 1.77314 295.583 0.606952 297.749 0.273874C304.149 -0.926126 316.083 2.10681 321.249 3.77327C328.849 5.77279 339.083 5.27347 343.249 4.77387C351.249 4.37387 357.583 7.27387 359.749 8.77387C360.549 9.57387 363.749 10.7739 365.249 11.2739C372.449 13.6739 380.249 9.27387 383.249 6.77387C385.249 4.77387 389.749 3.94014 391.749 3.77327C396.549 3.37327 401.749 6.27327 403.749 7.77327C405.749 8.97327 408.249 9.93994 409.249 10.2733C412.449 11.0733 418.583 9.6069 421.249 8.77372C427.649 7.17408 432.583 8.44024 434.249 9.27327C435.049 9.67291 437.249 10.1065 438.249 10.2733C445.749 10.7733 447.749 8.27327 450.749 6.77327C453.149 5.57327 455.749 5.94024 456.749 6.27372C457.549 6.67408 458.416 6.44054 458.749 6.27372C460.749 5.27372 460.749 6.77372 461.249 7.27372Z" fill="white"/>
</g>
<defs>
<filter id="filter0_diii_50_8350" x="0.498047" y="-4" width="491.754" height="52.7734" filterUnits="userSpaceOnUse" color-interpolation-filters="sRGB">
<feFlood flood-opacity="0" result="BackgroundImageFix"/>
<feColorMatrix in="SourceAlpha" type="matrix" values="0 0 0 0 0 0 0 0 0 0 0 0 0 0 0 0 0 0 127 0" result="hardAlpha"/>
<feOffset dy="2"/>
<feGaussianBlur stdDeviation="0.5"/>
<feComposite in2="hardAlpha" operator="out"/>
<feColorMatrix type="matrix" values="0 0 0 0 0 0 0 0 0 0 0 0 0 0 0 0 0 0 0.15 0"/>
<feBlend mode="normal" in2="BackgroundImageFix" result="effect1_dropShadow_50_8350"/>
<feBlend mode="normal" in="SourceGraphic" in2="effect1_dropShadow_50_8350" result="shape"/>
<feColorMatrix in="SourceAlpha" type="matrix" values="0 0 0 0 0 0 0 0 0 0 0 0 0 0 0 0 0 0 127 0" result="hardAlpha"/>
<feOffset dy="-4"/>
<feGaussianBlur stdDeviation="4"/>
<feComposite in2="hardAlpha" operator="arithmetic" k2="-1" k3="1"/>
<feColorMatrix type="matrix" values="0 0 0 0 0.211765 0 0 0 0 0.254902 0 0 0 0 0.27451 0 0 0 0.6 0"/>
<feBlend mode="normal" in2="shape" result="effect2_innerShadow_50_8350"/>
<feColorMatrix in="SourceAlpha" type="matrix" values="0 0 0 0 0 0 0 0 0 0 0 0 0 0 0 0 0 0 127 0" result="hardAlpha"/>
<feOffset dy="-3"/>
<feGaussianBlur stdDeviation="6"/>
<feComposite in2="hardAlpha" operator="arithmetic" k2="-1" k3="1"/>
<feColorMatrix type="matrix" values="0 0 0 0 0 0 0 0 0 0 0 0 0 0 0 0 0 0 0.1 0"/>
<feBlend mode="normal" in2="effect2_innerShadow_50_8350" result="effect3_innerShadow_50_8350"/>
<feColorMatrix in="SourceAlpha" type="matrix" values="0 0 0 0 0 0 0 0 0 0 0 0 0 0 0 0 0 0 127 0" result="hardAlpha"/>
<feOffset dy="3"/>
<feGaussianBlur stdDeviation="1"/>
<feComposite in2="hardAlpha" operator="arithmetic" k2="-1" k3="1"/>
<feColorMatrix type="matrix" values="0 0 0 0 0.998944 0 0 0 0 1 0 0 0 0 0.947216 0 0 0 0.6 0"/>
<feBlend mode="normal" in2="effect3_innerShadow_50_8350" result="effect4_innerShadow_50_8350"/>
</filter>
</defs>
</svg>
