<svg width="242" height="26" viewBox="0 0 242 26" fill="none" xmlns="http://www.w3.org/2000/svg">
<mask id="mask0_70_10" style="mask-type:alpha" maskUnits="userSpaceOnUse" x="0" y="0" width="242" height="26">
<rect width="242" height="26" fill="#1F2027"/>
</mask>
<g mask="url(#mask0_70_10)">
<g filter="url(#filter0_ii_70_10)">
<path d="M322.251 -17.2263C320.584 -17.5596 317.151 -18.3263 316.751 -18.7263C316.251 -19.2263 316.251 -20.7263 314.251 -19.7263C313.918 -19.5595 313.051 -19.3259 312.251 -19.7263C311.251 -20.0598 308.651 -20.4267 306.251 -19.2267C303.251 -17.7267 301.251 -15.2267 293.751 -15.7267C292.751 -15.8935 290.551 -16.3271 289.751 -16.7267C288.084 -17.5598 283.151 -18.8259 276.751 -17.2263C275.112 -16.7143 272.164 -15.9631 269.393 -15.6458C266.74 -19.6095 264.948 -21.5811 266.319 -15.5123C265.747 -15.5415 265.218 -15.61 264.751 -15.7267C263.751 -16.0601 261.251 -17.0267 259.251 -18.2267C257.251 -19.7267 252.051 -22.6267 247.251 -22.2267C245.251 -22.0599 240.751 -21.2261 238.751 -19.2261C235.751 -16.7261 227.951 -12.3261 220.751 -14.7261C219.251 -15.2261 216.051 -16.4261 215.251 -17.2261C213.084 -18.7261 206.751 -21.6261 198.751 -21.2261C194.584 -20.7265 184.351 -20.2272 176.751 -22.2267C171.584 -23.8932 159.651 -26.9261 153.251 -25.7261C151.084 -25.393 146.051 -24.2269 143.251 -22.2267C140.751 -20.56 133.951 -17.3266 126.751 -17.7266C124.584 -17.8932 119.951 -18.4266 118.751 -19.2266C116.084 -20.5599 109.351 -22.5266 103.751 -19.7266C102.584 -19.0599 99.751 -17.7266 97.751 -17.7266C93.4177 -17.8932 84.251 -18.2266 82.251 -18.2266H74.251C72.751 -18.2266 69.451 -18.4266 68.251 -19.2266C66.251 -20.5599 61.051 -22.9266 56.251 -21.7266C55.751 -21.5599 54.551 -21.4266 53.751 -22.2266C52.0843 -23.5599 46.451 -25.4266 37.251 -22.2266C34.251 -21.0599 25.951 -18.9266 16.751 -19.7266C14.4176 -20.0599 7.85098 -20.4266 0.250977 -19.2266C-3.24902 -18.5599 -11.249 -16.8266 -15.249 -15.2266C-17.5824 -14.3932 -23.449 -13.2266 -28.249 -15.2266C-31.5824 -17.0599 -39.749 -20.6266 -45.749 -20.2266C-48.249 -20.0599 -54.349 -19.1266 -58.749 -16.7266C-60.249 -15.7266 -64.249 -14.0266 -68.249 -15.2266C-70.5824 -16.2266 -76.849 -17.9266 -83.249 -16.7266C-85.9157 -16.0599 -92.149 -15.0266 -95.749 -16.2266C-98.4157 -17.5599 -105.049 -19.9266 -110.249 -18.7266C-110.916 -19.2266 -112.449 -19.7266 -113.249 -17.7266C-113.249 -17.5599 -113.449 -17.3266 -114.249 -17.7266C-114.749 -18.0599 -116.449 -18.3266 -119.249 -16.7266C-120.249 -16.2266 -122.949 -15.4266 -125.749 -16.2266C-127.582 -16.5599 -132.749 -16.7266 -137.249 -13.7266C-141.749 -10.7266 -145.249 -4.72656 -141.249 -7.22656C-137.249 -9.72656 -134.949 -9.22656 -131.749 -7.22656C-132.249 -6.5599 -132.549 -5.42656 -129.749 -6.22656C-129.416 -6.39323 -128.549 -6.42656 -127.749 -5.22656C-127.416 -4.39323 -125.949 -2.92656 -122.749 -3.72656C-122.082 -3.89323 -119.749 -4.92656 -115.749 -7.72656C-114.416 -8.72656 -110.449 -10.5266 -105.249 -9.72656C-105.082 -9.22656 -104.549 -8.42656 -103.749 -9.22656L-102.249 -8.72656C-102.916 -7.72656 -102.8 -8.01278 -101.8 -7.51278C-101.633 -8.17945 -101.149 -7.62656 -100.749 -5.22656C-100.749 -4.39323 -100.449 -2.72656 -99.249 -2.72656C-98.4157 -2.89323 -97.249 -4.12656 -99.249 -7.72656C-97.0824 -7.0599 -92.549 -5.5 -87.749 -7.5C-86.5824 -8.16667 -83.249 -7.5 -79.249 -7.5C-75.249 -7.5 -75.049 -6.02656 -72.249 -5.22656C-69.5824 -4.39323 -63.149 -3.02656 -58.749 -4.22656C-57.749 -4.5599 -55.349 -5.22656 -53.749 -5.22656C-51.749 -5.39323 -46.549 -9.12656 -41.749 -6.72656C-40.249 -5.89323 -36.949 -4.12656 -35.749 -3.72656C-35.4157 -2.72656 -37.3005 -9.5 -34.5005 -9.5C-34.0005 -9.5 -29.749 -1.12656 -29.749 -2.72656H-25.749C-24.249 1.27344 -23.3005 -4 -22.5005 -4C-22.0005 -3.5 -21.0005 -4.3 -21.0005 -11.5C-21.1671 -12.1667 -18.4005 -2.32656 -16.0005 -2.72656C-14.6671 -2.72656 -12.049 -1.22656 -11.249 -3.22656C-11.0824 -4.0599 -10.449 -5.12656 -9.24902 -2.72656C-8.74902 -1.5599 -7.80048 -4.22656 -7.00049 -4.22656C-6.76572 -4.22656 -6.40942 -3.23457 -6.18024 -2.3891C-6.39908 -2.38467 -6.34714 -2.02095 -6.24902 -1.72656C-5.82465 -0.665588 -5.9213 -1.43382 -6.18024 -2.3891C-6.0274 -2.39219 -5.74249 -2.22003 -5.24902 -1.72656C-4.58237 -0.893229 -5.00049 -6.32656 -1.00049 -6.72656C0.332855 -6.89323 6.25098 -0.726562 8.25098 -2.72656C8.3624 -2.83799 8.50861 -3.55396 8.65524 -4.5508C8.92966 -4.39753 9.28906 -4.36802 9.75098 -4.5C10.3512 -4.58007 11.2915 -5.49218 10.251 -8.5C10.0843 -9.33333 10.051 -10.6 11.251 -9C11.4092 -8.68345 11.6878 -8.23915 12.0223 -7.9026C11.752 -6.36603 11.5425 -4.5781 11.6869 -3.32258C7.09125 -1.78086 0 0 0 0C4 5 21.4994 2.27344 25.4995 13.5C25.6673 13.971 25.4995 9.77344 29.9994 3.77344C32.1694 0.880056 32.851 2.77344 37.251 0.773438C38.751 -0.0598965 43.151 -1.22656 48.751 0.773438C51.251 1.77344 57.251 4.47344 61.251 7.27344C62.4176 8.27344 65.851 10.2734 70.251 10.2734C72.251 10.2734 77.351 9.07344 81.751 4.27344C82.9044 3.11994 86.1256 -0.907637 90.8374 -0.99844C90.8501 -0.72233 90.9036 -0.680634 90.9994 -1C90.9452 -1 90.8912 -0.999477 90.8374 -0.99844C90.784 -2.16326 91.4576 -7.5 92.751 -7.5C93.0844 -7.33333 91.4994 -2.5 91.9994 -1.5C92.8328 0.166666 96.351 5.97344 100.751 4.77344C101.251 4.60677 102.551 3.77344 103.751 1.77344C104.084 0.940104 105.451 -0.226562 108.251 1.77344C110.084 3.27344 114.851 6.37344 119.251 6.77344C120.918 6.77344 124.751 6.27344 127.251 1.77344C129.084 2.77344 134.451 4.07344 141.251 1.27344C144.418 -0.226562 146.499 11.7734 154.499 11.7734C164.999 11.7734 166.051 -4.12656 171.251 0.273438C172.251 1.10677 174.551 3.57344 175.751 6.77344C175.918 7.27344 176.251 8.97344 176.251 11.7734C176.084 14.4401 176.051 19.7734 177.251 19.7734C178.418 19.7734 178.751 17.2734 178.751 9.77344C178.751 7.27344 179.251 2.17344 181.251 1.77344C182.251 1.60677 184.751 1.37344 186.751 1.77344C186.751 2.60677 187.051 4.17344 188.251 3.77344C188.584 3.60677 189.251 2.87344 189.251 1.27344C190.084 0.940104 192.577 -0.429098 195.751 3.27344C196.751 4.4401 199.651 6.77344 203.251 6.77344C204.751 6.77344 208.151 6.07344 209.751 3.27344C209.584 4.77344 209.451 7.77344 210.251 7.77344C210.918 7.60677 211.751 7.77344 212.751 1.27344C212.751 0.606771 213.151 -0.326563 214.751 1.27344C215.584 2.27344 217.351 4.47344 217.751 5.27344C219.918 9.10677 222.751 2.77344 223.751 19.2734C225.584 13.7734 229.251 2.67344 229.251 2.27344C229.251 1.77344 231.251 0.773438 233.251 2.77344C234.751 4.10677 237.951 5.87344 238.751 2.27344C238.751 1.9401 239.151 1.07344 240.751 0.273438C241.751 -0.0598965 244.251 -1.42656 246.251 -4.22656C247.084 -5.5599 250.551 -7.82656 257.751 -6.22656C258.149 -6.10407 258.657 -5.96245 259.249 -5.81535C257.18 -5.22554 256.291 -4.52304 257.751 -3.72656L260.249 -2.47773L260.251 -2.47656C260.256 -2.47352 260.262 -2.47072 260.268 -2.46817L262.751 -1.22656C263.517 -0.898369 263.672 -2.21529 263.571 -4.00912C263.586 -4.01845 263.602 -4.0278 263.618 -4.03719C267.706 -4.36775 273.943 -4.30785 277.347 -4.09802C277.921 -3.50999 278.403 -3.18308 278.751 -3.22656C279.084 -2.5599 279.751 -1.72656 279.751 -3.72656C279.926 -3.8669 278.951 -3.99911 277.347 -4.09802C276.851 -4.60563 276.286 -5.30782 275.679 -6.13431C276.774 -6.55415 277.845 -7.07925 278.751 -7.72656C279.118 -7.91001 277.276 -7.91678 274.528 -7.7677C274.114 -8.37639 273.689 -9.01839 273.26 -9.67533C274.12 -10.0919 274.914 -10.423 275.595 -10.6243C280.878 -9.52148 285.482 -9.07251 286.251 -10.5C286.418 -10.8333 286.951 -11.6 287.751 -12C288.916 -11.3345 290.944 -10.7022 289.757 -13.4853C290.091 -13.0078 292.816 -9.55525 299.499 -8.5C300.999 -8.16667 303.599 -8.2 301.999 -11C300.499 -14.3331 337.851 -16.8261 322.251 -17.2263Z" fill="white"/>
</g>
</g>
<defs>
<filter id="filter0_ii_70_10" x="-143" y="-30" width="469.069" height="49.7734" filterUnits="userSpaceOnUse" color-interpolation-filters="sRGB">
<feFlood flood-opacity="0" result="BackgroundImageFix"/>
<feBlend mode="normal" in="SourceGraphic" in2="BackgroundImageFix" result="shape"/>
<feColorMatrix in="SourceAlpha" type="matrix" values="0 0 0 0 0 0 0 0 0 0 0 0 0 0 0 0 0 0 127 0" result="hardAlpha"/>
<feOffset dy="-4"/>
<feGaussianBlur stdDeviation="4"/>
<feComposite in2="hardAlpha" operator="arithmetic" k2="-1" k3="1"/>
<feColorMatrix type="matrix" values="0 0 0 0 0.211765 0 0 0 0 0.254902 0 0 0 0 0.27451 0 0 0 0.5 0"/>
<feBlend mode="normal" in2="shape" result="effect1_innerShadow_70_10"/>
<feColorMatrix in="SourceAlpha" type="matrix" values="0 0 0 0 0 0 0 0 0 0 0 0 0 0 0 0 0 0 127 0" result="hardAlpha"/>
<feOffset dy="-2"/>
<feGaussianBlur stdDeviation="1.5"/>
<feComposite in2="hardAlpha" operator="arithmetic" k2="-1" k3="1"/>
<feColorMatrix type="matrix" values="0 0 0 0 0.998944 0 0 0 0 1 0 0 0 0 0.947216 0 0 0 0.6 0"/>
<feBlend mode="normal" in2="effect1_innerShadow_70_10" result="effect2_innerShadow_70_10"/>
</filter>
</defs>
</svg>
