<svg width="30" height="31" viewBox="0 0 30 31" fill="none" xmlns="http://www.w3.org/2000/svg">
<circle cx="15" cy="15.043" r="15" fill="url(#paint0_linear_594_20912)"/>
<circle cx="15" cy="15.043" r="15" fill="url(#paint1_linear_594_20912)"/>
<mask id="mask0_594_20912" style="mask-type:alpha" maskUnits="userSpaceOnUse" x="12" y="15" width="11" height="10">
<path d="M15.7801 24.5509L22.4918 15.4079H16.673L12.352 19.0936L15.7801 24.5509Z" fill="url(#paint2_linear_594_20912)"/>
</mask>
<g mask="url(#mask0_594_20912)">
<path opacity="0.5" d="M15.3726 25.4188L22.4918 15.408H16.6731L13.8726 26.0188L15.3726 25.4188Z" fill="url(#paint3_linear_594_20912)"/>
</g>
<path opacity="0.5" d="M16.8729 15.5186L23.4729 10.1825H11.1729L16.8729 15.5186Z" fill="url(#paint4_radial_594_20912)"/>
<path fill-rule="evenodd" clipRule="evenodd" d="M15.8008 14.2148C15.7264 14.2751 15.6198 14.2743 15.5464 14.2128L7.56121 7.52523C7.40384 7.39344 7.52341 7.13844 7.72537 7.17512L20.9853 9.58367C21.1535 9.61422 21.2083 9.82806 21.0756 9.93577L15.8008 14.2148Z" fill="white"/>
<path fill-rule="evenodd" clipRule="evenodd" d="M15.2074 14.8354C15.2591 14.8788 15.2855 14.9454 15.2775 15.0125L14.0194 25.5277C13.9947 25.7341 13.7107 25.7706 13.6347 25.5772L6.84522 8.319C6.76934 8.12611 7.0009 7.95936 7.15978 8.09248L15.2074 14.8354Z" fill="white"/>
<path fill-rule="evenodd" clipRule="evenodd" d="M24.6669 8.91875L24.8992 9.04791L20.242 13.9772C20.1215 14.1048 20.2119 14.3146 20.3874 14.3146H24.2524C24.4198 14.3146 24.5132 14.508 24.409 14.639L14.1728 27.5187H13.5728L22.0137 15.8317C22.1092 15.6994 22.0147 15.5146 21.8516 15.5146H17.0719C16.8834 15.5146 16.7996 15.2776 16.9462 15.1591L24.6669 8.91875Z" fill="url(#paint5_linear_594_20912)"/>
<defs>
<linearGradient id="paint0_linear_594_20912" x1="19.8745" y1="27.811" x2="-5.66066" y2="15.2902" gradientUnits="userSpaceOnUse">
<stop stop-color="#4950D4"/>
<stop offset="1" stop-color="#7CF6E8"/>
</linearGradient>
<linearGradient id="paint1_linear_594_20912" x1="19.8745" y1="27.811" x2="-5.66066" y2="15.2902" gradientUnits="userSpaceOnUse">
<stop stop-color="#4950D4"/>
<stop offset="1" stop-color="#7CF6E8"/>
</linearGradient>
<linearGradient id="paint2_linear_594_20912" x1="22.132" y1="16.1894" x2="15.9918" y2="24.2134" gradientUnits="userSpaceOnUse">
<stop stop-color="white"/>
<stop offset="1" stop-color="white" stop-opacity="0"/>
</linearGradient>
<linearGradient id="paint3_linear_594_20912" x1="18.6726" y1="20.6188" x2="15.6792" y2="19.1057" gradientUnits="userSpaceOnUse">
<stop stop-color="#1204D3" stop-opacity="0.8"/>
<stop offset="1" stop-color="#0012F0" stop-opacity="0"/>
</linearGradient>
<radialGradient id="paint4_radial_594_20912" cx="0" cy="0" r="1" gradientUnits="userSpaceOnUse" gradientTransform="translate(17.8181 14.5017) rotate(-119.906) scale(2.78717 5.95519)">
<stop stop-color="#425BCC"/>
<stop offset="1" stop-color="white" stop-opacity="0"/>
</radialGradient>
<linearGradient id="paint5_linear_594_20912" x1="23.7728" y1="10.4187" x2="15.0728" y2="26.3187" gradientUnits="userSpaceOnUse">
<stop stop-color="white" stop-opacity="0"/>
<stop offset="0.124501" stop-color="white" stop-opacity="0.71"/>
<stop offset="0.256651" stop-color="white"/>
<stop offset="0.578781" stop-color="white" stop-opacity="0.97"/>
<stop offset="0.79384" stop-color="#9EBAFE"/>
<stop offset="0.986914" stop-color="#7DF7E9" stop-opacity="0"/>
</linearGradient>
</defs>
</svg>
