<svg width="20" height="20" viewBox="0 0 20 20" fill="none" xmlns="http://www.w3.org/2000/svg">
<path fill-rule="evenodd" clipRule="evenodd" d="M4.33394 1.81843H15.8698C16.1504 1.81843 16.3979 1.96994 16.5299 2.20561L19.8966 8.16473C20.0782 8.46774 20.0122 8.87175 19.7646 9.10742L10.5227 18.4333C10.2256 18.7363 9.74705 18.7363 9.44999 18.4333L0.224592 9.10742C-0.0229587 8.85492 -0.0724697 8.45091 0.109068 8.13107L3.70681 2.15511C3.82233 1.9531 4.06988 1.81843 4.33394 1.81843Z" fill="#071619"/>
<path fill-rule="evenodd" clipRule="evenodd" d="M0.893634 8.10878L4.20617 2.71455C4.31253 2.5322 4.54046 2.41064 4.78358 2.41064H15.405C15.6633 2.41064 15.8912 2.5474 16.0128 2.76013L19.1126 8.13917C19.2797 8.41268 19.2189 8.77737 18.991 8.9901L10.4817 17.4081C10.2082 17.6817 9.76758 17.6817 9.49406 17.4081L1 8.9901C0.772074 8.76217 0.726488 8.39749 0.893634 8.10878ZM15.5413 3.02951C15.516 2.98514 15.4675 2.9536 15.405 2.9536H4.78358C4.75115 2.9536 4.72037 2.96206 4.69721 2.97429C4.68187 2.9824 4.67515 2.98919 4.67355 2.99087L4.67206 2.99343L1.36113 8.38507C1.31636 8.46665 1.33635 8.55808 1.38341 8.60565C1.38358 8.60582 1.38375 8.606 1.38393 8.60617L9.87799 17.0242C9.93946 17.0857 10.0363 17.0857 10.0978 17.0242L10.0999 17.0222L18.6148 8.59856L18.6205 8.59317C18.6395 8.57544 18.6573 8.54505 18.663 8.50689C18.6686 8.46979 18.6606 8.44091 18.6493 8.4223L18.6456 8.41633L15.5413 3.02951Z" fill="url(#paint0_linear_110_18921)"/>
<path fill-rule="evenodd" clipRule="evenodd" d="M13.8381 4.48047V6.36176H11.0067V9.12202C10.9262 9.13306 10.6162 9.15277 10.0105 9.15277C9.4908 9.15277 9.10789 9.13173 8.97652 9.12096V7.70879C6.94957 7.80028 5.43669 8.16012 5.43669 8.59009C5.43669 9.08889 7.47269 9.49331 9.98533 9.49388V9.49379L9.99078 9.49379C10.3385 9.49379 10.678 9.50161 11.0059 9.5165V9.47367L11.0067 9.47365V9.51654C13.3044 9.621 15.0329 10.0728 15.0329 10.6143C15.0329 11.156 13.3035 11.6079 11.0048 11.7122V13.75H8.97652V9.78611C6.67787 9.6818 4.94849 9.22991 4.94849 8.68826C4.94849 8.14661 6.67787 7.69472 8.97652 7.59041V6.36176H6.142V4.48047H13.8381ZM11.0048 11.5941C13.0318 11.5026 14.5448 11.1428 14.5448 10.7128C14.5448 10.2828 13.0318 9.92296 11.0048 9.83148V11.5941Z" fill="url(#paint1_linear_110_18921)"/>
<defs>
<linearGradient id="paint0_linear_110_18921" x1="2.47905" y1="13.4671" x2="18.9159" y2="12.2903" gradientUnits="userSpaceOnUse">
<stop stop-color="#80F7FB"/>
<stop offset="1" stop-color="#7AFF91"/>
</linearGradient>
<linearGradient id="paint1_linear_110_18921" x1="5.8717" y1="11.2219" x2="14.8819" y2="10.6425" gradientUnits="userSpaceOnUse">
<stop stop-color="#80F7FB"/>
<stop offset="1" stop-color="#7AFF91"/>
</linearGradient>
</defs>
</svg>
