<svg width="20" height="20" viewBox="0 0 20 20" fill="none" xmlns="http://www.w3.org/2000/svg">
<path fill-rule="evenodd" clipRule="evenodd" d="M16.0462 3.32263L16.0472 3.32438L19.4139 9.16654L19.4175 9.17276L19.4212 9.17888C19.4583 9.23948 19.448 9.34596 19.3845 9.40524L19.3785 9.41076L19.3728 9.41646L10.1309 18.5593L10.1309 18.5593L10.1287 18.5614C10.0493 18.6409 9.92343 18.6409 9.84395 18.5614L9.84217 18.5596L0.618552 9.41858L0.617973 9.418C0.556165 9.35562 0.532818 9.24008 0.588664 9.13905L4.18158 3.28824L4.1817 3.28832L4.18782 3.27785C4.18782 3.27785 4.18788 3.27777 4.18801 3.27762C4.18945 3.27582 4.19922 3.2636 4.22493 3.25002C4.25472 3.23428 4.29337 3.22377 4.33394 3.22377H15.8698C15.9495 3.22377 16.0129 3.26434 16.0462 3.32263ZM0.109068 8.85535C-0.0724697 9.16891 -0.0229587 9.56499 0.224592 9.81254L9.44999 18.9554C9.74705 19.2524 10.2256 19.2524 10.5227 18.9554L19.7646 9.81254C20.0122 9.5815 20.0782 9.18542 19.8966 8.88836L16.5299 3.0462C16.3979 2.81516 16.1504 2.66663 15.8698 2.66663H4.33394C4.06988 2.66663 3.82233 2.79865 3.70681 2.99669L0.109068 8.85535Z" fill="url(#paint0_linear_16_3116)"/>
<path fill-rule="evenodd" clipRule="evenodd" d="M14.1677 4.91516V6.9585H11.0907V9.95657C11.0006 9.96859 10.6641 9.98973 10.0105 9.98973C9.44376 9.98973 9.0268 9.96669 8.88577 9.95504L8.88577 8.42112C6.68502 8.52059 5.04259 8.91135 5.04259 9.37823C5.04259 9.92002 7.25424 10.3593 9.98352 10.3598V10.3613H9.98381V10.3606L9.98829 10.3606C10.0362 10.3606 10.084 10.3608 10.1316 10.3611C10.1453 10.361 10.1588 10.3609 10.1721 10.3609C10.4857 10.3632 10.7926 10.3713 11.0907 10.3849V10.3853C13.5868 10.4987 15.4646 10.9894 15.4646 11.5776C15.4646 12.1659 13.5866 12.6566 11.0904 12.77V14.983H8.88577V10.6774C6.38991 10.564 4.51233 10.0733 4.51233 9.48511C4.51233 8.89693 6.38991 8.40621 8.88577 8.2928V6.9585H5.80678V4.91516H14.1677ZM11.0904 12.6419C13.2917 12.5425 14.9346 12.1517 14.9346 11.6848C14.9346 11.2178 13.2917 10.827 11.0904 10.7276V12.6419Z" fill="url(#paint1_linear_16_3116)"/>
<defs>
<linearGradient id="paint0_linear_16_3116" x1="1.83099" y1="14.675" x2="19.6831" y2="13.3968" gradientUnits="userSpaceOnUse">
<stop stop-color="#80F7FB"/>
<stop offset="1" stop-color="#7AFF91"/>
</linearGradient>
<linearGradient id="paint1_linear_16_3116" x1="5.515" y1="12.2372" x2="15.3007" y2="11.608" gradientUnits="userSpaceOnUse">
<stop stop-color="#80F7FB"/>
<stop offset="1" stop-color="#7AFF91"/>
</linearGradient>
</defs>
</svg>
