<svg width="12" height="12" viewBox="0 0 12 12" fill="none" xmlns="http://www.w3.org/2000/svg">
<path d="M4.67446 9.96807C4.80364 10.1514 4.95082 10.339 5.09041 10.517C5.1107 10.5428 5.13083 10.5685 5.15072 10.5939C5.30975 10.7971 5.45224 10.9829 5.55033 11.1412C5.5993 11.2202 5.63393 11.2873 5.65404 11.3421C5.67496 11.3992 5.67465 11.4284 5.67257 11.4387C5.67257 11.4387 5.67259 11.4388 5.67261 11.4388C5.67286 11.4395 5.67389 11.4423 5.65953 11.4495C5.63608 11.4612 5.5856 11.4747 5.49033 11.4747H4.06533C3.90698 11.4747 3.83531 11.4464 3.79339 11.4134C3.74837 11.378 3.71139 11.3173 3.66463 11.1907C3.64682 11.1425 3.62863 11.0876 3.60831 11.0263C3.52452 10.7737 3.40444 10.4116 3.125 9.95345C2.67664 9.20225 2.57795 8.68165 2.56489 8.40326C2.56356 8.37494 2.57419 8.35854 2.59045 8.34721C2.60966 8.33383 2.6434 8.32435 2.68533 8.33412C2.84376 8.37102 3.06142 8.4194 3.32341 8.4718C3.642 8.53552 3.91797 8.61784 4.09348 8.67574C4.14866 8.69395 4.19911 8.75516 4.2107 8.84345C4.24397 9.09682 4.34949 9.51783 4.67446 9.96807ZM4.67446 9.96807C4.67429 9.96783 4.67413 9.9676 4.67396 9.96736L4.79658 9.88097M4.67446 9.96807C4.67463 9.96831 4.67481 9.96855 4.67498 9.96879L4.79658 9.88097M4.79658 9.88097C4.92348 10.0611 5.06825 10.2457 5.20826 10.4242C5.70957 11.0633 6.14988 11.6247 5.49033 11.6247H4.06533C3.64887 11.6247 3.59052 11.449 3.46439 11.0693C3.38041 10.8164 3.26638 10.4731 2.99658 10.031L4.79658 9.88097ZM9.35291 9.25684C8.9578 8.80745 8.33169 8.48721 7.63297 8.24822C6.93088 8.00807 6.13653 7.8438 5.38724 7.71761C5.01213 7.65443 4.64698 7.60059 4.30934 7.55159C4.26732 7.5455 4.22576 7.53948 4.18467 7.53353C3.89477 7.49155 3.62837 7.45298 3.39471 7.41449C3.12691 7.37038 2.90871 7.3274 2.75155 7.28147C2.67274 7.25844 2.61513 7.2363 2.57634 7.21585C2.56227 7.20843 2.55278 7.20232 2.54658 7.19787V3.3687C2.55198 3.34836 2.57657 3.3067 2.68198 3.25219C2.79367 3.19444 2.96 3.14152 3.17898 3.08939C3.44388 3.02631 3.76343 2.96907 4.1244 2.9044C4.36311 2.86164 4.61993 2.81563 4.89103 2.76254C6.23192 2.49999 7.87333 2.07263 9.00413 1.02909C9.54913 0.53421 9.96992 0.43389 10.292 0.531455C10.625 0.632351 10.9169 0.961984 11.1576 1.47655C11.636 2.49954 11.8466 4.1143 11.8466 5.43721C11.8466 6.7517 11.5401 8.13419 11.0582 8.96676C10.8154 9.38624 10.5459 9.63583 10.277 9.69989C10.023 9.76038 9.71346 9.66635 9.35291 9.25684ZM0.146582 6.52471V4.16222C0.146582 3.8161 0.433366 3.52472 0.802832 3.52472H1.30908C1.39192 3.52472 1.45908 3.59187 1.45908 3.67472V7.01222C1.45908 7.09506 1.39192 7.16221 1.30908 7.16221H0.802832C0.431001 7.16221 0.146582 6.88727 0.146582 6.52471Z" fill="url(#paint0_linear_225_26637)" stroke="url(#paint1_linear_225_26637)" stroke-width="0.3"/>
<defs>
<linearGradient id="paint0_linear_225_26637" x1="-0.860561" y1="-3.3008" x2="4.01555" y2="12.2216" gradientUnits="userSpaceOnUse">
<stop stop-color="#F6D7B6"/>
<stop offset="1" stop-color="#18C19F"/>
</linearGradient>
<linearGradient id="paint1_linear_225_26637" x1="5.99658" y1="0.347656" x2="5.99658" y2="11.6247" gradientUnits="userSpaceOnUse">
<stop stop-color="white"/>
<stop offset="1" stop-color="white" stop-opacity="0"/>
</linearGradient>
</defs>
</svg>
