<svg width="30" height="30" viewBox="0 0 30 30" fill="none" xmlns="http://www.w3.org/2000/svg">
<circle cx="15" cy="15" r="15" fill="white"/>
<path fill-rule="evenodd" clipRule="evenodd" d="M12.796 0.160802V6.87163H13.4734V0.076736C13.7614 0.0476156 14.0519 0.0266451 14.3445 0.0140586V6.87163H15.022V0C15.4787 0.000647427 15.9306 0.021705 16.3769 0.0623094V6.87163H17.0543V0.139456C17.3564 0.180828 17.6557 0.231196 17.9518 0.290282V4.5829L18.589 4.74295L20.5611 1.06454C20.753 1.14118 20.9429 1.22166 21.1308 1.3059L19.8791 5.45122L20.4428 5.78864L23.5547 2.67676C23.819 2.86056 24.0771 3.05265 24.3286 3.25264L19.6549 7.92637L20.1339 8.40539L24.8514 3.68791C25.0706 3.87898 25.2842 4.07632 25.492 4.27964L20.7501 9.02153L21.2291 9.50055L25.9654 4.76427C26.2745 5.09528 26.5688 5.4403 26.8473 5.79827L22.187 10.4585L22.6661 10.9375L27.2553 6.34824C27.4488 6.6218 27.6334 6.90213 27.8086 7.1888L24.9226 10.0748L25.26 10.6386L28.9675 9.51903C29.0285 9.67426 29.0869 9.83075 29.1428 9.98846L25.5824 11.8973L25.7424 12.5346H29.7988C29.8527 12.8604 29.8961 13.1899 29.9286 13.5225H23.7585V14.1999H29.9795C29.9934 14.4649 30.0005 14.7317 30.0005 15.0002C30.0005 15.0236 30.0004 15.047 30.0003 15.0704H23.7585V15.7478H29.9822C29.9597 16.2052 29.9168 16.6573 29.8542 17.103H23.7585V17.7805H29.7433C29.6835 18.0995 29.6136 18.4149 29.534 18.7264H26.1296L25.9695 19.3637L28.8031 20.8828C28.7164 21.086 28.6253 21.2868 28.53 21.4853L25.4529 20.5561L25.1155 21.1198L27.416 23.4204C27.1917 23.7506 26.9545 24.0713 26.7052 24.382L22.7036 20.3804L22.2246 20.8594L26.2677 24.9025C26.0758 25.1207 25.8777 25.3333 25.6736 25.54L21.6084 21.4748L21.1294 21.9539L25.1868 26.0113C24.8542 26.3191 24.5076 26.6121 24.1481 26.8891L20.1715 22.9125L19.6925 23.3915L23.5959 27.295C23.3085 27.4963 23.0136 27.6878 22.7119 27.869L20.5391 25.6962L19.9754 26.0336L20.8197 28.8298C20.5979 28.9233 20.3734 29.0115 20.1462 29.0945L18.7826 26.5509L18.1453 26.711V29.6702C17.8036 29.7431 17.4575 29.8044 17.1075 29.8536V24.485H16.4301V29.9332C16.1421 29.9604 15.8518 29.9795 15.5593 29.9902V24.485H14.8819V30C14.4251 29.9965 13.9732 29.9725 13.527 29.929V24.485H12.8495V29.8474C12.5149 29.7994 12.1839 29.7403 11.8568 29.6706V26.8073L11.2196 26.6472L9.89883 29.1107C9.73389 29.051 9.5703 28.9886 9.40811 28.9234L10.2513 26.131L9.68757 25.7935L7.49207 27.989C7.11469 27.7704 6.74771 27.5358 6.39207 27.2862L10.2491 23.4291L9.77013 22.9501L5.84036 26.8799C5.60931 26.7014 5.3836 26.5164 5.16352 26.3251L9.15398 22.3346L8.67496 21.8556L4.66183 25.8688C4.33452 25.5573 4.02126 25.2313 3.7231 24.8916L7.71701 20.8977L7.238 20.4187L3.28612 24.3705C3.04507 24.0696 2.81537 23.7591 2.59769 23.4399L4.91731 21.1202L4.57989 20.5565L1.4747 21.4941C1.38593 21.3096 1.30082 21.1229 1.21947 20.9342L3.96827 19.4605L3.80823 18.8233H0.491554C0.405935 18.4975 0.330999 18.1673 0.267145 17.8332H6.14544V17.1558H0.153729C0.112308 16.868 0.0790581 16.5775 0.0542226 16.2847H6.14544V15.6072H0.012058C0.00404471 15.4059 0 15.2035 0 15.0002C0 14.7496 0.0061483 14.5003 0.0183023 14.2527H6.14544V13.5753H0.0668014C0.0874675 13.3559 0.112855 13.138 0.142861 12.9216H4.4859L4.64595 12.2843L0.780483 10.2119C0.819575 10.0958 0.86005 9.98027 0.901888 9.86542L5.0638 11.1222L5.40122 10.5584L2.13142 7.28862C2.30342 7.00221 2.48472 6.72201 2.67488 6.44845L7.20063 10.9742L7.67965 10.4952L3.07897 5.89451C3.25638 5.6626 3.4404 5.43602 3.63076 5.21504L8.29544 9.87973L8.77446 9.40072L4.08493 4.71118C4.39488 4.38249 4.71951 4.06779 5.05778 3.76814L9.73241 8.44277L10.2114 7.96375L5.57664 3.32897C5.81041 3.13998 6.04998 2.95787 6.29503 2.78295L9.59042 6.07834L10.1542 5.74092L8.82151 1.32758C8.94561 1.27141 9.07062 1.21688 9.19651 1.16401L11.2193 4.93687L11.8565 4.77682V0.329945C12.1662 0.263896 12.4795 0.207407 12.796 0.160802ZM11.1791 0.491043C10.7209 0.611386 10.2713 0.752858 9.83131 0.914354L11.1791 3.42821V0.491043ZM8.20354 1.62456L9.11582 4.64571L6.86537 2.39526C7.29671 2.11632 7.74327 1.85891 8.20354 1.62456ZM1.78396 7.89919C1.5513 8.33131 1.33921 8.77615 1.149 9.2324L3.9686 10.0838L1.78396 7.89919ZM0.5756 10.8707C0.447146 11.3202 0.339139 11.7784 0.252649 12.2441H3.13729L0.5756 10.8707ZM0.686839 19.5007C0.771858 19.7714 0.864342 20.0387 0.964051 20.3025L2.45962 19.5007H0.686839ZM1.78727 22.1074C1.9247 22.3624 2.0693 22.6129 2.22079 22.8587L3.48468 21.5948L1.78727 22.1074ZM8.11086 28.3283C8.33131 28.4425 8.55494 28.5513 8.7816 28.6547L9.21298 27.2262L8.11086 28.3283ZM10.5502 29.3294C10.7581 29.3938 10.9678 29.4539 11.1794 29.5095V28.1559L10.5502 29.3294ZM18.8227 29.509C19.0493 29.4495 19.2737 29.3848 19.4959 29.3151L18.8227 28.0596V29.509ZM21.443 28.5503C21.6655 28.4443 21.885 28.3329 22.1014 28.2164L21.0137 27.1288L21.443 28.5503ZM27.7921 22.8385C27.9408 22.5963 28.0828 22.3496 28.2179 22.0986L26.5481 21.5944L27.7921 22.8385ZM29.0562 20.2499C29.1601 19.9717 29.2561 19.6896 29.3437 19.4039H27.4782L29.0562 20.2499ZM29.6706 11.8571C29.5829 11.4456 29.4783 11.0403 29.3575 10.642L27.091 11.8571H29.6706ZM28.7041 8.89092C28.5373 8.51741 28.3557 8.15197 28.1601 7.79534L26.3552 9.60021L28.7041 8.89092ZM22.9783 2.2952C22.5808 2.04513 22.1709 1.81318 21.7495 1.60052L20.9174 4.35602L22.9783 2.2952ZM19.9206 0.825606C19.4984 0.679066 19.0676 0.550857 18.6292 0.441933V3.23429L19.9206 0.825606Z" fill="#F9A047"/>
<circle cx="14.9538" cy="15.0475" r="10.2195" fill="#F8BA3A" stroke="white" stroke-width="0.406452"/>
<path fill-rule="evenodd" clipRule="evenodd" d="M15.5326 4.79875L14.1777 15.2408H15.5326L15.0003 25.2829C15.0003 25.2829 17.5504 25.8306 21.4504 23.099C25.3505 20.3675 25.535 14.1192 24.3005 10.9488C23.066 7.77853 20.8504 6.29878 19.6504 5.69877C18.4504 5.09876 15.5326 4.79875 15.5326 4.79875Z" fill="white"/>
<path d="M5.47405 13.6839C5.70715 15.5824 6.94217 17.5576 8.84014 17.3245C15.2818 16.5336 14.3767 12.3942 14.2899 11.0535C14.7561 14.8505 17.6399 16.2441 22.4711 15.6509C23.9089 15.4743 24.498 12.6641 24.3388 11.3676C24.1398 9.74693 19.8489 9.51001 14.5 10.1668C9.15117 10.8235 5.18267 11.3108 5.47405 13.6839Z" fill="#01C1AE"/>
<path fill-rule="evenodd" clipRule="evenodd" d="M14.6703 10.6851C14.7488 10.7656 14.8025 10.8716 14.8173 10.9916C15.0332 12.7502 15.79 13.8804 16.9961 14.5334C18.2381 15.2058 20.0365 15.4164 22.4053 15.1255C22.5881 15.1031 22.7815 14.9944 22.9806 14.7534C23.1815 14.5103 23.3588 14.1655 23.4999 13.758C23.7847 12.9358 23.8778 11.9912 23.8096 11.4354C23.7922 11.2942 23.683 11.0942 23.2436 10.8892C22.8086 10.6861 22.1548 10.533 21.2958 10.4456C19.6095 10.274 17.2846 10.3691 14.6703 10.6851ZM13.829 10.7885C11.4558 11.0825 9.45145 11.3546 8.02776 11.7933C7.24295 12.0352 6.69926 12.3096 6.37282 12.6164C6.07406 12.8971 5.95051 13.2074 6.00141 13.622C6.10814 14.4912 6.44394 15.3594 6.94356 15.9692C7.43513 16.5692 8.05154 16.888 8.77434 16.7992C11.8732 16.4187 13.0546 15.2615 13.5244 14.1852C13.9492 13.2121 13.8571 12.2073 13.7892 11.4674C13.7769 11.3325 13.7653 11.2064 13.7578 11.0909C13.7507 10.9812 13.7774 10.877 13.829 10.7885ZM23.6939 9.92454C24.2823 10.1992 24.784 10.6366 24.8662 11.3057C24.9571 12.0464 24.8353 13.1552 24.5058 14.1064C24.3399 14.5855 24.1103 15.0574 23.8013 15.4314C23.4906 15.8075 23.0711 16.1163 22.535 16.1821C20.0726 16.4845 18.0135 16.2948 16.4893 15.4695C15.7684 15.0793 15.1847 14.5566 14.7405 13.9061C14.6808 14.1406 14.6022 14.377 14.5 14.6111C13.8337 16.1374 12.2468 17.4454 8.90408 17.8558C7.72891 18.0001 6.77881 17.4478 6.12011 16.6438C5.46945 15.8497 5.0712 14.781 4.94482 13.7517C4.85003 12.9798 5.11328 12.3392 5.64381 11.8406C6.14666 11.3681 6.87477 11.0347 7.71426 10.776C9.38377 10.2615 11.7497 9.97103 14.3835 9.64764L14.4342 9.64142C17.1254 9.31098 19.5802 9.20105 21.4035 9.38657C22.3108 9.47889 23.1013 9.64791 23.6939 9.92454Z" fill="#01C1AE"/>
<path d="M15.1087 21.5623C17.3529 21.3791 19.0365 19.5673 18.8691 17.5155L10.742 18.1786C10.9094 20.2304 12.8645 21.7454 15.1087 21.5623Z" fill="white"/>
<path fill-rule="evenodd" clipRule="evenodd" d="M10.5008 18.1979C10.4899 18.0647 10.5891 17.9479 10.7223 17.9371L18.8494 17.274C18.9825 17.2631 19.0993 17.3623 19.1102 17.4954C19.2901 19.7004 17.4849 21.6108 15.1283 21.803C12.7717 21.9953 10.6807 20.4028 10.5008 18.1979ZM11.0119 18.3989C11.2938 20.177 13.048 21.4873 15.0889 21.3208C17.1298 21.1542 18.6485 19.577 18.6384 17.7767L11.0119 18.3989Z" fill="#FE9D51"/>
<path fill-rule="evenodd" clipRule="evenodd" d="M15.9581 19.3539C15.9581 19.2417 16.0491 19.1507 16.1613 19.1507H18.4985C18.6107 19.1507 18.7017 19.2417 18.7017 19.3539C18.7017 19.4662 18.6107 19.5572 18.4985 19.5572H16.1613C16.0491 19.5572 15.9581 19.4662 15.9581 19.3539Z" fill="#FE9A54"/>
<path d="M17.3712 14.7567C15.6292 14.0986 14.9357 12.3534 14.8066 11.5631C14.8066 10.4985 16.0163 10.3534 18.968 10.3534C21.9197 10.3534 23.71 10.5953 23.8552 11.3695C24.0003 12.7244 23.5165 14.7567 22.839 15.0954C22.1616 15.4341 19.5487 15.5792 17.3712 14.7567Z" fill="black" stroke="black" stroke-width="0.0677419"/>
<path d="M12.2482 15.6646C13.646 14.7433 14.3719 12.9668 13.9364 11.4668C13.6884 10.6124 12.3265 10.8219 9.77506 11.2248C7.50084 11.5839 5.75887 12.5797 5.95243 13.4507C6.04915 14.8777 7.15003 16.3849 7.79116 16.6443C8.4323 16.9036 10.5009 16.8163 12.2482 15.6646Z" fill="black" stroke="black" stroke-width="0.0677419"/>
<path d="M24.3381 6.96669L25.1876 9.26241L27.4833 10.1119L25.1876 10.9614L24.3381 13.2571L23.4886 10.9614L21.1929 10.1119L23.4886 9.26241L24.3381 6.96669Z" fill="white"/>
</svg>
