<svg width="30" height="30" viewBox="0 0 30 30" fill="none" xmlns="http://www.w3.org/2000/svg">
<circle cx="15" cy="15" r="15" fill="#FFD609"/>
<mask id="mask0_594_20933" style="mask-type:luminance" maskUnits="userSpaceOnUse" x="0" y="0" width="30" height="30">
<circle cx="15" cy="15" r="15" fill="white"/>
</mask>
<g mask="url(#mask0_594_20933)">
<path d="M14.6869 -3.58102V6.87059" stroke="white" stroke-width="0.39776"/>
<path d="M13.1385 -3.58102V6.87059" stroke="white" stroke-width="0.39776"/>
<path d="M16.7191 -3.58102V6.87059" stroke="white" stroke-width="0.39776"/>
<path d="M8.12891 -1.54476L11.5177 4.77602V-2.4194" stroke="white" stroke-width="0.39776"/>
<path d="M21.6792 -1.73867L18.2904 4.58211V-2.61331" stroke="white" stroke-width="0.39776"/>
<path d="M15.2164 34.9349L15.2164 24.4833" stroke="white" stroke-width="0.39776"/>
<path d="M16.7643 34.9349V24.4833" stroke="white" stroke-width="0.39776"/>
<path d="M13.1842 34.9349L13.1842 24.4833" stroke="white" stroke-width="0.39776"/>
<path d="M21.8726 33.0297L18.4837 26.7089V33.9044" stroke="white" stroke-width="0.39776"/>
<path d="M8.12891 33.1265L11.5177 26.8057V34.0011" stroke="white" stroke-width="0.39776"/>
<path d="M-4.30664 15.9419H6.14497" stroke="white" stroke-width="0.39776"/>
<path d="M-4.30664 17.4909H6.14497" stroke="white" stroke-width="0.39776"/>
<path d="M-4.30664 13.9097H6.14497" stroke="white" stroke-width="0.39776"/>
<path d="M-2.51256 22.55L3.80822 19.1612H-3.38721" stroke="white" stroke-width="0.39776"/>
<path d="M-1.83532 9.19388L4.48546 12.5827H-2.70996" stroke="white" stroke-width="0.39776"/>
<path d="M34.2095 15.4129L23.7579 15.4129" stroke="white" stroke-width="0.39776"/>
<path d="M34.2095 13.8643L23.7579 13.8643" stroke="white" stroke-width="0.39776"/>
<path d="M34.2095 17.445H23.7579" stroke="white" stroke-width="0.39776"/>
<path d="M32.0624 8.80661L25.7416 12.1954L32.937 12.1954" stroke="white" stroke-width="0.39776"/>
<path d="M32.4496 22.4534L26.1288 19.0646H33.3242" stroke="white" stroke-width="0.39776"/>
<path d="M1.52177 29.4822L8.91217 22.0917" stroke="white" stroke-width="0.39776"/>
<path d="M2.61649 30.5773L10.0069 23.1869" stroke="white" stroke-width="0.39776"/>
<path d="M0.0847536 28.045L7.47516 20.6546" stroke="white" stroke-width="0.39776"/>
<path d="M7.85382 32.8979L9.92703 26.0322L4.8391 31.1201" stroke="white" stroke-width="0.39776"/>
<path d="M-2.18769 22.9533L4.67804 20.88L-0.409897 25.968" stroke="white" stroke-width="0.39776"/>
<path d="M28.3825 1.8731L20.9921 9.26351" stroke="white" stroke-width="0.39776"/>
<path d="M27.2873 0.777978L19.8969 8.16839" stroke="white" stroke-width="0.39776"/>
<path d="M29.8195 3.31005L22.4291 10.7005" stroke="white" stroke-width="0.39776"/>
<path d="M22.2761 -1.31665L20.2029 5.54907L25.2908 0.461136" stroke="white" stroke-width="0.39776"/>
<path d="M32.0275 8.24041L25.1618 10.3136L30.2497 5.22569" stroke="white" stroke-width="0.39776"/>
<path d="M28.7561 29.1075L21.3657 21.7171" stroke="white" stroke-width="0.39776"/>
<path d="M29.8509 28.0124L22.4605 20.6219" stroke="white" stroke-width="0.39776"/>
<path d="M27.3191 30.5444L19.9287 23.154" stroke="white" stroke-width="0.39776"/>
<path d="M32.2204 22.9528L25.3547 20.8795L30.4426 25.9675" stroke="white" stroke-width="0.39776"/>
<path d="M22.3723 32.8007L20.299 25.935L25.387 31.0229" stroke="white" stroke-width="0.39776"/>
<path d="M1.14669 2.24735L8.5371 9.63776" stroke="white" stroke-width="0.39776"/>
<path d="M0.0514769 3.34202L7.44188 10.7324" stroke="white" stroke-width="0.39776"/>
<path d="M2.5837 0.809943L9.97411 8.20035" stroke="white" stroke-width="0.39776"/>
<path d="M-1.70429 8.72433L5.16144 10.7975L0.0735015 5.70961" stroke="white" stroke-width="0.39776"/>
<path d="M7.75665 -1.0271L9.82986 5.83862L4.74193 0.750687" stroke="white" stroke-width="0.39776"/>
</g>
<circle cx="14.9517" cy="15.7258" r="10.1866" fill="#FFD609" stroke="white" stroke-width="0.340937"/>
<mask id="mask1_594_20933" style="mask-type:luminance" maskUnits="userSpaceOnUse" x="4" y="5" width="22" height="22">
<circle cx="14.9517" cy="15.7258" r="10.1866" fill="white" stroke="white" stroke-width="0.340937"/>
</mask>
<g mask="url(#mask1_594_20933)">
<path fill-rule="evenodd" clipRule="evenodd" d="M16.7154 5.63864L14.6831 17.9032H17.5994L15 26.2516L24.8739 24.4839L26.6655 10.6975L22.3139 6.87097L16.7154 5.63864Z" fill="white"/>
</g>
<path fill-rule="evenodd" clipRule="evenodd" d="M22.3905 13.0742C22.5136 12.7168 22.5136 12.0193 21.7706 11.9179C21.3028 11.8541 15.708 12.0697 15.0878 12.0938C14.3876 12.0666 8.88616 11.8553 8.42247 11.9186C7.67952 12.02 7.67952 12.7174 7.80263 13.0749C7.85672 13.232 7.92234 13.3502 8.00553 13.5C8.1117 13.6912 8.24649 13.934 8.42247 14.3748C8.52228 14.6249 8.61012 14.9759 8.70239 15.3446C8.90028 16.1352 9.11855 17.0074 9.51903 17.1401C9.95993 17.2862 11.7389 17.2129 12.8455 17.1673C13.2127 17.1522 13.5058 17.1401 13.6515 17.1401C13.9105 17.1401 14.0548 16.494 14.2155 15.7742C14.4093 14.9064 14.627 13.9314 15.0985 13.8522C15.5673 13.9361 15.7844 14.9081 15.9776 15.7735C16.1383 16.4933 16.2826 17.1394 16.5416 17.1394C16.6873 17.1394 16.9804 17.1515 17.3476 17.1666C18.4542 17.2122 20.2332 17.2856 20.6741 17.1394C21.0745 17.0067 21.2928 16.1346 21.4907 15.3439C21.583 14.9752 21.6708 14.6242 21.7706 14.3742C21.9466 13.9333 22.0814 13.6905 22.1876 13.4993C22.2708 13.3495 22.3364 13.2313 22.3905 13.0742Z" fill="#4C3415"/>
<path d="M21.7706 11.9179L21.7498 12.0707L21.7706 11.9179ZM22.3905 13.0742L22.5362 13.1244L22.3905 13.0742ZM15.0878 12.0938L15.0818 12.2483L15.0938 12.2478L15.0878 12.0938ZM8.42247 11.9186L8.44331 12.0713L8.42247 11.9186ZM7.80263 13.0749L7.94837 13.0247H7.94837L7.80263 13.0749ZM8.00553 13.5L8.1403 13.4252L8.00553 13.5ZM8.42247 14.3748L8.56562 14.3177L8.42247 14.3748ZM8.70239 15.3446L8.85192 15.3071L8.70239 15.3446ZM9.51903 17.1401L9.47053 17.2864L9.51903 17.1401ZM12.8455 17.1673L12.8391 17.0133L12.8455 17.1673ZM14.2155 15.7742L14.0651 15.7406L14.2155 15.7742ZM15.0985 13.8522L15.1257 13.7005L15.0993 13.6957L15.073 13.7002L15.0985 13.8522ZM15.9776 15.7735L16.128 15.7399L15.9776 15.7735ZM17.3476 17.1666L17.3413 17.3206L17.3476 17.1666ZM20.6741 17.1394L20.6256 16.9931L20.6741 17.1394ZM21.4907 15.3439L21.6402 15.3813V15.3813L21.4907 15.3439ZM21.7706 14.3742L21.6275 14.317V14.317L21.7706 14.3742ZM22.1876 13.4993L22.3223 13.5741V13.5741L22.1876 13.4993ZM21.7498 12.0707C21.9114 12.0927 22.0226 12.1456 22.0997 12.2097C22.177 12.2739 22.2281 12.356 22.2591 12.4489C22.323 12.64 22.2986 12.8677 22.2447 13.024L22.5362 13.1244C22.6055 12.9233 22.6426 12.6236 22.5515 12.3512C22.5051 12.2124 22.4246 12.0788 22.2967 11.9726C22.1688 11.8662 22.0013 11.7938 21.7915 11.7652L21.7498 12.0707ZM15.0938 12.2478C15.4038 12.2358 16.9571 12.1758 18.4913 12.1269C19.2584 12.1025 20.0203 12.0808 20.6193 12.0692C20.9189 12.0634 21.177 12.0601 21.3745 12.0603C21.577 12.0605 21.7039 12.0644 21.7498 12.0707L21.7915 11.7652C21.7204 11.7555 21.5701 11.7522 21.3747 11.752C21.1743 11.7519 20.9137 11.7552 20.6133 11.761C20.0124 11.7726 19.249 11.7943 18.4815 11.8188C16.9462 11.8678 15.392 11.9277 15.0818 11.9398L15.0938 12.2478ZM15.0938 11.9398C14.7436 11.9262 13.1927 11.8665 11.6713 11.8182C10.9107 11.794 10.1569 11.7727 9.56403 11.7613C9.26767 11.7557 9.0108 11.7525 8.8131 11.7527C8.62045 11.7529 8.47211 11.7563 8.40162 11.7659L8.44331 12.0713C8.48875 12.0651 8.61375 12.0612 8.81346 12.061C9.0081 12.0608 9.26258 12.0639 9.55813 12.0696C10.1491 12.0809 10.9013 12.1022 11.6615 12.1263C13.1818 12.1746 14.7318 12.2342 15.0819 12.2478L15.0938 11.9398ZM8.40162 11.7659C8.19177 11.7945 8.02432 11.8669 7.89635 11.9732C7.76851 12.0795 7.688 12.2131 7.64159 12.3519C7.55051 12.6242 7.5876 12.9239 7.65689 13.1251L7.94837 13.0247C7.89454 12.8684 7.87008 12.6407 7.93396 12.4496C7.96503 12.3567 8.01612 12.2746 8.09339 12.2103C8.17053 12.1462 8.28169 12.0934 8.44331 12.0713L8.40162 11.7659ZM7.65689 13.1251C7.71598 13.2967 7.78809 13.4259 7.87077 13.5748L8.1403 13.4252C8.05658 13.2744 7.99746 13.1673 7.94837 13.0247L7.65689 13.1251ZM7.87077 13.5748C7.97547 13.7634 8.10678 13.9998 8.27931 14.432L8.56562 14.3177C8.3862 13.8682 8.24793 13.619 8.1403 13.4252L7.87077 13.5748ZM8.27931 14.432C8.37438 14.6702 8.4596 15.0094 8.55286 15.382L8.85192 15.3071C8.76064 14.9424 8.67018 14.5796 8.56562 14.3177L8.27931 14.432ZM8.55286 15.382C8.65113 15.7746 8.75748 16.2005 8.89103 16.5448C8.95791 16.7172 9.0343 16.8764 9.12451 17.0038C9.21391 17.1301 9.32659 17.2387 9.47053 17.2864L9.56752 16.9938C9.51123 16.9751 9.44644 16.925 9.3761 16.8257C9.30657 16.7275 9.24094 16.5944 9.17845 16.4333C9.05328 16.1107 8.95154 15.7052 8.85192 15.3071L8.55286 15.382ZM9.47053 17.2864C9.6029 17.3303 9.8162 17.3534 10.0611 17.3663C10.3117 17.3795 10.6135 17.3826 10.934 17.3797C11.5751 17.374 12.299 17.3441 12.8518 17.3213L12.8391 17.0133C12.2853 17.0361 11.5665 17.0657 10.9312 17.0715C10.6135 17.0743 10.3188 17.0712 10.0773 17.0585C9.83002 17.0455 9.65561 17.023 9.56752 16.9938L9.47053 17.2864ZM12.8518 17.3213C13.2211 17.3061 13.5099 17.2942 13.6515 17.2942V16.986C13.5017 16.986 13.2042 16.9983 12.8391 17.0133L12.8518 17.3213ZM13.6515 17.2942C13.7882 17.2942 13.886 17.2075 13.9508 17.1188C14.0165 17.0288 14.0698 16.9087 14.1157 16.7783C14.208 16.5162 14.2863 16.1643 14.3659 15.8078L14.0651 15.7406C13.9839 16.1039 13.9097 16.435 13.825 16.6759C13.7823 16.7969 13.741 16.8834 13.7018 16.937C13.6827 16.9631 13.6679 16.9762 13.6589 16.9821C13.6547 16.9848 13.6524 16.9857 13.6517 16.9859C13.6514 16.986 13.6513 16.986 13.6514 16.986C13.6515 16.986 13.6516 16.986 13.6515 16.986V17.2942ZM14.3659 15.8078C14.4635 15.3706 14.5641 14.9218 14.6969 14.5722C14.7633 14.3975 14.8344 14.2571 14.9108 14.1581C14.9871 14.0594 15.0583 14.0152 15.124 14.0042L15.073 13.7002C14.903 13.7287 14.7701 13.8361 14.6669 13.9696C14.5639 14.1029 14.48 14.2753 14.4088 14.4627C14.2664 14.8373 14.1612 15.3099 14.0651 15.7406L14.3659 15.8078ZM16.128 15.7399C16.0321 15.3104 15.9272 14.8393 15.7855 14.4652C15.7146 14.278 15.6312 14.1058 15.5288 13.9723C15.4263 13.8387 15.2945 13.7307 15.1257 13.7005L15.0713 14.0039C15.1369 14.0156 15.208 14.0606 15.2841 14.1599C15.3604 14.2593 15.4311 14.3999 15.4972 14.5744C15.6296 14.9237 15.7298 15.3712 15.8272 15.8071L16.128 15.7399ZM16.5416 16.9853C16.5415 16.9853 16.5416 16.9853 16.5417 16.9853C16.5418 16.9853 16.5417 16.9853 16.5414 16.9852C16.5407 16.985 16.5384 16.9841 16.5342 16.9814C16.5252 16.9755 16.5104 16.9625 16.4913 16.9363C16.4521 16.8827 16.4108 16.7963 16.3681 16.6752C16.2833 16.4343 16.2092 16.1032 16.128 15.7399L15.8272 15.8071C15.9068 16.1637 15.9851 16.5155 16.0774 16.7776C16.1233 16.908 16.1766 17.0281 16.2423 17.1181C16.3071 17.2068 16.4049 17.2936 16.5416 17.2936V16.9853ZM17.354 17.0126C16.9889 16.9976 16.6913 16.9853 16.5416 16.9853V17.2936C16.6832 17.2936 16.972 17.3054 17.3413 17.3206L17.354 17.0126ZM20.6256 16.9931C20.5375 17.0223 20.3631 17.0448 20.1158 17.0578C19.8743 17.0705 19.5796 17.0737 19.2619 17.0708C18.6266 17.0651 17.9078 17.0354 17.354 17.0126L17.3413 17.3206C17.8941 17.3434 18.618 17.3733 19.2591 17.3791C19.5796 17.382 19.8814 17.3789 20.132 17.3657C20.3769 17.3528 20.5902 17.3296 20.7226 17.2857L20.6256 16.9931ZM21.3412 15.3065C21.2416 15.7045 21.1398 16.11 21.0147 16.4326C20.9522 16.5937 20.8865 16.7268 20.817 16.825C20.7467 16.9243 20.6819 16.9744 20.6256 16.9931L20.7226 17.2857C20.8665 17.238 20.9792 17.1294 21.0686 17.0031C21.1588 16.8758 21.2352 16.7165 21.3021 16.5441C21.4356 16.1999 21.542 15.7739 21.6402 15.3813L21.3412 15.3065ZM21.6275 14.317C21.5229 14.579 21.4325 14.9417 21.3412 15.3065L21.6402 15.3813C21.7335 15.0087 21.8187 14.6695 21.9138 14.4313L21.6275 14.317ZM22.0528 13.4245C21.9452 13.6183 21.8069 13.8675 21.6275 14.317L21.9138 14.4313C22.0863 13.9991 22.2176 13.7627 22.3223 13.5741L22.0528 13.4245ZM22.2447 13.024C22.1956 13.1666 22.1365 13.2737 22.0528 13.4245L22.3223 13.5741C22.405 13.4252 22.4771 13.296 22.5362 13.1244L22.2447 13.024Z" fill="#010101"/>
<path fill-rule="evenodd" clipRule="evenodd" d="M8.75886 12.9445C8.67407 12.6736 8.88421 12.4008 9.16779 12.4136L13.7512 12.6209C14.0055 12.6324 14.1876 12.8708 14.1319 13.1192L13.428 16.257C13.3861 16.4438 13.2203 16.5766 13.0288 16.5766H10.1963C10.0174 16.5766 9.85926 16.4604 9.80583 16.2896L8.75886 12.9445Z" fill="#010101"/>
<mask id="mask2_594_20933" style="mask-type:luminance" maskUnits="userSpaceOnUse" x="8" y="12" width="7" height="5">
<path fill-rule="evenodd" clipRule="evenodd" d="M8.75886 12.9445C8.67407 12.6736 8.88421 12.4008 9.16779 12.4136L13.7512 12.6209C14.0055 12.6324 14.1876 12.8708 14.1319 13.1192L13.428 16.257C13.3861 16.4438 13.2203 16.5766 13.0288 16.5766H10.1963C10.0174 16.5766 9.85926 16.4604 9.80583 16.2896L8.75886 12.9445Z" fill="white"/>
</mask>
<g mask="url(#mask2_594_20933)">
<path opacity="0.314267" fill-rule="evenodd" clipRule="evenodd" d="M12.5412 11.9468L12.7422 12.0682L10.0239 16.7895L9.82292 16.6681L12.5412 11.9468Z" fill="white"/>
<path opacity="0.314267" fill-rule="evenodd" clipRule="evenodd" d="M10.4802 11.9057L10.4796 11.9068L8.75711 14.8902L8.75769 14.8892L10.4802 11.9057Z" fill="white"/>
<path opacity="0.314267" fill-rule="evenodd" clipRule="evenodd" d="M11.383 11.6258L11.3821 11.6275L8.93851 15.8598L8.93948 15.8581L11.383 11.6258Z" fill="white"/>
</g>
<path fill-rule="evenodd" clipRule="evenodd" d="M21.5987 13.0119C21.6839 12.7409 21.4738 12.4678 21.19 12.4806L16.6077 12.687C16.3533 12.6985 16.171 12.9371 16.227 13.1856L16.9301 16.3079C16.9722 16.4946 17.138 16.6272 17.3293 16.6272H20.1625C20.3412 16.6272 20.4992 16.5112 20.5528 16.3407L21.5987 13.0119Z" fill="#010101"/>
<mask id="mask3_594_20933" style="mask-type:luminance" maskUnits="userSpaceOnUse" x="16" y="12" width="6" height="5">
<path fill-rule="evenodd" clipRule="evenodd" d="M21.5987 13.0119C21.6839 12.7409 21.4738 12.4678 21.19 12.4806L16.6077 12.687C16.3533 12.6985 16.171 12.9371 16.227 13.1856L16.9301 16.3079C16.9722 16.4946 17.138 16.6272 17.3293 16.6272H20.1625C20.3412 16.6272 20.4992 16.5112 20.5528 16.3407L21.5987 13.0119Z" fill="white"/>
</mask>
<g mask="url(#mask3_594_20933)">
<path opacity="0.314267" fill-rule="evenodd" clipRule="evenodd" d="M20.1498 12.0277L20.3062 12.1215L17.5932 16.8272L17.4368 16.7334L20.1498 12.0277Z" fill="white"/>
<path opacity="0.314267" fill-rule="evenodd" clipRule="evenodd" d="M18.0656 11.9732L18.0653 11.9739L16.3479 14.9485L16.3482 14.9478L18.0656 11.9732Z" fill="white"/>
<path opacity="0.314267" fill-rule="evenodd" clipRule="evenodd" d="M18.968 11.6942L18.9674 11.6953L16.531 15.9151L16.5317 15.914L18.968 11.6942Z" fill="white"/>
</g>
<path d="M11.2261 19.8386C11.2261 19.8386 12.3697 21.0967 15.2374 21.0967C18.105 21.0967 18.7745 19.8386 18.7745 19.8386" stroke="white" stroke-width="0.340937"/>
<path d="M16.4648 21.0268C17.2638 20.9263 18.0337 20.5301 18.7745 19.8384" stroke="#FFD609" stroke-width="0.340937"/>
</svg>
