<svg width="12" height="12" viewBox="0 0 12 12" fill="none" xmlns="http://www.w3.org/2000/svg">
<mask id="path-1-inside-1_225_26673" fill="white">
<path fill-rule="evenodd" clipRule="evenodd" d="M1.99707 0C0.892501 0 -0.00292969 0.895431 -0.00292969 2V10C-0.00292969 11.1046 0.892501 12 1.99707 12H9.99707C11.1016 12 11.9971 11.1046 11.9971 10V5.91421C11.9971 5.649 11.8917 5.39464 11.7042 5.20711L10.9971 4.5L6.2823 0.256706C6.09867 0.0914436 5.86038 0 5.61333 0H1.99707ZM2.74707 3.5C2.33286 3.5 1.99707 3.83579 1.99707 4.25C1.99707 4.66421 2.33286 5 2.74707 5H6.24707C6.66128 5 6.99707 4.66421 6.99707 4.25C6.99707 3.83579 6.66128 3.5 6.24707 3.5H2.74707ZM1.99707 8.25C1.99707 7.83579 2.33286 7.5 2.74707 7.5H9.24707C9.66128 7.5 9.99707 7.83579 9.99707 8.25C9.99707 8.66421 9.66128 9 9.24707 9H2.74707C2.33286 9 1.99707 8.66421 1.99707 8.25ZM8.79572 0H10.4973C11.3257 0 11.9973 0.671573 11.9973 1.5V2.83887C11.9973 3.09662 11.6937 3.23437 11.4997 3.06464L8.59817 0.525772C8.3897 0.34336 8.51871 0 8.79572 0Z"/>
</mask>
<path fill-rule="evenodd" clipRule="evenodd" d="M1.99707 0C0.892501 0 -0.00292969 0.895431 -0.00292969 2V10C-0.00292969 11.1046 0.892501 12 1.99707 12H9.99707C11.1016 12 11.9971 11.1046 11.9971 10V5.91421C11.9971 5.649 11.8917 5.39464 11.7042 5.20711L10.9971 4.5L6.2823 0.256706C6.09867 0.0914436 5.86038 0 5.61333 0H1.99707ZM2.74707 3.5C2.33286 3.5 1.99707 3.83579 1.99707 4.25C1.99707 4.66421 2.33286 5 2.74707 5H6.24707C6.66128 5 6.99707 4.66421 6.99707 4.25C6.99707 3.83579 6.66128 3.5 6.24707 3.5H2.74707ZM1.99707 8.25C1.99707 7.83579 2.33286 7.5 2.74707 7.5H9.24707C9.66128 7.5 9.99707 7.83579 9.99707 8.25C9.99707 8.66421 9.66128 9 9.24707 9H2.74707C2.33286 9 1.99707 8.66421 1.99707 8.25ZM8.79572 0H10.4973C11.3257 0 11.9973 0.671573 11.9973 1.5V2.83887C11.9973 3.09662 11.6937 3.23437 11.4997 3.06464L8.59817 0.525772C8.3897 0.34336 8.51871 0 8.79572 0Z" fill="url(#paint0_linear_225_26673)"/>
<path d="M11.7042 5.20711L11.9163 4.99498H11.9163L11.7042 5.20711ZM10.9971 4.5L11.2092 4.28787L11.2036 4.28229L11.1978 4.27701L10.9971 4.5ZM6.2823 0.256706L6.48299 0.0337176V0.0337176L6.2823 0.256706ZM11.4997 3.06464L11.6973 2.83887V2.83887L11.4997 3.06464ZM8.59817 0.525772L8.40062 0.751545V0.751545L8.59817 0.525772ZM0.29707 2C0.29707 1.06112 1.05819 0.3 1.99707 0.3V-0.3C0.726815 -0.3 -0.30293 0.729745 -0.30293 2H0.29707ZM0.29707 10V2H-0.30293V10H0.29707ZM1.99707 11.7C1.05819 11.7 0.29707 10.9389 0.29707 10H-0.30293C-0.30293 11.2703 0.726816 12.3 1.99707 12.3V11.7ZM9.99707 11.7H1.99707V12.3H9.99707V11.7ZM11.6971 10C11.6971 10.9389 10.936 11.7 9.99707 11.7V12.3C11.2673 12.3 12.2971 11.2703 12.2971 10H11.6971ZM11.6971 5.91421V10H12.2971V5.91421H11.6971ZM11.492 5.41924C11.6233 5.55051 11.6971 5.72856 11.6971 5.91421H12.2971C12.2971 5.56943 12.1601 5.23877 11.9163 4.99498L11.492 5.41924ZM10.7849 4.71213L11.492 5.41924L11.9163 4.99498L11.2092 4.28787L10.7849 4.71213ZM6.08161 0.479694L10.7964 4.72299L11.1978 4.27701L6.48299 0.0337176L6.08161 0.479694ZM5.61333 0.3C5.78626 0.3 5.95307 0.364011 6.08161 0.479694L6.48299 0.0337176C6.24428 -0.181123 5.93449 -0.3 5.61333 -0.3V0.3ZM1.99707 0.3H5.61333V-0.3H1.99707V0.3ZM2.29707 4.25C2.29707 4.00147 2.49854 3.8 2.74707 3.8V3.2C2.16717 3.2 1.69707 3.6701 1.69707 4.25H2.29707ZM2.74707 4.7C2.49854 4.7 2.29707 4.49853 2.29707 4.25H1.69707C1.69707 4.8299 2.16717 5.3 2.74707 5.3V4.7ZM6.24707 4.7H2.74707V5.3H6.24707V4.7ZM6.69707 4.25C6.69707 4.49853 6.4956 4.7 6.24707 4.7V5.3C6.82697 5.3 7.29707 4.8299 7.29707 4.25H6.69707ZM6.24707 3.8C6.4956 3.8 6.69707 4.00147 6.69707 4.25H7.29707C7.29707 3.6701 6.82697 3.2 6.24707 3.2V3.8ZM2.74707 3.8H6.24707V3.2H2.74707V3.8ZM2.74707 7.2C2.16717 7.2 1.69707 7.6701 1.69707 8.25H2.29707C2.29707 8.00147 2.49854 7.8 2.74707 7.8V7.2ZM9.24707 7.2H2.74707V7.8H9.24707V7.2ZM10.2971 8.25C10.2971 7.6701 9.82697 7.2 9.24707 7.2V7.8C9.4956 7.8 9.69707 8.00147 9.69707 8.25H10.2971ZM9.24707 9.3C9.82697 9.3 10.2971 8.8299 10.2971 8.25H9.69707C9.69707 8.49853 9.4956 8.7 9.24707 8.7V9.3ZM2.74707 9.3H9.24707V8.7H2.74707V9.3ZM1.69707 8.25C1.69707 8.8299 2.16717 9.3 2.74707 9.3V8.7C2.49854 8.7 2.29707 8.49853 2.29707 8.25H1.69707ZM10.4973 -0.3H8.79572V0.3H10.4973V-0.3ZM12.2973 1.5C12.2973 0.505888 11.4914 -0.3 10.4973 -0.3V0.3C11.16 0.3 11.6973 0.837258 11.6973 1.5H12.2973ZM12.2973 2.83887V1.5H11.6973V2.83887H12.2973ZM11.3022 3.29042C11.6901 3.62987 12.2973 3.35436 12.2973 2.83887H11.6973H11.6973L11.3022 3.29042ZM8.40062 0.751545L11.3022 3.29042L11.6973 2.83887L8.79572 0.299999L8.40062 0.751545ZM8.79572 -0.3C8.2417 -0.3 7.98367 0.38672 8.40062 0.751545L8.79572 0.3L8.79572 0.3V-0.3Z" fill="url(#paint1_linear_225_26673)" mask="url(#path-1-inside-1_225_26673)"/>
<defs>
<linearGradient id="paint0_linear_225_26673" x1="-0.860088" y1="-3.88235" x2="4.59633" y2="12.4412" gradientUnits="userSpaceOnUse">
<stop stop-color="#F6D7B6"/>
<stop offset="1" stop-color="#18C19F"/>
</linearGradient>
<linearGradient id="paint1_linear_225_26673" x1="5.99718" y1="0" x2="5.99718" y2="12" gradientUnits="userSpaceOnUse">
<stop stop-color="white"/>
<stop offset="1" stop-color="white" stop-opacity="0"/>
</linearGradient>
</defs>
</svg>
