<svg width="12" height="12" viewBox="0 0 12 12" fill="none" xmlns="http://www.w3.org/2000/svg">
<mask id="path-1-inside-1_104_13066" fill="white">
<path fill-rule="evenodd" clipRule="evenodd" d="M-0.00292969 2C-0.00292969 0.895431 0.892501 0 1.99707 0H5.61333C5.86038 0 6.09867 0.0914436 6.2823 0.256706L10.9971 4.5L11.7042 5.20711C11.8917 5.39464 11.9971 5.649 11.9971 5.91421V10C11.9971 11.1046 11.1016 12 9.99707 12H1.99707C0.892501 12 -0.00292969 11.1046 -0.00292969 10V2ZM1.99707 4.25C1.99707 3.83579 2.33286 3.5 2.74707 3.5H6.24707C6.66128 3.5 6.99707 3.83579 6.99707 4.25C6.99707 4.66421 6.66128 5 6.24707 5H2.74707C2.33286 5 1.99707 4.66421 1.99707 4.25ZM2.74707 7.5C2.33286 7.5 1.99707 7.83579 1.99707 8.25C1.99707 8.66421 2.33286 9 2.74707 9H9.24707C9.66128 9 9.99707 8.66421 9.99707 8.25C9.99707 7.83579 9.66128 7.5 9.24707 7.5H2.74707Z"/>
</mask>
<path fill-rule="evenodd" clipRule="evenodd" d="M-0.00292969 2C-0.00292969 0.895431 0.892501 0 1.99707 0H5.61333C5.86038 0 6.09867 0.0914436 6.2823 0.256706L10.9971 4.5L11.7042 5.20711C11.8917 5.39464 11.9971 5.649 11.9971 5.91421V10C11.9971 11.1046 11.1016 12 9.99707 12H1.99707C0.892501 12 -0.00292969 11.1046 -0.00292969 10V2ZM1.99707 4.25C1.99707 3.83579 2.33286 3.5 2.74707 3.5H6.24707C6.66128 3.5 6.99707 3.83579 6.99707 4.25C6.99707 4.66421 6.66128 5 6.24707 5H2.74707C2.33286 5 1.99707 4.66421 1.99707 4.25ZM2.74707 7.5C2.33286 7.5 1.99707 7.83579 1.99707 8.25C1.99707 8.66421 2.33286 9 2.74707 9H9.24707C9.66128 9 9.99707 8.66421 9.99707 8.25C9.99707 7.83579 9.66128 7.5 9.24707 7.5H2.74707Z" fill="url(#paint0_linear_104_13066)"/>
<path d="M6.2823 0.256706L6.48299 0.0337176V0.0337176L6.2823 0.256706ZM10.9971 4.5L11.2092 4.28787L11.2036 4.28229L11.1978 4.27701L10.9971 4.5ZM11.7042 5.20711L11.9163 4.99498H11.9163L11.7042 5.20711ZM1.99707 -0.3C0.726815 -0.3 -0.30293 0.729745 -0.30293 2H0.29707C0.29707 1.06112 1.05819 0.3 1.99707 0.3V-0.3ZM5.61333 -0.3H1.99707V0.3H5.61333V-0.3ZM6.48299 0.0337176C6.24428 -0.181123 5.93449 -0.3 5.61333 -0.3V0.3C5.78626 0.3 5.95307 0.364011 6.08161 0.479694L6.48299 0.0337176ZM11.1978 4.27701L6.48299 0.0337176L6.08161 0.479694L10.7964 4.72299L11.1978 4.27701ZM11.9163 4.99498L11.2092 4.28787L10.7849 4.71213L11.492 5.41924L11.9163 4.99498ZM12.2971 5.91421C12.2971 5.56943 12.1601 5.23877 11.9163 4.99498L11.492 5.41924C11.6233 5.55051 11.6971 5.72856 11.6971 5.91421H12.2971ZM12.2971 10V5.91421H11.6971V10H12.2971ZM9.99707 12.3C11.2673 12.3 12.2971 11.2703 12.2971 10H11.6971C11.6971 10.9389 10.936 11.7 9.99707 11.7V12.3ZM1.99707 12.3H9.99707V11.7H1.99707V12.3ZM-0.30293 10C-0.30293 11.2703 0.726816 12.3 1.99707 12.3V11.7C1.05819 11.7 0.29707 10.9389 0.29707 10H-0.30293ZM-0.30293 2V10H0.29707V2H-0.30293ZM2.74707 3.2C2.16717 3.2 1.69707 3.6701 1.69707 4.25H2.29707C2.29707 4.00147 2.49854 3.8 2.74707 3.8V3.2ZM6.24707 3.2H2.74707V3.8H6.24707V3.2ZM7.29707 4.25C7.29707 3.6701 6.82697 3.2 6.24707 3.2V3.8C6.4956 3.8 6.69707 4.00147 6.69707 4.25H7.29707ZM6.24707 5.3C6.82697 5.3 7.29707 4.8299 7.29707 4.25H6.69707C6.69707 4.49853 6.4956 4.7 6.24707 4.7V5.3ZM2.74707 5.3H6.24707V4.7H2.74707V5.3ZM1.69707 4.25C1.69707 4.8299 2.16717 5.3 2.74707 5.3V4.7C2.49854 4.7 2.29707 4.49853 2.29707 4.25H1.69707ZM2.29707 8.25C2.29707 8.00147 2.49854 7.8 2.74707 7.8V7.2C2.16717 7.2 1.69707 7.6701 1.69707 8.25H2.29707ZM2.74707 8.7C2.49854 8.7 2.29707 8.49853 2.29707 8.25H1.69707C1.69707 8.8299 2.16717 9.3 2.74707 9.3V8.7ZM9.24707 8.7H2.74707V9.3H9.24707V8.7ZM9.69707 8.25C9.69707 8.49853 9.4956 8.7 9.24707 8.7V9.3C9.82697 9.3 10.2971 8.8299 10.2971 8.25H9.69707ZM9.24707 7.8C9.4956 7.8 9.69707 8.00147 9.69707 8.25H10.2971C10.2971 7.6701 9.82697 7.2 9.24707 7.2V7.8ZM2.74707 7.8H9.24707V7.2H2.74707V7.8Z" fill="url(#paint1_linear_104_13066)" mask="url(#path-1-inside-1_104_13066)"/>
<mask id="path-3-inside-2_104_13066" fill="white">
<path d="M10.4973 0H8.79572C8.51871 0 8.3897 0.34336 8.59817 0.525772L11.4997 3.06464C11.6937 3.23437 11.9973 3.09662 11.9973 2.83887V1.5C11.9973 0.671573 11.3257 0 10.4973 0Z"/>
</mask>
<path d="M10.4973 0H8.79572C8.51871 0 8.3897 0.34336 8.59817 0.525772L11.4997 3.06464C11.6937 3.23437 11.9973 3.09662 11.9973 2.83887V1.5C11.9973 0.671573 11.3257 0 10.4973 0Z" fill="url(#paint2_linear_104_13066)"/>
<path d="M11.4997 3.06464L11.3022 3.29042L11.4997 3.06464ZM8.59817 0.525772L8.40062 0.751545L8.40062 0.751545L8.59817 0.525772ZM8.79572 0.3H10.4973V-0.3H8.79572V0.3ZM11.6973 1.5V2.83887H12.2973V1.5H11.6973ZM11.6973 2.83887L8.79572 0.299999L8.40062 0.751545L11.3022 3.29042L11.6973 2.83887ZM11.6973 2.83887V2.83887L11.3022 3.29042C11.6901 3.62987 12.2973 3.35437 12.2973 2.83887H11.6973ZM10.4973 0.3C11.16 0.3 11.6973 0.837258 11.6973 1.5H12.2973C12.2973 0.505888 11.4914 -0.3 10.4973 -0.3V0.3ZM8.79572 -0.3C8.2417 -0.3 7.98367 0.38672 8.40062 0.751545L8.79572 0.299999L8.79572 0.3V-0.3Z" fill="url(#paint3_linear_104_13066)" mask="url(#path-3-inside-2_104_13066)"/>
<defs>
<linearGradient id="paint0_linear_104_13066" x1="-8.6696" y1="-11.0518" x2="3.06903" y2="13.3662" gradientUnits="userSpaceOnUse">
<stop stop-color="#F6D7B6"/>
<stop offset="1" stop-color="#53EFDE"/>
</linearGradient>
<linearGradient id="paint1_linear_104_13066" x1="5.99707" y1="0" x2="5.99707" y2="12" gradientUnits="userSpaceOnUse">
<stop stop-color="white"/>
<stop offset="1" stop-color="white" stop-opacity="0"/>
</linearGradient>
<linearGradient id="paint2_linear_104_13066" x1="5.96577" y1="-2.89139" x2="8.82417" y2="3.74145" gradientUnits="userSpaceOnUse">
<stop stop-color="#F6D7B6"/>
<stop offset="1" stop-color="#53EFDE"/>
</linearGradient>
<linearGradient id="paint3_linear_104_13066" x1="10.2462" y1="0" x2="10.2462" y2="3.13945" gradientUnits="userSpaceOnUse">
<stop stop-color="white"/>
<stop offset="1" stop-color="white" stop-opacity="0"/>
</linearGradient>
</defs>
</svg>
