<svg width="223" height="224" viewBox="0 0 223 224" fill="none" xmlns="http://www.w3.org/2000/svg">
<mask id="mask0_225_26680" style="mask-type:alpha" maskUnits="userSpaceOnUse" x="0" y="0" width="223" height="224">
<rect width="223" height="224" rx="10" fill="#31333A"/>
</mask>
<g mask="url(#mask0_225_26680)">
<path fill-rule="evenodd" clipRule="evenodd" d="M1.12622 102.175C0.231859 102.944 0.130019 104.292 0.898752 105.187L101.812 222.592C102.581 223.486 103.929 223.588 104.824 222.82L222.229 121.906C223.123 121.137 223.225 119.789 222.457 118.895L167.967 55.5005C167.783 55.2857 167.52 55.1531 167.238 55.1318L148.984 53.7529L60.2385 51.728C59.9748 51.722 59.7182 51.8138 59.5182 51.9857L1.12622 102.175ZM51.4787 120.08C50.5843 120.849 50.4825 122.197 51.2512 123.092L61.4296 134.933C62.1983 135.828 63.5465 135.93 64.4409 135.161L111.47 94.7375C112.365 93.9687 112.467 92.6205 111.698 91.7262L101.52 79.8844C100.751 78.9901 99.4026 78.8882 98.5083 79.6569L51.4787 120.08ZM85.817 163.306C85.0483 162.412 85.1502 161.064 86.0445 160.295L163.235 93.9473C164.13 93.1785 165.478 93.2804 166.246 94.1747L176.425 106.016C177.194 106.911 177.092 108.259 176.197 109.028L99.0067 175.376C98.1123 176.144 96.7641 176.043 95.9954 175.148L85.817 163.306ZM80.5827 33.88L118.936 0.913822C119.607 0.33727 120.618 0.413654 121.195 1.08442L149.936 34.5224C150.115 34.7311 149.965 35.0539 149.69 35.0515L80.7887 34.4432C80.4929 34.4406 80.3584 34.0728 80.5827 33.88Z" fill="url(#paint0_linear_225_26680)" fill-opacity="0.15"/>
</g>
<defs>
<linearGradient id="paint0_linear_225_26680" x1="23.9623" y1="26.6646" x2="119.053" y2="74.0136" gradientUnits="userSpaceOnUse">
<stop stop-color="#F6D7B6"/>
<stop offset="1" stop-color="#53EFDE"/>
</linearGradient>
</defs>
</svg>
