<svg width="23" height="19" viewBox="0 0 23 19" fill="none" xmlns="http://www.w3.org/2000/svg">
<rect width="18" height="18" rx="2" fill="white"/>
<path fill-rule="evenodd" clip-rule="evenodd" d="M2 0C0.895431 0 0 0.89543 0 2V16C0 17.1046 0.89543 18 2 18H8.26974L3 5L18 7.70632V2C18 0.895431 17.1046 0 16 0H2ZM18 8.97762L6.34766 6.93359L14.6645 13.5088L18 10.8592V8.97762ZM18 12.5889L16.3945 13.8932L18 13.6097V12.5889ZM18 14.9721L15.3153 15.4484L15.0004 18H16C17.1046 18 18 17.1046 18 16V14.9721ZM13.8505 18L14.2302 14.9293L5.5625 7.90234L9.66817 18H13.8505Z" fill="#135DCD"/>
<path d="M22.5038 13C22.5038 16.0374 20.0407 18.5 17.0019 18.5C13.9631 18.5 11.5 16.0374 11.5 13C11.5 9.96258 13.9631 7.5 17.0019 7.5C20.0407 7.5 22.5038 9.96258 22.5038 13Z" fill="#2CCDB0" stroke="white"/>
<path d="M14.8633 13.2388L16.398 14.8012L19.5402 12.1992" stroke="white" stroke-linecap="round" stroke-linejoin="round"/>
</svg>
