<svg width="30" height="30" viewBox="0 0 30 30" fill="none" xmlns="http://www.w3.org/2000/svg">
<circle cx="15" cy="15" r="15" fill="white"/>
<path d="M15 30C23.2843 30 30 23.2843 30 15C30 6.71573 23.2843 0 15 0C6.71573 0 0 6.71573 0 15C0 23.2843 6.71573 30 15 30ZM12.4842 4.49444C12.6195 5.01447 12.3077 5.54579 11.7877 5.68117C9.46558 6.28571 4.85496 9.00386 4.94956 15.0097C5.0448 21.0559 9.57737 23.7733 11.7957 24.3711C12.3146 24.5109 12.6219 25.0448 12.482 25.5637C12.3422 26.0826 11.8083 26.3898 11.2894 26.25C8.55081 25.512 3.11732 22.2451 3.00383 15.0404C2.88972 7.79534 8.48867 4.52921 11.2974 3.79797C11.8175 3.66259 12.3488 3.97441 12.4842 4.49444ZM17.5197 4.49444C17.6551 3.97441 18.1864 3.66259 18.7064 3.79797C21.5152 4.52921 27.1141 7.79534 27 15.0404C26.8865 22.2451 21.453 25.512 18.7144 26.25C18.1956 26.3898 17.6616 26.0826 17.5218 25.5637C17.382 25.0448 17.6893 24.5109 18.2081 24.3711C20.4265 23.7733 24.959 21.0559 25.0543 15.0097C25.1489 9.00386 20.5383 6.28571 18.2161 5.68117C17.6961 5.54579 17.3843 5.01447 17.5197 4.49444ZM13.9474 7.98769C13.9474 7.74886 14.141 7.55525 14.3798 7.55525H15.624C15.8629 7.55525 16.0565 7.74886 16.0565 7.98769V9.60966C16.4723 9.68574 16.8498 9.80781 17.189 9.97586C17.8087 10.2829 18.2836 10.6935 18.6137 11.2075C18.9051 11.6553 19.0678 12.1474 19.102 12.6837C19.1096 12.8028 19.012 12.8998 18.8926 12.8998H17.4557C17.3363 12.8998 17.2411 12.8024 17.2236 12.6843C17.1904 12.46 17.1047 12.2414 16.9667 12.0286C16.7915 11.7416 16.5322 11.5046 16.1886 11.3177C15.8518 11.1307 15.4375 11.0373 14.9458 11.0373C14.4271 11.0373 14.006 11.1174 13.6827 11.2776C13.3661 11.4311 13.1337 11.6281 12.9855 11.8684C12.844 12.1087 12.7733 12.3624 12.7733 12.6294C12.7733 12.8297 12.807 13.0099 12.8743 13.1701C12.9484 13.3237 13.0764 13.4672 13.2583 13.6007C13.4402 13.7275 13.6962 13.8477 14.0263 13.9612C14.3563 14.0747 14.7774 14.1882 15.2893 14.3016C16.1852 14.5019 16.9229 14.7422 17.5022 15.0226C18.0815 15.303 18.5126 15.6468 18.7956 16.054C19.0785 16.4612 19.22 16.9552 19.22 17.536C19.22 18.0099 19.1189 18.4438 18.9168 18.8377C18.7215 19.2316 18.4352 19.572 18.0579 19.8591C17.6874 20.1394 17.2428 20.3597 16.7242 20.52C16.5125 20.5834 16.29 20.6338 16.0564 20.671V22.2778C16.0564 22.5166 15.8628 22.7103 15.624 22.7103H14.3798C14.141 22.7103 13.9474 22.5166 13.9474 22.2778V20.6742C13.426 20.5935 12.9606 20.4487 12.551 20.2396C11.8841 19.8991 11.3789 19.4585 11.0353 18.9178C10.7332 18.4423 10.5639 17.9436 10.5275 17.4216C10.5192 17.3025 10.6168 17.2055 10.7362 17.2055H12.1944C12.3094 17.2055 12.4031 17.2957 12.4175 17.4098C12.4696 17.8224 12.6118 18.1582 12.844 18.4171C13.1135 18.7109 13.4436 18.9212 13.8343 19.048C14.225 19.1681 14.6123 19.2282 14.9963 19.2282C15.5082 19.2282 15.936 19.1615 16.2796 19.028C16.6298 18.8944 16.8959 18.7109 17.0778 18.4772C17.2597 18.2436 17.3506 17.9766 17.3506 17.6762C17.3506 17.4091 17.29 17.1621 17.1687 16.9352C17.0542 16.7015 16.8151 16.4912 16.4513 16.3043C16.0943 16.1107 15.5554 15.9438 14.8346 15.8036C14.2283 15.6768 13.6793 15.5266 13.1876 15.353C12.7026 15.1795 12.2883 14.9692 11.9447 14.7222C11.6079 14.4752 11.3486 14.1848 11.1667 13.851C10.9848 13.5173 10.8939 13.1267 10.8939 12.6795C10.8939 12.2522 10.9882 11.8484 11.1768 11.4679C11.3721 11.0873 11.645 10.7502 11.9953 10.4565C12.3523 10.1628 12.78 9.93247 13.2785 9.76558C13.4911 9.69442 13.714 9.63843 13.9474 9.59761V7.98769Z" fill="#3C75C4"/>
</svg>
