<svg width="30" height="30" viewBox="0 0 30 30" fill="none" xmlns="http://www.w3.org/2000/svg">
<circle cx="15" cy="15" r="15" fill="white"/>
<path d="M15 30C23.2843 30 30 23.2843 30 15C30 6.71573 23.2843 0 15 0C6.71573 0 0 6.71573 0 15C0 23.2843 6.71573 30 15 30ZM27.6911 16.1464C27.7095 15.9406 27.8799 15.7788 28.0865 15.7788C28.3111 15.7788 28.4899 15.9685 28.4703 16.1922C27.8658 23.0896 22.0658 28.5 15.0002 28.5C7.93449 28.5 2.13455 23.0896 1.53004 16.1922C1.51043 15.9685 1.68927 15.7788 1.91381 15.7788C2.12046 15.7788 2.29078 15.9406 2.30919 16.1464C2.88968 22.6349 8.34997 27.7212 15.0002 27.7212C21.6503 27.7212 27.1106 22.6349 27.6911 16.1464ZM2.30919 13.8536C2.29078 14.0594 2.12046 14.2212 1.91381 14.2212C1.68927 14.2212 1.51043 14.0315 1.53004 13.8078C2.13455 6.91036 7.93449 1.5 15.0002 1.5C22.0658 1.5 27.8658 6.91036 28.4703 13.8078C28.4899 14.0315 28.3111 14.2212 28.0865 14.2212C27.8799 14.2212 27.7095 14.0594 27.6911 13.8536C27.1106 7.36506 21.6503 2.27885 15.0002 2.27885C8.34997 2.27885 2.88968 7.36506 2.30919 13.8536ZM10.0592 6.04333C10.0592 5.68487 10.3498 5.39429 10.7082 5.39429H20.3319C20.6903 5.39429 20.9809 5.68487 20.9809 6.04333C20.9809 6.40178 20.6903 6.69236 20.3319 6.69236H10.7082C10.3498 6.69236 10.0592 6.40178 10.0592 6.04333ZM14.9998 7.21143V8.51313C15.0969 8.51066 15.195 8.50942 15.2939 8.50942C15.4586 8.50942 15.6206 8.51273 15.7798 8.51937V7.21143H17.08V8.65807C17.6084 8.75262 18.0991 8.89226 18.5521 9.07699C19.4853 9.45538 20.2112 9.98172 20.7297 10.656C21.0711 11.1 21.3036 11.5903 21.4273 12.1268C21.5359 12.5979 21.1346 12.9991 20.6504 12.9991H18.9089C18.4681 12.9991 18.1224 12.6491 17.9042 12.2666C17.7618 12.0172 17.5576 11.8053 17.2914 11.6311C17.2244 11.5872 17.1541 11.5464 17.0807 11.5084V12.4037H17.08V15.0517C17.6786 15.187 18.2348 15.3566 18.7485 15.5605C19.3598 15.803 19.8892 16.1014 20.3367 16.4555C20.7843 16.8096 21.1308 17.2268 21.3764 17.7071C21.6275 18.1873 21.7557 18.7379 21.7612 19.3589C21.7557 20.2709 21.4937 21.0616 20.9753 21.7311C20.4622 22.3957 19.72 22.9123 18.7485 23.281C18.2464 23.4701 17.6905 23.6101 17.0807 23.7009V24.5816H17.08V24.7344C17.08 25.0934 16.7889 25.3845 16.4299 25.3845C16.0708 25.3845 15.7798 25.0934 15.7798 24.7344V23.8173C15.6076 23.8236 15.432 23.8267 15.2529 23.8267C15.168 23.8267 15.0837 23.826 15.0001 23.8245V24.631H14.9998V24.7344C14.9998 25.0934 14.7087 25.3845 14.3497 25.3845C13.9906 25.3845 13.6996 25.0934 13.6996 24.7344V23.7367C12.9764 23.6479 12.3153 23.4936 11.7164 23.2737C10.7176 22.905 9.93717 22.3593 9.37504 21.6365C8.9782 21.1177 8.71588 20.5115 8.58806 19.8178C8.50004 19.34 8.9002 18.9368 9.38677 18.9368H11.1273C11.5797 18.9368 11.9327 19.2982 12.1146 19.7118C12.1912 19.8859 12.2904 20.0447 12.4122 20.1884C12.7015 20.5183 13.0862 20.7681 13.5665 20.9379C13.6104 20.9528 13.6547 20.967 13.6996 20.9805V17.1238L13.5092 17.0813C12.0957 16.7757 10.9796 16.2978 10.1609 15.6478C9.34229 14.9977 8.9357 14.1221 8.94115 13.0209C8.9357 12.1186 9.20585 11.3303 9.75161 10.656C10.3028 9.98172 11.0587 9.45538 12.0193 9.07699C12.5408 8.87156 13.1009 8.7219 13.6996 8.628V7.21143H14.9998ZM12.887 11.9513C13.0809 11.7215 13.3517 11.538 13.6996 11.4008V14.2044C13.5738 14.1481 13.4558 14.0883 13.3455 14.0251C13.0999 13.8796 12.9061 13.7074 12.7642 13.5085C12.6278 13.3096 12.565 13.0767 12.5759 12.8099C12.5759 12.4897 12.6796 12.2035 12.887 11.9513ZM14.9998 12.4037V14.6102C15.075 14.6268 15.1512 14.6428 15.2284 14.6582L15.7798 14.7754V11.1648C15.6173 11.1507 15.4472 11.1436 15.2693 11.1436C15.1773 11.1436 15.0876 11.1454 15.0001 11.1491V12.4037H14.9998ZM14.9998 21.1819V18.8945H15.0001V17.4141L15.3348 17.4888C15.4892 17.5219 15.6375 17.5559 15.7798 17.5908V21.16C15.5991 21.1769 15.4098 21.1853 15.212 21.1853C15.1404 21.1853 15.0696 21.1842 14.9998 21.1819ZM17.08 18.8945V20.8304C17.3834 20.6903 17.6286 20.5151 17.8153 20.3048C18.0609 20.0283 18.1837 19.7106 18.1837 19.3516C18.1837 19.0169 18.0718 18.7355 17.848 18.5075C17.6651 18.3164 17.4093 18.1492 17.0807 18.0058V18.8945H17.08Z" fill="#386A59"/>
</svg>
