<svg width="16" height="16" viewBox="0 0 16 16" fill="none" xmlns="http://www.w3.org/2000/svg">
<path fill-rule="evenodd" clipRule="evenodd" d="M3.50488 1.5C2.40031 1.5 1.50488 2.39543 1.50488 3.5V12.5C1.50488 13.6046 2.40031 14.5 3.50488 14.5H12.5049C13.6095 14.5 14.5049 13.6046 14.5049 12.5V3.5C14.5049 2.39543 13.6095 1.5 12.5049 1.5H3.50488ZM7.50488 9.5C6.40031 9.5 5.50488 8.60457 5.50488 7.5C5.50488 6.39543 6.40031 5.5 7.50488 5.5H11.5049C12.6095 5.5 13.5049 6.39543 13.5049 7.5C13.5049 8.60457 12.6095 9.5 11.5049 9.5H7.50488Z" fill="#22232B"/>
<rect width="2" height="2" rx="1" transform="matrix(1 0 0 -1 10.5049 8.5)" fill="#22232B"/>
</svg>
