<svg width="16" height="16" viewBox="0 0 16 16" fill="none" xmlns="http://www.w3.org/2000/svg">
<path fill-rule="evenodd" clipRule="evenodd" d="M2.50513 1.5C1.95284 1.5 1.50513 1.94772 1.50513 2.5V13.5C1.50513 14.0523 1.95284 14.5 2.50513 14.5H13.5051C14.0574 14.5 14.5051 14.0523 14.5051 13.5V2.5C14.5051 1.94772 14.0574 1.5 13.5051 1.5H2.50513ZM7.50513 9.5C6.40056 9.5 5.50513 8.60457 5.50513 7.5C5.50513 6.39543 6.40056 5.5 7.50513 5.5H11.5051C12.6097 5.5 13.5051 6.39543 13.5051 7.5C13.5051 8.60457 12.6097 9.5 11.5051 9.5H7.50513Z" fill="white"/>
<rect width="2" height="2" rx="1" transform="matrix(1 0 0 -1 10.5051 8.5)" fill="white"/>
</svg>
