<svg width="60" height="60" viewBox="0 0 60 60" fill="none" xmlns="http://www.w3.org/2000/svg">
<g id="Group 34046">
<g id="Group 34043">
<path id="Vector" d="M30.4548 55.4545C15.1416 55.4545 2.72754 43.0405 2.72754 27.7273C2.72754 12.414 15.1416 0 30.4548 0C45.7681 0 58.1821 12.414 58.1821 27.7273C58.1821 43.0405 45.7681 55.4545 30.4548 55.4545ZM33.0542 12.9972C33.0542 11.5614 31.8906 10.3977 30.4548 10.3977C29.0191 10.3977 27.8554 11.5614 27.8554 12.9972V32.0597C27.8554 33.4954 29.0191 34.6591 30.4548 34.6591C31.8906 34.6591 33.0542 33.4954 33.0542 32.0597V12.9972ZM30.4548 39.858C29.0191 39.858 27.8554 41.0216 27.8554 42.4574C27.8554 43.8931 29.0191 45.0568 30.4548 45.0568C31.8906 45.0568 33.0542 43.8931 33.0542 42.4574C33.0542 41.0216 31.8906 39.858 30.4548 39.858Z" fill="#FB504A"/>
</g>
</g>
</svg>
