<svg width="30" height="30" viewBox="0 0 30 30" fill="none" xmlns="http://www.w3.org/2000/svg">
<circle cx="15" cy="15" r="15" fill="white"/>
<circle cx="15" cy="15" r="14.5" stroke="black" stroke-opacity="0.1"/>
<path d="M15.7848 25.4998C15.7848 25.4998 16.4465 25.4998 16.5786 25.4998C16.7106 25.4998 17.8952 25.2895 17.9717 25.2895C18.0482 25.2895 18.1038 25.2895 18.1038 25.2895C18.2358 25.2895 18.3679 25.2895 18.5 25.1657C17.3113 25.1657 16.1226 25.042 14.934 24.7945C13.217 24.4232 11.5 23.8045 10.0472 22.6908C7.80188 20.9583 6.48113 18.2359 6.48113 15.3897C6.48113 13.286 7.27358 11.3061 8.72641 9.69737C10.5755 7.59367 13.217 6.6037 15.8585 6.47995H16.2547V4.5H15.8585C15.066 4.5 14.2736 4.62375 13.4811 4.74749C12.6887 4.87124 11.8962 5.11873 11.1038 5.48997C10.3113 5.86121 9.65094 6.23246 8.99056 6.72744C8.33019 7.22243 7.66981 7.71742 7.14151 8.33615C6.61321 8.95489 6.21698 9.57362 5.82076 10.1924C5.42453 10.8111 5.16038 11.5536 4.89623 12.1723C4.63207 12.9148 4.5 13.5335 4.5 14.276V15.266C4.5 16.0085 4.63207 16.7509 4.76415 17.4934C4.89622 18.2359 5.16038 18.9784 5.5566 19.7209C5.95283 20.5871 6.70428 21.7099 7.80189 22.6908C9.28982 24.0205 10.6118 24.5713 12.4245 25.0516C14.1985 25.5216 15.7848 25.4998 15.7848 25.4998Z" fill="black" fill-opacity="0.4"/>
<path d="M19.6887 23.4333C18.8962 23.4333 18.1038 23.3095 17.3113 23.1858C14.0094 22.567 11.1038 20.7108 10.0472 17.8647C8.72641 14.3997 10.7075 10.5636 14.4057 9.44987C15.066 9.20238 15.8585 9.07863 16.6509 9.07863C17.5755 9.07863 18.5 9.20238 19.4245 9.57362L20.3491 7.71742C20.0849 7.59367 19.8208 7.46992 19.5566 7.46992C18.6321 7.22243 17.7075 7.09868 16.6509 7.09868C15.7264 7.09868 14.6698 7.22243 13.7453 7.59367C12.5566 7.96491 11.5 8.58365 10.5755 9.32613C10.1792 9.69737 9.78302 10.0686 9.38679 10.5636C8.99056 11.0586 8.72642 11.4298 8.46227 11.9248C7.93396 12.9148 7.66981 14.0285 7.53774 15.1422C7.40566 16.256 7.66981 17.4934 8.06604 18.4834C8.46226 19.5971 9.12264 20.5871 10.0472 21.4533C10.8396 22.1958 11.7642 22.8145 12.8208 23.4333C14.0094 24.052 15.4623 24.2995 16.9151 24.547C17.8396 24.6707 19.1604 24.6707 19.9528 24.6707C20.6132 24.4232 20.8774 24.2995 21.2736 24.1758C21.5377 24.052 21.934 23.9283 22.1981 23.6808C22.4623 23.557 22.5943 23.4333 23.1226 23.1858C23.1226 23.1858 23.2547 23.1858 23.2547 23.062C21.4057 23.4333 21.0094 23.4333 19.6887 23.4333Z" fill="black" fill-opacity="0.4"/>
<path d="M23.6509 21.2058C23.1226 21.2058 22.4623 21.3296 21.6698 21.3296C20.217 21.3296 18.5 21.2058 16.9151 20.7108C14.5377 19.9684 12.4245 18.1122 12.4245 15.761C12.4245 13.4098 14.4057 11.5536 16.783 11.5536C18.5 11.5536 19.9528 12.4198 20.6132 13.6573L22.5943 12.791C22.3302 12.2961 21.934 11.8011 21.4057 11.3061C18.8962 8.95489 14.6698 8.95489 12.1604 11.3061C10.9717 12.4198 10.1792 14.0285 10.1792 15.6372C10.1792 16.5034 10.3113 17.3697 10.7075 18.1122C11.1038 18.8546 11.5 19.4734 12.1604 20.0921C13.217 21.2058 14.6698 21.9483 16.1226 22.4433C17.5755 22.9383 19.8208 23.062 21.8019 22.9383C22.3302 22.9383 22.8585 22.8145 23.5189 22.6908C24.1792 22.1958 24.8396 21.5771 25.5 20.8346C25.2358 21.0821 24.3113 21.0821 23.6509 21.2058Z" fill="black" fill-opacity="0.4"/>
</svg>
