<svg width="32" height="32" viewBox="0 0 32 32" fill="none" xmlns="http://www.w3.org/2000/svg">
<circle cx="16" cy="16" r="15" fill="white" stroke="white" stroke-opacity="0.3"/>
<circle cx="16" cy="16" r="15" fill="#080E21"/>
<path d="M21.6219 8C21.5555 8.00013 21.4903 8.01668 21.4329 8.04788C21.4329 8.04788 20.3993 8.60273 19.9606 8.82966C19.601 9.01565 19.5749 9.23951 19.577 9.31515C19.5749 9.39078 19.601 9.61464 19.9606 9.80063C20.3993 10.0276 21.4326 10.5827 21.4326 10.5827C21.49 10.6139 21.5555 10.6301 21.6219 10.6302C21.7222 10.6302 21.8183 10.5929 21.8892 10.5264C21.9601 10.46 22 10.37 21.9999 10.276C21.9999 10.2139 21.9823 10.1528 21.9491 10.099C21.9159 10.0452 21.8681 10.0006 21.8106 9.96955L20.5376 9.31509L21.8109 8.66118C21.8684 8.63015 21.9159 8.58495 21.9491 8.53116C21.9824 8.47736 21.9999 8.41631 22 8.35415C22 8.26023 21.9602 8.17015 21.8893 8.10374C21.8184 8.03732 21.7222 8.00001 21.6219 8ZM11.3001 8.18958C11.1294 8.18957 10.9603 8.22106 10.8026 8.28225C10.6448 8.34344 10.5015 8.43312 10.3808 8.54619C10.2601 8.65925 10.1643 8.79348 10.099 8.94121C10.0336 9.08894 10 9.24727 10 9.40717C9.99999 9.56708 10.0336 9.72542 10.099 9.87316C10.1643 10.0209 10.26 10.1551 10.3808 10.2682C10.5015 10.3813 10.6448 10.471 10.8026 10.5321C10.9603 10.5933 11.1294 10.6248 11.3001 10.6248C11.4708 10.6248 11.6399 10.5933 11.7976 10.5321C11.9553 10.4709 12.0986 10.3812 12.2194 10.2682C12.3401 10.1551 12.4358 10.0209 12.5012 9.87314C12.5665 9.72541 12.6001 9.56707 12.6001 9.40717C12.6001 9.08425 12.4631 8.77455 12.2193 8.54621C11.9755 8.31786 11.6449 8.18958 11.3001 8.18958Z" fill="white"/>
<path d="M11.57 11.6367C11.2204 11.6367 10.8852 11.7654 10.638 11.9944C10.3908 12.2235 10.252 12.5342 10.252 12.8581C10.2523 12.9487 10.2636 13.039 10.2855 13.1272L10.2826 13.1278L12.1519 20.189L12.1555 20.1882C12.2312 20.4469 12.3965 20.6752 12.6261 20.8382C12.8557 21.0011 13.1367 21.0895 13.4259 21.0899C13.7056 21.0896 13.9779 21.0068 14.2034 20.8536C14.429 20.7004 14.5961 20.4847 14.6807 20.2377L14.6823 20.2452L16.0756 16.5604L17.4689 20.2452L17.4706 20.2377C17.5551 20.4847 17.7223 20.7004 17.9478 20.8536C18.1734 21.0068 18.4457 21.0896 18.7254 21.0899C19.0145 21.0895 19.2956 21.0011 19.5252 20.8382C19.7547 20.6752 19.9201 20.4469 19.9958 20.1882L19.9993 20.189L21.8686 13.1278L21.8658 13.1272C21.8877 13.039 21.8989 12.9487 21.8993 12.8581C21.8993 12.5342 21.7605 12.2235 21.5133 11.9944C21.2661 11.7654 20.9309 11.6367 20.5813 11.6367C20.2682 11.6371 19.9655 11.7407 19.7273 11.9291C19.4891 12.1174 19.3311 12.3782 19.2816 12.6647L19.2785 12.6642L18.5043 15.5806L17.3201 12.4458L17.3157 12.4473L17.3133 12.4418C17.3009 12.4108 17.2872 12.3802 17.2722 12.3502C17.2689 12.343 17.2654 12.3358 17.2619 12.3287C17.2465 12.2994 17.2298 12.2706 17.2119 12.2425C17.2076 12.2354 17.2032 12.2283 17.1988 12.2213C17.1805 12.194 17.1611 12.1673 17.1406 12.1414C17.1352 12.1343 17.1298 12.1272 17.1243 12.1202C17.1038 12.0955 17.0824 12.0715 17.0599 12.0483C17.0529 12.0408 17.0458 12.0333 17.0386 12.0258C17.0161 12.0037 16.9927 11.9824 16.9685 11.9619C16.9604 11.9548 16.9523 11.9478 16.9441 11.9409C16.9199 11.9215 16.8949 11.9028 16.8692 11.885C16.8595 11.878 16.8498 11.8711 16.8399 11.8644C16.8149 11.8481 16.7893 11.8326 16.7632 11.818C16.7515 11.8112 16.7398 11.8045 16.7279 11.798C16.7023 11.7847 16.6762 11.7722 16.6497 11.7605C16.6365 11.7543 16.6231 11.7483 16.6097 11.7426C16.5842 11.7323 16.5584 11.7228 16.5323 11.7141C16.5167 11.7085 16.5011 11.7032 16.4854 11.6982C16.4599 11.6907 16.4343 11.6839 16.4084 11.6779C16.3917 11.6736 16.3749 11.6697 16.358 11.666C16.3328 11.6611 16.3075 11.6569 16.282 11.6533C16.2637 11.6504 16.2453 11.6478 16.2269 11.6456C16.2031 11.6433 16.1792 11.6415 16.1552 11.6404C16.1288 11.6385 16.1024 11.6372 16.0759 11.6367C16.0489 11.6372 16.0213 11.6385 15.9943 11.6406C15.9713 11.6417 15.9484 11.6433 15.9255 11.6455C15.9057 11.6479 15.8859 11.6506 15.8662 11.6538C15.8421 11.6572 15.8181 11.6612 15.7943 11.6658C15.7766 11.6696 15.7589 11.6738 15.7414 11.6782C15.716 11.6842 15.6908 11.6908 15.6659 11.6982C15.6501 11.7032 15.6345 11.7085 15.619 11.7141C15.5929 11.7228 15.567 11.7323 15.5416 11.7425C15.5281 11.7483 15.5147 11.7543 15.5015 11.7605C15.475 11.7722 15.449 11.7847 15.4235 11.7979C15.4112 11.8046 15.3991 11.8115 15.3871 11.8186C15.3614 11.833 15.3364 11.8481 15.3118 11.864C15.3015 11.8711 15.2913 11.8783 15.2812 11.8856C15.2558 11.9032 15.2311 11.9217 15.2071 11.9409C15.1989 11.9478 15.1908 11.9548 15.1828 11.9619C15.1586 11.9824 15.1353 12.0037 15.1128 12.0258C15.1054 12.0334 15.098 12.0411 15.0908 12.0489C15.0687 12.0718 15.0475 12.0955 15.0272 12.1199C15.0214 12.1272 15.0157 12.1346 15.0101 12.1421C14.9898 12.1678 14.9706 12.1942 14.9525 12.2212C14.948 12.2284 14.9435 12.2357 14.9391 12.243C14.9213 12.2708 14.9048 12.2993 14.8895 12.3284C14.8859 12.3358 14.8822 12.3433 14.8787 12.3507C14.8638 12.3805 14.8503 12.4109 14.838 12.4418L14.8356 12.4473L14.8311 12.4458L13.6469 15.5806L12.8727 12.6642L12.8697 12.6647C12.8201 12.3782 12.6621 12.1174 12.4239 11.9291C12.1858 11.7407 11.8831 11.6371 11.57 11.6367Z" fill="#FBC509"/>
<path d="M11.084 22.248C11.084 22.0096 11.2793 21.8164 11.5202 21.8164C11.6122 21.8166 11.7018 21.8455 11.7761 21.8991L11.8142 21.923C11.8142 21.923 13.7092 23.18 16.0757 23.1416C18.4422 23.18 20.3372 21.923 20.3372 21.923L20.3753 21.8991C20.4496 21.8455 20.5392 21.8166 20.6312 21.8164C20.8721 21.8164 21.0674 22.0096 21.0674 22.248C21.0673 22.4125 20.9727 22.5627 20.8234 22.6352C18.2966 24.1304 16.0757 23.9947 16.0757 23.9947C16.0757 23.9947 13.8548 24.1304 11.328 22.6352C11.1787 22.5627 11.0841 22.4125 11.084 22.248Z" fill="white"/>
</svg>
