<svg width="60" height="60" viewBox="0 0 60 60" fill="none" xmlns="http://www.w3.org/2000/svg">
<g id="Group 34046">
<g id="Group 34043">
<path id="Vector" d="M30.4546 55.4545C15.1413 55.4545 2.72729 43.0405 2.72729 27.7273C2.72729 12.414 15.1413 0 30.4546 0C45.7678 0 58.1818 12.414 58.1818 27.7273C58.1818 43.0405 45.7678 55.4545 30.4546 55.4545ZM33.054 12.9972C33.054 11.5614 31.8903 10.3977 30.4546 10.3977C29.0188 10.3977 27.8551 11.5614 27.8551 12.9972V32.0597C27.8551 33.4954 29.0188 34.6591 30.4546 34.6591C31.8903 34.6591 33.054 33.4954 33.054 32.0597V12.9972ZM30.4546 39.858C29.0188 39.858 27.8551 41.0216 27.8551 42.4574C27.8551 43.8931 29.0188 45.0568 30.4546 45.0568C31.8903 45.0568 33.054 43.8931 33.054 42.4574C33.054 41.0216 31.8903 39.858 30.4546 39.858Z" fill="#FB504A"/>
</g>
</g>
</svg>
