<svg width="30" height="30" viewBox="0 0 30 30" fill="none" xmlns="http://www.w3.org/2000/svg">
<path d="M13.8429 0.668039C14.5589 0.254655 15.4411 0.254655 16.1571 0.668039L26.8333 6.83196C27.5493 7.24534 27.9904 8.00931 27.9904 8.83608V21.1639C27.9904 21.9907 27.5493 22.7547 26.8333 23.168L16.1571 29.332C15.4411 29.7453 14.5589 29.7453 13.8429 29.332L3.1667 23.168C2.45069 22.7547 2.00962 21.9907 2.00962 21.1639V8.83608C2.00962 8.00931 2.45069 7.24534 3.1667 6.83196L13.8429 0.668039Z" fill="#37AA6B"/>
<mask id="mask0_594_20937" style="mask-type:alpha" maskUnits="userSpaceOnUse" x="2" y="0" width="26" height="30">
<path d="M13.8429 0.668039C14.5589 0.254655 15.4411 0.254655 16.1571 0.668039L26.8333 6.83196C27.5493 7.24534 27.9904 8.00931 27.9904 8.83608V21.1639C27.9904 21.9907 27.5493 22.7547 26.8333 23.168L16.1571 29.332C15.4411 29.7453 14.5589 29.7453 13.8429 29.332L3.1667 23.168C2.45069 22.7547 2.00962 21.9907 2.00962 21.1639V8.83608C2.00962 8.00931 2.45069 7.24534 3.1667 6.83196L13.8429 0.668039Z" fill="#68E29F"/>
</mask>
<g mask="url(#mask0_594_20937)">
<path fill-rule="evenodd" clipRule="evenodd" d="M28.4211 23.201L15.0673 16.9271L1.79932 23.1608L15.1453 30.8193L28.4211 23.201Z" fill="#1F804A"/>
</g>
<mask id="path-4-outside-1_594_20937" maskUnits="userSpaceOnUse" x="5.3042" y="12.4387" width="19" height="9" fill="black">
<rect fill="white" x="5.3042" y="12.4387" width="19" height="9"/>
<path fill-rule="evenodd" clipRule="evenodd" d="M15.0772 13.4387V13.9989L14.896 13.999C12.8064 13.9994 10.9199 14.1679 9.56029 14.438C8.87898 14.5733 8.33937 14.7324 7.97445 14.9037C7.79151 14.9896 7.6622 15.0741 7.58116 15.1528C7.50036 15.2312 7.48191 15.2889 7.48191 15.3266C7.48191 15.3643 7.50036 15.422 7.58116 15.5004C7.6622 15.5791 7.79151 15.6636 7.97445 15.7495C8.33937 15.9208 8.87898 16.0799 9.56029 16.2152C10.9199 16.4853 12.8064 16.6538 14.896 16.6542L14.9228 16.6542V16.6513L15.1041 16.6513C17.4361 16.6518 19.5525 16.862 21.0908 17.2041C21.8584 17.3748 22.492 17.5806 22.938 17.8151C23.1609 17.9322 23.3458 18.0611 23.477 18.2038C23.6092 18.3474 23.6958 18.5152 23.6958 18.7033C23.6958 18.8915 23.6092 19.0593 23.477 19.2029C23.3458 19.3456 23.1609 19.4745 22.938 19.5916C22.492 19.8261 21.8584 20.0319 21.0908 20.2026C19.5525 20.5447 17.4361 20.7549 15.1041 20.7554L14.9228 20.7554V20.1952L15.104 20.1951C17.1936 20.1947 19.0801 20.0262 20.4397 19.7562C21.121 19.6208 21.6606 19.4618 22.0255 19.2904C22.2085 19.2045 22.3378 19.12 22.4188 19.0413C22.4996 18.9629 22.5181 18.9052 22.5181 18.8675C22.5181 18.8298 22.4996 18.7721 22.4188 18.6937C22.3378 18.6151 22.2085 18.5305 22.0255 18.4446C21.6606 18.2733 21.121 18.1142 20.4397 17.9789C19.0801 17.7088 17.1936 17.5403 15.104 17.5399L15.0772 17.5399V17.5429L14.8959 17.5428C12.5639 17.5424 10.4475 17.3321 8.90923 16.99C8.14157 16.8193 7.50802 16.6136 7.06196 16.3791C6.83912 16.2619 6.65421 16.133 6.52293 15.9904C6.39076 15.8467 6.3042 15.6789 6.3042 15.4908C6.3042 15.3026 6.39076 15.1348 6.52293 14.9912C6.65421 14.8485 6.83912 14.7196 7.06196 14.6025C7.50802 14.368 8.14157 14.1623 8.90923 13.9915C10.4475 13.6494 12.5639 13.4392 14.8959 13.4387L15.0772 13.4387ZM14.7146 17.3611C10.3813 17.3399 6.8553 16.591 6.51278 15.6425C6.86023 16.6041 10.4801 17.3606 14.8959 17.3614V16.8355H14.8959V17.3615C14.8353 17.3615 14.7749 17.3614 14.7146 17.3611ZM14.8959 13.62H14.8959V13.8177C10.7004 13.8185 7.30062 14.4938 7.30062 15.3266C7.30062 15.3632 7.30718 15.3995 7.32008 15.4354C7.30716 15.3994 7.30059 15.3631 7.30059 15.3265C7.30059 14.4937 10.7004 13.8184 14.8959 13.8176V13.62ZM15.1041 17.3586V16.8326H15.1041V17.3586C19.2995 17.3594 22.6994 18.0347 22.6994 18.8675C22.6994 18.895 22.6957 18.9222 22.6884 18.9493C22.6957 18.9222 22.6994 18.8949 22.6994 18.8675C22.6994 18.0346 19.2996 17.3594 15.1041 17.3586ZM15.2854 20.5736C19.3659 20.5537 22.7306 19.8884 23.3952 19.0189C22.7207 19.9013 19.2659 20.5732 15.1041 20.5741V20.3764H15.1041V20.5741C15.1646 20.5741 15.2251 20.5739 15.2854 20.5736Z"/>
</mask>
<path fill-rule="evenodd" clipRule="evenodd" d="M15.0772 13.4387V13.9989L14.896 13.999C12.8064 13.9994 10.9199 14.1679 9.56029 14.438C8.87898 14.5733 8.33937 14.7324 7.97445 14.9037C7.79151 14.9896 7.6622 15.0741 7.58116 15.1528C7.50036 15.2312 7.48191 15.2889 7.48191 15.3266C7.48191 15.3643 7.50036 15.422 7.58116 15.5004C7.6622 15.5791 7.79151 15.6636 7.97445 15.7495C8.33937 15.9208 8.87898 16.0799 9.56029 16.2152C10.9199 16.4853 12.8064 16.6538 14.896 16.6542L14.9228 16.6542V16.6513L15.1041 16.6513C17.4361 16.6518 19.5525 16.862 21.0908 17.2041C21.8584 17.3748 22.492 17.5806 22.938 17.8151C23.1609 17.9322 23.3458 18.0611 23.477 18.2038C23.6092 18.3474 23.6958 18.5152 23.6958 18.7033C23.6958 18.8915 23.6092 19.0593 23.477 19.2029C23.3458 19.3456 23.1609 19.4745 22.938 19.5916C22.492 19.8261 21.8584 20.0319 21.0908 20.2026C19.5525 20.5447 17.4361 20.7549 15.1041 20.7554L14.9228 20.7554V20.1952L15.104 20.1951C17.1936 20.1947 19.0801 20.0262 20.4397 19.7562C21.121 19.6208 21.6606 19.4618 22.0255 19.2904C22.2085 19.2045 22.3378 19.12 22.4188 19.0413C22.4996 18.9629 22.5181 18.9052 22.5181 18.8675C22.5181 18.8298 22.4996 18.7721 22.4188 18.6937C22.3378 18.6151 22.2085 18.5305 22.0255 18.4446C21.6606 18.2733 21.121 18.1142 20.4397 17.9789C19.0801 17.7088 17.1936 17.5403 15.104 17.5399L15.0772 17.5399V17.5429L14.8959 17.5428C12.5639 17.5424 10.4475 17.3321 8.90923 16.99C8.14157 16.8193 7.50802 16.6136 7.06196 16.3791C6.83912 16.2619 6.65421 16.133 6.52293 15.9904C6.39076 15.8467 6.3042 15.6789 6.3042 15.4908C6.3042 15.3026 6.39076 15.1348 6.52293 14.9912C6.65421 14.8485 6.83912 14.7196 7.06196 14.6025C7.50802 14.368 8.14157 14.1623 8.90923 13.9915C10.4475 13.6494 12.5639 13.4392 14.8959 13.4387L15.0772 13.4387ZM14.7146 17.3611C10.3813 17.3399 6.8553 16.591 6.51278 15.6425C6.86023 16.6041 10.4801 17.3606 14.8959 17.3614V16.8355H14.8959V17.3615C14.8353 17.3615 14.7749 17.3614 14.7146 17.3611ZM14.8959 13.62H14.8959V13.8177C10.7004 13.8185 7.30062 14.4938 7.30062 15.3266C7.30062 15.3632 7.30718 15.3995 7.32008 15.4354C7.30716 15.3994 7.30059 15.3631 7.30059 15.3265C7.30059 14.4937 10.7004 13.8184 14.8959 13.8176V13.62ZM15.1041 17.3586V16.8326H15.1041V17.3586C19.2995 17.3594 22.6994 18.0347 22.6994 18.8675C22.6994 18.895 22.6957 18.9222 22.6884 18.9493C22.6957 18.9222 22.6994 18.8949 22.6994 18.8675C22.6994 18.0346 19.2996 17.3594 15.1041 17.3586ZM15.2854 20.5736C19.3659 20.5537 22.7306 19.8884 23.3952 19.0189C22.7207 19.9013 19.2659 20.5732 15.1041 20.5741V20.3764H15.1041V20.5741C15.1646 20.5741 15.2251 20.5739 15.2854 20.5736Z" fill="white"/>
<path d="M15.0772 13.9989L15.0773 14.2112L15.2895 14.2112V13.9989H15.0772ZM15.0772 13.4387H15.2895V13.2263L15.0772 13.2264L15.0772 13.4387ZM14.896 13.999L14.896 14.2113L14.896 13.999ZM9.56029 14.438L9.60165 14.6462L9.56029 14.438ZM7.97445 14.9037L8.06468 15.0959L7.97445 14.9037ZM7.58116 15.1528L7.72902 15.3051L7.72902 15.3051L7.58116 15.1528ZM7.58116 15.5004L7.4333 15.6528L7.4333 15.6528L7.58116 15.5004ZM7.97445 15.7495L7.88421 15.9417H7.88421L7.97445 15.7495ZM9.56029 16.2152L9.60165 16.007L9.56029 16.2152ZM14.896 16.6542L14.8959 16.8665L14.896 16.6542ZM14.9228 16.6542L14.9227 16.8665L15.1351 16.8666V16.6542H14.9228ZM14.9228 16.6513L14.9228 16.4389L14.7105 16.4389V16.6513H14.9228ZM15.1041 16.6513L15.1041 16.8636L15.1041 16.6513ZM21.0908 17.2041L21.1369 16.9969L21.0908 17.2041ZM22.938 17.8151L23.0368 17.6271V17.6271L22.938 17.8151ZM23.477 18.2038L23.3208 18.3475L23.477 18.2038ZM23.477 19.2029L23.3208 19.0592V19.0592L23.477 19.2029ZM22.938 19.5916L23.0368 19.7796V19.7796L22.938 19.5916ZM21.0908 20.2026L21.0447 19.9953L21.0908 20.2026ZM15.1041 20.7554L15.1041 20.5431L15.1041 20.7554ZM14.9228 20.7554H14.7105V20.9678L14.9228 20.9677L14.9228 20.7554ZM14.9228 20.1952L14.9227 19.9829L14.7105 19.9829V20.1952H14.9228ZM15.104 20.1951L15.1041 20.4074L15.104 20.1951ZM20.4397 19.7562L20.3983 19.5479L20.4397 19.7562ZM22.0255 19.2904L21.9353 19.0982L22.0255 19.2904ZM22.4188 19.0413L22.271 18.889L22.271 18.889L22.4188 19.0413ZM22.4188 18.6937L22.271 18.8461L22.271 18.8461L22.4188 18.6937ZM22.0255 18.4446L21.9353 18.6368L22.0255 18.4446ZM20.4397 17.9789L20.3983 18.1871L20.4397 17.9789ZM15.104 17.5399L15.1041 17.3276L15.104 17.5399ZM15.0772 17.5399L15.0773 17.3276L14.8649 17.3275V17.5399H15.0772ZM15.0772 17.5429L15.0772 17.7552L15.2895 17.7552V17.5429H15.0772ZM14.8959 17.5428L14.8959 17.3305L14.8959 17.5428ZM8.90923 16.99L8.86313 17.1973L8.90923 16.99ZM7.06196 16.3791L6.96317 16.567H6.96317L7.06196 16.3791ZM6.52293 15.9904L6.36671 16.1341H6.36671L6.52293 15.9904ZM6.52293 14.9912L6.67916 15.1349L6.67916 15.1349L6.52293 14.9912ZM7.06196 14.6025L6.96317 14.4146V14.4146L7.06196 14.6025ZM8.90923 13.9915L8.95532 14.1988L8.90923 13.9915ZM14.8959 13.4387L14.8958 13.2264L14.8959 13.4387ZM6.51278 15.6425L6.71245 15.5703L6.31309 15.7146L6.51278 15.6425ZM14.7146 17.3611L14.7136 17.5734L14.7146 17.3611ZM14.8959 17.3614L14.8959 17.5738L15.1082 17.5738V17.3614H14.8959ZM14.8959 16.8355V16.6232H14.6836V16.8355H14.8959ZM14.8959 16.8355H15.1082V16.6232H14.8959V16.8355ZM14.8959 17.3615L14.8959 17.5738L15.1082 17.5739V17.3615H14.8959ZM14.8959 13.62H15.1082V13.4077H14.8959V13.62ZM14.8959 13.62V13.4077H14.6836V13.62H14.8959ZM14.8959 13.8177L14.896 14.03L15.1082 14.0299V13.8177H14.8959ZM7.32008 15.4354L7.12027 15.5072L7.5199 15.3637L7.32008 15.4354ZM14.8959 13.8176L14.8959 14.0299L15.1082 14.0299V13.8176H14.8959ZM15.1041 16.8326H15.3164V16.6203H15.1041V16.8326ZM15.1041 17.3586H14.8918V17.5708L15.104 17.5709L15.1041 17.3586ZM15.1041 16.8326V16.6203H14.8917V16.8326H15.1041ZM15.1041 17.3586H14.8917V17.5709L15.104 17.5709L15.1041 17.3586ZM22.6884 18.9493L22.4834 18.8941L22.8934 19.0045L22.6884 18.9493ZM23.3952 19.0189L23.5639 19.1478L23.2266 18.89L23.3952 19.0189ZM15.2854 20.5736L15.2843 20.3613H15.2843L15.2854 20.5736ZM15.1041 20.5741H14.8918V20.7864L15.1041 20.7864L15.1041 20.5741ZM15.1041 20.3764H15.3164V20.1641H15.1041V20.3764ZM15.1041 20.3764V20.1641H14.8917V20.3764H15.1041ZM15.1041 20.5741H14.8917V20.7865L15.1041 20.7864L15.1041 20.5741ZM15.2895 13.9989V13.4387H14.8649V13.9989H15.2895ZM14.896 14.2113L15.0773 14.2112L15.0772 13.7866L14.8959 13.7867L14.896 14.2113ZM9.60165 14.6462C10.944 14.3795 12.8159 14.2117 14.896 14.2113L14.8959 13.7867C12.7968 13.7871 10.8958 13.9562 9.51892 14.2297L9.60165 14.6462ZM8.06468 15.0959C8.40692 14.9352 8.92724 14.7802 9.60165 14.6462L9.51892 14.2297C8.83073 14.3664 8.27182 14.5295 7.88421 14.7115L8.06468 15.0959ZM7.72902 15.3051C7.78649 15.2494 7.8925 15.1767 8.06468 15.0959L7.88421 14.7115C7.69052 14.8025 7.53791 14.8989 7.4333 15.0004L7.72902 15.3051ZM7.69422 15.3266C7.69422 15.3442 7.68953 15.3531 7.6905 15.3512C7.69214 15.3479 7.70102 15.3323 7.72902 15.3051L7.4333 15.0004C7.32803 15.1026 7.2696 15.2118 7.2696 15.3266H7.69422ZM7.72902 15.3481C7.70102 15.3209 7.69214 15.3053 7.6905 15.302C7.68953 15.3001 7.69422 15.309 7.69422 15.3266H7.2696C7.2696 15.4414 7.32803 15.5506 7.4333 15.6528L7.72902 15.3481ZM8.06468 15.5573C7.8925 15.4765 7.78649 15.4038 7.72902 15.3481L7.4333 15.6528C7.53791 15.7543 7.69052 15.8507 7.88421 15.9417L8.06468 15.5573ZM9.60165 16.007C8.92724 15.873 8.40692 15.718 8.06468 15.5573L7.88421 15.9417C8.27182 16.1237 8.83073 16.2868 9.51892 16.4235L9.60165 16.007ZM14.896 16.4419C12.8159 16.4415 10.944 16.2736 9.60165 16.007L9.51892 16.4235C10.8958 16.697 12.7968 16.8661 14.8959 16.8665L14.896 16.4419ZM14.9228 16.4419L14.896 16.4419L14.8959 16.8665L14.9227 16.8665L14.9228 16.4419ZM14.7105 16.6513V16.6542H15.1351V16.6513H14.7105ZM15.1041 16.439L14.9228 16.4389L14.9227 16.8636L15.1041 16.8636L15.1041 16.439ZM21.1369 16.9969C19.5794 16.6505 17.4468 16.4394 15.1041 16.439L15.1041 16.8636C17.4253 16.8641 19.5256 17.0735 21.0447 17.4114L21.1369 16.9969ZM23.0368 17.6271C22.5667 17.38 21.9124 17.1693 21.1369 16.9969L21.0447 17.4114C21.8045 17.5803 22.4172 17.7811 22.8392 18.003L23.0368 17.6271ZM23.6333 18.06C23.4794 17.8928 23.2715 17.7505 23.0368 17.6271L22.8392 18.003C23.0503 18.1139 23.2121 18.2294 23.3208 18.3475L23.6333 18.06ZM23.9081 18.7033C23.9081 18.4459 23.7889 18.2291 23.6333 18.06L23.3208 18.3475C23.4295 18.4656 23.4835 18.5845 23.4835 18.7033H23.9081ZM23.6333 19.3467C23.7889 19.1776 23.9081 18.9608 23.9081 18.7033H23.4835C23.4835 18.8222 23.4295 18.9411 23.3208 19.0592L23.6333 19.3467ZM23.0368 19.7796C23.2715 19.6562 23.4794 19.5139 23.6333 19.3467L23.3208 19.0592C23.2121 19.1773 23.0503 19.2928 22.8392 19.4037L23.0368 19.7796ZM21.1369 20.4098C21.9124 20.2373 22.5667 20.0267 23.0368 19.7796L22.8392 19.4037C22.4172 19.6256 21.8045 19.8264 21.0447 19.9953L21.1369 20.4098ZM15.1041 20.9677C17.4468 20.9673 19.5794 20.7562 21.1369 20.4098L21.0447 19.9953C19.5256 20.3332 17.4253 20.5426 15.1041 20.5431L15.1041 20.9677ZM14.9228 20.9677L15.1041 20.9677L15.1041 20.5431L14.9227 20.5431L14.9228 20.9677ZM14.7105 20.1952V20.7554H15.1351V20.1952H14.7105ZM15.104 19.9828L14.9227 19.9829L14.9228 20.4075L15.1041 20.4074L15.104 19.9828ZM20.3983 19.5479C19.056 19.8146 17.1841 19.9824 15.104 19.9828L15.1041 20.4074C17.2032 20.407 19.1041 20.2379 20.4811 19.9644L20.3983 19.5479ZM21.9353 19.0982C21.5931 19.2589 21.0727 19.4139 20.3983 19.5479L20.4811 19.9644C21.1693 19.8277 21.7282 19.6646 22.1158 19.4826L21.9353 19.0982ZM22.271 18.889C22.2135 18.9447 22.1075 19.0174 21.9353 19.0982L22.1158 19.4826C22.3095 19.3917 22.4621 19.2952 22.5667 19.1937L22.271 18.889ZM22.3058 18.8675C22.3058 18.85 22.3105 18.841 22.3095 18.843C22.3078 18.8462 22.299 18.8618 22.271 18.889L22.5667 19.1937C22.672 19.0915 22.7304 18.9824 22.7304 18.8675H22.3058ZM22.271 18.8461C22.299 18.8732 22.3078 18.8889 22.3095 18.8921C22.3105 18.894 22.3058 18.8851 22.3058 18.8675H22.7304C22.7304 18.7527 22.672 18.6435 22.5667 18.5413L22.271 18.8461ZM21.9353 18.6368C22.1075 18.7176 22.2135 18.7903 22.271 18.8461L22.5667 18.5413C22.4621 18.4398 22.3095 18.3434 22.1158 18.2524L21.9353 18.6368ZM20.3983 18.1871C21.0727 18.3211 21.5931 18.4761 21.9353 18.6368L22.1158 18.2524C21.7282 18.0704 21.1693 17.9073 20.4811 17.7706L20.3983 18.1871ZM15.104 17.7522C17.1841 17.7526 19.056 17.9205 20.3983 18.1871L20.4811 17.7706C19.1041 17.4971 17.2032 17.328 15.1041 17.3276L15.104 17.7522ZM15.0772 17.7522L15.104 17.7522L15.1041 17.3276L15.0773 17.3276L15.0772 17.7522ZM15.2895 17.5429V17.5399H14.8649V17.5429H15.2895ZM14.8958 17.7551L15.0772 17.7552L15.0773 17.3305L14.8959 17.3305L14.8958 17.7551ZM8.86313 17.1973C10.4205 17.5437 12.5531 17.7547 14.8958 17.7551L14.8959 17.3305C12.5747 17.3301 10.4744 17.1206 8.95532 16.7828L8.86313 17.1973ZM6.96317 16.567C7.43324 16.8141 8.08761 17.0248 8.86313 17.1973L8.95532 16.7828C8.19553 16.6138 7.58279 16.413 7.16076 16.1911L6.96317 16.567ZM6.36671 16.1341C6.52054 16.3013 6.72852 16.4436 6.96317 16.567L7.16076 16.1911C6.94973 16.0802 6.78788 15.9647 6.67916 15.8466L6.36671 16.1341ZM6.09189 15.4908C6.09189 15.7482 6.21106 15.965 6.36671 16.1341L6.67916 15.8466C6.57045 15.7285 6.51651 15.6096 6.51651 15.4908H6.09189ZM6.36671 14.8474C6.21106 15.0165 6.09189 15.2333 6.09189 15.4908H6.51651C6.51651 15.3719 6.57045 15.2531 6.67916 15.1349L6.36671 14.8474ZM6.96317 14.4146C6.72852 14.5379 6.52054 14.6802 6.36671 14.8474L6.67916 15.1349C6.78788 15.0168 6.94973 14.9013 7.16076 14.7904L6.96317 14.4146ZM8.86313 13.7843C8.08761 13.9568 7.43324 14.1674 6.96317 14.4146L7.16076 14.7904C7.58279 14.5685 8.19553 14.3678 8.95532 14.1988L8.86313 13.7843ZM14.8958 13.2264C12.5531 13.2269 10.4205 13.4379 8.86313 13.7843L8.95532 14.1988C10.4744 13.8609 12.5747 13.6515 14.8959 13.651L14.8958 13.2264ZM15.0772 13.2264L14.8958 13.2264L14.8959 13.651L15.0773 13.651L15.0772 13.2264ZM6.31309 15.7146C6.37378 15.8826 6.49752 16.0277 6.65233 16.1529C6.80834 16.279 7.00808 16.3948 7.24124 16.5013C7.70753 16.7143 8.33263 16.9014 9.07345 17.0573C10.5569 17.3694 12.5366 17.5627 14.7136 17.5734L14.7157 17.1488C12.5593 17.1382 10.6094 16.9465 9.16088 16.6417C8.43571 16.4892 7.84425 16.3099 7.41766 16.1151C7.20438 16.0176 7.0386 15.9191 6.91929 15.8227C6.79878 15.7252 6.73741 15.6394 6.71246 15.5704L6.31309 15.7146ZM14.8959 17.1491C12.6985 17.1487 10.7045 16.9601 9.22161 16.6543C8.47922 16.5012 7.87294 16.3203 7.43553 16.1231C7.21681 16.0245 7.0467 15.9246 6.92428 15.8266C6.80058 15.7276 6.73778 15.6404 6.71245 15.5703L6.3131 15.7146C6.37464 15.8849 6.50096 16.0317 6.65898 16.1582C6.81828 16.2856 7.02247 16.4026 7.26099 16.5102C7.73802 16.7253 8.37785 16.9139 9.13584 17.0702C10.6537 17.3832 12.6775 17.5733 14.8959 17.5738L14.8959 17.1491ZM14.6836 16.8355V17.3614H15.1082V16.8355H14.6836ZM14.8959 16.6232H14.8959V17.0478H14.8959V16.6232ZM15.1082 17.3615V16.8355H14.6836V17.3615H15.1082ZM14.7136 17.5734C14.7742 17.5737 14.835 17.5738 14.8959 17.5738L14.896 17.1492C14.8357 17.1492 14.7756 17.149 14.7157 17.1488L14.7136 17.5734ZM14.8959 13.4077H14.8959V13.8323H14.8959V13.4077ZM15.1082 13.8177V13.62H14.6836V13.8177H15.1082ZM7.51293 15.3266C7.51293 15.3003 7.52544 15.2501 7.60276 15.175C7.68036 15.0997 7.80626 15.0169 7.98763 14.9318C8.34924 14.762 8.88603 14.6035 9.56633 14.4684C10.9234 14.1988 12.8078 14.0304 14.896 14.03L14.8959 13.6054C12.7886 13.6058 10.8753 13.7754 9.4836 14.0519C8.7895 14.1898 8.21413 14.3563 7.80716 14.5474C7.60424 14.6427 7.43176 14.7493 7.30704 14.8703C7.18204 14.9916 7.08831 15.1447 7.08831 15.3266H7.51293ZM7.5199 15.3637C7.51476 15.3493 7.51293 15.3373 7.51293 15.3266H7.08831C7.08831 15.3891 7.0996 15.4496 7.12026 15.5071L7.5199 15.3637ZM7.08828 15.3265C7.08828 15.3891 7.09959 15.4496 7.12027 15.5072L7.51989 15.3636C7.51473 15.3493 7.5129 15.3372 7.5129 15.3265H7.08828ZM14.8959 13.6053C12.7886 13.6057 10.8753 13.7754 9.48357 14.0518C8.78948 14.1897 8.2141 14.3562 7.80713 14.5473C7.60421 14.6426 7.43173 14.7492 7.30701 14.8702C7.18201 14.9916 7.08828 15.1446 7.08828 15.3265H7.5129C7.5129 15.3002 7.52542 15.25 7.60273 15.175C7.68033 15.0997 7.80624 15.0168 7.9876 14.9317C8.34921 14.7619 8.886 14.6034 9.5663 14.4683C10.9234 14.1987 12.8077 14.0303 14.8959 14.0299L14.8959 13.6053ZM14.6836 13.62V13.8176H15.1082V13.62H14.6836ZM14.8918 16.8326V17.3586H15.3164V16.8326H14.8918ZM15.1041 17.0449H15.1041V16.6203H15.1041V17.0449ZM15.3164 17.3586V16.8326H14.8917V17.3586H15.3164ZM22.9117 18.8675C22.9117 18.6856 22.8179 18.5326 22.6929 18.4112C22.5682 18.2902 22.3957 18.1836 22.1928 18.0883C21.7859 17.8972 21.2105 17.7307 20.5164 17.5928C19.1247 17.3164 17.2114 17.1467 15.1041 17.1463L15.104 17.5709C17.1922 17.5713 19.0766 17.7397 20.4337 18.0093C21.114 18.1444 21.6507 18.3029 22.0124 18.4727C22.1937 18.5579 22.3196 18.6407 22.3972 18.716C22.4745 18.791 22.4871 18.8412 22.4871 18.8675H22.9117ZM22.8934 19.0045C22.9054 18.9599 22.9117 18.9141 22.9117 18.8675H22.4871C22.4871 18.8758 22.486 18.8845 22.4834 18.8941L22.8934 19.0045ZM22.4871 18.8675C22.4871 18.8756 22.486 18.8844 22.4834 18.8941L22.8934 19.0045C22.9054 18.96 22.9117 18.9142 22.9117 18.8675H22.4871ZM15.104 17.5709C17.1923 17.5713 19.0766 17.7397 20.4337 18.0092C21.114 18.1444 21.6508 18.3029 22.0124 18.4726C22.1937 18.5578 22.3197 18.6406 22.3973 18.7159C22.4746 18.7909 22.4871 18.8411 22.4871 18.8675H22.9117C22.9117 18.6856 22.818 18.5325 22.693 18.4112C22.5683 18.2902 22.3958 18.1836 22.1929 18.0883C21.7859 17.8972 21.2105 17.7306 20.5164 17.5928C19.1247 17.3163 17.2114 17.1467 15.1041 17.1462L15.104 17.5709ZM23.2266 18.89C23.0975 19.0588 22.8094 19.2461 22.3441 19.4281C21.8875 19.6068 21.2906 19.7691 20.5809 19.9064C19.1624 20.1809 17.3146 20.3514 15.2843 20.3613L15.2864 20.786C17.3366 20.7759 19.2115 20.6039 20.6616 20.3233C21.3862 20.1831 22.0101 20.0148 22.4989 19.8236C22.979 19.6357 23.3607 19.4137 23.5639 19.1478L23.2266 18.89ZM15.1041 20.7864C17.1952 20.786 19.1129 20.617 20.5969 20.3357C21.3385 20.195 21.9771 20.0254 22.477 19.832C22.9679 19.6422 23.3578 19.4175 23.5639 19.1478L23.2266 18.89C23.0954 19.0615 22.8005 19.2517 22.3238 19.436C21.8561 19.6169 21.2445 19.7807 20.5178 19.9185C19.0653 20.1939 17.1748 20.3613 15.104 20.3617L15.1041 20.7864ZM14.8918 20.3764V20.5741H15.3164V20.3764H14.8918ZM15.1041 20.5887H15.1041V20.1641H15.1041V20.5887ZM15.3164 20.5741V20.3764H14.8917V20.5741H15.3164ZM15.2843 20.3613C15.2244 20.3616 15.1643 20.3618 15.104 20.3618L15.1041 20.7864C15.165 20.7864 15.2258 20.7863 15.2864 20.786L15.2843 20.3613Z" fill="white" mask="url(#path-4-outside-1_594_20937)"/>
<path fill-rule="evenodd" clipRule="evenodd" d="M21.3283 8.21231V11.3533H16.5976V15.6484C16.4578 15.6669 15.9406 15.6993 14.9379 15.6993C14.0656 15.6993 13.4241 15.6638 13.2082 15.6459L13.2082 11.3533H8.47607V8.21231H21.3283ZM15.1145 16.5837C15.0519 16.584 14.9871 16.5841 14.9201 16.5841C14.0478 16.5841 13.424 16.5664 13.2082 16.5486L13.2082 23.6885H16.5976L16.5976 16.6211C16.1169 16.5992 15.6212 16.5865 15.1145 16.5837Z" fill="white"/>
</svg>
